<?xml version="1.0" standalone="no"?>
<!DOCTYPE svg PUBLIC "-//W3C//DTD SVG 1.1//EN" "http://www.w3.org/Graphics/SVG/1.1/DTD/svg11.dtd" >
<svg xmlns="http://www.w3.org/2000/svg" xmlns:xlink="http://www.w3.org/1999/xlink" version="1.1">
<metadata></metadata>
<defs>
<font id="lama_sanssemibold" horiz-adv-x="1454" >
<font-face units-per-em="2048" ascent="1638" descent="-410" />
<missing-glyph horiz-adv-x="448" />
<glyph horiz-adv-x="0" />
<glyph horiz-adv-x="682" />
<glyph unicode="&#xd;" horiz-adv-x="473" />
<glyph unicode=" "  horiz-adv-x="448" />
<glyph unicode="&#x09;" horiz-adv-x="448" />
<glyph unicode="&#xa0;" horiz-adv-x="448" />
<glyph unicode="!" horiz-adv-x="616" d="M172 119q-7 64 25.5 104.5t95.5 48.5q64 6 104.5 -25t46.5 -95q8 -64 -24 -105.5t-96 -48.5q-62 -6 -104 27t-48 94zM186 1434h244l-18 -975h-207z" />
<glyph unicode="&#x22;" horiz-adv-x="845" d="M104 1460h238l-31 -569h-176zM504 1460h237l-30 -569h-176z" />
<glyph unicode="#" horiz-adv-x="1478" d="M98 401v166h254l62 301h-230v166h260l74 369h189l-74 -369h338l73 369h187l-72 -369h221v-166h-254l-59 -301h227v-166h-260l-73 -370h-187l72 370h-338l-72 -370h-188l74 370h-224zM541 567h338l59 301h-338z" />
<glyph unicode="$" horiz-adv-x="1220" d="M84 328l154 121q106 -190 342 -211v397l-88 20q-189 46 -281 136.5t-92 230.5q0 166 123 269t338 110v135h92v-137q155 -10 267.5 -73.5t168.5 -168.5l-152 -121q-91 147 -284 162v-375l108 -26q184 -44 270.5 -133.5t86.5 -229.5q0 -174 -124 -282.5t-341 -118.5v-135 h-92v135q-175 10 -304 87t-192 208zM346 1026q0 -69 50.5 -107.5t183.5 -72.5v356q-113 -4 -173.5 -50t-60.5 -126zM672 236q116 4 177.5 54t61.5 134q0 76 -52.5 116.5t-186.5 71.5v-376z" />
<glyph unicode="%" horiz-adv-x="1777" d="M59 1100q0 158 104.5 259t264.5 101q159 0 263 -101t104 -259q0 -159 -104 -261t-263 -102q-160 0 -264.5 102t-104.5 261zM236 1100q0 -91 53 -147t139 -56t139.5 56t53.5 147q0 89 -53.5 144.5t-139.5 55.5t-139 -55.5t-53 -144.5zM293 0l989 1434h203l-989 -1434h-203 zM981 336q0 158 104.5 259t264.5 101q159 0 262.5 -101t103.5 -259q0 -159 -103.5 -261t-262.5 -102q-160 0 -264.5 102t-104.5 261zM1155 336q0 -91 54.5 -147t140.5 -56t139 56t53 147q0 89 -53 145t-139 56t-140.5 -56t-54.5 -145z" />
<glyph unicode="&#x26;" horiz-adv-x="1421" d="M117 365q0 123 74.5 221t238.5 196q-93 108 -132.5 187.5t-39.5 158.5q0 142 105.5 237t281.5 95q172 0 276.5 -90.5t104.5 -232.5q0 -114 -72.5 -207.5t-236.5 -188.5l274 -311q58 123 70 283h205q-27 -269 -133 -443l235 -270h-240l-116 133q-163 -160 -416 -160 q-217 0 -348 109.5t-131 282.5zM348 381q0 -95 71 -152t193 -57q159 0 260 107l-321 364q-107 -63 -155 -125t-48 -137zM465 1118q0 -54 30.5 -105.5t108.5 -140.5q119 70 168 124t49 120q0 71 -50.5 116.5t-127.5 45.5t-127.5 -45t-50.5 -115z" />
<glyph unicode="'" horiz-adv-x="446" d="M104 1460h238l-31 -569h-176z" />
<glyph unicode="(" horiz-adv-x="690" d="M135 639q0 240 86 480t238 419l178 -104q-130 -160 -202.5 -371.5t-72.5 -423.5t72.5 -423.5t202.5 -371.5l-178 -104q-153 182 -238.5 421t-85.5 478z" />
<glyph unicode=")" horiz-adv-x="690" d="M53 -156q129 159 202 373t73 422q0 209 -73.5 423.5t-201.5 371.5l178 104q152 -180 238 -420.5t86 -478.5q0 -241 -86 -479t-238 -420z" />
<glyph unicode="*" horiz-adv-x="944" d="M49 1092l51 157l297 -106l-10 315h168l-12 -317l301 108l51 -159l-307 -89l196 -247l-135 -99l-178 263l-178 -263l-135 99l196 250z" />
<glyph unicode="+" d="M272 547v205h349v372h215v-372h348v-205h-348v-373h-215v373h-349z" />
<glyph unicode="," horiz-adv-x="493" d="M63 -317l105 591h229l-147 -591h-187z" />
<glyph unicode="-" horiz-adv-x="776" d="M88 489v197h600v-197h-600z" />
<glyph unicode="." horiz-adv-x="538" d="M131 119q-6 64 26.5 104.5t94.5 48.5q66 6 107 -25t47 -95q8 -63 -24.5 -105t-96.5 -49q-62 -6 -104.5 27t-49.5 94z" />
<glyph unicode="/" horiz-adv-x="1007" d="M16 -193l758 1709h217l-758 -1709h-217z" />
<glyph unicode="0" horiz-adv-x="1427" d="M131 717q0 221 72.5 389.5t205.5 261t306 92.5q261 0 421 -204.5t160 -538.5t-160 -539t-421 -205q-173 0 -306 92.5t-205.5 261.5t-72.5 390zM373 717q0 -240 93.5 -385.5t248.5 -145.5q154 0 248 146t94 385t-94 384.5t-248 145.5q-155 0 -248.5 -145t-93.5 -385z" />
<glyph unicode="1" horiz-adv-x="862" d="M80 1194v240h596v-1434h-232v1192z" />
<glyph unicode="2" horiz-adv-x="1196" d="M74 1090q71 179 213 274.5t327 95.5q211 0 342 -116t131 -297q0 -114 -58 -219.5t-187 -227.5l-416 -387h682v-213h-1026v172l545 510q125 114 175 194.5t50 157.5q0 99 -65.5 156t-172.5 57q-111 0 -202.5 -67t-151.5 -199z" />
<glyph unicode="3" horiz-adv-x="1161" d="M51 193l131 153q147 -164 367 -164q136 0 215.5 63.5t79.5 168.5q0 103 -88.5 157t-266.5 54h-106v206h162q135 0 207.5 54.5t72.5 150.5q0 98 -69 156.5t-189 58.5q-104 0 -194 -47.5t-156 -138.5l-156 145q85 121 217 185.5t297 64.5q223 0 353.5 -108.5t130.5 -288.5 q0 -128 -69 -215t-199 -119q140 -38 213 -126t73 -216q0 -183 -141.5 -298.5t-374.5 -115.5q-159 0 -289.5 55.5t-220.5 164.5z" />
<glyph unicode="4" horiz-adv-x="1253" d="M70 305v193l737 936l147 -107l-655 -829h506v475h225v-475h191v-193h-191v-305h-225v305h-735z" />
<glyph unicode="5" horiz-adv-x="1200" d="M78 186l131 158q152 -162 369 -162q143 0 229 72.5t86 198.5q0 122 -78 193t-211 71q-151 0 -278 -101h-168v818h884v-205h-669v-402q128 82 289 82q212 0 338 -120.5t126 -329.5q0 -226 -146 -356t-398 -130q-305 0 -504 213z" />
<glyph unicode="6" horiz-adv-x="1218" d="M72 483q0 110 38.5 218.5t141.5 279.5l285 453h260l-334 -498q68 39 158 39q239 0 388.5 -134.5t149.5 -357.5q0 -231 -151.5 -368.5t-393.5 -137.5t-392 137.5t-150 368.5zM303 479q0 -145 86 -231t225 -86q141 0 226.5 86t85.5 231q0 144 -84.5 230t-220.5 86 q-142 0 -230 -86t-88 -230z" />
<glyph unicode="7" horiz-adv-x="1081" d="M41 1221v213h999v-191l-600 -1243h-258l600 1221h-741z" />
<glyph unicode="8" horiz-adv-x="1273" d="M92 383q0 123 82 220t217 134q-117 35 -187.5 126t-70.5 204q0 177 139 285t365 108t365 -108t139 -285q0 -113 -70.5 -204t-185.5 -126q134 -37 215.5 -134t81.5 -220q0 -185 -149.5 -297.5t-395.5 -112.5t-395.5 112.5t-149.5 297.5zM332 406q0 -106 84 -171t221 -65 q138 0 222.5 65t84.5 171t-84.5 170.5t-222.5 64.5q-137 0 -221 -64.5t-84 -170.5zM360 1044q0 -101 76 -162t201 -61q126 0 202 61t76 162q0 103 -76 165.5t-202 62.5q-125 0 -201 -62.5t-76 -165.5z" />
<glyph unicode="9" horiz-adv-x="1228" d="M61 956q0 231 150.5 367.5t392.5 136.5t392.5 -136.5t150.5 -367.5q0 -109 -38 -222t-142 -275l-301 -453h-260l352 498q-63 -39 -160 -39q-239 0 -388 134t-149 357zM293 961q0 -145 84.5 -230.5t222.5 -85.5q141 0 228 85.5t87 230.5t-85 230t-226 85 q-140 0 -225.5 -85t-85.5 -230z" />
<glyph unicode=":" horiz-adv-x="548" d="M127 135q0 70 41.5 112t110.5 42q72 0 112.5 -41.5t40.5 -112.5q0 -70 -41 -111.5t-112 -41.5q-69 0 -110.5 42t-41.5 111zM127 856q0 72 41.5 113t110.5 41q72 0 112.5 -41t40.5 -113q0 -70 -41 -112t-112 -42q-69 0 -110.5 42.5t-41.5 111.5z" />
<glyph unicode=";" horiz-adv-x="524" d="M63 -317l105 591h229l-147 -591h-187zM137 840q-6 64 26.5 105.5t94.5 47.5q65 8 106.5 -24.5t47.5 -96.5q8 -63 -24.5 -104.5t-96.5 -48.5q-63 -6 -105 27t-49 94z" />
<glyph unicode="&#x3c;" d="M272 549v201l912 352v-215l-613 -238l613 -237v-215z" />
<glyph unicode="=" d="M272 322v204h912v-204h-912zM272 772v205h912v-205h-912z" />
<glyph unicode="&#x3e;" d="M272 197v215l611 237l-611 238v215l912 -352v-201z" />
<glyph unicode="?" horiz-adv-x="950" d="M37 1171q65 136 186.5 212.5t278.5 76.5q176 0 287.5 -94t111.5 -250q0 -86 -40 -159.5t-134 -151.5l-86 -72q-61 -51 -76.5 -80t-15.5 -94v-100h-215v114q2 77 13 115.5t41 74.5t104 99l92 78q96 81 96 168q0 72 -50.5 113t-131.5 41q-91 0 -168 -51.5t-129 -149.5z M305 119q-7 64 25.5 104.5t95.5 48.5q64 6 105 -25.5t47 -94.5q8 -63 -24.5 -105t-96.5 -49q-62 -6 -104 27t-48 94z" />
<glyph unicode="@" horiz-adv-x="1980" d="M106 457q-1 191 69.5 360t193 287.5t292 186t359.5 65.5q179 1 340 -58.5t278 -165.5t185 -259t67 -330q0 -231 -106.5 -374.5t-272.5 -143.5q-99 0 -175 54.5t-99 149.5q-80 -198 -311 -198q-190 0 -300 116.5t-110 313.5q0 189 113.5 309.5t298.5 120.5 q99 0 177.5 -45.5t106.5 -118.5v141h174v-524q3 -72 36 -111.5t87 -39.5q81 0 134 88t53 243q0 199 -90 347t-242 223t-344 75q-208 0 -371.5 -90t-253.5 -251.5t-90 -368.5q0 -206 90.5 -364.5t254.5 -245.5t376 -87q230 0 383 86l84 -163q-87 -51 -209.5 -80t-259.5 -29 q-197 -1 -368 64.5t-292.5 181.5t-190 280.5t-67.5 354.5zM713 467q0 -124 66 -197t175 -73q106 0 177 74t71 196q0 120 -71.5 195t-176.5 75q-107 0 -174 -76.5t-67 -193.5z" />
<glyph unicode="A" horiz-adv-x="1429" d="M25 0l561 1434h245l574 -1434h-252l-121 307h-637l-119 -307h-251zM471 512h487l-243 686z" />
<glyph unicode="B" horiz-adv-x="1396" d="M182 0v1434h613q208 0 328 -96t120 -265q0 -117 -56.5 -199t-162.5 -122q132 -36 204 -125t72 -221q0 -100 -41 -178.5t-111 -127.5t-159.5 -74.5t-191.5 -25.5h-615zM416 199h387q114 0 181 60.5t67 162.5q0 99 -68 159t-180 60h-387v-442zM416 827l370 -2q92 0 152 62 q58 59 57 139v8q-2 84 -62 142.5t-147 58.5h-370v-408z" />
<glyph unicode="C" horiz-adv-x="1533" d="M113 715q0 156 51.5 292.5t145 237t234 158t308.5 57.5q204 0 364.5 -96t251.5 -270l-194 -113q-58 116 -170 186t-252 70q-222 0 -358 -147.5t-136 -374.5t134.5 -374.5t359.5 -147.5q144 0 254.5 68.5t169.5 191.5l192 -119q-87 -178 -246.5 -269.5t-369.5 -91.5 q-171 0 -311.5 57.5t-233.5 157.5t-143.5 235.5t-50.5 291.5z" />
<glyph unicode="D" horiz-adv-x="1511" d="M182 0v1434h531q200 0 358.5 -94t245 -257.5t86.5 -365.5q0 -152 -50.5 -284.5t-140 -228t-219 -150t-280.5 -54.5h-531zM418 219h266q214 0 343.5 139.5t129.5 358.5t-129.5 358t-343.5 139h-266v-995z" />
<glyph unicode="E" horiz-adv-x="1271" d="M182 0v1434h944v-213h-708v-408h665v-211h-665v-387h729v-215h-965z" />
<glyph unicode="F" horiz-adv-x="1198" d="M182 0v1434h918v-213h-680v-461h643v-217h-643v-543h-238z" />
<glyph unicode="G" horiz-adv-x="1593" d="M113 713q0 157 51 293.5t144.5 236.5t233.5 157.5t308 57.5q189 0 345 -82.5t251 -228.5l-193 -133q-64 107 -167.5 165t-235.5 58q-222 0 -358 -148.5t-136 -375.5q0 -224 134 -370.5t360 -149.5q261 0 403 151v248h-340v194h560l-3 -536q-232 -279 -620 -279 q-173 1 -313.5 59t-232.5 158t-141.5 234.5t-49.5 290.5z" />
<glyph unicode="H" horiz-adv-x="1548" d="M182 0v1434h238v-646h710v646h236v-1434h-236v569h-710v-569h-238z" />
<glyph unicode="I" horiz-adv-x="610" d="M186 0v1434h238v-1434h-238z" />
<glyph unicode="J" horiz-adv-x="1214" d="M49 428l234 76v-37q0 -109 78 -187.5t188 -78.5t188 78.5t78 187.5v967h236v-961q0 -137 -67.5 -253t-183 -183.5t-251.5 -67.5q-129 0 -242 62.5t-182.5 168.5t-75.5 228z" />
<glyph unicode="K" horiz-adv-x="1366" d="M182 0v1434h238v-672l639 672h287l-691 -723l686 -711h-292l-543 551l-86 -90v-461h-238z" />
<glyph unicode="L" horiz-adv-x="1189" d="M182 0v1434h238v-1215h706v-219h-944z" />
<glyph unicode="M" horiz-adv-x="1914" d="M182 0v1434h303l463 -1166l492 1166h293v-1434h-234v1096l-459 -1096h-184l-440 1096v-1096h-234z" />
<glyph unicode="N" horiz-adv-x="1593" d="M182 0v1434h221l775 -1049v1049h233v-1434h-221l-774 1047v-1047h-234z" />
<glyph unicode="O" horiz-adv-x="1714" d="M113 717q0 160 56 298t153.5 236t236.5 153.5t299 55.5q213 0 383 -95t265.5 -265t95.5 -383t-95.5 -383t-265.5 -265.5t-383 -95.5q-214 0 -384.5 95.5t-265.5 265.5t-95 383zM356 717q0 -226 142.5 -374t359.5 -148q215 0 357.5 148t142.5 374t-142.5 374t-357.5 148 q-217 0 -359.5 -148t-142.5 -374z" />
<glyph unicode="P" horiz-adv-x="1347" d="M182 0v1434h617q203 0 334 -135t131 -345q0 -214 -130.5 -348.5t-334.5 -134.5h-379v-471h-238zM420 686h348q111 0 181.5 72t70.5 196q0 114 -72.5 190.5t-179.5 76.5h-348v-535z" />
<glyph unicode="Q" horiz-adv-x="1712" d="M111 717q0 154 53 290t148 236t236 158.5t308 58.5q203 0 375 -99t272.5 -270.5t100.5 -373.5q0 -162 -65.5 -304t-182.5 -245l145 -182l-155 -123l-156 190q-154 -80 -334 -80q-225 0 -396.5 100.5t-260 268.5t-88.5 375zM356 717q0 -221 139.5 -372.5t360.5 -151.5 q97 0 184 49l-153 188l155 125l164 -201q70 67 111 162.5t41 200.5q0 216 -147.5 369t-354.5 153q-219 0 -359.5 -151t-140.5 -371z" />
<glyph unicode="R" horiz-adv-x="1361" d="M180 4v1430h641q189 0 322 -133t133 -322q0 -160 -97.5 -280.5t-246.5 -153.5l-51 -6l393 -531l-279 -8l-372 522h-207v-518h-236zM416 737h375q100 0 170.5 70.5t70.5 171.5q0 100 -70.5 171t-170.5 71h-375v-484z" />
<glyph unicode="S" horiz-adv-x="1288" d="M72 295l161 127q135 -236 429 -236q145 0 228 56.5t83 154.5q0 75 -56 122t-190 79l-215 51q-205 51 -303 149t-98 251q0 187 140 299t386 112q189 0 331.5 -74t211.5 -202l-162 -129q-129 194 -383 194q-138 0 -212.5 -51.5t-74.5 -144.5q0 -70 56.5 -116t197.5 -79 l223 -53q199 -49 292 -147t93 -248q0 -197 -151.5 -317t-405.5 -120q-210 0 -359 84t-222 238z" />
<glyph unicode="T" horiz-adv-x="1249" d="M47 1214v220h1157v-220h-461v-1214h-235v1214h-461z" />
<glyph unicode="U" horiz-adv-x="1515" d="M170 565v869h238v-883q0 -165 94.5 -259.5t259.5 -94.5q171 0 262.5 94t91.5 260v883h238v-869q0 -266 -161 -428t-431 -162q-264 0 -428 163t-164 427z" />
<glyph unicode="V" horiz-adv-x="1402" d="M27 1434h254l424 -1158l417 1158h254l-532 -1434h-279z" />
<glyph unicode="W" horiz-adv-x="2152" d="M45 1434h252l332 -1104l399 1104h121l375 -1110l331 1110h252l-436 -1434h-266l-315 977l-342 -977h-263z" />
<glyph unicode="X" horiz-adv-x="1304" d="M31 0l483 725l-451 709h269l330 -529l327 529h266l-448 -711l467 -723h-273l-342 535l-354 -535h-274z" />
<glyph unicode="Y" horiz-adv-x="1312" d="M2 1434h270l381 -631l385 631h273l-539 -859v-575h-237v575z" />
<glyph unicode="Z" horiz-adv-x="1245" d="M88 0v178l750 1043h-736v213h1045v-179l-750 -1042h760v-213h-1069z" />
<glyph unicode="[" horiz-adv-x="776" d="M182 -238v1754h525v-201h-301v-1352h301v-201h-525z" />
<glyph unicode="\" horiz-adv-x="1007" d="M16 1516h217l758 -1709h-217z" />
<glyph unicode="]" horiz-adv-x="776" d="M70 -37h301v1352h-301v201h524v-1754h-524v201z" />
<glyph unicode="^" horiz-adv-x="1183" d="M57 721l432 663h205l434 -663h-245l-289 459l-291 -459h-246z" />
<glyph unicode="_" horiz-adv-x="892" d="M0 -111h893v-168h-893v168z" />
<glyph unicode="`" horiz-adv-x="1269" d="M240 1530h266l242 -338h-222z" />
<glyph unicode="a" horiz-adv-x="1116" d="M88 305q0 100 53 171t146.5 105t222.5 42q31 2 64 2q102 0 217 -19l-3 66q0 98 -64.5 147t-164.5 49q-85 0 -159.5 -35t-127.5 -100l-122 129q166 187 428 187q192 0 314 -114.5t122 -295.5v-639h-195v184q-39 -97 -133 -152t-227 -55q-177 0 -274 89.5t-97 238.5z M311 319q0 -82 50 -128t153 -46q129 0 203 71.5t74 197.5v63q-104 17 -188 17q-95 0 -163 -22q-130 -40 -129 -153z" />
<glyph unicode="b" horiz-adv-x="1304" d="M154 0v1434h223v-613q29 89 130 158.5t243 69.5q223 0 353 -147t130 -384q0 -248 -126.5 -394.5t-354.5 -146.5q-130 0 -239 63.5t-153 168.5v-209h-206zM377 518q0 -149 87 -244.5t224 -95.5q139 0 226 94.5t87 245.5q0 150 -85 243t-222 93q-140 0 -228.5 -93.5 t-88.5 -242.5z" />
<glyph unicode="c" horiz-adv-x="1134" d="M90 518q0 242 149.5 395.5t385.5 153.5q152 0 271 -65.5t185 -184.5l-168 -117q-98 158 -280 158q-140 0 -225.5 -93.5t-85.5 -246.5q0 -151 86 -244.5t225 -93.5q89 0 161 42t119 120l170 -117q-66 -120 -186 -186t-272 -66q-239 0 -387 151.5t-148 393.5z" />
<glyph unicode="d" horiz-adv-x="1304" d="M76 518q0 237 129.5 384t353.5 147q133 0 238.5 -71t134.5 -157v613h223v-1434h-207v209q-45 -105 -153 -168.5t-238 -63.5q-229 0 -355 146t-126 395zM307 518q0 -152 86 -246t225 -94q137 0 225.5 95.5t88.5 244.5t-89.5 242.5t-230.5 93.5q-135 0 -220 -93t-85 -243z " />
<glyph unicode="e" horiz-adv-x="1224" d="M84 516q0 234 151.5 382.5t387.5 148.5q258 0 396 -156q119 -135 119 -358q0 -36 -3 -74h-820q0 -129 95 -212t231 -83q106 0 195.5 38.5t140.5 106.5l127 -133q-66 -92 -193 -145.5t-278 -53.5q-246 0 -397.5 148.5t-151.5 390.5zM313 602h598q-2 121 -79 198t-209 77 q-128 0 -216.5 -82t-93.5 -193z" />
<glyph unicode="f" horiz-adv-x="815" d="M41 823v201h219v145q0 66 24 118t64.5 83.5t90.5 47.5t106 16h237v-201h-221q-33 0 -53.5 -23t-20.5 -57v-129h291v-201h-291v-823h-227v823h-219z" />
<glyph unicode="g" horiz-adv-x="1320" d="M90 539q0 228 129.5 369t351.5 141q89 0 163 -24.5t119.5 -62.5t72 -73.5t37.5 -67.5v205h208v-932q0 -235 -152.5 -385.5t-393.5 -150.5q-155 0 -288 58.5t-208 154.5l104 159q65 -78 165 -125t212 -47q70 0 131 22t109 64.5t76 112t28 158.5v123q-45 -103 -138 -165.5 t-222 -62.5q-232 0 -368 145.5t-136 383.5zM322 522q0 -143 84 -234t223 -91q138 0 227.5 90t89.5 235q0 158 -91.5 244t-219.5 86q-140 0 -226.5 -91t-86.5 -239z" />
<glyph unicode="h" horiz-adv-x="1239" d="M152 0v1434h227v-560q40 76 133 123t207 47q164 0 271.5 -105.5t107.5 -268.5v-670h-230v612q0 106 -68 176t-169 70q-107 0 -179.5 -75t-72.5 -185v-598h-227z" />
<glyph unicode="i" horiz-adv-x="534" d="M125 1370q0 59 41.5 100t101.5 41q57 0 98.5 -41.5t41.5 -99.5t-41.5 -99.5t-98.5 -41.5q-60 0 -101.5 41t-41.5 100zM154 0v1024h227v-1024h-227z" />
<glyph unicode="j" horiz-adv-x="534" d="M-82 -209h115q57 0 88 31t31 88v1114h229v-1155q0 -131 -78.5 -205t-218.5 -74h-166v201zM121 1370q0 63 40 101t105 38q66 0 107 -38t41 -101t-41 -101t-107 -38q-65 0 -105 38t-40 101z" />
<glyph unicode="k" horiz-adv-x="1114" d="M152 0v1434h227v-838l450 428h265l-484 -475l492 -549h-271l-393 401l-59 -67v-334h-227z" />
<glyph unicode="l" horiz-adv-x="518" d="M143 0v1434h228v-1434h-228z" />
<glyph unicode="m" horiz-adv-x="1878" d="M154 0v1024h223v-162q42 83 130.5 135t194.5 52q111 0 201.5 -60t124.5 -153q39 93 135 153t213 60q156 0 258.5 -111t102.5 -276v-662h-230v602q0 104 -63.5 173t-157.5 69q-98 0 -162.5 -70.5t-64.5 -171.5v-602h-228v602q0 103 -66 172.5t-159 69.5q-98 0 -161.5 -70 t-63.5 -172v-602h-227z" />
<glyph unicode="n" horiz-adv-x="1234" d="M152 0v1024h223v-172q44 89 138 143t204 54q157 0 267 -109t110 -264v-676h-230v600q0 100 -70 171.5t-171 72.5q-101 0 -172.5 -72t-71.5 -172l2 -600h-229z" />
<glyph unicode="o" horiz-adv-x="1273" d="M88 520q0 232 155 380.5t400 148.5q241 0 392 -148t151 -381q0 -240 -153 -392.5t-396 -152.5q-245 0 -397 151t-152 394zM319 514q0 -152 88.5 -247t229.5 -95t230 95.5t89 246.5t-88 247.5t-225 96.5q-144 0 -234 -95.5t-90 -248.5z" />
<glyph unicode="p" horiz-adv-x="1320" d="M152 -371v1395h206v-209q44 105 153 168.5t239 63.5q228 0 353.5 -145.5t125.5 -395.5q0 -236 -130 -382.5t-354 -146.5q-140 0 -240.5 69.5t-129.5 158.5v-576h-223zM375 506q0 -148 88 -242t229 -94q135 0 221 93.5t86 242.5q0 152 -87 247t-226 95q-137 0 -224 -95.5 t-87 -246.5z" />
<glyph unicode="q" horiz-adv-x="1320" d="M90 506q0 250 126 395.5t355 145.5q130 0 239 -63.5t153 -168.5v209h206v-1427h-223v608q-29 -89 -130 -158.5t-243 -69.5q-222 0 -352.5 146.5t-130.5 382.5zM322 506q0 -149 86 -242.5t221 -93.5q141 0 229 94t88 242q0 151 -87 246.5t-224 95.5q-139 0 -226 -95 t-87 -247z" />
<glyph unicode="r" horiz-adv-x="841" d="M152 0v1024h221v-184q45 94 132.5 150.5t194.5 56.5q45 0 95 -13l-4 -217q-65 6 -132 6q-132 0 -206 -77t-74 -216v-530h-227z" />
<glyph unicode="s" horiz-adv-x="1042" d="M68 158l102 153q63 -69 160.5 -110t204.5 -41q97 0 147.5 35.5t50.5 95.5q0 46 -35 75.5t-116 49.5l-195 47q-146 35 -213.5 104t-67.5 176q0 150 113 237t309 87q134 0 245 -43t175 -117l-104 -153q-137 125 -316 125q-96 0 -145 -33t-49 -94q0 -44 33.5 -71.5 t115.5 -47.5l195 -47q151 -38 219 -107.5t68 -177.5q0 -152 -115 -240t-318 -88q-150 0 -272.5 49t-191.5 136z" />
<glyph unicode="t" horiz-adv-x="851" d="M43 823v201h203v324h227v-324h301v-201h-301v-590q0 -12 8.5 -20t20.5 -8h276v-205h-319q-89 0 -152 63t-63 152l2 608h-203z" />
<glyph unicode="u" horiz-adv-x="1230" d="M137 348v676h230v-600q0 -101 70.5 -171.5t170.5 -72.5q100 0 172 71.5t72 172.5l-2 600h229v-1024h-223v172q-44 -89 -138 -144t-204 -55q-157 0 -267 110t-110 265z" />
<glyph unicode="v" horiz-adv-x="1120" d="M27 1024h245l289 -748l287 748h246l-408 -1024h-250z" />
<glyph unicode="w" horiz-adv-x="1732" d="M35 1040h233l240 -768l254 768h209l254 -768l239 768h234l-336 -1040h-254l-242 739l-243 -739h-254z" />
<glyph unicode="x" horiz-adv-x="1101" d="M31 0l372 532l-352 492h254l246 -338l242 338h254l-351 -494l373 -530h-256l-264 377l-262 -377h-256z" />
<glyph unicode="y" horiz-adv-x="1128" d="M37 1040h244l294 -766l283 766h246l-475 -1202q-47 -128 -140 -188t-239 -60h-207v205h170q89 0 138.5 29t72.5 92l39 92z" />
<glyph unicode="z" horiz-adv-x="1013" d="M82 0v152l543 694h-525v194h822v-151l-543 -694h547v-195h-844z" />
<glyph unicode="{" horiz-adv-x="765" d="M74 539v200h14q76 0 109.5 34.5t33.5 111.5v338q0 160 67 226.5t230 66.5h168v-201h-94q-83 0 -115 -34.5t-32 -123.5v-272q0 -107 -41.5 -166.5t-130.5 -79.5q89 -20 130.5 -79.5t41.5 -166.5v-272q0 -89 32 -123.5t115 -34.5h94v-201h-168q-163 0 -230 66.5t-67 226.5 v338q0 78 -33.5 112t-109.5 34h-14z" />
<glyph unicode="|" horiz-adv-x="638" d="M223 -205v1772h193v-1772h-193z" />
<glyph unicode="}" horiz-adv-x="765" d="M70 -37h94q83 0 115 34.5t32 123.5v272q0 107 41.5 166.5t130.5 79.5q-89 20 -130.5 79.5t-41.5 166.5v272q0 89 -32 123.5t-115 34.5h-94v201h168q163 0 230 -66.5t67 -226.5v-338q0 -77 33.5 -111.5t109.5 -34.5h14v-200h-14q-76 0 -109.5 -34t-33.5 -112v-338 q0 -160 -67 -226.5t-230 -66.5h-168v201z" />
<glyph unicode="~" d="M272 508v203q121 92 252 92q69 0 209 -53.5t201 -53.5q131 0 250 95v-203q-126 -94 -250 -94q-70 0 -206 54t-206 54q-65 0 -122.5 -22t-127.5 -72z" />
<glyph unicode="&#xa1;" horiz-adv-x="616" d="M172 889q-7 64 25.5 104.5t95.5 46.5q64 8 104.5 -24t46.5 -96q8 -62 -24 -104t-96 -48q-62 -8 -104 25t-48 96zM186 -395l19 977h207l18 -977h-244z" />
<glyph unicode="&#xa2;" horiz-adv-x="1134" d="M90 518q0 235 141 387.5t367 161.5v186h86v-188q131 -12 234 -76.5t163 -171.5l-168 -117q-82 136 -229 154v-670q147 21 229 158l170 -117q-60 -108 -163.5 -173t-235.5 -77v-235h-86v233q-228 9 -368 159.5t-140 385.5zM322 518q0 -141 75 -232.5t201 -103.5v674 q-127 -12 -201.5 -103t-74.5 -235z" />
<glyph unicode="&#xa3;" horiz-adv-x="1103" d="M59 0v205h154v418h-152v165h152v250q0 200 107.5 311t306.5 111q295 0 428 -241l-174 -119q-86 143 -236 143q-97 0 -149 -56.5t-52 -164.5v-234h476v-165h-476v-418h603v-205h-988z" />
<glyph unicode="&#xa4;" horiz-adv-x="1138" d="M88 340l129 129q-72 107 -72 242q0 136 72 243l-127 129l103 107l137 -137q100 71 241 71q142 0 242 -71l135 137l103 -107l-127 -129q71 -106 71 -243q0 -138 -73 -242l129 -129l-103 -107l-135 136q-103 -70 -242 -70q-140 0 -241 72l-137 -138zM350 711 q0 -99 61 -161.5t160 -62.5q98 0 159 62.5t61 161.5q0 100 -61 162.5t-159 62.5q-99 0 -160 -62.5t-61 -162.5z" />
<glyph unicode="&#xa5;" horiz-adv-x="1204" d="M23 1434h245l334 -588l334 588h246l-414 -709h313v-137h-362v-182h362v-140h-362v-266h-234v266h-360v140h360v182h-360v137h309z" />
<glyph unicode="&#xa6;" horiz-adv-x="638" d="M223 -205v713h193v-713h-193zM223 838v729h193v-729h-193z" />
<glyph unicode="&#xa7;" horiz-adv-x="1128" d="M98 -84l103 154q62 -68 162 -107t219 -39q209 0 209 142q0 59 -38.5 94t-125.5 55l-195 47q-153 37 -229 111t-76 190q0 102 56.5 179t158.5 106q-205 75 -205 272q0 159 116 249.5t327 90.5q141 0 252.5 -42t175.5 -118l-105 -151q-133 121 -323 121q-211 0 -211 -144 q0 -57 36.5 -90.5t122.5 -52.5l195 -47q157 -38 232 -112t75 -189q0 -104 -56.5 -181t-156.5 -106q205 -78 205 -274q0 -160 -116 -250t-331 -90q-155 0 -281 48t-196 134zM348 602q0 -71 42 -111.5t138 -62.5l60 -10q105 -16 163 36.5t58 141.5q0 69 -42.5 109t-139.5 65 l-60 8q-105 16 -162 -36t-57 -140z" />
<glyph unicode="&#xa8;" horiz-adv-x="1269" d="M254 1370q0 62 39.5 100.5t103.5 38.5q63 0 102.5 -38.5t39.5 -100.5q0 -63 -39.5 -102t-102.5 -39q-64 0 -103.5 39t-39.5 102zM731 1370q0 62 39 100.5t102 38.5q64 0 104 -38.5t40 -100.5q0 -63 -40 -102t-104 -39q-63 0 -102 39t-39 102z" />
<glyph unicode="&#xa9;" horiz-adv-x="1703" d="M109 717q-1 150 57 288.5t158 239t238.5 159t289.5 56.5q151 2 289.5 -56.5t238.5 -159t158 -239t57 -288.5q1 -150 -57 -288.5t-158 -239t-238.5 -159.5t-289.5 -57q-151 -2 -289.5 57t-238.5 159.5t-158 239t-57 288.5zM231 717q-2 -171 79.5 -316.5t225.5 -231 t316 -83.5q171 -2 314 83.5t224.5 231t79.5 316.5q2 171 -79.5 316.5t-224.5 230.5t-314 84q-129 1 -245 -49.5t-198.5 -135.5t-130.5 -201.5t-47 -244.5zM455 719q0 190 115 308t304 118q120 0 213 -50t142 -143l-135 -94q-69 119 -215 119q-105 0 -171.5 -70.5 t-66.5 -187.5q0 -119 66 -189.5t172 -70.5q146 0 215 119l135 -95q-49 -92 -142.5 -142t-212.5 -50q-189 0 -304 119t-115 309z" />
<glyph unicode="&#xab;" horiz-adv-x="1159" d="M53 520l312 443h239l-309 -443l309 -444h-239zM541 520l311 443h240l-310 -443l310 -444h-240z" />
<glyph unicode="&#xac;" d="M272 547v205h912v-416h-213v211h-699z" />
<glyph unicode="&#xad;" horiz-adv-x="776" d="M88 489v197h600v-197h-600z" />
<glyph unicode="&#xae;" horiz-adv-x="1124" d="M109 1012q0 186 131.5 318t320.5 132t322 -132t133 -318q0 -92 -36 -176t-97 -144.5t-145 -96.5t-177 -36q-124 0 -228 60.5t-164 165t-60 227.5zM205 1012q0 -153 102.5 -260t253.5 -107t255 107t104 260q0 152 -104 258t-255 106t-253.5 -106t-102.5 -258zM387 778v475 h205q83 0 126.5 -38.5t43.5 -110.5q0 -131 -129 -146l139 -180h-100l-129 176h-68v-176h-88zM475 1028h111q84 0 84 74q0 72 -84 72h-111v-146z" />
<glyph unicode="&#xaf;" horiz-adv-x="1425" d="M381 1169v181h663v-181h-663z" />
<glyph unicode="&#xb0;" horiz-adv-x="776" d="M63 1145q0 135 91.5 225t232.5 90q142 0 234 -89.5t92 -225.5t-92 -226t-234 -90q-140 0 -232 90t-92 226zM225 1145q0 -73 45.5 -119.5t116.5 -46.5q72 0 118 46.5t46 119.5t-46 119.5t-118 46.5q-71 0 -116.5 -46.5t-45.5 -119.5z" />
<glyph unicode="&#xb1;" d="M272 0v205h912v-205h-912zM272 664v204h349v324h215v-324h348v-204h-348v-324h-215v324h-349z" />
<glyph unicode="&#xb4;" horiz-adv-x="1269" d="M526 1192l242 338h266l-286 -338h-222z" />
<glyph unicode="&#xb5;" horiz-adv-x="1247" d="M152 -451v1491h227v-610q0 -250 223 -250q126 0 195 75.5t69 223.5v561h230v-1040h-203v172q-34 -94 -111 -146.5t-184 -52.5q-152 0 -219 111v-535h-227z" />
<glyph unicode="&#xb6;" horiz-adv-x="1341" d="M94 1122q0 141 103.5 226.5t294.5 85.5h192v-1700h-197v1075h-28q-170 0 -267.5 87t-97.5 226zM920 -266v1700h198v-1700h-198z" />
<glyph unicode="&#xb8;" horiz-adv-x="1269" d="M391 -408l160 431h194l-122 -431h-232z" />
<glyph unicode="&#xbb;" horiz-adv-x="1159" d="M68 76l309 444l-309 443h239l311 -443l-311 -444h-239zM555 76l309 444l-309 443h240l311 -443l-311 -444h-240z" />
<glyph unicode="&#xbf;" horiz-adv-x="950" d="M49 -76q0 86 40 159t134 150l86 72q61 52 76.5 81.5t15.5 92.5v103h215v-117q-3 -107 -27.5 -153t-129.5 -136l-92 -76q-97 -85 -97 -170q0 -72 50.5 -111.5t132.5 -39.5q92 0 168.5 50.5t128.5 147.5l163 -108q-65 -137 -186.5 -214t-277.5 -77q-176 0 -288 95t-112 251 zM373 889q-7 64 25.5 104.5t95.5 46.5q65 8 105 -24t46 -96q8 -62 -24.5 -104t-96.5 -48q-62 -8 -103.5 25t-47.5 96z" />
<glyph unicode="&#xc0;" horiz-adv-x="1439" d="M25 0l561 1434h245l574 -1434h-252l-121 307h-637l-119 -307h-251zM373 1923h227l219 -338h-221zM471 512h487l-243 686z" />
<glyph unicode="&#xc1;" horiz-adv-x="1439" d="M25 0l561 1434h245l574 -1434h-252l-121 307h-637l-119 -307h-251zM471 512h487l-243 686zM625 1585l219 338h227l-225 -338h-221z" />
<glyph unicode="&#xc2;" horiz-adv-x="1439" d="M25 0l561 1434h245l574 -1434h-252l-121 307h-637l-119 -307h-251zM326 1585l295 338h225l295 -338h-230l-178 209l-178 -209h-229zM471 512h487l-243 686z" />
<glyph unicode="&#xc3;" horiz-adv-x="1439" d="M25 0l561 1434h245l574 -1434h-252l-121 307h-637l-119 -307h-251zM377 1614q0 138 49 210t141 72q45 0 84 -15.5t90 -51.5q65 -47 111 -47q70 0 70 108h168q0 -138 -50 -210t-143 -72q-43 0 -82.5 15.5t-91.5 51.5q-59 47 -109 47q-71 0 -71 -108h-166zM471 512h487 l-243 686z" />
<glyph unicode="&#xc4;" horiz-adv-x="1439" d="M25 0l561 1434h245l574 -1434h-252l-121 307h-637l-119 -307h-251zM352 1763q0 59 42 101.5t102 42.5q58 0 99.5 -42.5t41.5 -101.5q0 -60 -41 -101.5t-100 -41.5q-60 0 -102 41.5t-42 101.5zM471 512h487l-243 686zM829 1763q0 59 42 101.5t102 42.5q58 0 99.5 -42.5 t41.5 -101.5q0 -60 -41 -101.5t-100 -41.5q-60 0 -102 41.5t-42 101.5z" />
<glyph unicode="&#xc5;" horiz-adv-x="1439" d="M25 0l561 1434h245l574 -1434h-252l-121 307h-637l-119 -307h-251zM471 512h487l-243 686zM537 1753q-34 75 0 150.5t118 107.5q84 31 161.5 1t113.5 -105q34 -75 -0.5 -150.5t-118.5 -107.5q-84 -31 -162 -0.5t-112 104.5zM639 1830q1 -34 31 -65q30 -29 64 -28.5 t65 28.5q30 30 29 64t-31 65q-30 29 -64 28.5t-65 -28.5q-30 -30 -29 -64z" />
<glyph unicode="&#xc6;" horiz-adv-x="2226" d="M16 0l928 1434h1139v-217h-766v-383h723v-218h-723v-399h786v-217h-1020v326h-575l-211 -326h-281zM623 522h460v711z" />
<glyph unicode="&#xc7;" horiz-adv-x="1538" d="M113 715q0 156 51.5 292.5t145 237t234 158t308.5 57.5q204 0 364.5 -96t251.5 -270l-194 -113q-59 121 -169.5 188.5t-252.5 67.5q-222 0 -358 -147.5t-136 -374.5t134.5 -374.5t359.5 -147.5q144 0 254.5 68.5t169.5 191.5l192 -119q-81 -164 -223 -254.5t-330 -104.5 l-104 -383h-233l143 390q-284 42 -446 243.5t-162 489.5z" />
<glyph unicode="&#xc8;" horiz-adv-x="1327" d="M182 0v1434h996v-213h-760v-424h717v-211h-717v-371h780v-215h-1016zM401 1923h228l219 -338h-221z" />
<glyph unicode="&#xc9;" horiz-adv-x="1327" d="M182 0v1434h1002v-213h-766v-406h719v-211h-719v-389h786v-215h-1022zM524 1585l219 338h230l-228 -338h-221z" />
<glyph unicode="&#xca;" horiz-adv-x="1327" d="M182 0v1434h996v-213h-760v-424h717v-211h-717v-371h780v-215h-1016zM266 1585l293 338h225l295 -338h-229l-178 209l-178 -209h-228z" />
<glyph unicode="&#xcb;" horiz-adv-x="1327" d="M182 0v1434h996v-213h-760v-424h717v-211h-717v-371h780v-215h-1016zM289 1765q0 60 42.5 102t102.5 42q57 0 99 -42t42 -102q0 -59 -41.5 -100t-99.5 -41q-60 0 -102.5 40.5t-42.5 100.5zM766 1765q0 60 42.5 102t102.5 42q57 0 99.5 -42.5t42.5 -101.5t-42 -100 t-100 -41q-60 0 -102.5 40.5t-42.5 100.5z" />
<glyph unicode="&#xcc;" horiz-adv-x="610" d="M-33 1923h266l220 -338h-222zM186 0v1434h238v-1434h-238z" />
<glyph unicode="&#xcd;" horiz-adv-x="610" d="M186 0v1434h238v-1434h-238zM197 1575l219 338h266l-264 -338h-221z" />
<glyph unicode="&#xce;" horiz-adv-x="610" d="M-102 1585l295 338h225l293 -338h-228l-178 209l-178 -209h-229zM186 0v1434h238v-1434h-238z" />
<glyph unicode="&#xcf;" horiz-adv-x="610" d="M-76 1763q0 62 39.5 102t102.5 40q64 0 103.5 -40t39.5 -102t-39.5 -100.5t-103.5 -38.5q-63 0 -102.5 38.5t-39.5 100.5zM186 0v1434h238v-1434h-238zM399 1763q0 62 40.5 102t103.5 40q64 0 103.5 -40t39.5 -102t-39.5 -100.5t-103.5 -38.5q-63 0 -103.5 39t-40.5 100z " />
<glyph unicode="&#xd0;" horiz-adv-x="1574" d="M35 623v188h196v623h523q212 0 372 -83.5t250 -247t90 -386.5t-90 -386.5t-250 -247t-372 -83.5h-523v623h-196zM469 219h285q220 0 342.5 127t122.5 371q0 245 -122 371t-343 126h-285v-403h346v-188h-346v-404z" />
<glyph unicode="&#xd1;" horiz-adv-x="1605" d="M182 0v1434h221l789 -1049v1049h231v-1434h-221l-786 1047v-1047h-234zM446 1614q0 138 50 210t143 72q43 0 82.5 -15.5t91.5 -51.5q62 -47 111 -47q69 0 69 108h168q0 -139 -49.5 -210.5t-142.5 -71.5q-43 0 -82.5 15.5t-91.5 51.5q-62 47 -109 47q-72 0 -72 -108h-168z " />
<glyph unicode="&#xd2;" horiz-adv-x="1703" d="M113 717q0 160 56 298t153.5 236t236.5 153.5t299 55.5q213 0 383 -95t265.5 -265t95.5 -383t-95.5 -383t-265.5 -265.5t-383 -95.5q-214 0 -384.5 95.5t-265.5 265.5t-95 383zM356 717q0 -226 142.5 -374t359.5 -148q215 0 357.5 148t142.5 374t-142.5 374t-357.5 148 q-217 0 -359.5 -148t-142.5 -374zM563 1923h230l219 -338h-224z" />
<glyph unicode="&#xd3;" horiz-adv-x="1703" d="M113 717q0 160 56 298t153.5 236t236.5 153.5t299 55.5q213 0 383 -95t265.5 -265t95.5 -383t-95.5 -383t-265.5 -265.5t-383 -95.5q-214 0 -384.5 95.5t-265.5 265.5t-95 383zM356 717q0 -226 142.5 -374t359.5 -148q215 0 357.5 148t142.5 374t-142.5 374t-357.5 148 q-217 0 -359.5 -148t-142.5 -374zM707 1585l219 338h227l-225 -338h-221z" />
<glyph unicode="&#xd4;" horiz-adv-x="1703" d="M113 717q0 160 56 298t153.5 236t236.5 153.5t299 55.5q213 0 383 -95t265.5 -265t95.5 -383t-95.5 -383t-265.5 -265.5t-383 -95.5q-214 0 -384.5 95.5t-265.5 265.5t-95 383zM356 717q0 -226 142.5 -374t359.5 -148q215 0 357.5 148t142.5 374t-142.5 374t-357.5 148 q-217 0 -359.5 -148t-142.5 -374zM446 1585l293 338h226l295 -338h-230l-178 209l-178 -209h-228z" />
<glyph unicode="&#xd5;" horiz-adv-x="1703" d="M109 715q-2 208 94.5 380t268 270t380.5 95q209 3 380.5 -95t268 -270t94.5 -380q1 -155 -55 -293.5t-154.5 -237.5t-237.5 -156t-296 -55q-157 -2 -296 55t-237.5 156t-154.5 237.5t-55 293.5zM356 715q0 -227 139.5 -372.5t356.5 -145.5t356.5 145.5t139.5 372.5 q0 229 -139.5 375.5t-356.5 146.5t-356.5 -146.5t-139.5 -375.5zM496 1614q0 139 49.5 210.5t142.5 71.5q43 0 82.5 -15.5t91.5 -51.5q62 -47 109 -47q71 0 71 108h166q0 -139 -48.5 -210.5t-141.5 -71.5q-45 0 -84.5 15.5t-91.5 51.5q-59 47 -109 47q-69 0 -69 -108h-168z " />
<glyph unicode="&#xd6;" horiz-adv-x="1703" d="M113 717q0 160 56 298t153.5 236t236.5 153.5t299 55.5q213 0 383 -95t265.5 -265t95.5 -383t-95.5 -383t-265.5 -265.5t-383 -95.5q-214 0 -384.5 95.5t-265.5 265.5t-95 383zM356 717q0 -226 142.5 -374t359.5 -148q215 0 357.5 148t142.5 374t-142.5 374t-357.5 148 q-217 0 -359.5 -148t-142.5 -374zM469 1765q0 60 42.5 102t102.5 42q58 0 100 -42.5t42 -101.5t-42 -100t-100 -41q-60 0 -102.5 40.5t-42.5 100.5zM946 1765q0 60 43 102t103 42q57 0 99 -42t42 -102q0 -59 -41.5 -100t-99.5 -41q-60 0 -103 40.5t-43 100.5z" />
<glyph unicode="&#xd7;" d="M295 356l293 293l-293 293l139 139l293 -293l293 293l139 -139l-293 -293l293 -293l-139 -139l-293 293l-293 -293z" />
<glyph unicode="&#xd8;" horiz-adv-x="1703" d="M109 715q-2 208 94.5 380t268 270t380.5 95q268 0 465 -155l149 149l125 -123l-149 -149q153 -197 153 -467q1 -155 -55 -293.5t-154.5 -237.5t-237.5 -156t-296 -55q-268 0 -463 156l-147 -147l-125 122l147 146q-155 193 -155 465zM356 715q0 -163 84 -293l711 713 q-124 102 -299 102q-217 0 -356.5 -146.5t-139.5 -375.5zM553 299q124 -102 299 -102q217 0 356.5 145.5t139.5 372.5q0 170 -84 295z" />
<glyph unicode="&#xd9;" horiz-adv-x="1513" d="M170 565v869h238v-883q0 -165 94.5 -259.5t259.5 -94.5q171 0 262.5 94t91.5 260v883h238v-869q0 -266 -161 -429t-431 -163q-264 0 -428 164t-164 428zM449 1923h227l219 -338h-221z" />
<glyph unicode="&#xda;" horiz-adv-x="1513" d="M170 565v869h238v-883q0 -165 94.5 -259.5t259.5 -94.5q171 0 262.5 94t91.5 260v883h238v-869q0 -266 -161 -429t-431 -163q-264 0 -428 164t-164 428zM602 1585l219 338h228l-226 -338h-221z" />
<glyph unicode="&#xdb;" horiz-adv-x="1513" d="M170 565v869h238v-883q0 -165 94.5 -259.5t259.5 -94.5q171 0 262.5 94t91.5 260v883h238v-869q0 -266 -161 -429t-431 -163q-264 0 -428 164t-164 428zM350 1585l293 338h227l293 -338h-229l-178 209l-176 -209h-230z" />
<glyph unicode="&#xdc;" horiz-adv-x="1513" d="M170 565v869h238v-883q0 -165 94.5 -259.5t259.5 -94.5q171 0 262.5 94t91.5 260v883h238v-869q0 -266 -161 -429t-431 -163q-264 0 -428 164t-164 428zM375 1765q0 60 41.5 102t101.5 42q59 0 100 -42t41 -102t-41 -100.5t-100 -40.5q-60 0 -101.5 40.5t-41.5 100.5z M850 1765q0 60 42.5 102t102.5 42q57 0 99.5 -42.5t42.5 -101.5t-42 -100t-100 -41q-60 0 -102.5 40.5t-42.5 100.5z" />
<glyph unicode="&#xdd;" horiz-adv-x="1318" d="M2 1434h270l392 -631l395 631h272l-549 -859v-575h-237v575zM510 1585l219 338h227l-225 -338h-221z" />
<glyph unicode="&#xde;" horiz-adv-x="1370" d="M182 0v1434h238v-238h342q259 0 392.5 -118t133.5 -347t-133.5 -347t-392.5 -118h-342v-266h-238zM420 481h332q290 0 290 250q0 246 -290 246h-332v-496z" />
<glyph unicode="&#xdf;" horiz-adv-x="1294" d="M152 0v1053q0 221 128 342t363 121q224 0 354.5 -110t130.5 -296q0 -134 -68.5 -224.5t-195.5 -121.5q167 -12 260 -108t93 -253q0 -186 -125 -294.5t-349 -108.5h-180v199h144q138 0 208 58t70 169q0 221 -285 221h-137v203h64q133 0 203.5 58.5t70.5 172.5 q0 111 -66.5 170.5t-191.5 59.5q-264 0 -264 -269v-1042h-227z" />
<glyph unicode="&#xe0;" horiz-adv-x="1120" d="M88 305q0 100 54.5 171t149.5 105t223.5 42t275.5 -17l-3 78q0 89 -57 136.5t-153 47.5q-87 0 -164 -35.5t-129 -99.5l-123 129q61 81 184.5 133t249.5 52q192 0 305 -107.5t113 -290.5v-649h-195v184q-39 -97 -133 -152t-227 -55q-170 0 -270.5 91t-100.5 237zM264 1530 h266l220 -338h-222zM311 319q0 -80 54 -127t149 -47q129 0 203 71.5t74 197.5v63q-221 36 -350.5 -4.5t-129.5 -153.5z" />
<glyph unicode="&#xe1;" horiz-adv-x="1153" d="M88 305q0 80 37 142t103 99.5t156.5 58.5t197 19.5t225.5 -18.5l-2 78q0 88 -56 136t-147 48t-170 -35.5t-131 -99.5l-123 129q61 80 183 132.5t241 52.5q210 0 319 -105.5t109 -292.5v-649h-194v184q-37 -96 -132 -151.5t-229 -55.5q-170 0 -278.5 91.5t-108.5 236.5z M311 319q0 -79 61.5 -126.5t157.5 -47.5q129 0 203 71.5t74 197.5v63q-222 36 -359 -4.5t-137 -153.5zM528 1192l220 338h223l-221 -338h-222z" />
<glyph unicode="&#xe2;" horiz-adv-x="1138" d="M88 305q0 100 54.5 171t149.5 105t223.5 42t275.5 -17l-3 78q0 89 -57 136.5t-153 47.5q-87 0 -164 -35.5t-129 -99.5l-123 129q61 81 184.5 133t249.5 52q192 0 305 -107.5t113 -290.5v-649h-195v184q-39 -97 -133 -152t-227 -55q-170 0 -270.5 91t-100.5 237zM211 1192 l293 338h227l293 -338h-229l-179 207l-176 -207h-229zM311 319q0 -80 54 -127t149 -47q129 0 203 71.5t74 197.5v63q-221 36 -350.5 -4.5t-129.5 -153.5z" />
<glyph unicode="&#xe3;" horiz-adv-x="1103" d="M88 305q0 100 54.5 171t149.5 105t223.5 42t275.5 -17l-3 78q0 89 -57 136.5t-153 47.5q-87 0 -164 -35.5t-129 -99.5l-123 129q61 81 184.5 133t249.5 52q192 0 305 -107.5t113 -290.5v-649h-195v184q-39 -97 -133 -152t-227 -55q-170 0 -270.5 91t-100.5 237zM305 1221 q0 138 50 210t143 72q80 0 174 -67q62 -50 108 -50q72 0 72 111h166q0 -139 -50 -212t-141 -73q-84 0 -176 68q-58 49 -108 49q-70 0 -70 -108h-168zM311 319q0 -80 54 -127t149 -47q129 0 203 71.5t74 197.5v63q-221 36 -350.5 -4.5t-129.5 -153.5z" />
<glyph unicode="&#xe4;" horiz-adv-x="1181" d="M88 305q0 100 54.5 171t149.5 105t223.5 42t275.5 -17l-3 78q0 89 -57 136.5t-153 47.5q-87 0 -164 -35.5t-129 -99.5l-123 129q61 81 184.5 133t249.5 52q192 0 305 -107.5t113 -290.5v-649h-195v184q-39 -97 -133 -152t-227 -55q-170 0 -270.5 91t-100.5 237zM289 1372 q0 59 42.5 101.5t100.5 42.5t100.5 -42.5t42.5 -101.5q0 -60 -42 -101.5t-101 -41.5t-101 41.5t-42 101.5zM311 319q0 -80 54 -127t149 -47q129 0 203 71.5t74 197.5v63q-221 36 -350.5 -4.5t-129.5 -153.5zM766 1372q0 59 41.5 101.5t101.5 42.5q58 0 100 -42.5t42 -101.5 q0 -60 -41.5 -101.5t-100.5 -41.5q-60 0 -101.5 41.5t-41.5 101.5z" />
<glyph unicode="&#xe5;" horiz-adv-x="1198" d="M88 305q0 100 54.5 171t149.5 105t223.5 42t275.5 -17l-3 78q0 89 -57 136.5t-153 47.5q-87 0 -164 -35.5t-129 -99.5l-123 129q61 81 184.5 133t249.5 52q192 0 305 -107.5t113 -290.5v-649h-195v184q-39 -97 -133 -152t-227 -55q-170 0 -270.5 91t-100.5 237zM311 319 q0 -80 54 -127t149 -47q129 0 203 71.5t74 197.5v63q-221 36 -350.5 -4.5t-129.5 -153.5zM350 1436q0 108 78.5 183t196.5 75q116 0 195 -75t79 -183t-79 -183t-195 -75q-118 0 -196.5 75t-78.5 183zM496 1436q0 -59 34.5 -93t94.5 -34t94.5 34t34.5 93t-34.5 93t-94.5 34 t-94.5 -34t-34.5 -93z" />
<glyph unicode="&#xe6;" horiz-adv-x="1914" d="M72 305q0 100 54.5 171t149 105t223 42t275.5 -17v78q0 88 -58 136t-155 48q-86 0 -163 -35.5t-128 -99.5l-125 129q62 81 186.5 133t248.5 52q230 0 344 -152q152 152 391 152q257 0 394.5 -156t117.5 -432h-821q0 -130 94.5 -212.5t230.5 -82.5q106 0 196.5 39 t139.5 106l129 -133q-66 -92 -194 -145.5t-279 -53.5q-146 0 -262 55t-187 156q-80 -108 -192.5 -159.5t-239.5 -51.5q-169 0 -269.5 91t-100.5 237zM295 319q0 -80 54.5 -127t150.5 -47q133 0 204.5 70.5t71.5 190.5v71q-223 36 -352 -4.5t-129 -153.5zM1004 602h598 q-2 121 -79 198t-208 77q-129 0 -217.5 -81.5t-93.5 -193.5z" />
<glyph unicode="&#xe7;" horiz-adv-x="1134" d="M90 518q0 242 149.5 395.5t385.5 153.5q152 0 271 -65.5t185 -184.5l-168 -117q-98 158 -280 158q-140 0 -225.5 -93.5t-85.5 -246.5q0 -151 86 -244.5t225 -93.5q89 0 161 42t119 120l170 -117q-55 -101 -149 -163.5t-215 -81.5l-111 -388h-231l145 390 q-197 32 -314.5 177.5t-117.5 358.5z" />
<glyph unicode="&#xe8;" horiz-adv-x="1224" d="M84 516q0 234 151.5 382.5t387.5 148.5q258 0 396 -156t116 -432h-820q0 -129 95 -212t231 -83q106 0 195.5 38.5t140.5 106.5l127 -133q-66 -92 -193 -145.5t-278 -53.5q-246 0 -397.5 148.5t-151.5 390.5zM276 1530h269l219 -338h-223zM313 602h598q-2 121 -79 198 t-209 77q-128 0 -216.5 -82t-93.5 -193z" />
<glyph unicode="&#xe9;" horiz-adv-x="1230" d="M84 516q0 234 151.5 382.5t387.5 148.5q258 0 396 -156t116 -432h-820q0 -129 95 -212t231 -83q106 0 195.5 38.5t140.5 106.5l127 -133q-66 -92 -193 -145.5t-278 -53.5q-246 0 -397.5 148.5t-151.5 390.5zM313 602h598q-2 121 -79 198t-209 77q-128 0 -216.5 -82 t-93.5 -193zM487 1192l220 338h227l-225 -338h-222z" />
<glyph unicode="&#xea;" horiz-adv-x="1224" d="M84 516q0 234 151.5 382.5t387.5 148.5q258 0 396 -156t116 -432h-820q0 -129 95 -212t231 -83q106 0 195.5 38.5t140.5 106.5l127 -133q-66 -92 -193 -145.5t-278 -53.5q-246 0 -397.5 148.5t-151.5 390.5zM213 1192l293 338h227l293 -338h-229l-179 207l-176 -207h-229 zM313 602h598q-2 121 -79 198t-209 77q-128 0 -216.5 -82t-93.5 -193z" />
<glyph unicode="&#xeb;" horiz-adv-x="1224" d="M84 516q0 234 151.5 382.5t387.5 148.5q258 0 396 -156t116 -432h-820q0 -129 95 -212t231 -83q106 0 195.5 38.5t140.5 106.5l127 -133q-66 -92 -193 -145.5t-278 -53.5q-246 0 -397.5 148.5t-151.5 390.5zM227 1372q0 58 42.5 101t101.5 43q58 0 100.5 -42.5 t42.5 -101.5q0 -60 -42 -101.5t-101 -41.5t-101.5 41.5t-42.5 101.5zM313 602h598q-2 121 -79 198t-209 77q-128 0 -216.5 -82t-93.5 -193zM705 1372q0 59 41.5 101.5t101.5 42.5q58 0 99.5 -42.5t41.5 -101.5q0 -60 -41 -101.5t-100 -41.5q-60 0 -101.5 41.5t-41.5 101.5z " />
<glyph unicode="&#xec;" horiz-adv-x="534" d="M-84 1530h227l232 -338h-221zM154 0v1024h227v-1024h-227z" />
<glyph unicode="&#xed;" horiz-adv-x="534" d="M152 1192l219 338h227l-225 -338h-221zM154 0v1024h227v-1024h-227z" />
<glyph unicode="&#xee;" horiz-adv-x="534" d="M-78 1192l240 338h213l239 -338h-204l-142 209l-141 -209h-205zM154 0v1024h227v-1024h-227z" />
<glyph unicode="&#xef;" horiz-adv-x="534" d="M-47 1370q0 58 33.5 92.5t89.5 34.5q54 0 87.5 -34.5t33.5 -92.5q0 -59 -33 -94t-88 -35q-56 0 -89.5 34.5t-33.5 94.5zM154 0v1024h227v-1024h-227zM340 1370q0 58 33.5 92.5t87.5 34.5t87.5 -34.5t33.5 -92.5q0 -59 -34 -94t-87 -35q-55 0 -88 35t-33 94z" />
<glyph unicode="&#xf1;" horiz-adv-x="1234" d="M152 0v1024h223v-172q44 89 138 144t204 55q157 0 267 -110t110 -265v-676h-230v600q0 100 -70 171.5t-171 72.5q-101 0 -172.5 -72t-71.5 -172l2 -600h-229zM266 1221q0 138 50 210t143 72q43 0 82.5 -15.5t91.5 -51.5q62 -50 108 -50q72 0 72 111h166q0 -139 -49 -212 t-142 -73q-44 0 -83.5 15.5t-92.5 52.5q-58 49 -108 49q-70 0 -70 -108h-168z" />
<glyph unicode="&#xf2;" horiz-adv-x="1277" d="M88 520q0 153 68 277.5t195.5 197t291.5 72.5t289 -73t189.5 -196.5t64.5 -277.5q0 -153 -66 -276.5t-192.5 -197t-290.5 -73.5q-244 0 -396.5 156t-152.5 391zM319 520q0 -150 85.5 -246t232.5 -96q145 0 232 97t87 245q0 149 -84.5 245.5t-228.5 96.5 q-146 0 -235 -96.5t-89 -245.5zM369 1530h227l219 -338h-221z" />
<glyph unicode="&#xf3;" horiz-adv-x="1277" d="M88 520q0 153 68 277.5t195.5 197t291.5 72.5t289 -73t189.5 -196.5t64.5 -277.5q0 -153 -66 -276.5t-192.5 -197t-290.5 -73.5q-244 0 -396.5 156t-152.5 391zM319 520q0 -150 85.5 -246t232.5 -96q145 0 232 97t87 245q0 149 -84.5 245.5t-228.5 96.5 q-146 0 -235 -96.5t-89 -245.5zM494 1192l219 338h227l-225 -338h-221z" />
<glyph unicode="&#xf4;" horiz-adv-x="1277" d="M88 520q0 153 68 277.5t195.5 197t291.5 72.5t289 -73t189.5 -196.5t64.5 -277.5q0 -153 -66 -276.5t-192.5 -197t-290.5 -73.5q-244 0 -396.5 156t-152.5 391zM231 1192l295 338h226l295 -338h-230l-178 207l-178 -207h-230zM319 520q0 -150 85.5 -246t232.5 -96 q145 0 232 97t87 245q0 149 -84.5 245.5t-228.5 96.5q-146 0 -235 -96.5t-89 -245.5z" />
<glyph unicode="&#xf5;" horiz-adv-x="1277" d="M90 520q0 156 67.5 280t193.5 195.5t288 71.5t288 -71.5t193.5 -195.5t67.5 -280q0 -239 -152 -393t-397 -154t-397 154t-152 393zM283 1221q0 138 49 210t141 72q45 0 84 -15.5t90 -51.5q65 -50 111 -50q69 0 69 111h168q0 -139 -49.5 -212t-142.5 -73q-76 0 -174 68 q-58 49 -109 49q-71 0 -71 -108h-166zM322 520q0 -155 87 -248.5t230 -93.5t230 93.5t87 248.5t-87 248.5t-230 93.5t-230 -93.5t-87 -248.5z" />
<glyph unicode="&#xf6;" horiz-adv-x="1277" d="M88 520q0 153 68 277.5t195.5 197t291.5 72.5t289 -73t189.5 -196.5t64.5 -277.5q0 -153 -66 -276.5t-192.5 -197t-290.5 -73.5q-244 0 -396.5 156t-152.5 391zM256 1372q0 59 42.5 101.5t102.5 42.5q57 0 99.5 -43t42.5 -101q0 -59 -42 -101t-100 -42q-60 0 -102.5 41.5 t-42.5 101.5zM319 520q0 -150 85.5 -246t232.5 -96q145 0 232 97t87 245q0 149 -84.5 245.5t-228.5 96.5q-146 0 -235 -96.5t-89 -245.5zM733 1372q0 59 42 101.5t102 42.5q58 0 99.5 -42.5t41.5 -101.5q0 -60 -41 -101.5t-100 -41.5q-60 0 -102 41.5t-42 101.5z" />
<glyph unicode="&#xf7;" d="M272 547v205h912v-205h-912zM594 252q0 58 39.5 98.5t97.5 40.5t97.5 -40.5t39.5 -98.5q0 -59 -39.5 -99t-97.5 -40t-97.5 40t-39.5 99zM594 1049q0 59 39.5 99t97.5 40t97.5 -40t39.5 -99q0 -57 -39.5 -97.5t-97.5 -40.5t-97.5 40.5t-39.5 97.5z" />
<glyph unicode="&#xf8;" horiz-adv-x="1286" d="M76 59l123 123q-105 138 -105 338q0 156 67.5 280t193.5 195.5t288 71.5q195 0 336 -104l125 122l106 -104l-123 -123q105 -138 105 -338q0 -239 -152 -393t-397 -154q-194 0 -336 105l-127 -125zM313 520q0 -113 52 -190l479 477q-76 67 -201 67q-150 0 -240 -96.5 t-90 -257.5zM442 231q83 -67 201 -67q149 0 238.5 97.5t89.5 258.5q0 115 -49 191z" />
<glyph unicode="&#xf9;" horiz-adv-x="1224" d="M137 352v672h230v-594q0 -118 61.5 -184t165.5 -66q111 0 184.5 71.5t73.5 186.5l-2 586h229v-1024h-223v184q-42 -96 -138 -153.5t-220 -57.5q-161 0 -261 104.5t-100 274.5zM338 1530h227l219 -338h-221z" />
<glyph unicode="&#xfa;" horiz-adv-x="1224" d="M137 348v676h230v-600q0 -101 70.5 -171.5t170.5 -72.5q100 0 172 71.5t72 172.5l-2 600h229v-1024h-223v172q-44 -89 -138 -144t-204 -55q-157 0 -267 110t-110 265zM438 1192l219 338h228l-226 -338h-221z" />
<glyph unicode="&#xfb;" horiz-adv-x="1224" d="M137 348v676h230v-600q0 -101 70.5 -171.5t170.5 -72.5q100 0 172 71.5t72 172.5l-2 600h229v-1024h-223v172q-44 -89 -138 -144t-204 -55q-157 0 -267 110t-110 265zM203 1192l293 338h227l293 -338h-230l-176 207l-178 -207h-229z" />
<glyph unicode="&#xfc;" horiz-adv-x="1224" d="M137 348v676h230v-600q0 -101 70.5 -171.5t170.5 -72.5q100 0 172 71.5t72 172.5l-2 600h229v-1024h-223v172q-44 -89 -138 -144t-204 -55q-157 0 -267 110t-110 265zM227 1372q0 59 42 101.5t102 42.5q58 0 99.5 -42.5t41.5 -101.5q0 -60 -41 -101.5t-100 -41.5 q-60 0 -102 41.5t-42 101.5zM705 1372q0 59 41.5 101.5t101.5 42.5q58 0 99.5 -42.5t41.5 -101.5q0 -60 -41 -101.5t-100 -41.5q-60 0 -101.5 41.5t-41.5 101.5z" />
<glyph unicode="&#xfd;" horiz-adv-x="1120" d="M29 1024h245l295 -752l281 752h244l-465 -1171q-58 -146 -147 -204.5t-249 -58.5h-190v205h152q103 0 149.5 27t75.5 104l33 82zM389 1192l219 338h230l-228 -338h-221z" />
<glyph unicode="&#xfe;" horiz-adv-x="1320" d="M152 -371v1805h206v-619q44 105 153 168.5t239 63.5q228 0 353.5 -145.5t125.5 -395.5q0 -236 -130 -382.5t-354 -146.5q-140 0 -240.5 69.5t-129.5 158.5v-576h-223zM375 506q0 -148 88 -242t229 -94q135 0 221 93.5t86 242.5q0 152 -87 247t-226 95q-137 0 -224 -95.5 t-87 -246.5z" />
<glyph unicode="&#xff;" horiz-adv-x="1120" d="M29 1040h245l295 -768l281 768h244l-465 -1187q-58 -146 -147 -204.5t-249 -58.5h-190v205h152q103 0 149.5 27t75.5 104l33 82zM180 1372q0 59 42 101.5t102 42.5q58 0 99.5 -42.5t41.5 -101.5q0 -60 -41 -101.5t-100 -41.5q-60 0 -102 41.5t-42 101.5zM655 1372 q0 59 43 101.5t103 42.5q57 0 99 -43t42 -101q0 -60 -42 -101.5t-99 -41.5q-60 0 -103 41.5t-43 101.5z" />
<glyph unicode="&#x152;" horiz-adv-x="2242" d="M109 715q-2 209 94 374t266 255.5t383 89.5h1247v-213h-766v-392h719v-211h-719v-403h787v-215h-1268q-216 0 -385 89.5t-263.5 252.5t-94.5 373zM356 715q0 -224 138 -360t358 -136h246v995h-246q-220 0 -358 -137t-138 -362z" />
<glyph unicode="&#x153;" horiz-adv-x="2093" d="M88 520q0 153 68 277.5t195.5 197t291.5 72.5q139 0 250 -53t182 -148q73 86 181 133.5t237 47.5q258 0 396 -156t116 -432h-819q0 -130 94 -212.5t231 -82.5q105 0 195 39t141 106l127 -133q-66 -92 -193 -145.5t-278 -53.5q-138 0 -249.5 49.5t-184.5 141.5 q-74 -92 -185 -143.5t-247 -51.5q-244 0 -396.5 156t-152.5 391zM319 520q0 -150 85.5 -246t232.5 -96q135 0 221.5 86t95.5 221v31v35q-8 137 -91.5 224t-219.5 87q-146 0 -235 -96.5t-89 -245.5zM1182 602h600q-2 121 -80 198t-209 77q-128 0 -217 -82t-94 -193z" />
<glyph unicode="&#x178;" horiz-adv-x="1318" d="M2 1434h270l392 -631l395 631h272l-549 -859v-575h-237v575zM279 1763q0 62 39 102t102 40q64 0 103.5 -40t39.5 -102t-39.5 -100.5t-103.5 -38.5q-63 0 -102 38.5t-39 100.5zM754 1763q0 62 40 102t103 40q64 0 103.5 -40t39.5 -102t-39.5 -101.5t-103.5 -39.5 q-63 0 -103 39.5t-40 101.5z" />
<glyph unicode="&#x2c6;" horiz-adv-x="1269" d="M227 1192l295 338h226l294 -338h-229l-178 207l-178 -207h-230z" />
<glyph unicode="&#x2dc;" horiz-adv-x="1269" d="M279 1221q0 139 49.5 210.5t142.5 71.5q43 0 82.5 -15.5t91.5 -51.5q62 -50 109 -50q71 0 71 111h166q0 -139 -49.5 -212t-140.5 -73q-44 0 -83.5 15.5t-92.5 52.5q-58 49 -109 49q-70 0 -70 -108h-167z" />
<glyph unicode="&#x2000;" horiz-adv-x="1013" />
<glyph unicode="&#x2001;" horiz-adv-x="2026" />
<glyph unicode="&#x2002;" horiz-adv-x="1013" />
<glyph unicode="&#x2003;" horiz-adv-x="2026" />
<glyph unicode="&#x2004;" horiz-adv-x="675" />
<glyph unicode="&#x2005;" horiz-adv-x="506" />
<glyph unicode="&#x2006;" horiz-adv-x="337" />
<glyph unicode="&#x2007;" horiz-adv-x="337" />
<glyph unicode="&#x2008;" horiz-adv-x="253" />
<glyph unicode="&#x2009;" horiz-adv-x="405" />
<glyph unicode="&#x200a;" horiz-adv-x="112" />
<glyph unicode="&#x2010;" horiz-adv-x="776" d="M88 489v197h600v-197h-600z" />
<glyph unicode="&#x2011;" horiz-adv-x="776" d="M88 489v197h600v-197h-600z" />
<glyph unicode="&#x2012;" horiz-adv-x="776" d="M88 489v197h600v-197h-600z" />
<glyph unicode="&#x2013;" horiz-adv-x="1200" d="M88 489v193h1024v-193h-1024z" />
<glyph unicode="&#x2014;" horiz-adv-x="2226" d="M88 489v193h2050v-193h-2050z" />
<glyph unicode="&#x2018;" horiz-adv-x="483" d="M68 930l151 530h197l-117 -530h-231z" />
<glyph unicode="&#x2019;" horiz-adv-x="483" d="M68 930l116 530h232l-152 -530h-196z" />
<glyph unicode="&#x201a;" horiz-adv-x="473" d="M47 -297l117 530h231l-151 -530h-197z" />
<glyph unicode="&#x201c;" horiz-adv-x="882" d="M68 930l151 530h197l-117 -530h-231zM467 930l151 530h197l-117 -530h-231z" />
<glyph unicode="&#x201d;" horiz-adv-x="882" d="M68 930l116 530h232l-152 -530h-196zM467 930l117 530h231l-151 -530h-197z" />
<glyph unicode="&#x201e;" horiz-adv-x="872" d="M47 -297l117 530h231l-151 -530h-197zM446 -297l117 530h232l-152 -530h-197z" />
<glyph unicode="&#x2022;" horiz-adv-x="1005" d="M279 664q-29 94 15.5 178.5t139.5 113.5t179.5 -16t113.5 -139t-16 -179t-140 -114t-179 16.5t-113 139.5z" />
<glyph unicode="&#x2026;" horiz-adv-x="1579" d="M131 119q-6 64 26.5 104.5t94.5 48.5q66 6 107 -25t47 -95q8 -63 -24.5 -105t-96.5 -49q-62 -6 -104.5 27t-49.5 94zM653 119q-7 64 25.5 104.5t95.5 48.5q65 6 106 -25t48 -95q6 -63 -26 -105t-95 -49q-63 -6 -105.5 27t-48.5 94zM1174 119q-7 64 25 104.5t95 48.5 q64 6 105 -25.5t47 -94.5q8 -63 -24.5 -105t-96.5 -49q-62 -6 -103.5 27t-47.5 94z" />
<glyph unicode="&#x202f;" horiz-adv-x="405" />
<glyph unicode="&#x2039;" horiz-adv-x="671" d="M53 520l312 443h239l-309 -443l309 -444h-239z" />
<glyph unicode="&#x203a;" horiz-adv-x="671" d="M68 76l309 444l-309 443h239l311 -443l-311 -444h-239z" />
<glyph unicode="&#x205f;" horiz-adv-x="506" />
<glyph unicode="&#x20ac;" horiz-adv-x="1280" d="M63 500v131h154q-4 25 -4 86t4 86h-154v131h170q44 243 185 384.5t336 141.5q161 0 284 -96t179 -260l-193 -92q-35 113 -105.5 174t-160.5 61q-105 0 -181.5 -83t-105.5 -230h410v-131h-430q-5 -57 -5 -84q0 -25 5 -88h430v-131h-410q29 -147 105.5 -230.5t181.5 -83.5 q90 0 160.5 61.5t105.5 174.5l193 -90q-56 -166 -179 -262.5t-284 -96.5q-195 0 -336 142t-185 385h-170z" />
<glyph unicode="&#x25fc;" horiz-adv-x="1024" d="M0 0v1024h1024v-1024h-1024z" />
</font>
</defs>
</svg>
