<?xml version="1.0" standalone="no"?>
<!DOCTYPE svg PUBLIC "-//W3C//DTD SVG 1.1//EN" "http://www.w3.org/Graphics/SVG/1.1/DTD/svg11.dtd" >
<svg xmlns="http://www.w3.org/2000/svg" xmlns:xlink="http://www.w3.org/1999/xlink" version="1.1">
<metadata></metadata>
<defs>
<font id="lama_sansbold" horiz-adv-x="1454" >
<font-face units-per-em="2048" ascent="1638" descent="-410" />
<missing-glyph horiz-adv-x="436" />
<glyph horiz-adv-x="0" />
<glyph horiz-adv-x="682" />
<glyph unicode="&#xd;" horiz-adv-x="466" />
<glyph unicode=" "  horiz-adv-x="436" />
<glyph unicode="&#x09;" horiz-adv-x="436" />
<glyph unicode="&#xa0;" horiz-adv-x="436" />
<glyph unicode="!" horiz-adv-x="632" d="M152 143q-4 76 37 122.5t116 51.5q77 5 124.5 -35.5t51.5 -117.5q5 -74 -36 -122t-117 -52q-75 -5 -123.5 36.5t-52.5 116.5zM174 1434h285l-23 -957h-241z" />
<glyph unicode="&#x22;" horiz-adv-x="890" d="M98 1462h277l-37 -579h-205zM516 1462h277l-35 -579h-205z" />
<glyph unicode="#" horiz-adv-x="1474" d="M90 387v193h248l55 274h-217v193h254l70 356h219l-72 -356h307l72 356h217l-69 -356h210v-193h-247l-56 -274h217v-193h-254l-71 -356h-217l69 356h-307l-69 -356h-220l72 356h-211zM555 580h307l56 274h-308z" />
<glyph unicode="$" horiz-adv-x="1228" d="M78 324l176 143q107 -172 324 -197v348l-93 23q-374 91 -374 375q0 168 125 272t342 113v135h104v-137q154 -12 267 -75t171 -165l-176 -141q-91 129 -262 147v-325l113 -27q356 -86 356 -371q0 -176 -125.5 -286.5t-343.5 -122.5v-135h-104v135q-175 12 -306 88.5 t-194 202.5zM375 1022q0 -59 43.5 -92t159.5 -64v305q-98 -6 -150.5 -45t-52.5 -104zM682 268q100 4 152.5 47.5t52.5 116.5q0 64 -45 99t-160 63v-326z" />
<glyph unicode="%" horiz-adv-x="1810" d="M53 1092q0 161 107 265.5t270 104.5t270 -104.5t107 -265.5t-107 -265t-270 -104t-270 104t-107 265zM256 1092q0 -81 48.5 -132t125.5 -51q78 0 127 50.5t49 132.5q0 83 -49 133.5t-127 50.5q-77 0 -125.5 -50.5t-48.5 -133.5zM299 0l977 1434h235l-976 -1434h-236z M1004 342q0 161 106.5 266t269.5 105t270 -105t107 -266t-107 -266t-270 -105t-269.5 105t-106.5 266zM1204 342q0 -81 49 -131.5t127 -50.5q77 0 125.5 50.5t48.5 131.5q0 83 -48.5 133.5t-125.5 50.5q-78 0 -127 -50.5t-49 -133.5z" />
<glyph unicode="&#x26;" horiz-adv-x="1433" d="M106 371q0 122 73.5 221t230.5 192q-85 101 -123.5 180t-38.5 158q0 145 109 242.5t290 97.5q177 0 284 -92t107 -240q0 -113 -70.5 -206.5t-224.5 -184.5l242 -272q47 110 59 250h238q-27 -260 -133 -438l244 -279h-281l-102 119q-171 -148 -412 -148q-222 0 -357 112.5 t-135 287.5zM377 391q0 -85 63.5 -135.5t175.5 -50.5q140 0 230 84l-295 334q-174 -98 -174 -232zM492 1108q0 -49 27 -96t93 -121q101 59 144 108t43 107q0 63 -43 102t-111 39t-110.5 -39t-42.5 -100z" />
<glyph unicode="'" horiz-adv-x="471" d="M98 1462h277l-37 -579h-205z" />
<glyph unicode="(" horiz-adv-x="706" d="M129 639q0 239 86 479.5t238 419.5l206 -121q-125 -157 -195.5 -364t-70.5 -414q0 -208 70 -414.5t196 -363.5l-206 -121q-154 181 -239 420.5t-85 478.5z" />
<glyph unicode=")" horiz-adv-x="706" d="M49 -139q124 158 194 367t70 411q0 204 -70.5 414.5t-193.5 363.5l207 121q152 -180 238 -421t86 -478q0 -240 -86 -480t-238 -419z" />
<glyph unicode="*" horiz-adv-x="952" d="M43 1077l59 185l287 -107l-10 307h192l-12 -309l289 107l59 -185l-297 -82l191 -241l-156 -113l-170 256l-172 -254l-156 113l191 241z" />
<glyph unicode="+" d="M266 530v238h336v362h252v-362h334v-238h-334v-360h-252v360h-336z" />
<glyph unicode="," horiz-adv-x="518" d="M57 -322l107 607h266l-158 -607h-215z" />
<glyph unicode="-" horiz-adv-x="763" d="M80 473v229h604v-229h-604z" />
<glyph unicode="." horiz-adv-x="559" d="M115 143q-4 76 37.5 122.5t115.5 51.5q78 5 125 -35t51 -118q5 -74 -36 -122t-117 -52q-75 -5 -123.5 36.5t-52.5 116.5z" />
<glyph unicode="/" horiz-adv-x="1034" d="M10 -193l758 1709h256l-758 -1709h-256z" />
<glyph unicode="0" horiz-adv-x="1429" d="M123 717q0 221 74 390.5t208.5 262t309.5 92.5q265 0 427.5 -205t162.5 -540t-162.5 -540.5t-427.5 -205.5t-428.5 205.5t-163.5 540.5zM403 717q0 -223 86 -359.5t226 -136.5t225.5 136.5t85.5 359.5q0 224 -85.5 359.5t-225.5 135.5t-226 -135.5t-86 -359.5z" />
<glyph unicode="1" horiz-adv-x="866" d="M74 1153v281h620v-1434h-270v1151z" />
<glyph unicode="2" horiz-adv-x="1196" d="M66 1090q70 179 214 275.5t334 96.5q216 0 350 -119t134 -303q0 -113 -56 -215t-182 -219l-381 -358h637v-248h-1038v201l530 497q119 111 167 185.5t48 144.5q0 85 -57 134.5t-152 49.5q-102 0 -188 -63t-145 -188z" />
<glyph unicode="3" horiz-adv-x="1165" d="M45 193l154 180q147 -156 350 -156q125 0 195.5 55t70.5 148q0 186 -323 186h-111v242h158q125 0 191.5 47t66.5 133q0 87 -61 138t-169 51q-200 0 -334 -175l-180 170q87 120 221.5 185t300.5 65q229 0 361.5 -109.5t132.5 -293.5q0 -126 -66 -211.5t-192 -118.5 q136 -40 207.5 -127t71.5 -215q0 -184 -143.5 -300t-383.5 -116q-160 0 -293.5 56.5t-224.5 165.5z" />
<glyph unicode="4" horiz-adv-x="1257" d="M63 295v223l723 916l170 -123l-626 -793h452v438h265v-438h180v-223h-180v-295h-265v295h-719z" />
<glyph unicode="5" horiz-adv-x="1204" d="M68 186l153 187q153 -156 357 -156q131 0 208.5 64t77.5 176q0 107 -71 171t-191 64q-139 0 -256 -92h-196v834h901v-240h-650v-348q117 69 271 69q214 0 340.5 -120.5t126.5 -331.5q0 -230 -148.5 -361t-406.5 -131q-307 0 -516 215z" />
<glyph unicode="6" horiz-adv-x="1220" d="M61 487q0 110 38.5 222t142.5 286l274 439h303l-325 -482q53 27 127 27q243 0 393.5 -134.5t150.5 -357.5q0 -232 -152.5 -371t-398.5 -139q-248 0 -400.5 139t-152.5 371zM332 481q0 -131 77.5 -209.5t204.5 -78.5t204 78.5t77 209.5t-76 210t-198 79q-130 0 -209.5 -79 t-79.5 -210z" />
<glyph unicode="7" horiz-adv-x="1087" d="M37 1186v248h1014v-224l-582 -1210h-303l584 1186h-713z" />
<glyph unicode="8" horiz-adv-x="1273" d="M82 387q0 120 79 216t208 134q-110 37 -177 127t-67 199q0 180 141 289.5t371 109.5t371 -109.5t141 -289.5q0 -109 -67.5 -199t-176.5 -127q128 -38 207.5 -134.5t79.5 -215.5q0 -187 -153 -301.5t-402 -114.5q-250 0 -402.5 114t-152.5 302zM362 414q0 -95 76 -153 t199 -58t198.5 58t75.5 153t-75.5 153t-198.5 58t-199 -58t-76 -153zM389 1036q0 -91 68 -146.5t180 -55.5t180 55.5t68 146.5q0 92 -68 148.5t-180 56.5t-180 -56.5t-68 -148.5z" />
<glyph unicode="9" horiz-adv-x="1230" d="M55 952q0 232 152 371t399 139q248 0 400.5 -139t152.5 -371q0 -107 -38.5 -223.5t-143.5 -284.5l-285 -438h-303l338 481q-56 -26 -127 -26q-243 0 -394 134t-151 357zM326 958q0 -131 75 -209.5t199 -78.5q130 0 208.5 78.5t78.5 209.5t-77 210t-204 79 q-126 0 -203 -78.5t-77 -210.5z" />
<glyph unicode=":" horiz-adv-x="569" d="M115 154q0 81 48 128.5t128 47.5q82 0 128 -47t46 -129q0 -80 -46.5 -128.5t-127.5 -48.5q-79 0 -127.5 48.5t-48.5 128.5zM115 852q0 81 48 127.5t128 46.5q82 0 128 -46t46 -128q0 -80 -46.5 -128t-127.5 -48q-79 0 -127.5 48t-48.5 128z" />
<glyph unicode=";" horiz-adv-x="550" d="M57 -322l107 607h266l-158 -607h-215zM125 842q-4 76 37.5 122.5t116.5 51.5q77 5 123.5 -36.5t50.5 -117.5q5 -75 -36.5 -122.5t-117.5 -51.5q-75 -5 -122.5 37t-51.5 117z" />
<glyph unicode="&#x3c;" d="M266 535v231l922 350v-252l-567 -215l567 -215v-252z" />
<glyph unicode="=" d="M266 305v238h922v-238h-922zM266 756v237h922v-237h-922z" />
<glyph unicode="&#x3e;" d="M266 182v252l568 215l-568 215v252l922 -350v-231z" />
<glyph unicode="?" horiz-adv-x="956" d="M31 1169q67 137 191 215t282 78q180 0 294.5 -97t114.5 -257q0 -87 -39.5 -159t-134.5 -150l-82 -70q-57 -47 -71.5 -74t-14.5 -86v-92h-252v109q3 108 28 153.5t132 137.5l92 75q84 75 84 148q0 62 -41.5 95.5t-113.5 33.5q-171 0 -277 -189zM281 143q-4 76 37 122.5 t116 51.5q77 5 124.5 -35.5t51.5 -117.5q5 -74 -36 -122t-117 -52q-75 -5 -123.5 36.5t-52.5 116.5z" />
<glyph unicode="@" horiz-adv-x="1990" d="M98 457q-2 193 70 363.5t196.5 290.5t297 188.5t364.5 66.5q181 2 344 -58.5t282.5 -167t189 -260.5t67.5 -329q0 -234 -110.5 -381t-282.5 -147q-103 0 -182 52.5t-105 143.5q-82 -190 -305 -190q-191 0 -301.5 117.5t-110.5 316.5q0 192 114.5 312t301.5 120 q95 0 170.5 -40.5t101.5 -106.5v126h201v-524q4 -64 33.5 -98.5t76.5 -34.5q74 0 123 82.5t49 226.5q0 191 -87 334t-235 216t-335 73q-204 0 -362.5 -87t-246 -244t-87.5 -359q0 -302 193 -488t507 -186q231 0 377 84l98 -193q-186 -108 -477 -108q-199 -2 -373 64 t-297 183.5t-192.5 284t-67.5 357.5zM737 469q0 -112 61 -180t160 -68q98 0 163 68.5t65 179.5t-65 179.5t-163 68.5t-159.5 -70t-61.5 -178z" />
<glyph unicode="A" horiz-adv-x="1445" d="M20 0l549 1434h291l565 -1434h-292l-109 281h-604l-105 -281h-295zM508 518h432l-217 645z" />
<glyph unicode="B" horiz-adv-x="1390" d="M168 0v1434h616q219 0 342 -94.5t123 -266.5q0 -117 -55.5 -198t-161.5 -119q275 -80 275 -346q0 -103 -43 -183.5t-117.5 -129t-168 -73t-200.5 -24.5h-610zM440 231h346q106 0 167 53.5t61 145.5q0 91 -61 144t-167 53h-346v-396zM442 842l332 -2q82 0 136 56 q52 54 51 125v5q-3 73 -56.5 124.5t-130.5 51.5h-332v-360z" />
<glyph unicode="C" horiz-adv-x="1517" d="M102 715q0 156 51.5 292t145 236.5t235.5 158.5t314 58q202 0 361.5 -95.5t254.5 -268.5l-225 -133q-57 108 -160 172.5t-231 64.5q-209 0 -334 -137.5t-125 -347.5q0 -211 123.5 -348.5t335.5 -137.5q130 0 233.5 65t159.5 177l223 -139q-86 -177 -247 -269t-369 -92 q-175 0 -318 58t-235.5 159t-142.5 236t-50 291z" />
<glyph unicode="D" horiz-adv-x="1501" d="M168 0v1434h549q198 0 355.5 -95t244 -258.5t86.5 -363.5q0 -202 -86 -365t-243.5 -257.5t-356.5 -94.5h-549zM442 256h240q196 0 314 130.5t118 330.5q0 202 -118 331.5t-314 129.5h-240v-922z" />
<glyph unicode="E" horiz-adv-x="1267" d="M168 0v1434h962v-250h-688v-346h641v-246h-641v-342h709v-250h-983z" />
<glyph unicode="F" horiz-adv-x="1187" d="M168 0v1434h930v-250h-654v-410h617v-252h-617v-522h-276z" />
<glyph unicode="G" horiz-adv-x="1581" d="M102 713q0 157 51 293t145 237t235.5 159t312.5 58q183 0 338.5 -80.5t255.5 -220.5l-228 -155q-59 93 -154 144.5t-212 51.5q-209 0 -334 -138t-125 -349q0 -136 53 -244.5t158.5 -173.5t247.5 -66q240 0 368 144v205h-319v227h573l-2 -543q-108 -140 -267.5 -215.5 t-352.5 -75.5q-176 1 -318.5 58.5t-234.5 158t-141.5 235t-49.5 290.5z" />
<glyph unicode="H" horiz-adv-x="1540" d="M168 0v1434h276v-625h652v625h276v-1434h-276v553h-652v-553h-276z" />
<glyph unicode="I" horiz-adv-x="620" d="M172 0v1434h277v-1434h-277z" />
<glyph unicode="J" horiz-adv-x="1216" d="M45 428l272 88v-41q0 -97 70 -166t168 -69t168 69t70 166v959h276v-951q0 -140 -69 -258.5t-187.5 -187t-257.5 -68.5q-130 0 -245.5 62.5t-186.5 168.5t-78 228z" />
<glyph unicode="K" horiz-adv-x="1386" d="M168 0v1434h276v-662l594 662h336l-653 -721l649 -713h-342l-481 524l-103 -104v-420h-276z" />
<glyph unicode="L" horiz-adv-x="1185" d="M168 0v1434h276v-1178h684v-256h-960z" />
<glyph unicode="M" horiz-adv-x="1914" d="M168 0v1434h356l424 -1119l453 1119h344v-1434h-272v1044l-418 -1044h-213l-400 1044v-1044h-274z" />
<glyph unicode="N" horiz-adv-x="1589" d="M168 0v1434h260l721 -983v983h272v-1434h-260l-721 983v-983h-272z" />
<glyph unicode="O" horiz-adv-x="1701" d="M102 717q0 215 95 385t266.5 265t388.5 95t387.5 -95t265 -264.5t94.5 -385.5t-94.5 -386t-265 -265t-387.5 -95q-163 0 -302.5 55.5t-238 153.5t-154 237t-55.5 300zM387 717q0 -212 131 -349t334 -137q202 0 332.5 137t130.5 349t-130 348.5t-333 136.5t-334 -136.5 t-131 -348.5z" />
<glyph unicode="P" horiz-adv-x="1341" d="M168 0v1434h625q209 0 341 -137t132 -355q0 -217 -132.5 -354t-340.5 -137h-349v-451h-276zM444 700h312q99 0 161 64t62 178q0 104 -63 173t-160 69h-312v-484z" />
<glyph unicode="Q" horiz-adv-x="1699" d="M100 717q0 154 52 290t147 237t237.5 159.5t313.5 58.5q153 0 292.5 -59t240 -158.5t160 -237.5t59.5 -290q0 -157 -62.5 -296.5t-173.5 -242.5l135 -170l-182 -145l-148 182q-151 -74 -321 -74q-174 0 -317 58.5t-237 160t-145 237t-51 290.5zM389 717 q0 -207 126 -347.5t335 -140.5q70 0 145 35l-141 178l180 146l156 -191q58 61 91.5 144.5t33.5 175.5q0 201 -136.5 343t-328.5 142q-206 0 -333.5 -139.5t-127.5 -345.5z" />
<glyph unicode="R" horiz-adv-x="1353" d="M166 2v1432h649q192 0 328.5 -135.5t136.5 -327.5q0 -157 -93.5 -279t-238.5 -162l-43 -6l373 -518l-328 -6l-346 506h-164v-504h-274zM440 756h338q90 0 152.5 62.5t62.5 152.5q0 88 -63 150.5t-152 62.5h-338v-428z" />
<glyph unicode="S" horiz-adv-x="1296" d="M63 291l189 151q136 -221 412 -221q131 0 206.5 48.5t75.5 133.5q0 66 -50 108t-171 71l-219 53q-406 98 -406 405q0 190 144.5 306t394.5 116q189 0 335 -75.5t220 -202.5l-190 -154q-134 184 -367 184q-124 0 -190 -44t-66 -123q0 -61 50.5 -100.5t178.5 -69.5l230 -56 q387 -92 387 -403q0 -200 -157 -323.5t-417 -123.5q-211 0 -363.5 84t-226.5 236z" />
<glyph unicode="T" horiz-adv-x="1247" d="M43 1178v256h1161v-256h-442v-1178h-275v1178h-444z" />
<glyph unicode="U" horiz-adv-x="1503" d="M154 573v861h276v-875q0 -150 84.5 -236.5t239.5 -86.5q163 0 243 85t80 238v875h279v-861q0 -266 -162 -432t-440 -166q-269 0 -434.5 167.5t-165.5 430.5z" />
<glyph unicode="V" horiz-adv-x="1406" d="M23 1434h296l388 -1110l383 1110h296l-518 -1434h-323z" />
<glyph unicode="W" horiz-adv-x="2164" d="M39 1434h297l305 -1047l385 1047h141l359 -1049l305 1049h295l-430 -1434h-307l-291 899l-322 -899h-305z" />
<glyph unicode="X" horiz-adv-x="1316" d="M25 0l469 727l-435 707h312l295 -494l297 494h311l-438 -709l456 -725h-319l-309 502l-320 -502h-319z" />
<glyph unicode="Y" horiz-adv-x="1318" d="M-4 1434h315l346 -600l349 600h317l-526 -865v-569h-279v569z" />
<glyph unicode="Z" horiz-adv-x="1247" d="M84 0v207l709 979h-695v248h1057v-207l-709 -979h717v-248h-1079z" />
<glyph unicode="[" horiz-adv-x="784" d="M168 -238v1754h549v-236h-289v-1282h289v-236h-549z" />
<glyph unicode="\" horiz-adv-x="1034" d="M10 1516h256l758 -1709h-256z" />
<glyph unicode="]" horiz-adv-x="784" d="M68 -2h286v1282h-286v236h548v-1754h-548v236z" />
<glyph unicode="^" horiz-adv-x="1206" d="M51 719l432 665h240l432 -665h-287l-264 428l-266 -428h-287z" />
<glyph unicode="_" horiz-adv-x="897" d="M0 -102h897v-193h-897v193z" />
<glyph unicode="`" horiz-adv-x="1269" d="M211 1532h311l238 -342h-258z" />
<glyph unicode="a" horiz-adv-x="1140" d="M80 309q0 102 53 173.5t146 104.5t219 41q30 2 60 2q100 0 212 -20l-2 56q0 86 -60.5 129t-150.5 43q-78 0 -149.5 -32.5t-122.5 -90.5l-144 149q176 185 439 185q195 0 322.5 -119t127.5 -303v-627h-225v170q-39 -91 -129.5 -142t-220.5 -51q-179 0 -277 91t-98 241z M342 328q0 -156 180 -156q117 0 183.5 63t66.5 175v53q-99 18 -178 18q-76 0 -134 -17q-118 -34 -118 -136z" />
<glyph unicode="b" horiz-adv-x="1306" d="M143 0v1434h260v-592q25 75 121.5 140t233.5 65q224 0 351.5 -145t127.5 -382q0 -252 -123 -397.5t-354 -145.5q-124 0 -228.5 58t-146.5 155v-190h-242zM403 520q0 -136 79 -222.5t204 -86.5q124 0 202.5 86t78.5 223q0 135 -76 219t-199 84q-127 0 -208 -84.5 t-81 -218.5z" />
<glyph unicode="c" horiz-adv-x="1128" d="M82 520q0 244 150 397.5t391 153.5q155 0 275.5 -65.5t186.5 -184.5l-196 -137q-90 143 -256 143q-126 0 -203.5 -84t-77.5 -223q0 -137 77.5 -221t203.5 -84q80 0 146 37.5t110 107.5l196 -137q-66 -119 -187 -185.5t-275 -66.5q-242 0 -391.5 153t-149.5 396z" />
<glyph unicode="d" horiz-adv-x="1306" d="M72 520q0 236 128 381.5t351 145.5q127 0 229 -66.5t125 -138.5v592h260v-1434h-239v190q-44 -97 -148 -155t-229 -58q-231 0 -354 145.5t-123 397.5zM342 520q0 -138 78 -223.5t205 -85.5q123 0 201.5 86.5t78.5 222.5q0 134 -80 218.5t-209 84.5q-122 0 -198 -84 t-76 -219z" />
<glyph unicode="e" horiz-adv-x="1228" d="M78 516q0 235 153 383t392 148q268 -1 409 -159q119 -134 119 -354q0 -41 -4 -85h-801q0 -111 87.5 -181.5t211.5 -70.5q100 0 187.5 34.5t134.5 92.5l147 -158q-66 -86 -196.5 -137.5t-282.5 -51.5q-250 0 -403.5 148.5t-153.5 390.5zM344 612h541q0 103 -70.5 169.5 t-191.5 66.5q-114 0 -195 -71.5t-84 -164.5z" />
<glyph unicode="f" horiz-adv-x="829" d="M41 788v236h207v133q0 94 44.5 158.5t110.5 91.5t146 27h248v-234h-228q-26 0 -40.5 -17.5t-14.5 -45.5v-113h281v-236h-281v-788h-266v788h-207z" />
<glyph unicode="g" horiz-adv-x="1316" d="M82 543q0 227 127 366.5t350 139.5q73 0 135.5 -17t103 -41.5t71.5 -55t45.5 -53t21.5 -40.5v184h242v-922q0 -241 -156.5 -392.5t-405.5 -151.5q-152 0 -286 52.5t-213 141.5l119 189q68 -68 164.5 -109t197.5 -41q66 0 123 19t103.5 57.5t73 105t26.5 154.5v92 q-42 -94 -129 -151.5t-209 -57.5q-235 0 -369.5 145.5t-134.5 385.5zM352 522q0 -128 75 -210.5t200 -82.5q126 0 207 81t81 212q0 77 -24.5 136t-65.5 93t-89 51t-101 17q-127 0 -205 -81.5t-78 -215.5z" />
<glyph unicode="h" horiz-adv-x="1239" d="M141 0v1434h267v-545q37 70 126.5 112.5t202.5 42.5q163 0 267 -102.5t104 -263.5v-678h-266v610q0 93 -60 155t-149 62q-98 0 -161.5 -66.5t-63.5 -168.5v-592h-267z" />
<glyph unicode="i" horiz-adv-x="550" d="M113 1372q0 66 48 114t115 48q65 0 112.5 -48t47.5 -114q0 -67 -47.5 -114.5t-112.5 -47.5q-68 0 -115.5 47.5t-47.5 114.5zM143 0v1024h267v-1024h-267z" />
<glyph unicode="j" horiz-adv-x="550" d="M-86 -174h119q108 0 108 108v1090h269v-1139q0 -140 -82.5 -217.5t-235.5 -77.5h-178v236zM109 1370q0 72 46 116t121 44q74 0 120 -44t46 -116q0 -70 -46 -114t-120 -44q-75 0 -121 43.5t-46 114.5z" />
<glyph unicode="k" horiz-adv-x="1140" d="M141 0v1434h267v-828l411 418h309l-454 -475l461 -549h-318l-344 377l-65 -78v-299h-267z" />
<glyph unicode="l" horiz-adv-x="534" d="M133 0v1434h266v-1434h-266z" />
<glyph unicode="m" horiz-adv-x="1878" d="M141 0v1024h262v-154q40 79 128.5 129t193.5 50q108 0 196.5 -56.5t122.5 -146.5q38 90 134.5 146.5t212.5 56.5q155 0 255.5 -111.5t100.5 -278.5v-659h-268v588q0 96 -56.5 158.5t-140.5 62.5q-90 0 -147.5 -64t-57.5 -157v-588h-266v588q0 96 -58.5 158.5t-142.5 62.5 q-90 0 -145 -64t-55 -157v-588h-269z" />
<glyph unicode="n" horiz-adv-x="1236" d="M141 0v1024h260v-162q44 86 136 136.5t200 50.5q154 0 261.5 -106.5t107.5 -258.5v-684h-268v592q0 91 -62 154t-153 63q-90 0 -153.5 -63.5t-63.5 -153.5l2 -592h-267z" />
<glyph unicode="o" horiz-adv-x="1269" d="M80 522q0 233 155.5 380t405.5 147q245 0 397 -147t152 -380q0 -242 -154 -394.5t-401 -152.5q-249 0 -402 151t-153 396zM350 516q0 -138 79 -224.5t206 -86.5t207 86.5t80 224.5q0 137 -78.5 223t-202.5 86q-129 0 -210 -85.5t-81 -223.5z" />
<glyph unicode="p" horiz-adv-x="1316" d="M141 -365v1389h240v-188q42 96 147 153.5t230 57.5q229 0 352 -145t123 -396q0 -238 -127 -383.5t-352 -145.5q-136 0 -233 65.5t-120 141.5v-549h-260zM401 506q0 -135 80 -219t209 -84q122 0 198.5 84t76.5 219q0 138 -78 222.5t-205 84.5q-123 0 -202 -86t-79 -221z " />
<glyph unicode="q" horiz-adv-x="1316" d="M82 506q0 251 123.5 396t353.5 145q124 0 228.5 -57.5t148.5 -153.5v188h240v-1427h-261v587q-23 -76 -120 -141.5t-234 -65.5q-223 0 -351 145.5t-128 383.5zM352 506q0 -135 76.5 -219t198.5 -84q129 0 208.5 84t79.5 219t-78.5 221t-201.5 86q-127 0 -205 -84.5 t-78 -222.5z" />
<glyph unicode="r" horiz-adv-x="854" d="M141 0v1024h260v-176q43 92 127.5 146.5t188.5 54.5q45 0 92 -13l-2 -254q-94 4 -139 4q-128 0 -194 -70t-66 -206v-510h-267z" />
<glyph unicode="s" horiz-adv-x="1050" d="M59 152l119 180q64 -64 161 -103t198 -39q84 0 129 29t45 78q0 38 -32 63.5t-104 42.5l-188 46q-150 36 -219.5 107.5t-69.5 180.5q0 153 117 243.5t317 90.5q134 0 248.5 -42.5t182.5 -115.5l-121 -180q-144 117 -312 117q-80 0 -122.5 -27t-42.5 -75q0 -36 30 -59 t101 -42l188 -45q155 -38 225 -109t70 -182q0 -158 -117.5 -249t-326.5 -91q-150 0 -276 48t-200 133z" />
<glyph unicode="t" horiz-adv-x="866" d="M41 788v236h195v328h268v-328h287v-236h-287v-522q0 -26 26 -26h263v-240h-316q-101 0 -171 71t-70 173v544h-195z" />
<glyph unicode="u" horiz-adv-x="1230" d="M127 342v682h266v-592q0 -90 62.5 -152.5t152.5 -64.5q90 0 153.5 63.5t63.5 153.5l-2 592h269v-1024h-263v162q-43 -85 -134.5 -138t-198.5 -53q-154 0 -261.5 108.5t-107.5 262.5z" />
<glyph unicode="v" horiz-adv-x="1134" d="M23 1024h286l260 -700l256 700h287l-397 -1024h-293z" />
<glyph unicode="w" horiz-adv-x="1748" d="M31 1042h272l215 -725l234 725h245l234 -725l215 725h272l-327 -1042h-295l-222 692l-221 -692h-297z" />
<glyph unicode="x" horiz-adv-x="1124" d="M27 0l364 532l-344 492h295l221 -311l215 311h297l-342 -492l365 -532h-299l-238 352l-235 -352h-299z" />
<glyph unicode="y" horiz-adv-x="1138" d="M29 1042h286l267 -720l252 720h284l-459 -1192q-52 -136 -147.5 -198t-251.5 -62h-219v240h172q92 0 137.5 25.5t67.5 87.5l28 69z" />
<glyph unicode="z" horiz-adv-x="1017" d="M78 0v176l508 641h-492v225h838v-176l-508 -639h514v-227h-860z" />
<glyph unicode="{" horiz-adv-x="776" d="M68 522v236h12q74 0 106.5 32t32.5 107v317q0 164 70 233t239 69h183v-236h-93q-77 0 -107 -31t-30 -112v-240q0 -113 -44.5 -174.5t-137.5 -83.5q93 -22 137.5 -83.5t44.5 -172.5v-242q0 -80 30.5 -111.5t106.5 -31.5h93v-236h-183q-169 0 -239 68.5t-70 232.5v320 q0 73 -32.5 106t-106.5 33h-12z" />
<glyph unicode="|" horiz-adv-x="641" d="M209 -205v1772h223v-1772h-223z" />
<glyph unicode="}" horiz-adv-x="776" d="M68 -2h90q78 0 108.5 31.5t30.5 111.5v242q0 112 44 173t138 83q-94 22 -138 83.5t-44 174.5v240q0 81 -30.5 112t-108.5 31h-90v236h180q169 0 239 -69t70 -233v-317q0 -75 32.5 -107t106.5 -32h15v-236h-15q-74 0 -106.5 -33t-32.5 -106v-320q0 -164 -70 -232.5 t-239 -68.5h-180v236z" />
<glyph unicode="~" d="M266 489v240q125 90 256 90q70 0 211 -52t203 -52q140 0 252 94v-240q-128 -92 -250 -92q-70 0 -209 53.5t-211 53.5q-66 0 -123.5 -22t-128.5 -73z" />
<glyph unicode="&#xa1;" horiz-adv-x="632" d="M152 879q-4 76 37 122.5t116 51.5q77 5 124.5 -36t51.5 -118q5 -74 -36 -122t-117 -52q-75 -5 -123.5 37t-52.5 117zM174 -391l21 958h241l23 -958h-285z" />
<glyph unicode="&#xa2;" horiz-adv-x="1128" d="M82 520q0 237 142 389.5t372 161.5v184h94v-188q131 -12 233.5 -76.5t161.5 -169.5l-196 -137q-74 115 -199 139v-602q123 21 199 139l196 -137q-59 -105 -161.5 -170t-233.5 -78v-239h-94v235q-231 9 -372.5 161t-141.5 388zM352 520q0 -126 67 -208.5t177 -94.5v608 q-111 -12 -177.5 -94.5t-66.5 -210.5z" />
<glyph unicode="&#xa3;" horiz-adv-x="1110" d="M57 0v240h148v368h-144v195h144v227q0 205 110 318.5t314 113.5q300 0 436 -241l-205 -142q-79 127 -211 127q-174 0 -174 -194v-209h459v-195h-459v-368h580v-240h-998z" />
<glyph unicode="&#xa4;" horiz-adv-x="1136" d="M80 348l129 129q-70 109 -70 236q0 128 70 237l-129 129l121 121l137 -135q94 61 231 61q136 0 234 -61l135 135l121 -121l-129 -129q69 -104 69 -237q0 -132 -69 -236l129 -129l-121 -121l-135 135q-98 -61 -234 -61q-137 0 -231 61l-137 -135zM379 713q0 -87 52 -140 t138 -53t138.5 53.5t52.5 139.5q0 88 -52.5 141t-138.5 53t-138 -53t-52 -141z" />
<glyph unicode="&#xa5;" horiz-adv-x="1224" d="M20 1434h287l305 -549l306 549h286l-399 -691h301v-159h-356v-166h356v-160h-356v-258h-275v258h-352v160h352v166h-352v159h297z" />
<glyph unicode="&#xa6;" horiz-adv-x="641" d="M209 -205v719h223v-719h-223zM209 834v733h223v-733h-223z" />
<glyph unicode="&#xa7;" horiz-adv-x="1134" d="M90 -88l117 180q65 -64 163.5 -99.5t213.5 -35.5q184 0 184 117q0 51 -34.5 81.5t-112.5 49.5l-191 45q-313 76 -313 307q0 99 54.5 175t152.5 106q-197 79 -197 272q0 164 120 258t335 94q143 0 258 -42t182 -115l-121 -181q-139 115 -319 115q-185 0 -185 -121 q0 -48 34 -78t110 -47l188 -45q161 -39 238 -114.5t77 -190.5q0 -102 -53 -177.5t-149 -105.5q196 -81 196 -276q0 -165 -120 -257.5t-340 -92.5q-156 0 -284.5 47t-203.5 131zM375 602q0 -64 38 -101t128 -57l57 -8q90 -10 139 36t49 124q0 63 -38.5 99.5t-126.5 58.5 l-60 8q-89 11 -137.5 -35.5t-48.5 -124.5z" />
<glyph unicode="&#xa8;" horiz-adv-x="1269" d="M227 1370q0 70 46 115t118 45t117 -44.5t45 -115.5t-45 -115.5t-117 -44.5t-118 45t-46 115zM717 1370q0 71 45 115.5t117 44.5q73 0 118 -44.5t45 -115.5t-45 -115.5t-118 -44.5q-72 0 -117 44.5t-45 115.5z" />
<glyph unicode="&#xa9;" horiz-adv-x="1685" d="M98 717q-2 150 56.5 289t159 239.5t240 159.5t290.5 57q151 2 289.5 -57t238.5 -159.5t158.5 -239.5t56.5 -289q2 -150 -56.5 -289t-158.5 -240t-238.5 -160t-289.5 -57q-121 -2 -236 35.5t-207 107.5t-161.5 162t-106.5 206.5t-35 234.5zM240 717q-2 -166 77.5 -308 t219.5 -225.5t307 -81.5q166 -2 306 81.5t219.5 225.5t76.5 308q2 124 -44.5 238t-127 197t-193.5 131.5t-237 47.5q-125 1 -238 -47.5t-193.5 -131.5t-127 -197t-45.5 -238zM440 719q0 191 117.5 310.5t308.5 119.5q122 0 217 -50.5t146 -142.5l-158 -110q-67 108 -199 108 q-96 0 -155.5 -64t-59.5 -171q0 -108 59.5 -173t155.5 -65q131 0 199 109l158 -109q-51 -93 -146 -143.5t-217 -50.5q-191 0 -308.5 119.5t-117.5 312.5z" />
<glyph unicode="&#xab;" horiz-adv-x="1210" d="M47 522l313 449h281l-313 -449l313 -448h-281zM557 522l315 449h279l-311 -449l311 -448h-279z" />
<glyph unicode="&#xac;" d="M266 530v238h922v-444h-248v206h-674z" />
<glyph unicode="&#xad;" horiz-adv-x="763" d="M80 473v229h604v-229h-604z" />
<glyph unicode="&#xae;" horiz-adv-x="1107" d="M98 1010q0 123 60.5 227.5t165.5 165.5t229 61q190 0 323.5 -133t133.5 -321t-133.5 -320.5t-323.5 -132.5q-93 0 -177 36t-145 96.5t-97 144.5t-36 176zM207 1010q0 -149 99.5 -253t246.5 -104t247.5 104t100.5 253t-100.5 252.5t-247.5 103.5t-246.5 -103.5 t-99.5 -252.5zM377 778v475h207q85 0 128.5 -39t43.5 -114q0 -128 -123 -146l135 -176h-115l-123 172h-55v-172h-98zM475 1032h103q75 0 75 66q0 65 -75 65h-103v-131z" />
<glyph unicode="&#xaf;" horiz-adv-x="1458" d="M389 1143v209h678v-209h-678z" />
<glyph unicode="&#xb0;" horiz-adv-x="784" d="M57 1135q0 140 94.5 233.5t239.5 93.5q147 0 241.5 -93t94.5 -234q0 -139 -95 -232.5t-241 -93.5q-145 0 -239.5 93.5t-94.5 232.5zM244 1135q0 -68 40.5 -110t106.5 -42q67 0 108.5 42t41.5 110q0 69 -41 111t-109 42q-66 0 -106.5 -42t-40.5 -111z" />
<glyph unicode="&#xb1;" d="M266 0v240h922v-240h-922zM266 674v237h336v308h252v-308h334v-237h-334v-307h-252v307h-336z" />
<glyph unicode="&#xb4;" horiz-adv-x="1269" d="M514 1190l238 342h311l-291 -342h-258z" />
<glyph unicode="&#xb5;" horiz-adv-x="1247" d="M141 -451v1493h267v-606q0 -221 198 -221q234 0 234 274v553h268v-1042h-238v156q-32 -87 -102.5 -136t-165.5 -49q-129 0 -194 92v-514h-267z" />
<glyph unicode="&#xb6;" horiz-adv-x="1351" d="M88 1116q0 145 103 231.5t294 86.5h220v-1700h-230v1065h-24q-168 0 -265.5 87.5t-97.5 229.5zM911 -266v1700h232v-1700h-232z" />
<glyph unicode="&#xb8;" horiz-adv-x="1269" d="M369 -410l166 435h227l-121 -435h-272z" />
<glyph unicode="&#xbb;" horiz-adv-x="1210" d="M59 74l314 448l-314 449h279l315 -449l-315 -448h-279zM571 74l312 448l-312 449h279l315 -449l-315 -448h-279z" />
<glyph unicode="&#xbf;" horiz-adv-x="956" d="M43 -66q0 86 40.5 159t135.5 151l82 69q57 47 71.5 74.5t14.5 87.5v92h252v-110q-3 -77 -14.5 -115t-41.5 -74.5t-106 -101.5l-90 -76q-86 -71 -86 -147q0 -62 42.5 -95.5t113.5 -33.5q173 0 278 188l191 -129q-67 -137 -190.5 -215t-282.5 -78q-180 0 -295 97t-115 257z M348 879q-4 76 37.5 122.5t116.5 51.5q77 5 123.5 -35.5t50.5 -118.5q5 -75 -36 -122.5t-118 -51.5q-74 -5 -122 37t-52 117z" />
<glyph unicode="&#xc0;" d="M20 0l549 1434h291l565 -1434h-292l-109 281h-604l-105 -281h-295zM358 1923h265l223 -342h-258zM508 518h432l-217 645z" />
<glyph unicode="&#xc1;" d="M20 0l549 1434h291l565 -1434h-292l-109 281h-604l-105 -281h-295zM508 518h432l-217 645zM621 1581l223 342h266l-231 -342h-258z" />
<glyph unicode="&#xc2;" d="M20 0l549 1434h291l565 -1434h-292l-109 281h-604l-105 -281h-295zM315 1581l295 342h264l295 -342h-266l-162 193l-159 -193h-267zM508 518h432l-217 645z" />
<glyph unicode="&#xc3;" d="M20 0l549 1434h291l565 -1434h-292l-109 281h-604l-105 -281h-295zM373 1602q0 303 200 303q79 0 177 -64q62 -43 104 -43q64 0 64 103h194q0 -306 -203 -306q-44 0 -83 15t-93 49q-59 43 -104 43q-64 0 -64 -100h-192zM508 518h432l-217 645z" />
<glyph unicode="&#xc4;" d="M20 0l549 1434h291l565 -1434h-292l-109 281h-604l-105 -281h-295zM336 1761q0 67 48 115.5t116 48.5q66 0 114 -48.5t48 -115.5t-48 -114.5t-114 -47.5q-68 0 -116 47.5t-48 114.5zM508 518h432l-217 645zM823 1761q0 67 48.5 115.5t115.5 48.5q66 0 114 -48.5 t48 -115.5t-48 -114.5t-114 -47.5q-68 0 -116 47.5t-48 114.5z" />
<glyph unicode="&#xc5;" d="M20 0l549 1434h291l565 -1434h-292l-109 281h-604l-105 -281h-295zM508 518h432l-217 645zM508 1782q-23 90 30 168t152 100t181.5 -27t105.5 -141q23 -90 -30 -168t-152 -100t-182 27.5t-105 140.5zM653.5 1858q-8.5 -33 12.5 -68q41 -75 120 -35q36 19 45 51.5 t-12 67.5q-20 35 -52 44.5t-69 -9.5q-36 -18 -44.5 -51z" />
<glyph unicode="&#xc6;" horiz-adv-x="2232" d="M10 0l908 1434h1181v-254h-745v-328h700v-254h-700v-344h766v-254h-1041v305h-549l-190 -305h-330zM666 537h413v663z" />
<glyph unicode="&#xc7;" horiz-adv-x="1523" d="M102 715q0 156 51.5 292t145 236.5t235.5 158.5t314 58q202 0 361.5 -95.5t254.5 -268.5l-225 -133q-56 111 -158.5 174t-232.5 63q-209 0 -334 -137.5t-125 -347.5q0 -211 123.5 -348.5t335.5 -137.5q130 0 233.5 65t159.5 177l223 -139q-77 -160 -216.5 -251 t-321.5 -106l-103 -385h-272l147 394q-142 22 -255.5 87.5t-187.5 162.5t-113.5 219.5t-39.5 261.5z" />
<glyph unicode="&#xc8;" horiz-adv-x="1320" d="M168 0v1434h1016v-250h-742v-367h695v-246h-695v-321h762v-250h-1036zM373 1923h264l223 -342h-258z" />
<glyph unicode="&#xc9;" horiz-adv-x="1320" d="M168 0v1434h1020v-250h-746v-353h697v-247h-697v-334h766v-250h-1040zM510 1581l223 342h264l-231 -342h-256z" />
<glyph unicode="&#xca;" horiz-adv-x="1320" d="M168 0v1434h1016v-250h-742v-367h695v-246h-695v-321h762v-250h-1036zM240 1581l295 342h264l297 -342h-269l-159 193l-162 -193h-266z" />
<glyph unicode="&#xcb;" horiz-adv-x="1320" d="M168 0v1434h1016v-250h-742v-367h695v-246h-695v-321h762v-250h-1036zM258 1765q0 66 48.5 114t117.5 48q65 0 112.5 -48t47.5 -114q0 -68 -47.5 -115.5t-112.5 -47.5q-69 0 -117.5 47t-48.5 116zM748 1765q0 66 48 114t115 48q66 0 114 -48t48 -114q0 -68 -47.5 -115.5 t-114.5 -47.5q-68 0 -115.5 47t-47.5 116z" />
<glyph unicode="&#xcc;" horiz-adv-x="620" d="M-51 1923h311l223 -342h-256zM172 0v1434h277v-1434h-277z" />
<glyph unicode="&#xcd;" horiz-adv-x="620" d="M172 0v1434h277v-1434h-277zM184 1569l224 342h311l-277 -342h-258z" />
<glyph unicode="&#xce;" horiz-adv-x="620" d="M-117 1581l295 342h264l295 -342h-266l-160 193l-161 -193h-267zM172 0v1434h277v-1434h-277z" />
<glyph unicode="&#xcf;" horiz-adv-x="620" d="M-96 1761q0 71 45 115.5t117 44.5q73 0 118 -44.5t45 -115.5t-45 -115t-118 -44q-72 0 -117 44t-45 115zM172 0v1434h277v-1434h-277zM391 1761q0 70 46 115t118 45t117 -44.5t45 -115.5t-45 -115t-117 -44t-118 44.5t-46 114.5z" />
<glyph unicode="&#xd0;" horiz-adv-x="1570" d="M31 606v221h190v607h541q210 0 370 -84t250.5 -247.5t90.5 -385.5t-90.5 -385.5t-250.5 -247.5t-370 -84h-541v606h-190zM498 256h264q201 0 311.5 117t110.5 344t-110.5 344t-311.5 117h-264v-351h321v-221h-321v-350z" />
<glyph unicode="&#xd1;" horiz-adv-x="1603" d="M168 0v1434h260l735 -983v983h273v-1434h-260l-736 983v-983h-272zM432 1602q0 150 52 226.5t151 76.5q44 0 83 -15t93 -49q62 -43 104 -43q64 0 64 103h195q0 -151 -52 -228.5t-151 -77.5q-44 0 -83 15t-93 49q-59 43 -105 43q-63 0 -63 -100h-195z" />
<glyph unicode="&#xd2;" horiz-adv-x="1695" d="M102 717q0 215 95 385t266.5 265t388.5 95t387.5 -95t265 -264.5t94.5 -385.5t-94.5 -386t-265 -265t-387.5 -95q-163 0 -302.5 55.5t-238 153.5t-154 237t-55.5 300zM387 717q0 -212 131 -349t334 -137q202 0 332.5 137t130.5 349t-130 348.5t-333 136.5t-334 -136.5 t-131 -348.5zM541 1923h264l223 -342h-258z" />
<glyph unicode="&#xd3;" horiz-adv-x="1695" d="M102 717q0 215 95 385t266.5 265t388.5 95t387.5 -95t265 -264.5t94.5 -385.5t-94.5 -386t-265 -265t-387.5 -95q-163 0 -302.5 55.5t-238 153.5t-154 237t-55.5 300zM387 717q0 -212 131 -349t334 -137q202 0 332.5 137t130.5 349t-130 348.5t-333 136.5t-334 -136.5 t-131 -348.5zM676 1581l223 342h266l-231 -342h-258z" />
<glyph unicode="&#xd4;" horiz-adv-x="1695" d="M102 717q0 215 95 385t266.5 265t388.5 95t387.5 -95t265 -264.5t94.5 -385.5t-94.5 -386t-265 -265t-387.5 -95q-163 0 -302.5 55.5t-238 153.5t-154 237t-55.5 300zM387 717q0 -212 131 -349t334 -137q202 0 332.5 137t130.5 349t-130 348.5t-333 136.5t-334 -136.5 t-131 -348.5zM420 1581l295 342h264l297 -342h-268l-160 193l-162 -193h-266z" />
<glyph unicode="&#xd5;" horiz-adv-x="1695" d="M98 715q-1 156 56 295t156 239t239.5 157.5t298.5 55.5q211 3 384 -95.5t270 -271t95 -380.5q1 -124 -35 -239t-103.5 -206.5t-159.5 -159.5t-208 -104.5t-243 -34.5q-158 -2 -298.5 55t-239.5 156.5t-156 238.5t-56 294zM387 715q0 -211 129.5 -346.5t331.5 -135.5 t330.5 135.5t128.5 346.5q0 213 -128.5 349t-330.5 136t-331.5 -136.5t-129.5 -348.5zM477 1602q0 150 52 226.5t151 76.5q44 0 83 -15t93 -49q62 -43 105 -43q63 0 63 103h195q0 -151 -52 -228.5t-151 -77.5q-44 0 -83 15t-93 49q-62 43 -105 43q-63 0 -63 -100h-195z" />
<glyph unicode="&#xd6;" horiz-adv-x="1695" d="M102 717q0 215 95 385t266.5 265t388.5 95t387.5 -95t265 -264.5t94.5 -385.5t-94.5 -386t-265 -265t-387.5 -95q-163 0 -302.5 55.5t-238 153.5t-154 237t-55.5 300zM387 717q0 -212 131 -349t334 -137q202 0 332.5 137t130.5 349t-130 348.5t-333 136.5t-334 -136.5 t-131 -348.5zM438 1765q0 66 48.5 114t117.5 48q65 0 112.5 -48t47.5 -114q0 -68 -47.5 -115.5t-112.5 -47.5q-69 0 -117.5 47t-48.5 116zM928 1765q0 66 48.5 114t115.5 48q66 0 113.5 -48t47.5 -114q0 -69 -47.5 -116t-113.5 -47q-68 0 -116 47t-48 116z" />
<glyph unicode="&#xd7;" d="M281 365l284 284l-284 285l161 162l285 -283l285 283l162 -162l-283 -285l283 -284l-162 -162l-285 284l-285 -284z" />
<glyph unicode="&#xd8;" horiz-adv-x="1695" d="M98 715q-1 156 56 295t156 239t239.5 157.5t298.5 55.5q260 0 455 -147l145 145l143 -143l-141 -143q147 -198 147 -459q1 -124 -35 -239t-103.5 -206.5t-159.5 -159.5t-208 -104.5t-243 -34.5q-262 0 -455 148l-143 -144l-144 144l142 139q-150 194 -150 457zM387 715 q0 -137 68 -254l655 655q-114 84 -262 84q-202 0 -331.5 -136.5t-129.5 -348.5zM586 317q110 -84 262 -84q202 0 330.5 135.5t128.5 346.5q0 144 -68 256z" />
<glyph unicode="&#xd9;" horiz-adv-x="1501" d="M154 573v861h276v-875q0 -150 84.5 -236.5t239.5 -86.5q163 0 243 85t80 238v875h279v-861q0 -174 -71 -310t-208.5 -214t-322.5 -78q-178 0 -315 78t-211 214.5t-74 309.5zM430 1923h264l224 -342h-256z" />
<glyph unicode="&#xda;" horiz-adv-x="1501" d="M154 573v861h276v-875q0 -150 84.5 -236.5t239.5 -86.5q163 0 243 85t80 238v875h279v-861q0 -174 -71 -310t-208.5 -214t-322.5 -78q-178 0 -315 78t-211 214.5t-74 309.5zM573 1581l224 342h266l-232 -342h-258z" />
<glyph unicode="&#xdb;" horiz-adv-x="1501" d="M154 573v861h276v-875q0 -150 84.5 -236.5t239.5 -86.5q163 0 243 85t80 238v875h279v-861q0 -174 -71 -310t-208.5 -214t-322.5 -78q-178 0 -315 78t-211 214.5t-74 309.5zM324 1581l294 342h265l295 -342h-267l-159 193l-162 -193h-266z" />
<glyph unicode="&#xdc;" horiz-adv-x="1501" d="M154 573v861h276v-875q0 -150 84.5 -236.5t239.5 -86.5q163 0 243 85t80 238v875h279v-861q0 -174 -71 -310t-208.5 -214t-322.5 -78q-178 0 -315 78t-211 214.5t-74 309.5zM342 1765q0 66 48.5 114t115.5 48q66 0 114 -48t48 -114q0 -68 -47.5 -115.5t-114.5 -47.5 q-68 0 -116 47t-48 116zM831 1765q0 66 48.5 114t115.5 48q66 0 114 -48t48 -114q0 -68 -47.5 -115.5t-114.5 -47.5q-68 0 -116 47t-48 116z" />
<glyph unicode="&#xdd;" horiz-adv-x="1333" d="M-4 1434h315l359 -600l360 600h318l-539 -865v-569h-279v569zM494 1581l223 342h264l-229 -342h-258z" />
<glyph unicode="&#xde;" horiz-adv-x="1368" d="M168 0v1434h276v-230h314q265 0 399.5 -120t134.5 -355q0 -234 -134.5 -353.5t-399.5 -119.5h-314v-256h-276zM444 506h301q261 0 261 223q0 112 -65 165.5t-196 53.5h-301v-442z" />
<glyph unicode="&#xdf;" horiz-adv-x="1308" d="M141 0v1040q0 227 131.5 351.5t374.5 124.5q234 0 369 -112.5t135 -299.5q0 -130 -67.5 -219.5t-192.5 -118.5q166 -15 258 -110t92 -250q0 -184 -127.5 -295t-351.5 -111h-189v233h144q254 0 254 201q0 195 -264 195h-134v237h64q122 0 186 51.5t64 153.5q0 99 -61 153 t-177 54q-241 0 -241 -248v-1030h-267z" />
<glyph unicode="&#xe0;" horiz-adv-x="1142" d="M80 309q0 102 55 173.5t149.5 104.5t219.5 41t266 -18l-2 70q0 75 -52 116.5t-136 41.5q-80 0 -155 -32.5t-126 -90.5l-141 149q61 77 189.5 130t252.5 53q196 0 313 -110.5t117 -295.5v-641h-225v170q-39 -91 -129.5 -142t-220.5 -51q-170 0 -272.5 92t-102.5 240z M236 1532h311l223 -342h-258zM342 328q0 -72 47.5 -114t132.5 -42q117 0 183.5 63t66.5 175v53q-195 35 -312.5 1t-117.5 -136z" />
<glyph unicode="&#xe1;" horiz-adv-x="1181" d="M80 309q0 82 38 144.5t104.5 100t156.5 57t194 19t218 -19.5l-3 70q0 74 -50.5 116t-127.5 42q-88 0 -164 -32t-127 -91l-143 149q62 77 189.5 130t244.5 53q215 0 328 -108.5t113 -297.5v-641h-226v170q-39 -90 -130 -141.5t-220 -51.5q-172 0 -283.5 93t-111.5 239z M342 328q0 -70 57 -113t144 -43q117 0 182.5 63t65.5 175v53q-195 35 -322 0.5t-127 -135.5zM514 1190l223 342h260l-225 -342h-258z" />
<glyph unicode="&#xe2;" horiz-adv-x="1165" d="M80 309q0 102 55 173.5t149.5 104.5t219.5 41t266 -18l-2 70q0 75 -52 116.5t-136 41.5q-80 0 -155 -32.5t-126 -90.5l-141 149q61 77 189.5 130t252.5 53q196 0 313 -110.5t117 -295.5v-641h-225v170q-39 -91 -129.5 -142t-220.5 -51q-170 0 -272.5 92t-102.5 240z M193 1190l294 342h265l295 -342h-267l-159 192l-162 -192h-266zM342 328q0 -72 47.5 -114t132.5 -42q117 0 183.5 63t66.5 175v53q-195 35 -312.5 1t-117.5 -136z" />
<glyph unicode="&#xe3;" horiz-adv-x="1118" d="M80 309q0 102 55 173.5t149.5 104.5t219.5 41t266 -18l-2 70q0 75 -52 116.5t-136 41.5q-80 0 -155 -32.5t-126 -90.5l-141 149q61 77 189.5 130t252.5 53q196 0 313 -110.5t117 -295.5v-641h-225v170q-39 -91 -129.5 -142t-220.5 -51q-170 0 -272.5 92t-102.5 240z M291 1210q0 150 52 226.5t151 76.5q84 0 176 -63q62 -43 104 -43q64 0 64 102h194q0 -151 -52 -228t-151 -77q-82 0 -176 64q-59 43 -104 43q-64 0 -64 -101h-194zM342 328q0 -72 47.5 -114t132.5 -42q117 0 183.5 63t66.5 175v53q-195 35 -312.5 1t-117.5 -136z" />
<glyph unicode="&#xe4;" horiz-adv-x="1216" d="M80 309q0 102 55 173.5t149.5 104.5t219.5 41t266 -18l-2 70q0 75 -52 116.5t-136 41.5q-80 0 -155 -32.5t-126 -90.5l-141 149q61 77 189.5 130t252.5 53q196 0 313 -110.5t117 -295.5v-641h-225v170q-39 -91 -129.5 -142t-220.5 -51q-170 0 -272.5 92t-102.5 240z M274 1374q0 66 48.5 114t115.5 48q66 0 114 -48t48 -114q0 -68 -48 -116t-114 -48q-68 0 -116 47.5t-48 116.5zM342 328q0 -72 47.5 -114t132.5 -42q117 0 183.5 63t66.5 175v53q-195 35 -312.5 1t-117.5 -136zM764 1374q0 66 48.5 114t115.5 48q66 0 114 -48t48 -114 q0 -68 -48 -116t-114 -48q-68 0 -116 47.5t-48 116.5z" />
<glyph unicode="&#xe5;" horiz-adv-x="1234" d="M80 309q0 102 55 173.5t149.5 104.5t219.5 41t266 -18l-2 70q0 75 -52 116.5t-136 41.5q-80 0 -155 -32.5t-126 -90.5l-141 149q61 77 189.5 130t252.5 53q196 0 313 -110.5t117 -295.5v-641h-225v170q-39 -91 -129.5 -142t-220.5 -51q-170 0 -272.5 92t-102.5 240z M332 1440q0 113 83.5 191.5t205.5 78.5t204 -78.5t82 -191.5q0 -112 -82 -190.5t-204 -78.5t-205.5 79t-83.5 190zM342 328q0 -72 47.5 -114t132.5 -42q117 0 183.5 63t66.5 175v53q-195 35 -312.5 1t-117.5 -136zM500 1440q0 -54 32 -86.5t89 -32.5q55 0 86.5 32.5 t31.5 86.5q0 56 -31.5 88.5t-86.5 32.5q-57 0 -89 -32.5t-32 -88.5z" />
<glyph unicode="&#xe6;" horiz-adv-x="1912" d="M70 309q0 102 55 173.5t149.5 104.5t219.5 41t266 -18l-2 70q0 75 -52.5 116.5t-136.5 41.5q-80 0 -154.5 -32.5t-125.5 -90.5l-142 149q61 77 190 130t253 53q219 0 336 -136q152 136 381 136q267 0 408 -158.5t116 -439.5h-801q0 -111 87.5 -181.5t209.5 -70.5 q101 0 189 34.5t135 92.5l147 -158q-66 -86 -196.5 -137.5t-284.5 -51.5q-144 0 -259 51.5t-190 145.5q-81 -100 -191.5 -148.5t-232.5 -48.5q-170 0 -272 92t-102 240zM332 328q0 -72 47.5 -114t132.5 -42q121 0 185.5 61.5t64.5 169.5v60q-195 35 -312.5 1t-117.5 -136z M1026 612h543q-2 103 -72 169.5t-190 66.5q-115 0 -196.5 -71.5t-84.5 -164.5z" />
<glyph unicode="&#xe7;" horiz-adv-x="1128" d="M82 520q0 244 150 397.5t391 153.5q155 0 275.5 -65.5t186.5 -184.5l-196 -137q-90 143 -256 143q-126 0 -203.5 -84t-77.5 -223q0 -137 77.5 -221t203.5 -84q80 0 146 37.5t110 107.5l196 -137q-54 -97 -144.5 -159t-207.5 -82l-110 -392h-271l148 394 q-191 37 -304.5 182t-113.5 354z" />
<glyph unicode="&#xe8;" horiz-adv-x="1228" d="M78 516q0 235 153 383t392 148q268 0 409 -158.5t115 -439.5h-801q0 -111 87.5 -181.5t211.5 -70.5q100 0 187.5 34.5t134.5 92.5l147 -158q-66 -86 -196.5 -137.5t-282.5 -51.5q-250 0 -403.5 148.5t-153.5 390.5zM254 1532h311l223 -342h-258zM344 612h541 q0 103 -70.5 169.5t-191.5 66.5q-114 0 -195 -71.5t-84 -164.5z" />
<glyph unicode="&#xe9;" horiz-adv-x="1232" d="M78 516q0 235 153 383t392 148q268 0 409 -158.5t115 -439.5h-801q0 -111 87.5 -181.5t211.5 -70.5q100 0 187.5 34.5t134.5 92.5l147 -158q-66 -86 -196.5 -137.5t-282.5 -51.5q-250 0 -403.5 148.5t-153.5 390.5zM344 612h541q0 103 -70.5 169.5t-191.5 66.5 q-114 0 -195 -71.5t-84 -164.5zM467 1190l223 342h264l-229 -342h-258z" />
<glyph unicode="&#xea;" horiz-adv-x="1228" d="M78 516q0 235 153 383t392 148q268 0 409 -158.5t115 -439.5h-801q0 -111 87.5 -181.5t211.5 -70.5q100 0 187.5 34.5t134.5 92.5l147 -158q-66 -86 -196.5 -137.5t-282.5 -51.5q-250 0 -403.5 148.5t-153.5 390.5zM190 1190l295 342h265l294 -342h-266l-160 192 l-161 -192h-267zM344 612h541q0 103 -70.5 169.5t-191.5 66.5q-114 0 -195 -71.5t-84 -164.5z" />
<glyph unicode="&#xeb;" horiz-adv-x="1228" d="M78 516q0 235 153 383t392 148q268 0 409 -158.5t115 -439.5h-801q0 -111 87.5 -181.5t211.5 -70.5q100 0 187.5 34.5t134.5 92.5l147 -158q-66 -86 -196.5 -137.5t-282.5 -51.5q-250 0 -403.5 148.5t-153.5 390.5zM203 1374q0 66 48.5 114t115.5 48q66 0 113.5 -48 t47.5 -114q0 -69 -47.5 -116.5t-113.5 -47.5q-68 0 -116 47.5t-48 116.5zM344 612h541q0 103 -70.5 169.5t-191.5 66.5q-114 0 -195 -71.5t-84 -164.5zM692 1374q0 66 48.5 114t115.5 48q66 0 114 -48t48 -114q0 -68 -48 -116t-114 -48q-68 0 -116 47.5t-48 116.5z" />
<glyph unicode="&#xec;" horiz-adv-x="550" d="M-94 1532h264l231 -342h-258zM143 0v1024h267v-1024h-267z" />
<glyph unicode="&#xed;" horiz-adv-x="550" d="M143 0v1024h267v-1024h-267zM143 1190l224 342h264l-232 -342h-256z" />
<glyph unicode="&#xee;" horiz-adv-x="550" d="M-84 1190l236 342h249l236 -342h-238l-123 192l-122 -192h-238zM143 0v1024h267v-1024h-267z" />
<glyph unicode="&#xef;" horiz-adv-x="550" d="M-55 1370q0 67 37.5 106.5t99.5 39.5t99.5 -39.5t37.5 -106.5t-37.5 -105t-99.5 -38t-99.5 38t-37.5 105zM143 0v1024h267v-1024h-267zM334 1370q0 67 37.5 106.5t99.5 39.5q61 0 98 -39.5t37 -106.5t-37 -105t-98 -38q-62 0 -99.5 38t-37.5 105z" />
<glyph unicode="&#xf1;" horiz-adv-x="1236" d="M141 0v1024h260v-162q44 86 136.5 138.5t199.5 52.5q153 0 261 -108t108 -261v-684h-268v592q0 91 -62 154t-153 63q-90 0 -153.5 -63.5t-63.5 -153.5l2 -592h-267zM254 1210q0 303 203 303q44 0 83.5 -14.5t92.5 -48.5q59 -43 104 -43q64 0 64 102h192q0 -305 -200 -305 q-45 0 -85 15t-94 49q-59 43 -102 43q-63 0 -63 -101h-195z" />
<glyph unicode="&#xf2;" horiz-adv-x="1275" d="M80 522q0 153 68 277t197 198t296 74q168 0 294.5 -74t190.5 -197.5t64 -277.5q0 -153 -65.5 -277.5t-193.5 -199t-296 -74.5q-163 0 -290.5 73.5t-196 198.5t-68.5 279zM342 1532h264l223 -342h-256zM350 522q0 -137 75.5 -224t209.5 -87q132 0 209.5 88.5t77.5 222.5 t-75 221.5t-206 87.5t-211 -88t-80 -221z" />
<glyph unicode="&#xf3;" horiz-adv-x="1275" d="M80 522q0 153 68 277t197 198t296 74q168 0 294.5 -74t190.5 -197.5t64 -277.5q0 -153 -65.5 -277.5t-193.5 -199t-296 -74.5q-163 0 -290.5 73.5t-196 198.5t-68.5 279zM350 522q0 -137 75.5 -224t209.5 -87q132 0 209.5 88.5t77.5 222.5t-75 221.5t-206 87.5t-211 -88 t-80 -221zM467 1190l223 342h264l-229 -342h-258z" />
<glyph unicode="&#xf4;" horiz-adv-x="1275" d="M80 522q0 153 68 277t197 198t296 74q168 0 294.5 -74t190.5 -197.5t64 -277.5q0 -153 -65.5 -277.5t-193.5 -199t-296 -74.5q-163 0 -290.5 73.5t-196 198.5t-68.5 279zM211 1190l295 342h264l295 -342h-266l-162 192l-160 -192h-266zM350 522q0 -137 75.5 -224 t209.5 -87q132 0 209.5 88.5t77.5 222.5t-75 221.5t-206 87.5t-211 -88t-80 -221z" />
<glyph unicode="&#xf5;" horiz-adv-x="1275" d="M82 522q0 238 154 393.5t401 155.5q165 0 292.5 -72t196 -196.5t68.5 -280.5q0 -239 -154 -395t-403 -156q-164 0 -291 72t-195.5 197t-68.5 282zM268 1210q0 150 51 226.5t150 76.5q46 0 85 -14.5t91 -48.5q62 -43 105 -43q33 0 48 24t15 78h195q0 -305 -203 -305 q-44 0 -83 15t-93 49q-59 43 -105 43q-63 0 -63 -101h-193zM352 522q0 -141 78 -226t207 -85q130 0 208.5 85t78.5 226q0 140 -78.5 224.5t-208.5 84.5q-129 0 -207 -84.5t-78 -224.5z" />
<glyph unicode="&#xf6;" horiz-adv-x="1275" d="M80 522q0 153 68 277t197 198t296 74q168 0 294.5 -74t190.5 -197.5t64 -277.5q0 -153 -65.5 -277.5t-193.5 -199t-296 -74.5q-163 0 -290.5 73.5t-196 198.5t-68.5 279zM229 1374q0 66 48.5 114t115.5 48q66 0 114 -48t48 -114q0 -68 -47.5 -116t-114.5 -48 q-68 0 -116 47.5t-48 116.5zM350 522q0 -137 75.5 -224t209.5 -87q132 0 209.5 88.5t77.5 222.5t-75 221.5t-206 87.5t-211 -88t-80 -221zM717 1374q0 66 48.5 114t117.5 48q65 0 112 -48t47 -114q0 -68 -47 -116t-112 -48q-69 0 -117.5 47.5t-48.5 116.5z" />
<glyph unicode="&#xf7;" d="M266 530v238h922v-238h-922zM575 244q0 66 45.5 111.5t110.5 45.5q66 0 112 -45.5t46 -111.5t-46 -112t-112 -46q-65 0 -110.5 46t-45.5 112zM575 1059q0 65 46 111.5t110 46.5q66 0 112 -46.5t46 -111.5q0 -66 -46 -112t-112 -46q-65 0 -110.5 46t-45.5 112z" />
<glyph unicode="&#xf8;" horiz-adv-x="1284" d="M66 68l120 120q-100 139 -100 334q0 238 154 393.5t401 155.5q186 0 332 -98l123 123l121 -121l-121 -121q102 -138 102 -332q0 -239 -154 -395t-403 -156q-182 0 -330 99l-123 -125zM342 522q0 -95 39 -162l432 433q-64 55 -172 55q-136 0 -217.5 -89t-81.5 -237z M471 248q70 -51 170 -51q137 0 218 88t81 237q0 93 -37 160z" />
<glyph unicode="&#xf9;" horiz-adv-x="1224" d="M127 344v680h266v-588q0 -102 56.5 -161.5t148.5 -59.5q98 0 162.5 63t64.5 162l-2 584h269v-1024h-263v170q-42 -90 -136 -144.5t-210 -54.5q-156 0 -256 105t-100 268zM313 1532h265l223 -342h-256z" />
<glyph unicode="&#xfa;" horiz-adv-x="1224" d="M127 342v682h266v-592q0 -90 62.5 -152.5t152.5 -64.5q90 0 153.5 63.5t63.5 153.5l-2 592h269v-1024h-263v162q-43 -85 -134.5 -138t-198.5 -53q-154 0 -261.5 108.5t-107.5 262.5zM422 1190l223 342h264l-229 -342h-258z" />
<glyph unicode="&#xfb;" horiz-adv-x="1224" d="M127 342v682h266v-592q0 -90 62.5 -152.5t152.5 -64.5q90 0 153.5 63.5t63.5 153.5l-2 592h269v-1024h-263v162q-43 -85 -134.5 -138t-198.5 -53q-154 0 -261.5 108.5t-107.5 262.5zM182 1190l295 342h264l297 -342h-268l-160 192l-161 -192h-267z" />
<glyph unicode="&#xfc;" horiz-adv-x="1224" d="M127 342v682h266v-592q0 -90 62.5 -152.5t152.5 -64.5q90 0 153.5 63.5t63.5 153.5l-2 592h269v-1024h-263v162q-43 -85 -134.5 -138t-198.5 -53q-154 0 -261.5 108.5t-107.5 262.5zM201 1374q0 66 48.5 114t117.5 48q65 0 112 -48t47 -114q0 -68 -47 -116t-112 -48 q-69 0 -117.5 47.5t-48.5 116.5zM690 1374q0 66 48.5 114t115.5 48q66 0 114 -48t48 -114q0 -68 -48 -116t-114 -48q-68 0 -116 47.5t-48 116.5z" />
<glyph unicode="&#xfd;" horiz-adv-x="1134" d="M25 1024h284l269 -705l249 705h285l-455 -1163q-58 -150 -150.5 -210.5t-258.5 -60.5h-207v238h162q99 0 143 25t70 96l24 63zM381 1190l223 342h264l-231 -342h-256z" />
<glyph unicode="&#xfe;" horiz-adv-x="1316" d="M141 -365v1799h240v-598q42 96 147 153.5t230 57.5q229 0 352 -145t123 -396q0 -238 -127 -383.5t-352 -145.5q-136 0 -233 65.5t-120 141.5v-549h-260zM401 506q0 -135 80 -219t209 -84q122 0 198.5 84t76.5 219q0 138 -78 222.5t-205 84.5q-123 0 -202 -86t-79 -221z " />
<glyph unicode="&#xff;" horiz-adv-x="1134" d="M25 1042h284l269 -723l249 723h285l-455 -1181q-56 -149 -149.5 -210t-259.5 -61h-207v238h162q99 0 143 25t70 96l24 63zM160 1374q0 66 48.5 114t115.5 48q66 0 113.5 -48t47.5 -114q0 -69 -47.5 -116.5t-113.5 -47.5q-68 0 -116 47.5t-48 116.5zM649 1374 q0 66 48.5 114t115.5 48q66 0 114 -48t48 -114q0 -68 -47.5 -116t-114.5 -48q-68 0 -116 47.5t-48 116.5z" />
<glyph unicode="&#x152;" horiz-adv-x="2232" d="M98 715q-2 209 94 374t268 256t388 89h1249v-250h-743v-336h694v-248h-694v-350h764v-250h-1270q-219 0 -389.5 89.5t-265.5 252.5t-95 373zM387 715q0 -209 127.5 -334t333.5 -125h229v922h-229q-205 0 -333 -127t-128 -336z" />
<glyph unicode="&#x153;" horiz-adv-x="2072" d="M80 522q0 153 68 277t197 198t296 74q135 0 243 -47.5t179 -132.5q156 156 403 156q267 0 408.5 -158.5t116.5 -439.5h-801q0 -111 87.5 -181.5t209.5 -70.5q101 0 188.5 34.5t134.5 92.5l148 -158q-66 -86 -196.5 -137.5t-284.5 -51.5q-267 0 -422 168 q-158 -174 -420 -174q-163 0 -290.5 73.5t-196 198.5t-68.5 279zM350 522q0 -137 75.5 -224t209.5 -87q123 0 199.5 77t85.5 199v29v37q-8 123 -81.5 200.5t-197.5 77.5q-131 0 -211 -88t-80 -221zM1186 612h543q-2 103 -72.5 169.5t-190.5 66.5q-115 0 -196 -71t-84 -165z " />
<glyph unicode="&#x178;" horiz-adv-x="1333" d="M-4 1434h315l359 -600l360 600h318l-539 -865v-569h-279v569zM260 1761q0 71 45 115.5t117 44.5q73 0 118.5 -44.5t45.5 -115.5t-45.5 -115t-118.5 -44q-72 0 -117 44t-45 115zM748 1761q0 71 45.5 115.5t117.5 44.5t117 -44.5t45 -115.5t-45 -116.5t-117 -45.5 t-117.5 45.5t-45.5 116.5z" />
<glyph unicode="&#x2c6;" horiz-adv-x="1269" d="M207 1190l297 342h264l295 -342h-266l-162 192l-160 -192h-268z" />
<glyph unicode="&#x2dc;" horiz-adv-x="1269" d="M264 1210q0 150 52 226.5t151 76.5q44 0 83.5 -14.5t92.5 -48.5q62 -43 105 -43q33 0 48 24t15 78h195q0 -151 -52 -228t-151 -77q-44 0 -83 15t-93 49q-59 43 -105 43q-63 0 -63 -101h-195z" />
<glyph unicode="&#x2000;" horiz-adv-x="1028" />
<glyph unicode="&#x2001;" horiz-adv-x="2056" />
<glyph unicode="&#x2002;" horiz-adv-x="1028" />
<glyph unicode="&#x2003;" horiz-adv-x="2056" />
<glyph unicode="&#x2004;" horiz-adv-x="685" />
<glyph unicode="&#x2005;" horiz-adv-x="514" />
<glyph unicode="&#x2006;" horiz-adv-x="342" />
<glyph unicode="&#x2007;" horiz-adv-x="342" />
<glyph unicode="&#x2008;" horiz-adv-x="257" />
<glyph unicode="&#x2009;" horiz-adv-x="411" />
<glyph unicode="&#x200a;" horiz-adv-x="114" />
<glyph unicode="&#x2010;" horiz-adv-x="763" d="M80 473v229h604v-229h-604z" />
<glyph unicode="&#x2011;" horiz-adv-x="763" d="M80 473v229h604v-229h-604z" />
<glyph unicode="&#x2012;" horiz-adv-x="763" d="M80 473v229h604v-229h-604z" />
<glyph unicode="&#x2013;" horiz-adv-x="1183" d="M80 473v223h1024v-223h-1024z" />
<glyph unicode="&#x2014;" horiz-adv-x="2207" d="M80 473v223h2050v-223h-2050z" />
<glyph unicode="&#x2018;" horiz-adv-x="503" d="M59 918l156 544h229l-114 -544h-271z" />
<glyph unicode="&#x2019;" horiz-adv-x="503" d="M59 918l115 544h270l-155 -544h-230z" />
<glyph unicode="&#x201a;" horiz-adv-x="493" d="M39 -301l115 545h270l-156 -545h-229z" />
<glyph unicode="&#x201c;" horiz-adv-x="923" d="M59 918l156 544h229l-114 -544h-271zM479 918l156 544h229l-114 -544h-271z" />
<glyph unicode="&#x201d;" horiz-adv-x="923" d="M59 918l115 544h270l-155 -544h-230zM479 918l115 544h270l-155 -544h-230z" />
<glyph unicode="&#x201e;" horiz-adv-x="913" d="M39 -301l115 545h270l-156 -545h-229zM459 -301l114 545h271l-156 -545h-229z" />
<glyph unicode="&#x2022;" horiz-adv-x="1017" d="M240 686q-19 113 45 203.5t178 109.5q115 20 205 -44t110 -179q20 -112 -44.5 -202.5t-178.5 -110.5t-204.5 44.5t-110.5 178.5z" />
<glyph unicode="&#x2026;" horiz-adv-x="1636" d="M115 143q-4 76 37.5 122.5t115.5 51.5q78 5 125 -35t51 -118q5 -74 -36 -122t-117 -52q-75 -5 -123.5 36.5t-52.5 116.5zM655 143q-4 76 37.5 122.5t116.5 51.5q77 5 123.5 -35.5t50.5 -117.5q5 -74 -36.5 -122t-117.5 -52q-75 -5 -122.5 36.5t-51.5 116.5zM1192 143 q-4 76 37.5 122.5t116.5 51.5q77 5 124.5 -35.5t51.5 -117.5q5 -74 -36.5 -122t-117.5 -52q-75 -5 -123.5 36.5t-52.5 116.5z" />
<glyph unicode="&#x202f;" horiz-adv-x="411" />
<glyph unicode="&#x2039;" horiz-adv-x="698" d="M47 522l313 449h281l-313 -449l313 -448h-281z" />
<glyph unicode="&#x203a;" horiz-adv-x="698" d="M59 74l314 448l-314 449h279l315 -449l-315 -448h-279z" />
<glyph unicode="&#x205f;" horiz-adv-x="514" />
<glyph unicode="&#x20ac;" horiz-adv-x="1273" d="M59 489v152h146q-4 20 -4 76t4 76h-146v151h164q47 239 189 378.5t338 139.5q162 0 286.5 -96t180.5 -260l-224 -109q-32 103 -96 159t-145 56q-90 0 -156.5 -70.5t-95.5 -197.5h372v-151h-395q-2 -18 -2 -74q0 -58 2 -78h395v-152h-372q29 -127 96 -197.5t158 -70.5 q81 0 144 56t95 159l224 -108q-56 -163 -181 -260t-286 -97q-196 0 -338 139.5t-189 378.5h-164z" />
<glyph unicode="&#x25fc;" horiz-adv-x="1024" d="M0 0v1024h1024v-1024h-1024z" />
</font>
</defs>
</svg>
