<?xml version="1.0" standalone="no"?>
<!DOCTYPE svg PUBLIC "-//W3C//DTD SVG 1.1//EN" "http://www.w3.org/Graphics/SVG/1.1/DTD/svg11.dtd" >
<svg xmlns="http://www.w3.org/2000/svg" xmlns:xlink="http://www.w3.org/1999/xlink" version="1.1">
<metadata></metadata>
<defs>
<font id="lama_sansmedium" horiz-adv-x="1454" >
<font-face units-per-em="2048" ascent="1638" descent="-410" />
<missing-glyph horiz-adv-x="460" />
<glyph horiz-adv-x="0" />
<glyph horiz-adv-x="682" />
<glyph unicode="&#xd;" horiz-adv-x="481" />
<glyph unicode=" "  horiz-adv-x="460" />
<glyph unicode="&#x09;" horiz-adv-x="460" />
<glyph unicode="&#xa0;" horiz-adv-x="460" />
<glyph unicode="!" horiz-adv-x="600" d="M190 96q-9 51 15 86.5t74 44.5q53 9 87.5 -14t43.5 -74q9 -52 -13.5 -87t-74.5 -44q-50 -11 -86.5 13t-45.5 75zM199 1434h202l-14 -994h-172z" />
<glyph unicode="&#x22;" horiz-adv-x="800" d="M113 1460h196l-24 -561h-148zM492 1460h196l-24 -561h-148z" />
<glyph unicode="#" horiz-adv-x="1484" d="M109 414v139h260l65 328h-239v139h266l76 383h157l-76 -383h369l76 383h158l-76 -383h233v-139h-260l-65 -328h239v-139h-266l-76 -383h-157l75 383h-368l-76 -383h-158l76 383h-233zM526 553h369l66 328h-369z" />
<glyph unicode="$" horiz-adv-x="1214" d="M92 330l129 100q107 -207 363 -225v446l-84 21q-190 44 -281.5 131.5t-91.5 224.5q0 164 122 265.5t335 107.5v135h80v-137q155 -9 266 -72t166 -170l-127 -100q-92 161 -305 176v-426l104 -25q184 -45 269 -132.5t85 -223.5q0 -173 -122 -278.5t-336 -112.5v-137h-80 v137q-176 9 -303 85.5t-189 209.5zM315 1032q0 -80 58.5 -124t210.5 -81v408q-129 -3 -199 -56t-70 -147zM664 203q129 4 199.5 61.5t70.5 153.5q0 86 -59 131.5t-211 81.5v-428z" />
<glyph unicode="%" horiz-adv-x="1744" d="M68 1106q0 156 101 255t257 99t257 -99t101 -255q0 -155 -101 -254.5t-257 -99.5t-257 99.5t-101 254.5zM213 1106q0 -98 59 -158.5t154 -60.5q94 0 152.5 60.5t58.5 158.5t-58.5 158.5t-152.5 60.5q-95 0 -154 -60.5t-59 -158.5zM287 0l1001 1434h170l-1001 -1434h-170z M961 328q0 156 101 255t257 99t257 -99t101 -255q0 -155 -101 -255t-257 -100t-257 100t-101 255zM1108 328q0 -98 58.5 -158.5t152.5 -60.5q95 0 154 60.5t59 158.5t-59 158.5t-154 60.5q-94 0 -152.5 -60.5t-58.5 -158.5z" />
<glyph unicode="&#x26;" horiz-adv-x="1406" d="M127 360q0 123 76.5 220t249.5 198q-103 121 -144 199t-41 160q0 138 102.5 230.5t272.5 92.5q168 0 270.5 -89.5t102.5 -227.5q0 -113 -75.5 -205.5t-248.5 -192.5l305 -350q69 134 80 316h172q-27 -275 -133 -449l227 -262h-200l-127 145q-163 -172 -420 -172 q-212 0 -340.5 107.5t-128.5 279.5zM319 373q0 -106 79 -170t212 -64q181 0 289 129l-346 396q-126 -74 -180 -141t-54 -150zM440 1126q0 -59 34 -115.5t124 -156.5q138 80 192 139.5t54 132.5q0 81 -57 131t-144 50q-89 0 -146 -50t-57 -131z" />
<glyph unicode="'" horiz-adv-x="421" d="M113 1460h196l-24 -561h-148z" />
<glyph unicode="(" horiz-adv-x="673" d="M143 639q0 242 86 480.5t238 418.5l147 -88q-132 -161 -206 -377.5t-74 -433.5q0 -218 73.5 -433.5t206.5 -377.5l-147 -88q-154 181 -239 419.5t-85 479.5z" />
<glyph unicode=")" horiz-adv-x="673" d="M59 -172q133 162 207 379t74 432q0 216 -74.5 434t-206.5 377l148 88q152 -180 237.5 -419.5t85.5 -479.5q0 -243 -85 -480.5t-238 -418.5z" />
<glyph unicode="*" horiz-adv-x="937" d="M57 1106l43 133l308 -109l-11 326h142l-11 -328l310 111l45 -135l-316 -92l201 -258l-115 -82l-184 270l-186 -270l-113 82l201 260z" />
<glyph unicode="+" d="M276 565v170h363v385h178v-385h361v-170h-361v-387h-178v387h-363z" />
<glyph unicode="," horiz-adv-x="466" d="M72 -315l102 579h191l-138 -579h-155z" />
<glyph unicode="-" horiz-adv-x="788" d="M98 508v164h594v-164h-594z" />
<glyph unicode="." horiz-adv-x="516" d="M150 96q-9 51 14 86.5t74 44.5t86.5 -14t44.5 -74t-14 -86.5t-74 -44.5q-51 -11 -86.5 13t-44.5 75z" />
<glyph unicode="/" horiz-adv-x="980" d="M20 -193l758 1709h183l-758 -1709h-183z" />
<glyph unicode="0" horiz-adv-x="1427" d="M141 717q0 334 158 538.5t416 204.5q170 0 300.5 -92.5t201.5 -261t71 -389.5q0 -220 -71 -389t-201.5 -262t-300.5 -93t-300.5 93t-202 262t-71.5 389zM340 717q0 -255 103 -410t272 -155q167 0 269.5 155t102.5 410t-102.5 411t-269.5 156q-169 0 -272 -156t-103 -411z " />
<glyph unicode="1" horiz-adv-x="860" d="M86 1235v199h571v-1434h-192v1233z" />
<glyph unicode="2" horiz-adv-x="1196" d="M84 1090q71 180 210 275t320 95q205 0 334 -114t129 -293q0 -115 -60 -223t-194 -234l-448 -418h725v-178h-1012v143l559 523q128 119 181 206t53 170q0 112 -73 177t-192 65q-120 0 -217 -71.5t-159 -211.5z" />
<glyph unicode="3" horiz-adv-x="1159" d="M57 193l111 129q144 -172 381 -172q149 0 236 70t87 188q0 235 -385 235h-102v174h166q146 0 224.5 60.5t78.5 166.5q0 110 -76.5 176t-208.5 66q-113 0 -208.5 -51t-161.5 -145l-129 118q82 121 212.5 186.5t292.5 65.5q218 0 346 -108.5t128 -286.5q0 -129 -72.5 -217 t-206.5 -119q147 -36 222 -124t75 -218q0 -184 -140.5 -299t-369.5 -115q-154 0 -283.5 56t-216.5 164z" />
<glyph unicode="4" horiz-adv-x="1249" d="M74 317v160l753 957l125 -91l-684 -866h559v510h189v-510h198v-160h-198v-317h-189v317h-753z" />
<glyph unicode="5" horiz-adv-x="1196" d="M86 186l111 131q154 -167 381 -167q156 0 250 80t94 221q0 134 -85.5 212t-230.5 78q-165 0 -301 -108h-141v801h870v-170h-690v-455q140 94 307 94q211 0 338 -120.5t127 -327.5q0 -222 -144.5 -352t-391.5 -130q-296 0 -494 213z" />
<glyph unicode="6" horiz-adv-x="1218" d="M82 479q0 112 38.5 216t141.5 272l295 467h217l-344 -514q83 51 193 51q234 0 381 -134t147 -358q0 -230 -148.5 -366t-386.5 -136q-237 0 -385.5 136t-148.5 366zM276 475q0 -157 93.5 -249.5t246.5 -92.5q154 0 248 92.5t94 249.5q0 158 -92.5 251t-244.5 93 q-155 0 -250 -93t-95 -251z" />
<glyph unicode="7" horiz-adv-x="1075" d="M45 1257v177h985v-158l-616 -1276h-215l618 1257h-772z" />
<glyph unicode="8" horiz-adv-x="1275" d="M102 379q0 126 86 224.5t224 133.5q-120 35 -194.5 127t-74.5 207q0 175 136.5 282t359.5 107q221 0 357.5 -107t136.5 -282q0 -116 -74 -207.5t-195 -126.5q140 -35 225 -133.5t85 -224.5q0 -183 -147 -294.5t-388 -111.5q-242 0 -389.5 111.5t-147.5 294.5zM301 397 q0 -117 93 -187.5t245 -70.5q151 0 243.5 70.5t92.5 187.5t-92.5 188.5t-243.5 71.5q-152 0 -245 -71.5t-93 -188.5zM332 1055q0 -112 84.5 -180t222.5 -68t221.5 68t83.5 180q0 111 -84 179.5t-221 68.5q-138 0 -222.5 -68.5t-84.5 -179.5z" />
<glyph unicode="9" horiz-adv-x="1226" d="M68 958q0 230 148.5 366t385.5 136q238 0 386.5 -136t148.5 -366q0 -107 -38.5 -218t-140.5 -267l-319 -469h-217l366 516q-76 -51 -190 -51q-235 0 -382.5 132.5t-147.5 356.5zM262 963q0 -157 92.5 -249.5t243.5 -92.5q155 0 250.5 92.5t95.5 249.5q0 158 -94 251 t-248 93t-247 -93t-93 -251z" />
<glyph unicode=":" horiz-adv-x="526" d="M137 117q0 61 36 96t95 35q62 0 96.5 -35t34.5 -96q0 -59 -35 -95t-96 -36q-58 0 -94.5 36t-36.5 95zM137 862q0 60 36 95.5t95 35.5q61 0 96 -35.5t35 -95.5t-35 -95.5t-96 -35.5q-59 0 -95 35.5t-36 95.5z" />
<glyph unicode=";" horiz-adv-x="495" d="M72 -315l102 579h191l-138 -579h-155zM152 840q-9 52 14.5 87t73.5 44q53 9 87.5 -13.5t43.5 -74.5q9 -51 -14 -86.5t-74 -44.5q-50 -9 -86 15t-45 73z" />
<glyph unicode="&#x3c;" d="M276 565v168l902 357v-181l-654 -260l654 -260v-178z" />
<glyph unicode="=" d="M276 340v170h902v-170h-902zM276 791v170h902v-170h-902z" />
<glyph unicode="&#x3e;" d="M276 211v178l656 260l-656 260v181l902 -357v-168z" />
<glyph unicode="?" horiz-adv-x="944" d="M41 1174q65 136 185 211t274 75q171 0 279 -92.5t108 -245.5q0 -86 -40 -159t-132 -150l-88 -74q-66 -55 -82.5 -87t-16.5 -101v-111h-180v123q1 104 27 151.5t129 135.5l94 78q104 85 104 190q0 83 -56.5 129.5t-149.5 46.5q-98 0 -181 -54.5t-135 -156.5zM328 96 q-9 51 15 86.5t73 44.5q53 9 87.5 -14t43.5 -74q9 -52 -13.5 -87t-74.5 -44q-50 -11 -86 13t-45 75z" />
<glyph unicode="@" horiz-adv-x="1970" d="M115 457q-1 152 43 290t126 247t193 189.5t249.5 123t289.5 41.5q177 1 335 -58.5t273.5 -164.5t182 -258t65.5 -330q0 -229 -102 -368.5t-261 -139.5q-97 0 -169.5 55.5t-92.5 155.5q-40 -101 -122.5 -154t-198.5 -53q-187 0 -295.5 115.5t-108.5 310.5q0 187 112 307.5 t296 120.5q103 0 185.5 -48.5t111.5 -129.5v153h145v-522q3 -83 39 -126.5t96 -43.5q88 0 144.5 93.5t56.5 258.5q0 206 -92.5 359.5t-248 231t-351.5 77.5q-160 0 -297 -54.5t-233 -150.5t-150.5 -232t-54.5 -294q0 -320 206 -519.5t535 -199.5q237 0 391 88l70 -137 q-86 -50 -207 -78.5t-256 -28.5q-260 -2 -467.5 109t-323.5 311.5t-114 452.5zM688 465q0 -134 71.5 -213.5t190.5 -79.5q114 0 191.5 80.5t77.5 212.5q0 130 -78 210.5t-191 80.5q-117 0 -189.5 -83t-72.5 -208z" />
<glyph unicode="A" horiz-adv-x="1413" d="M29 0l571 1434h203l581 -1434h-208l-136 334l-667 2l-135 -336h-209zM434 506h545l-272 727z" />
<glyph unicode="B" horiz-adv-x="1400" d="M197 0v1434h610q195 0 312.5 -97.5t117.5 -261.5q0 -116 -57.5 -200t-163.5 -125q130 -34 204 -126.5t74 -224.5q0 -126 -67 -218.5t-173.5 -136.5t-236.5 -44h-620zM389 166h432q118 0 192 69t74 179q0 106 -74 173.5t-192 67.5h-432v-489zM391 811h408q99 0 167 68 q66 66 66 158v5q-2 94 -69.5 160t-163.5 66h-408v-457z" />
<glyph unicode="C" horiz-adv-x="1548" d="M123 717q0 210 88.5 378t256.5 266.5t388 98.5q208 0 367.5 -96t249.5 -272l-162 -93q-62 125 -182 201t-273 76q-156 0 -277.5 -73.5t-186 -200.5t-64.5 -285q0 -159 63.5 -285.5t184.5 -200t280 -73.5q156 0 275 72.5t182 203.5l160 -96q-85 -178 -245.5 -271.5 t-371.5 -93.5q-134 0 -250.5 37t-204.5 104t-151 159.5t-95 205t-32 238.5z" />
<glyph unicode="D" horiz-adv-x="1523" d="M197 0v1434h512q203 0 362 -93t246.5 -256.5t87.5 -367.5q0 -206 -87 -369.5t-246 -255.5t-363 -92h-512zM391 182h295q233 0 373.5 149t140.5 386t-140.5 385.5t-373.5 148.5h-295v-1069z" />
<glyph unicode="E" horiz-adv-x="1275" d="M199 0v1434h923v-179h-729v-467h688v-174h-688v-436h750v-178h-944z" />
<glyph unicode="F" horiz-adv-x="1208" d="M199 0v1434h901v-179h-707v-512h674v-180h-674v-563h-194z" />
<glyph unicode="G" horiz-adv-x="1607" d="M123 715q0 210 88 378t256 266.5t387 98.5q195 0 351.5 -85.5t248.5 -237.5l-162 -111q-65 121 -177.5 185.5t-260.5 64.5q-156 0 -277 -73t-186 -200t-65 -286q0 -158 63.5 -283.5t184 -199t280.5 -76.5q278 0 440 159v291h-360v164h541v-532q-236 -267 -621 -267 q-224 3 -391.5 102t-253.5 265.5t-86 376.5z" />
<glyph unicode="H" horiz-adv-x="1556" d="M199 0v1434h194v-666h770v666h197v-1434h-197v586h-770v-586h-194z" />
<glyph unicode="I" horiz-adv-x="598" d="M203 0v1434h194v-1434h-194z" />
<glyph unicode="J" horiz-adv-x="1212" d="M55 426l193 66v-33q0 -122 86.5 -208.5t210.5 -86.5q121 0 208 87t87 208v975h194v-971q0 -134 -65.5 -247t-178 -179t-245.5 -66q-128 0 -239.5 61.5t-179 166.5t-71.5 227z" />
<glyph unicode="K" horiz-adv-x="1345" d="M199 0v1434h194v-680l686 680h240l-727 -725l723 -709h-246l-602 575l-74 -73v-502h-194z" />
<glyph unicode="L" horiz-adv-x="1193" d="M199 0v1434h194v-1252h733v-182h-927z" />
<glyph unicode="M" horiz-adv-x="1916" d="M199 2v1432h250l501 -1213l531 1213h239v-1434h-194v1147l-498 -1147h-158l-479 1149v-1147h-192z" />
<glyph unicode="N" horiz-adv-x="1599" d="M197 0v1434h184l827 -1112v1112h195v-1434h-184l-828 1112v-1112h-194z" />
<glyph unicode="O" horiz-adv-x="1726" d="M123 717q0 211 95.5 381t265 266t380.5 96q210 0 379.5 -96t265 -266t95.5 -381q0 -158 -56 -296.5t-154 -236.5t-235.5 -154.5t-294.5 -56.5q-211 0 -380.5 96t-265 266.5t-95.5 381.5zM326 717q0 -156 70 -284.5t193.5 -201.5t274.5 -73q113 0 212.5 43t170.5 117 t112.5 178t41.5 221q0 118 -41.5 221.5t-112.5 177.5t-170.5 117t-212.5 43q-230 0 -384 -160t-154 -399z" />
<glyph unicode="P" horiz-adv-x="1355" d="M199 0v1434h608q197 0 327 -133t130 -336q0 -208 -129.5 -340.5t-327.5 -132.5h-414v-492h-194zM393 670h389q120 0 199.5 81.5t79.5 213.5q0 124 -80 207t-199 83h-389v-585z" />
<glyph unicode="Q" horiz-adv-x="1726" d="M121 717q0 205 92 374t262.5 269t386.5 100q202 0 373 -99t271 -270.5t100 -373.5q0 -164 -68.5 -310t-189.5 -249l155 -195l-131 -102l-164 202q-161 -90 -346 -90q-165 0 -305 58.5t-234.5 159.5t-148 237t-53.5 289zM326 717q0 -153 67 -280.5t190.5 -203t278.5 -75.5 q116 0 221 59l-161 203l131 102l170 -209q83 73 130.5 178.5t47.5 225.5q0 152 -72.5 281.5t-196.5 204.5t-270 75q-153 0 -276.5 -75.5t-191.5 -203.5t-68 -282z" />
<glyph unicode="R" horiz-adv-x="1370" d="M195 6v1428h634q183 0 314 -130.5t131 -314.5q0 -161 -102 -282t-254 -148l-62 -4l416 -543l-230 -12l-401 541h-250v-535h-196zM391 719h414q109 0 187.5 79t78.5 191q0 110 -78.5 188t-187.5 78h-414v-536z" />
<glyph unicode="S" horiz-adv-x="1282" d="M80 297l137 104q134 -249 442 -249q158 0 248 64t90 175q0 85 -60 138t-206 87l-211 50q-205 51 -303 146t-98 243q0 184 137.5 294.5t378.5 110.5q188 0 327.5 -73t204.5 -201l-135 -107q-125 205 -397 205q-153 0 -235.5 -59.5t-82.5 -165.5q0 -81 61.5 -132t215.5 -87 l217 -54q201 -49 293 -143.5t92 -243.5q0 -193 -147.5 -309.5t-395.5 -116.5q-208 0 -355 84t-218 240z" />
<glyph unicode="T" horiz-adv-x="1253" d="M49 1251v183h1155v-183h-477v-1251h-197v1251h-481z" />
<glyph unicode="U" horiz-adv-x="1527" d="M186 555v879h197v-889q0 -182 104.5 -283.5t280.5 -101.5q184 0 285.5 100.5t101.5 284.5v889h197v-879q0 -263 -160.5 -421.5t-423.5 -158.5q-257 0 -419.5 159t-162.5 421z" />
<glyph unicode="V" horiz-adv-x="1398" d="M33 1434h211l458 -1207l453 1207h211l-547 -1434h-233z" />
<glyph unicode="W" horiz-adv-x="2140" d="M51 1434h207l360 -1164l410 1164h105l391 -1170l356 1170h209l-442 -1434h-224l-342 1057l-362 -1057h-219z" />
<glyph unicode="X" horiz-adv-x="1292" d="M37 0l495 725l-462 709h223l364 -562l361 562h221l-461 -713l477 -721h-225l-375 567l-389 -567h-229z" />
<glyph unicode="Y" horiz-adv-x="1306" d="M8 1434h225l416 -662l424 662h225l-548 -850v-584h-199v584z" />
<glyph unicode="Z" horiz-adv-x="1241" d="M90 0v150l793 1107h-777v177h1035v-148l-793 -1108h803v-178h-1061z" />
<glyph unicode="[" horiz-adv-x="768" d="M197 -238v1754h499v-168h-313v-1418h313v-168h-499z" />
<glyph unicode="\" horiz-adv-x="980" d="M20 1516h183l758 -1709h-183z" />
<glyph unicode="]" horiz-adv-x="768" d="M72 -70h315v1418h-315v168h499v-1754h-499v168z" />
<glyph unicode="^" horiz-adv-x="1161" d="M61 723l435 661h172l432 -661h-205l-313 491l-316 -491h-205z" />
<glyph unicode="_" horiz-adv-x="890" d="M0 -121h891v-141h-891v141z" />
<glyph unicode="`" horiz-adv-x="1269" d="M268 1528h221l246 -334h-186z" />
<glyph unicode="a" horiz-adv-x="1093" d="M94 301q0 132 92 211.5t252 98.5q64 8 137 8q108 0 236 -17l-2 76q0 109 -68 164t-180 55q-91 0 -169 -37.5t-132 -107.5l-104 106q157 191 419 191q189 0 304.5 -109.5t115.5 -288.5v-651h-161v201q-37 -103 -135.5 -162t-237.5 -59q-174 0 -270.5 87.5t-96.5 233.5z M281 311q0 -91 56.5 -140.5t168.5 -49.5q142 0 223.5 79.5t81.5 219.5v69q-112 18 -203 18q-107 0 -184 -25q-143 -46 -143 -171z" />
<glyph unicode="b" horiz-adv-x="1304" d="M164 2v1432h186v-633q33 101 139 174.5t252 73.5q222 0 355 -147.5t133 -383.5q0 -247 -129 -394t-357 -147q-137 0 -248.5 68.5t-158.5 183.5v-227h-172zM350 518q0 -164 95.5 -268.5t246.5 -104.5q154 0 249 103.5t95 269.5q0 164 -93.5 266.5t-244.5 102.5 q-154 0 -251 -103t-97 -266z" />
<glyph unicode="c" horiz-adv-x="1142" d="M100 518q0 239 147.5 392t379.5 153q151 0 268.5 -65t183.5 -185l-141 -96q-51 84 -130 129t-175 45q-152 0 -247 -103.5t-95 -269.5t95 -269.5t247 -103.5q96 0 175.5 47t129.5 132l141 -97q-66 -122 -183.5 -188t-268.5 -66q-234 0 -380.5 151.5t-146.5 393.5z" />
<glyph unicode="d" horiz-adv-x="1304" d="M80 518q0 236 132 383.5t355 147.5q139 0 248 -74t143 -174v633h185v-1432h-172v227q-45 -114 -157.5 -183t-248.5 -69q-228 0 -356.5 146.5t-128.5 394.5zM270 518q0 -166 95 -269.5t249 -103.5q151 0 247.5 104.5t96.5 268.5q0 163 -97 266t-251 103 q-151 0 -245.5 -102.5t-94.5 -266.5z" />
<glyph unicode="e" horiz-adv-x="1218" d="M92 514q0 235 150 384t383 149q248 0 382 -153q119 -136 119 -364q0 -29 -2 -59h-839q0 -149 101 -243.5t253 -94.5q109 0 202.5 44t145.5 120l109 -111q-66 -98 -190.5 -154.5t-274.5 -56.5q-239 0 -389 150t-150 389zM283 592h655q-3 139 -87 225t-226 86 q-143 0 -239.5 -90t-102.5 -221z" />
<glyph unicode="f" horiz-adv-x="800" d="M41 856v170h231v156q0 120 78.5 186t190.5 66h229v-166h-217q-39 0 -65.5 -29.5t-26.5 -69.5v-143h303v-170h-303v-856h-189v856h-231z" />
<glyph unicode="g" horiz-adv-x="1327" d="M100 537q0 228 131.5 370t354.5 142q87 0 161.5 -24.5t122 -63t77.5 -78.5t44 -80v225h174v-944q0 -230 -149 -378t-381 -148q-160 0 -290.5 62t-203.5 165l90 131q64 -88 166 -140t226 -52q154 0 258 100t104 278v154q-46 -113 -146 -180.5t-237 -67.5q-230 0 -366 146 t-136 383zM291 522q0 -158 93.5 -258t246.5 -100q152 0 250 99.5t98 258.5q0 169 -100.5 266t-243.5 97q-154 0 -249 -101t-95 -262z" />
<glyph unicode="h" horiz-adv-x="1239" d="M162 0v1434h190v-576q42 84 136 135t212 51q166 0 275.5 -109t109.5 -273v-662h-188v616q0 116 -77 194.5t-191 78.5q-117 0 -197 -82t-80 -203v-604h-190z" />
<glyph unicode="i" horiz-adv-x="518" d="M137 1370q0 50 36 85.5t87 35.5q49 0 84 -35.5t35 -85.5q0 -51 -35 -87t-84 -36q-51 0 -87 36t-36 87zM166 0v1024h188v-1024h-188z" />
<glyph unicode="j" horiz-adv-x="518" d="M-78 -242h113q60 0 94.5 34t34.5 93v1139h190v-1171q0 -122 -74.5 -193.5t-203.5 -71.5h-154v170zM133 1370q0 54 34.5 86.5t90.5 32.5q57 0 91 -32.5t34 -86.5t-34 -86.5t-91 -32.5q-56 0 -90.5 32.5t-34.5 86.5z" />
<glyph unicode="k" horiz-adv-x="1087" d="M162 0v1434h188v-846l488 436h223l-516 -475l524 -549h-223l-445 426l-51 -57v-369h-188z" />
<glyph unicode="l" horiz-adv-x="501" d="M154 0v1434h190v-1434h-190z" />
<glyph unicode="m" horiz-adv-x="1880" d="M164 2v1022h186v-168q43 86 133 139.5t197 53.5q114 0 206 -63t126 -161q39 98 136 161t216 63q156 0 259 -110.5t103 -274.5v-662h-190v614q0 112 -71 187.5t-173 75.5q-107 0 -179.5 -77t-72.5 -186v-614h-188v614q0 111 -73 187t-177 76q-106 0 -177 -77t-71 -186 v-614h-190z" />
<glyph unicode="n" horiz-adv-x="1232" d="M162 0v1024h186v-182q46 94 140.5 150.5t207.5 56.5q160 0 272.5 -111.5t112.5 -269.5v-668h-190v608q0 111 -78.5 190.5t-191.5 80.5q-112 0 -190.5 -80t-78.5 -191v-608h-190z" />
<glyph unicode="o" horiz-adv-x="1277" d="M98 518q0 233 153 382t392 149q238 0 388.5 -149t150.5 -382q0 -237 -153 -390t-390 -153q-241 0 -391 150.5t-150 392.5zM291 514q0 -166 96.5 -269.5t251.5 -103.5t253.5 105t98.5 268q0 164 -98 269.5t-250 105.5q-156 0 -254 -104.5t-98 -270.5z" />
<glyph unicode="p" horiz-adv-x="1325" d="M162 -379v1403h172v-227q47 115 158.5 183.5t248.5 68.5q228 0 357 -147t129 -394q0 -236 -133 -384.5t-355 -148.5q-145 0 -251.5 74.5t-139.5 175.5v-604h-186zM348 508q0 -163 97 -266t251 -103q150 0 244 102.5t94 266.5q0 166 -95 269.5t-249 103.5 q-150 0 -246 -104.5t-96 -268.5z" />
<glyph unicode="q" horiz-adv-x="1325" d="M100 508q0 247 129 394t357 147q136 0 248 -68.5t157 -183.5v227h172v-1430h-184v631q-35 -102 -140.5 -176t-250.5 -74q-223 0 -355.5 148.5t-132.5 384.5zM291 508q0 -164 94.5 -266.5t245.5 -102.5q154 0 251 103t97 266q0 164 -96.5 268.5t-247.5 104.5 q-154 0 -249 -103.5t-95 -269.5z" />
<glyph unicode="r" horiz-adv-x="831" d="M162 0v1024h184v-193q47 98 136.5 157t199.5 59q52 0 98 -15l-6 -178q-62 6 -125 6q-136 0 -217.5 -83.5t-81.5 -225.5v-551h-188z" />
<glyph unicode="s" horiz-adv-x="1036" d="M74 164l88 125q61 -73 159 -115.5t211 -42.5q109 0 167.5 42t58.5 112q0 54 -39.5 87.5t-130.5 55.5l-201 49q-142 33 -207 101.5t-65 173.5q0 143 109.5 227t301.5 84q135 0 242.5 -42.5t167.5 -119.5l-90 -125q-126 129 -322 129q-108 0 -164.5 -38.5t-56.5 -108.5 q0 -53 38.5 -86t129.5 -54l199 -49q149 -36 214.5 -103t65.5 -173q0 -148 -111 -234t-309 -86q-149 0 -269.5 50.5t-186.5 140.5z" />
<glyph unicode="t" horiz-adv-x="837" d="M47 856v170h209v320h188v-320h316v-170h-316v-655q0 -12 8.5 -20.5t20.5 -8.5h289v-172h-324q-76 0 -130 54.5t-54 131.5l2 670h-209z" />
<glyph unicode="u" horiz-adv-x="1228" d="M150 356v668h190v-606q0 -112 79 -191.5t189 -79.5q112 0 191.5 79.5t79.5 191.5v606h188v-1024h-184v182q-46 -94 -142 -151.5t-209 -57.5q-158 0 -270 112.5t-112 270.5z" />
<glyph unicode="v" horiz-adv-x="1105" d="M33 1024h203l319 -795l315 795h203l-414 -1024h-206z" />
<glyph unicode="w" horiz-adv-x="1716" d="M39 1036h194l263 -809l274 809h174l275 -809l264 809h194l-344 -1036h-211l-264 784l-266 -784h-209z" />
<glyph unicode="x" horiz-adv-x="1079" d="M35 0l381 530l-359 494h209l273 -365l268 365h211l-359 -496l383 -528h-215l-288 401l-289 -401h-215z" />
<glyph unicode="y" horiz-adv-x="1118" d="M45 -240h166q171 0 219 129l47 115l-432 1032h203l323 -807l314 807h202l-487 -1212q-89 -234 -358 -234h-197v170z" />
<glyph unicode="z" horiz-adv-x="1007" d="M88 0v127l576 747h-558v162h803v-125l-575 -749h581v-162h-827z" />
<glyph unicode="{" horiz-adv-x="755" d="M82 555v168h14q80 0 115 35t35 116v357q0 157 63 221t219 64h156v-168h-96q-90 0 -124 -36t-34 -132v-306q0 -103 -38.5 -159t-123.5 -76q85 -19 123.5 -75.5t38.5 -160.5v-303q0 -98 34 -134t124 -36h96v-168h-156q-156 0 -219 64t-63 223v354q0 81 -35 116.5t-115 35.5 h-14z" />
<glyph unicode="|" horiz-adv-x="636" d="M238 -205v1772h161v-1772h-161z" />
<glyph unicode="}" horiz-adv-x="755" d="M72 -70h98q88 0 122 36t34 134v303q0 104 39 160.5t122 75.5q-84 20 -122.5 76.5t-38.5 158.5v306q0 96 -34 132t-122 36h-98v168h157q155 0 219 -64t64 -221v-357q0 -82 33.5 -116.5t113.5 -34.5h15v-168h-15q-79 0 -113 -35t-34 -117v-354q0 -158 -64 -222.5 t-219 -64.5h-157v168z" />
<glyph unicode="~" d="M276 524v170q119 94 250 94q56 0 131 -27t149 -54t126 -27q125 0 246 94v-170q-121 -92 -246 -92q-57 0 -130 27t-146.5 54.5t-131.5 27.5q-62 0 -119.5 -22.5t-128.5 -74.5z" />
<glyph unicode="&#xa1;" horiz-adv-x="600" d="M190 899q-9 51 15 86.5t74 44.5q53 9 87.5 -14t43.5 -74q9 -52 -13.5 -87t-74.5 -44q-50 -9 -86.5 14.5t-45.5 73.5zM199 -397l16 993h172l14 -993h-202z" />
<glyph unicode="&#xa2;" horiz-adv-x="1142" d="M100 518q0 232 139.5 384t362.5 161v188h74v-190q134 -11 238.5 -74.5t164.5 -173.5l-141 -96q-93 154 -262 172v-742q83 11 151 56.5t111 120.5l141 -97q-60 -110 -165 -176t-238 -76v-233h-74v231q-224 9 -363 159.5t-139 385.5zM291 518q0 -157 85.5 -258.5 t225.5 -112.5v742q-140 -11 -225.5 -112.5t-85.5 -258.5z" />
<glyph unicode="&#xa3;" horiz-adv-x="1097" d="M61 0v172h160v465h-160v139h160v271q0 197 106.5 305t299.5 108q290 0 420 -241l-146 -99q-90 160 -262 160q-108 0 -166.5 -63t-58.5 -183v-258h491v-139h-491v-465h624v-172h-977z" />
<glyph unicode="&#xa4;" horiz-adv-x="1142" d="M98 332l129 129q-75 110 -75 250t75 247l-129 132l88 88l136 -136q107 80 249 80q145 0 252 -80l133 136l88 -88l-129 -132q76 -109 76 -247q0 -141 -76 -250l129 -129l-88 -90l-133 135q-104 -78 -252 -78q-145 0 -249 78l-136 -135zM322 711q0 -114 69.5 -185 t179.5 -71q112 0 181 71t69 185q0 113 -69 183.5t-181 70.5q-110 0 -179.5 -71t-69.5 -183z" />
<glyph unicode="&#xa5;" horiz-adv-x="1183" d="M25 1434h204l363 -629l362 629h205l-426 -725h326v-117h-371v-199h371v-117h-371v-276h-192v276h-369v117h369v199h-369v117h324z" />
<glyph unicode="&#xa6;" horiz-adv-x="636" d="M238 -205v707h161v-707h-161zM238 844v723h161v-723h-161z" />
<glyph unicode="&#xa7;" horiz-adv-x="1122" d="M109 -78l88 127q59 -74 159.5 -116t223.5 -42q235 0 235 168q0 66 -42 104.5t-140 61.5l-199 49q-149 36 -223 108t-74 187q0 105 59 184t164 105q-109 38 -161 103.5t-52 166.5q0 157 111.5 244.5t316.5 87.5q142 0 250.5 -42.5t167.5 -119.5l-90 -124 q-123 126 -328 126q-235 0 -235 -165q0 -66 40.5 -103.5t135.5 -60.5l201 -47q153 -37 226 -109.5t73 -187.5q0 -106 -59 -184.5t-164 -104.5q110 -38 162.5 -105t52.5 -167q0 -157 -112.5 -245.5t-320.5 -88.5q-155 0 -277.5 50t-188.5 140zM322 600q0 -75 45 -119t149 -69 l62 -11q121 -22 187 36.5t66 158.5q0 77 -46 120t-152 68l-60 13q-62 11 -111 -1t-79 -40.5t-45.5 -68.5t-15.5 -87z" />
<glyph unicode="&#xa8;" horiz-adv-x="1269" d="M281 1368q0 54 33.5 87.5t88.5 33.5q54 0 88.5 -33.5t34.5 -87.5q0 -53 -34.5 -87t-88.5 -34q-55 0 -88.5 34t-33.5 87zM745 1368q0 54 34 87.5t89 33.5q54 0 88.5 -33.5t34.5 -87.5q0 -53 -34.5 -87t-88.5 -34q-55 0 -89 34t-34 87z" />
<glyph unicode="&#xa9;" horiz-adv-x="1720" d="M119 717q-1 151 57 289t157 238t237 158.5t290 57.5q152 1 290.5 -57.5t237.5 -158.5t157 -238t57 -289q2 -201 -96.5 -373t-270.5 -272.5t-375 -98.5q-151 -1 -289.5 58t-237.5 159t-157 238.5t-57 288.5zM225 717q-2 -175 81.5 -324t231 -236t322.5 -85 q176 -2 323.5 85t231 236t82.5 324q1 131 -48.5 251t-134 207t-203.5 138.5t-251 50.5q-132 1 -250.5 -50.5t-203 -138.5t-133.5 -207t-48 -251zM469 717q0 188 113.5 305t298.5 117q118 0 209.5 -49t140.5 -140l-115 -78q-35 61 -96 94t-135 33q-116 0 -188 -76.5 t-72 -205.5q0 -128 72.5 -204.5t187.5 -76.5q74 0 135 33t96 94l115 -78q-49 -92 -140.5 -141t-209.5 -49q-185 0 -298.5 117.5t-113.5 304.5z" />
<glyph unicode="&#xab;" horiz-adv-x="1107" d="M61 518l308 438h200l-305 -438l305 -438h-200zM524 518l307 438h201l-307 -438l307 -438h-201z" />
<glyph unicode="&#xac;" d="M276 565v170h902v-387h-177v217h-725z" />
<glyph unicode="&#xad;" horiz-adv-x="788" d="M98 508v164h594v-164h-594z" />
<glyph unicode="&#xae;" horiz-adv-x="1140" d="M119 1012q0 188 131.5 319t318.5 131q124 0 228.5 -60t164.5 -163.5t60 -226.5q0 -91 -35.5 -174.5t-96 -144t-144.5 -96.5t-177 -36q-187 0 -318.5 132.5t-131.5 318.5zM203 1012q0 -156 105 -265.5t261 -109.5t262.5 109.5t106.5 265.5q0 158 -106.5 267.5 t-262.5 109.5t-261 -109.5t-105 -267.5zM399 778v475h201q83 0 125.5 -38t42.5 -109q0 -63 -34.5 -100t-100.5 -43l145 -185h-88l-137 183h-76v-183h-78zM477 1024h119q92 0 92 82q0 80 -92 80h-119v-162z" />
<glyph unicode="&#xaf;" horiz-adv-x="1394" d="M375 1196v152h647v-152h-647z" />
<glyph unicode="&#xb0;" horiz-adv-x="768" d="M72 1155q0 131 88.5 218t224.5 87t223.5 -87t87.5 -218t-88 -219t-223 -88q-136 0 -224.5 88t-88.5 219zM209 1155q0 -81 49 -130.5t127 -49.5q77 0 126.5 49.5t49.5 130.5q0 79 -49.5 128.5t-126.5 49.5q-78 0 -127 -49.5t-49 -128.5z" />
<glyph unicode="&#xb1;" d="M276 0v170h902v-170h-902zM276 655v170h363v340h178v-340h361v-170h-361v-340h-178v340h-363z" />
<glyph unicode="&#xb4;" horiz-adv-x="1269" d="M539 1194l245 334h222l-281 -334h-186z" />
<glyph unicode="&#xb5;" horiz-adv-x="1245" d="M162 -451v1487h190v-610q0 -281 246 -281q138 0 217.5 83.5t79.5 240.5v567h188v-1036h-168v188q-34 -101 -118 -158t-201 -57q-176 0 -244 133v-557h-190z" />
<glyph unicode="&#xb6;" horiz-adv-x="1331" d="M102 1126q0 139 102 223.5t294 84.5h168v-1700h-166v1085h-33q-172 0 -268.5 85.5t-96.5 221.5zM928 -266v1700h166v-1700h-166z" />
<glyph unicode="&#xb8;" horiz-adv-x="1269" d="M414 -406l155 424h162l-125 -424h-192z" />
<glyph unicode="&#xbb;" horiz-adv-x="1107" d="M78 80l305 438l-305 438h201l307 -438l-307 -438h-201zM539 80l307 438l-307 438h200l308 -438l-308 -438h-200z" />
<glyph unicode="&#xbf;" horiz-adv-x="944" d="M57 -86q0 87 40 160.5t132 150.5l88 74q65 53 82 85.5t17 100.5v111h180v-121q-1 -105 -27 -152t-129 -135l-94 -79q-104 -85 -104 -191q0 -83 57 -129.5t150 -46.5q98 0 180.5 54.5t134.5 156.5l139 -90q-65 -136 -185 -211.5t-274 -75.5q-171 0 -279 92.5t-108 245.5z M397 899q-9 51 14 86.5t74 44.5t86.5 -14t44.5 -74t-14 -86.5t-74 -44.5t-86.5 14t-44.5 74z" />
<glyph unicode="&#xc0;" horiz-adv-x="1427" d="M29 0l571 1434h203l581 -1434h-208l-136 334l-667 2l-135 -336h-209zM387 1925h191l215 -334h-185zM434 506h545l-272 727z" />
<glyph unicode="&#xc1;" horiz-adv-x="1427" d="M29 0l571 1434h203l581 -1434h-208l-136 334l-667 2l-135 -336h-209zM434 506h545l-272 727zM629 1591l215 334h190l-221 -334h-184z" />
<glyph unicode="&#xc2;" horiz-adv-x="1427" d="M29 0l571 1434h203l581 -1434h-208l-136 334l-667 2l-135 -336h-209zM338 1591l293 334h188l291 -334h-190l-195 224l-195 -224h-192zM434 506h545l-272 727z" />
<glyph unicode="&#xc3;" horiz-adv-x="1427" d="M29 0l571 1434h203l581 -1434h-208l-136 334l-667 2l-135 -336h-209zM381 1628q0 127 47.5 194.5t134.5 67.5q42 0 80.5 -16.5t91.5 -54.5q63 -54 115 -54q78 0 78 117h139q0 -128 -47 -195t-133 -67q-44 0 -83 16.5t-91 55.5q-62 53 -113 53q-78 0 -78 -117h-141z M434 506h545l-272 727z" />
<glyph unicode="&#xc4;" horiz-adv-x="1427" d="M29 0l571 1434h203l581 -1434h-208l-136 334l-667 2l-135 -336h-209zM369 1765q0 51 36.5 87t88.5 36q50 0 85 -36t35 -87t-35 -87t-85 -36q-52 0 -88.5 36t-36.5 87zM434 506h545l-272 727zM834 1765q0 51 36 87t88 36q50 0 85.5 -36t35.5 -87t-35.5 -87t-85.5 -36 q-52 0 -88 36t-36 87z" />
<glyph unicode="&#xc5;" horiz-adv-x="1427" d="M29 0l571 1434h203l581 -1434h-208l-136 334l-667 2l-135 -336h-209zM434 506h545l-272 727zM538.5 1858.5q15.5 72.5 82.5 115.5q66 42 140.5 28.5t119.5 -73.5t29.5 -131.5t-81.5 -114.5q-68 -42 -142 -29.5t-120 72.5q-44 60 -28.5 132.5zM623.5 1804.5 q10.5 -36.5 50.5 -61.5q38 -23 75 -13.5t62 48.5q24 37 14 74t-49 61q-40 24 -77 14.5t-62 -47.5q-24 -39 -13.5 -75.5z" />
<glyph unicode="&#xc6;" horiz-adv-x="2222" d="M20 0l951 1434h1097v-181h-786v-438h746v-180h-746v-453h807v-182h-1004v346h-602l-227 -346h-236zM582 510h503v758z" />
<glyph unicode="&#xc7;" horiz-adv-x="1552" d="M123 717q0 210 88.5 378t256.5 266.5t388 98.5q208 0 367.5 -96t249.5 -272l-162 -93q-62 131 -180.5 204t-274.5 73t-277.5 -73.5t-186 -200.5t-64.5 -285q0 -159 63.5 -285.5t184.5 -200t280 -73.5q156 0 275 72.5t182 203.5l160 -96q-79 -167 -225.5 -259.5 t-340.5 -103.5l-108 -381h-193l139 386q-191 24 -333 126.5t-215.5 260t-73.5 350.5z" />
<glyph unicode="&#xc8;" horiz-adv-x="1333" d="M199 0v1434h972v-179h-778v-479h740v-176h-740v-422h799v-178h-993zM430 1925h193l215 -334h-187z" />
<glyph unicode="&#xc9;" horiz-adv-x="1333" d="M197 0v1434h983v-179h-787v-454h742v-176h-742v-447h807v-178h-1003zM541 1591l215 334h192l-221 -334h-186z" />
<glyph unicode="&#xca;" horiz-adv-x="1333" d="M199 0v1434h972v-179h-778v-479h740v-176h-740v-422h799v-178h-993zM291 1591l293 334h188l291 -334h-191l-194 224l-195 -224h-192z" />
<glyph unicode="&#xcb;" horiz-adv-x="1333" d="M199 0v1434h972v-179h-778v-479h740v-176h-740v-422h799v-178h-993zM322 1767q0 51 35.5 87t86.5 36t87 -36t36 -87t-36 -86.5t-87 -35.5t-86.5 35.5t-35.5 86.5zM786 1767q0 51 36 87t87 36t87 -36t36 -87t-36 -86.5t-87 -35.5t-87 35.5t-36 86.5z" />
<glyph unicode="&#xcc;" horiz-adv-x="598" d="M-16 1925h223l215 -334h-186zM201 0v1434h196v-1434h-196z" />
<glyph unicode="&#xcd;" horiz-adv-x="598" d="M201 0v1434h196v-1434h-196zM209 1583l215 334h221l-252 -334h-184z" />
<glyph unicode="&#xce;" horiz-adv-x="598" d="M-88 1591l293 334h188l293 -334h-192l-195 224l-195 -224h-192zM201 0v1434h196v-1434h-196z" />
<glyph unicode="&#xcf;" horiz-adv-x="598" d="M-57 1765q0 54 34.5 87.5t90.5 33.5q54 0 88 -33.5t34 -87.5q0 -53 -34 -86.5t-88 -33.5q-55 0 -90 33.5t-35 86.5zM201 0v1434h196v-1434h-196zM410 1765q0 54 33.5 87.5t88.5 33.5q54 0 88.5 -33.5t34.5 -87.5q0 -53 -34.5 -86.5t-88.5 -33.5q-55 0 -88.5 33.5 t-33.5 86.5z" />
<glyph unicode="&#xd0;" horiz-adv-x="1579" d="M37 639v158h205v637h503q213 0 373.5 -83t251 -246.5t90.5 -387.5t-90.5 -387.5t-251 -246.5t-373.5 -83h-503v639h-205zM438 182h307q239 0 373.5 137t134.5 398t-134.5 397.5t-373.5 136.5h-307v-454h373v-158h-373v-457z" />
<glyph unicode="&#xd1;" horiz-adv-x="1609" d="M197 0v1434h184l838 -1112v1112h194v-1434h-184l-838 1112v-1112h-194zM463 1628q0 126 47.5 194t132.5 68q43 0 82 -16.5t90 -54.5q66 -54 115 -54q78 0 78 117h141q0 -128 -47.5 -195t-134.5 -67q-76 0 -172 72q-65 53 -115 53q-78 0 -78 -117h-139z" />
<glyph unicode="&#xd2;" horiz-adv-x="1714" d="M123 717q0 211 95.5 381t265 266t380.5 96q210 0 379.5 -96t265 -266t95.5 -381q0 -158 -56 -296.5t-154 -236.5t-235.5 -154.5t-294.5 -56.5q-211 0 -380.5 96t-265 266.5t-95.5 381.5zM326 717q0 -156 70 -284.5t193.5 -201.5t274.5 -73q113 0 212.5 43t170.5 117 t112.5 178t41.5 221q0 118 -41.5 221.5t-112.5 177.5t-170.5 117t-212.5 43q-230 0 -384 -160t-154 -399zM588 1925h190l215 -334h-184z" />
<glyph unicode="&#xd3;" horiz-adv-x="1714" d="M123 717q0 211 95.5 381t265 266t380.5 96q210 0 379.5 -96t265 -266t95.5 -381q0 -158 -56 -296.5t-154 -236.5t-235.5 -154.5t-294.5 -56.5q-211 0 -380.5 96t-265 266.5t-95.5 381.5zM326 717q0 -156 70 -284.5t193.5 -201.5t274.5 -73q113 0 212.5 43t170.5 117 t112.5 178t41.5 221q0 118 -41.5 221.5t-112.5 177.5t-170.5 117t-212.5 43q-230 0 -384 -160t-154 -399zM737 1591l215 334h191l-221 -334h-185z" />
<glyph unicode="&#xd4;" horiz-adv-x="1714" d="M123 717q0 211 95.5 381t265 266t380.5 96q210 0 379.5 -96t265 -266t95.5 -381q0 -158 -56 -296.5t-154 -236.5t-235.5 -154.5t-294.5 -56.5q-211 0 -380.5 96t-265 266.5t-95.5 381.5zM326 717q0 -156 70 -284.5t193.5 -201.5t274.5 -73q113 0 212.5 43t170.5 117 t112.5 178t41.5 221q0 118 -41.5 221.5t-112.5 177.5t-170.5 117t-212.5 43q-230 0 -384 -160t-154 -399zM471 1591l293 334h188l291 -334h-190l-195 224l-194 -224h-193z" />
<glyph unicode="&#xd5;" horiz-adv-x="1714" d="M119 717q-1 156 55.5 294.5t154 237.5t235.5 155.5t294 55.5q156 1 293.5 -55.5t235 -155.5t153.5 -237.5t55 -294.5q1 -156 -55 -294.5t-153.5 -237.5t-235 -156t-293.5 -56q-156 -1 -294 56t-235.5 156t-154 237.5t-55.5 294.5zM326 717q0 -244 150 -400.5t382 -156.5 q231 0 382 156.5t151 400.5q0 160 -69 288t-190.5 199.5t-273.5 71.5q-232 0 -382 -158t-150 -401zM514 1628q0 127 47.5 194.5t134.5 67.5q42 0 80.5 -16.5t91.5 -54.5q63 -54 115 -54q78 0 78 117h139q0 -128 -47 -195t-133 -67q-44 0 -83 16.5t-91 55.5q-62 53 -113 53 q-78 0 -78 -117h-141z" />
<glyph unicode="&#xd6;" horiz-adv-x="1714" d="M123 717q0 211 95.5 381t265 266t380.5 96q210 0 379.5 -96t265 -266t95.5 -381q0 -158 -56 -296.5t-154 -236.5t-235.5 -154.5t-294.5 -56.5q-211 0 -380.5 96t-265 266.5t-95.5 381.5zM326 717q0 -156 70 -284.5t193.5 -201.5t274.5 -73q113 0 212.5 43t170.5 117 t112.5 178t41.5 221q0 118 -41.5 221.5t-112.5 177.5t-170.5 117t-212.5 43q-230 0 -384 -160t-154 -399zM502 1767q0 51 36 87t87 36t87 -36t36 -87t-36 -86.5t-87 -35.5t-87 35.5t-36 86.5zM967 1767q0 51 36 87t87 36t86.5 -36t35.5 -87t-35.5 -86.5t-86.5 -35.5 t-87 35.5t-36 86.5z" />
<glyph unicode="&#xd7;" d="M309 348l301 301l-301 303l117 117l301 -303l303 303l117 -117l-303 -303l303 -301l-117 -117l-303 301l-301 -301z" />
<glyph unicode="&#xd8;" horiz-adv-x="1714" d="M119 717q-1 156 55.5 294.5t154 237.5t235.5 155.5t294 55.5q274 0 473 -166l154 154l104 -102l-153 -154q159 -204 159 -475q1 -156 -55 -294.5t-153.5 -237.5t-235 -156t-293.5 -56q-277 0 -473 168l-154 -155l-102 106l152 152q-162 198 -162 473zM326 717 q0 -189 100 -332l768 768q-139 123 -336 123q-232 0 -382 -158t-150 -401zM522 281q137 -121 336 -121q231 0 382 156.5t151 400.5q0 190 -103 330z" />
<glyph unicode="&#xd9;" horiz-adv-x="1523" d="M186 555v879h197v-889q0 -182 104.5 -283.5t280.5 -101.5q184 0 285.5 100.5t101.5 284.5v889h197v-879q0 -263 -160.5 -422.5t-423.5 -159.5q-257 0 -419.5 160t-162.5 422zM465 1925h192l215 -334h-186z" />
<glyph unicode="&#xda;" horiz-adv-x="1523" d="M186 555v879h197v-889q0 -182 104.5 -283.5t280.5 -101.5q184 0 285.5 100.5t101.5 284.5v889h197v-879q0 -263 -160.5 -422.5t-423.5 -159.5q-257 0 -419.5 160t-162.5 422zM631 1591l215 334h190l-221 -334h-184z" />
<glyph unicode="&#xdb;" horiz-adv-x="1523" d="M186 555v879h197v-889q0 -182 104.5 -283.5t280.5 -101.5q184 0 285.5 100.5t101.5 284.5v889h197v-879q0 -263 -160.5 -422.5t-423.5 -159.5q-257 0 -419.5 160t-162.5 422zM377 1591l291 334h188l293 -334h-193l-194 224l-195 -224h-190z" />
<glyph unicode="&#xdc;" horiz-adv-x="1523" d="M186 555v879h197v-889q0 -182 104.5 -283.5t280.5 -101.5q184 0 285.5 100.5t101.5 284.5v889h197v-879q0 -263 -160.5 -422.5t-423.5 -159.5q-257 0 -419.5 160t-162.5 422zM406 1767q0 51 36 87t88 36q50 0 85.5 -36t35.5 -87t-35.5 -86.5t-85.5 -35.5q-52 0 -88 35.5 t-36 86.5zM870 1767q0 51 36.5 87t88.5 36q50 0 85.5 -36t35.5 -87t-35.5 -86.5t-85.5 -35.5q-52 0 -88.5 35.5t-36.5 86.5z" />
<glyph unicode="&#xdd;" horiz-adv-x="1302" d="M8 1434h225l424 -662l433 662h225l-557 -850v-584h-199v584zM526 1591l215 334h191l-221 -334h-185z" />
<glyph unicode="&#xde;" horiz-adv-x="1374" d="M197 0v1434h196v-246h375q252 0 384 -116t132 -339t-132 -340t-384 -117h-375v-276h-196zM393 455h367q157 0 238 70t81 208q0 136 -81 205.5t-238 69.5h-367v-553z" />
<glyph unicode="&#xdf;" horiz-adv-x="1280" d="M162 0v1063q0 218 124 335.5t351 117.5q218 0 342.5 -108t124.5 -294q0 -137 -69 -228t-197 -122q170 -12 263 -107.5t93 -255.5q0 -187 -123.5 -294t-343.5 -107h-172v166h141q151 0 228 65t77 189q0 246 -307 246h-141v170h65q144 0 222 65t78 191q0 123 -72.5 188.5 t-206.5 65.5q-142 0 -214.5 -73.5t-72.5 -215.5v-1057h-190z" />
<glyph unicode="&#xe0;" horiz-adv-x="1097" d="M94 301q0 99 54 169.5t150 105t227 43t286 -16.5l-2 84q0 102 -63 156.5t-171 54.5q-92 0 -171.5 -37.5t-133.5 -107.5l-104 106q61 85 179.5 137t244.5 52q189 0 297 -104t108 -284v-659h-161v201q-37 -103 -135.5 -162t-237.5 -59q-167 0 -267 88.5t-100 232.5z M281 311q0 -89 59.5 -139.5t165.5 -50.5q142 0 223.5 79.5t81.5 219.5v69q-244 39 -387 -7t-143 -171zM291 1528h223l215 -334h-186z" />
<glyph unicode="&#xe1;" horiz-adv-x="1124" d="M94 301q0 99 56 169.5t154 105t231 43t288 -16.5v84q0 102 -62 156.5t-165 54.5q-97 0 -178 -37.5t-133 -107.5l-105 106q60 85 177.5 137t238.5 52q201 0 307.5 -102.5t106.5 -285.5v-659h-162v201q-39 -103 -136.5 -162t-236.5 -59q-170 0 -275.5 89t-105.5 232z M281 311q0 -88 66 -139t173 -51q141 0 223 79.5t82 219.5v69q-162 24 -283 14.5t-191 -59.5t-70 -133zM543 1194l215 334h186l-215 -334h-186z" />
<glyph unicode="&#xe2;" horiz-adv-x="1112" d="M94 301q0 99 54 169.5t150 105t227 43t286 -16.5l-2 84q0 102 -63 156.5t-171 54.5q-92 0 -171.5 -37.5t-133.5 -107.5l-104 106q61 85 179.5 137t244.5 52q189 0 297 -104t108 -284v-659h-161v201q-37 -103 -135.5 -162t-237.5 -59q-167 0 -267 88.5t-100 232.5z M229 1194l291 334h189l292 -334h-192l-195 223l-194 -223h-191zM281 311q0 -89 59.5 -139.5t165.5 -50.5q142 0 223.5 79.5t81.5 219.5v69q-244 39 -387 -7t-143 -171z" />
<glyph unicode="&#xe3;" horiz-adv-x="1089" d="M94 301q0 99 54 169.5t150 105t227 43t286 -16.5l-2 84q0 102 -63 156.5t-171 54.5q-92 0 -171.5 -37.5t-133.5 -107.5l-104 106q61 85 179.5 137t244.5 52q189 0 297 -104t108 -284v-659h-161v201q-37 -103 -135.5 -162t-237.5 -59q-167 0 -267 88.5t-100 232.5z M281 311q0 -89 59.5 -139.5t165.5 -50.5q142 0 223.5 79.5t81.5 219.5v69q-244 39 -387 -7t-143 -171zM319 1231q0 126 47.5 194t133.5 68q79 0 172 -72q64 -53 114 -53q78 0 78 117h142q0 -128 -48 -195t-135 -67q-84 0 -172 71q-66 54 -114 54q-78 0 -78 -117h-140z" />
<glyph unicode="&#xe4;" horiz-adv-x="1146" d="M94 301q0 99 54 169.5t150 105t227 43t286 -16.5l-2 84q0 102 -63 156.5t-171 54.5q-92 0 -171.5 -37.5t-133.5 -107.5l-104 106q61 85 179.5 137t244.5 52q189 0 297 -104t108 -284v-659h-161v201q-37 -103 -135.5 -162t-237.5 -59q-167 0 -267 88.5t-100 232.5z M281 311q0 -89 59.5 -139.5t165.5 -50.5q142 0 223.5 79.5t81.5 219.5v69q-244 39 -387 -7t-143 -171zM303 1370q0 51 36.5 87t88.5 36q50 0 85.5 -36t35.5 -87t-35.5 -87t-85.5 -36q-52 0 -88.5 36t-36.5 87zM768 1370q0 51 36.5 87t88.5 36q50 0 85.5 -36t35.5 -87 t-35.5 -87t-85.5 -36q-52 0 -88.5 36t-36.5 87z" />
<glyph unicode="&#xe5;" horiz-adv-x="1159" d="M94 301q0 99 54 169.5t150 105t227 43t286 -16.5l-2 84q0 102 -63 156.5t-171 54.5q-92 0 -171.5 -37.5t-133.5 -107.5l-104 106q61 85 179.5 137t244.5 52q189 0 297 -104t108 -284v-659h-161v201q-37 -103 -135.5 -162t-237.5 -59q-167 0 -267 88.5t-100 232.5z M281 311q0 -89 59.5 -139.5t165.5 -50.5q142 0 223.5 79.5t81.5 219.5v69q-244 39 -387 -7t-143 -171zM369 1432q0 104 74 174.5t186 70.5t187 -71t75 -174q0 -104 -75 -176t-187 -72q-111 0 -185.5 72t-74.5 176zM492 1432q0 -62 37 -100t100 -38q64 0 101.5 38t37.5 100 t-37.5 98.5t-101.5 36.5q-63 0 -100 -36.5t-37 -98.5z" />
<glyph unicode="&#xe6;" horiz-adv-x="1916" d="M74 301q0 99 54 169.5t150 105t227 43t286 -16.5l-3 84q0 102 -62.5 156.5t-170.5 54.5q-92 0 -171.5 -37.5t-133.5 -107.5l-105 106q61 85 179.5 137t244.5 52q248 0 351 -170q73 81 176.5 125.5t226.5 44.5q248 0 382.5 -153t117.5 -423h-840q0 -149 101 -243.5 t253 -94.5q109 0 203 44t146 120l108 -111q-66 -98 -190.5 -154.5t-274.5 -56.5q-148 0 -265 60t-187 168q-74 -113 -189.5 -168t-247.5 -55q-167 0 -266.5 88.5t-99.5 232.5zM260 311q0 -89 59.5 -139.5t165.5 -50.5q149 0 227.5 77.5t78.5 209.5v81q-244 39 -387.5 -7 t-143.5 -171zM981 592h655q-3 139 -87 225t-226 86q-143 0 -239.5 -90t-102.5 -221z" />
<glyph unicode="&#xe7;" horiz-adv-x="1142" d="M100 518q0 239 147.5 392t379.5 153q151 0 268.5 -65t183.5 -185l-141 -96q-51 84 -130 129t-175 45q-152 0 -247 -103.5t-95 -269.5t95 -269.5t247 -103.5q96 0 175.5 47t129.5 132l141 -97q-57 -104 -153 -168.5t-219 -81.5l-113 -383h-193l142 386 q-200 28 -321.5 174.5t-121.5 363.5z" />
<glyph unicode="&#xe8;" horiz-adv-x="1218" d="M92 514q0 235 150 384t383 149q248 0 382 -153t117 -423h-839q0 -149 101 -243.5t253 -94.5q109 0 202.5 44t145.5 120l109 -111q-66 -98 -190.5 -154.5t-274.5 -56.5q-239 0 -389 150t-150 389zM283 592h655q-3 139 -87 225t-226 86q-143 0 -239.5 -90t-102.5 -221z M301 1528h221l215 -334h-184z" />
<glyph unicode="&#xe9;" horiz-adv-x="1226" d="M92 514q0 235 150 384t383 149q248 0 382 -153t117 -423h-839q0 -149 101 -243.5t253 -94.5q109 0 202.5 44t145.5 120l109 -111q-66 -98 -190.5 -154.5t-274.5 -56.5q-239 0 -389 150t-150 389zM283 592h655q-3 139 -87 225t-226 86q-143 0 -239.5 -90t-102.5 -221z M506 1194l215 334h192l-221 -334h-186z" />
<glyph unicode="&#xea;" horiz-adv-x="1218" d="M92 514q0 235 150 384t383 149q248 0 382 -153t117 -423h-839q0 -149 101 -243.5t253 -94.5q109 0 202.5 44t145.5 120l109 -111q-66 -98 -190.5 -154.5t-274.5 -56.5q-239 0 -389 150t-150 389zM236 1194l290 334h189l293 -334h-193l-194 223l-195 -223h-190zM283 592 h655q-3 139 -87 225t-226 86q-143 0 -239.5 -90t-102.5 -221z" />
<glyph unicode="&#xeb;" horiz-adv-x="1218" d="M92 514q0 235 150 384t383 149q248 0 382 -153t117 -423h-839q0 -149 101 -243.5t253 -94.5q109 0 202.5 44t145.5 120l109 -111q-66 -98 -190.5 -154.5t-274.5 -56.5q-239 0 -389 150t-150 389zM252 1370q0 51 36.5 87t88.5 36q50 0 85.5 -36t35.5 -87t-35.5 -87 t-85.5 -36q-52 0 -88.5 36t-36.5 87zM283 592h655q-3 139 -87 225t-226 86q-143 0 -239.5 -90t-102.5 -221zM717 1370q0 51 36.5 87t88.5 36q50 0 85.5 -36t35.5 -87t-35.5 -87t-85.5 -36q-52 0 -88.5 36t-36.5 87z" />
<glyph unicode="&#xec;" horiz-adv-x="518" d="M-74 1528h193l229 -334h-186zM164 0v1024h190v-1024h-190z" />
<glyph unicode="&#xed;" horiz-adv-x="518" d="M160 1194l215 334h192l-221 -334h-186zM164 0v1024h190v-1024h-190z" />
<glyph unicode="&#xee;" horiz-adv-x="518" d="M-74 1194l244 334h178l244 -334h-172l-160 225l-160 -225h-174zM164 0v1024h190v-1024h-190z" />
<glyph unicode="&#xef;" horiz-adv-x="518" d="M-39 1368q0 51 30 81t77 30q48 0 77 -29.5t29 -81.5q0 -51 -29 -81t-77 -30q-47 0 -77 30.5t-30 80.5zM164 0v1024h190v-1024h-190zM346 1368q0 52 29 81.5t76 29.5q48 0 77 -29.5t29 -81.5q0 -50 -30 -80.5t-76 -30.5t-75.5 30.5t-29.5 80.5z" />
<glyph unicode="&#xf1;" horiz-adv-x="1232" d="M162 0v1024h186v-182q46 94 140.5 151.5t207.5 57.5q160 0 272.5 -112.5t112.5 -270.5v-668h-190v608q0 111 -78.5 190.5t-191.5 80.5q-112 0 -190.5 -80t-78.5 -191v-608h-190zM281 1231q0 126 47.5 194t132.5 68q43 0 81.5 -17t90.5 -55q64 -53 115 -53q77 0 77 117 h142q0 -128 -48 -195t-135 -67q-42 0 -81.5 16t-90.5 55q-66 54 -114 54q-78 0 -78 -117h-139z" />
<glyph unicode="&#xf2;" horiz-adv-x="1280" d="M98 518q0 153 67.5 277t192.5 196t285 72q161 0 285 -72.5t189 -195.5t65 -277q0 -151 -66.5 -275t-191.5 -197t-285 -73q-159 0 -283 71.5t-191 195.5t-67 278zM291 518q0 -164 94.5 -268.5t253.5 -104.5q157 0 254.5 106t97.5 267q0 163 -95.5 269t-252.5 106 q-158 0 -255 -106t-97 -269zM393 1528h193l215 -334h-187z" />
<glyph unicode="&#xf3;" horiz-adv-x="1280" d="M98 518q0 153 67.5 277t192.5 196t285 72q161 0 285 -72.5t189 -195.5t65 -277q0 -151 -66.5 -275t-191.5 -197t-285 -73q-159 0 -283 71.5t-191 195.5t-67 278zM291 518q0 -164 94.5 -268.5t253.5 -104.5q157 0 254.5 106t97.5 267q0 163 -95.5 269t-252.5 106 q-158 0 -255 -106t-97 -269zM520 1194l215 334h193l-221 -334h-187z" />
<glyph unicode="&#xf4;" horiz-adv-x="1280" d="M98 518q0 153 67.5 277t192.5 196t285 72q161 0 285 -72.5t189 -195.5t65 -277q0 -151 -66.5 -275t-191.5 -197t-285 -73q-159 0 -283 71.5t-191 195.5t-67 278zM254 1194l293 334h188l291 -334h-190l-195 223l-195 -223h-192zM291 518q0 -164 94.5 -268.5t253.5 -104.5 q157 0 254.5 106t97.5 267q0 163 -95.5 269t-252.5 106q-158 0 -255 -106t-97 -269z" />
<glyph unicode="&#xf5;" horiz-adv-x="1280" d="M98 518q0 157 66.5 280.5t191 194t285.5 70.5q242 0 391.5 -153t149.5 -392q0 -156 -66.5 -279.5t-190.5 -194.5t-284 -71q-243 0 -393 153.5t-150 391.5zM291 518q0 -169 96.5 -272t253.5 -103t252.5 103t95.5 272q0 170 -95.5 272.5t-252.5 102.5t-253.5 -102.5 t-96.5 -272.5zM297 1231q0 127 47.5 194.5t134.5 67.5q41 0 80 -17t92 -55q62 -53 115 -53q78 0 78 117h139q0 -128 -47 -195t-133 -67q-44 0 -83.5 16t-90.5 55q-63 54 -113 54q-78 0 -78 -117h-141z" />
<glyph unicode="&#xf6;" horiz-adv-x="1280" d="M98 518q0 153 67.5 277t192.5 196t285 72q161 0 285 -72.5t189 -195.5t65 -277q0 -151 -66.5 -275t-191.5 -197t-285 -73q-159 0 -283 71.5t-191 195.5t-67 278zM285 1370q0 51 36 87t87 36t86.5 -36t35.5 -87t-35.5 -87t-86.5 -36t-87 36t-36 87zM291 518 q0 -164 94.5 -268.5t253.5 -104.5q157 0 254.5 106t97.5 267q0 163 -95.5 269t-252.5 106q-158 0 -255 -106t-97 -269zM750 1370q0 51 35.5 87t86.5 36t87 -36t36 -87t-36 -87t-87 -36t-86.5 36t-35.5 87z" />
<glyph unicode="&#xf7;" d="M276 565v170h902v-170h-902zM612 260q0 50 34 84.5t85 34.5q49 0 84 -34.5t35 -84.5q0 -51 -34.5 -85t-84.5 -34q-51 0 -85 34t-34 85zM612 1040q0 51 34 86t85 35q50 0 84.5 -35t34.5 -86q0 -49 -34.5 -83.5t-84.5 -34.5q-51 0 -85 34t-34 84z" />
<glyph unicode="&#xf8;" horiz-adv-x="1288" d="M86 49l125 125q-109 142 -109 344q0 157 66.5 280.5t191 194t285.5 70.5q202 0 342 -113l127 127l90 -90l-125 -125q107 -141 107 -344q0 -156 -66.5 -279.5t-190.5 -194.5t-284 -71q-200 0 -344 113l-127 -127zM287 518q0 -133 63 -221l524 524q-88 82 -229 82 q-162 0 -260 -105.5t-98 -279.5zM416 215q91 -82 229 -82q161 0 260 106t99 279q0 127 -62 221z" />
<glyph unicode="&#xf9;" horiz-adv-x="1224" d="M150 362v662h190v-598q0 -136 66 -207.5t182 -73.5q126 0 208.5 80.5t82.5 210.5v588h188v-1024h-184v199q-40 -102 -140.5 -164t-230.5 -62q-166 0 -264 104.5t-98 284.5zM360 1528h193l215 -334h-186z" />
<glyph unicode="&#xfa;" horiz-adv-x="1224" d="M150 356v668h190v-606q0 -112 79 -191.5t189 -79.5q112 0 191.5 79.5t79.5 191.5v606h188v-1024h-184v182q-46 -94 -142 -151.5t-209 -57.5q-158 0 -270 112.5t-112 270.5zM455 1194l215 334h190l-221 -334h-184z" />
<glyph unicode="&#xfb;" horiz-adv-x="1224" d="M150 356v668h190v-606q0 -112 79 -191.5t189 -79.5q112 0 191.5 79.5t79.5 191.5v606h188v-1024h-184v182q-46 -94 -142 -151.5t-209 -57.5q-158 0 -270 112.5t-112 270.5zM223 1194l293 334h189l290 -334h-190l-195 223l-194 -223h-193z" />
<glyph unicode="&#xfc;" horiz-adv-x="1224" d="M150 356v668h190v-606q0 -112 79 -191.5t189 -79.5q112 0 191.5 79.5t79.5 191.5v606h188v-1024h-184v182q-46 -94 -142 -151.5t-209 -57.5q-158 0 -270 112.5t-112 270.5zM254 1370q0 51 36 87t87 36t87 -36t36 -87t-36 -87t-87 -36t-87 36t-36 87zM719 1370q0 51 36 87 t87 36t87 -36t36 -87t-36 -87t-87 -36t-87 36t-36 87z" />
<glyph unicode="&#xfd;" horiz-adv-x="1107" d="M35 1024h205l323 -799l309 799h205l-479 -1180q-58 -143 -141.5 -198.5t-237.5 -55.5h-174v170h143q105 0 154.5 30t81.5 114l43 100zM399 1194l215 334h193l-221 -334h-187z" />
<glyph unicode="&#xfe;" horiz-adv-x="1325" d="M162 -379v1813h172v-637q47 115 158.5 183.5t248.5 68.5q228 0 357 -147t129 -394q0 -236 -133 -384.5t-355 -148.5q-145 0 -251.5 74.5t-139.5 175.5v-604h-186zM348 508q0 -163 97 -266t251 -103q150 0 244 102.5t94 266.5q0 166 -95 269.5t-249 103.5 q-150 0 -246 -104.5t-96 -268.5z" />
<glyph unicode="&#xff;" horiz-adv-x="1107" d="M35 1036h205l323 -811l309 811h205l-479 -1192q-56 -143 -140.5 -198.5t-238.5 -55.5h-174v170h143q105 0 154.5 30t81.5 114l43 100zM199 1370q0 51 36.5 87t88.5 36q50 0 85 -36t35 -87t-35 -87t-85 -36q-52 0 -88.5 36t-36.5 87zM664 1370q0 51 36 87t88 36 q50 0 85.5 -36t35.5 -87t-35.5 -87t-85.5 -36q-52 0 -88 36t-36 87z" />
<glyph unicode="&#x152;" horiz-adv-x="2254" d="M119 717q-1 157 54.5 291t153.5 227.5t235 146.5t296 52h1243v-179h-786v-442h741v-176h-741v-459h807v-178h-1264q-214 0 -382.5 90t-262.5 253.5t-94 373.5zM326 717q0 -241 148.5 -388t383.5 -147h262v1069h-262q-235 0 -383.5 -146.5t-148.5 -387.5z" />
<glyph unicode="&#x153;" horiz-adv-x="2115" d="M98 518q0 153 67.5 277t192.5 196t285 72q146 0 261 -59t186 -164q71 98 183.5 152.5t248.5 54.5q248 0 382 -153t117 -423h-839q0 -149 101 -243.5t253 -94.5q109 0 202.5 44t145.5 120l109 -111q-66 -98 -190.5 -154.5t-274.5 -56.5q-144 0 -259.5 57.5t-185.5 160.5 q-73 -103 -187 -161.5t-257 -58.5q-159 0 -283 71.5t-191 195.5t-67 278zM291 518q0 -164 94.5 -268.5t253.5 -104.5q148 0 243.5 94.5t106.5 243.5v31v37q-9 151 -103 246.5t-243 95.5q-158 0 -255 -106t-97 -269zM1180 592h655q-3 139 -87 225t-226 86q-143 0 -239.5 -90 t-102.5 -221z" />
<glyph unicode="&#x178;" horiz-adv-x="1302" d="M8 1434h225l424 -662l433 662h225l-557 -850v-584h-199v584zM297 1765q0 54 34 87.5t89 33.5q54 0 88.5 -33.5t34.5 -87.5q0 -53 -34.5 -86.5t-88.5 -33.5q-55 0 -89 33.5t-34 86.5zM762 1765q0 54 34 87.5t89 33.5q54 0 88.5 -33.5t34.5 -87.5q0 -53 -34.5 -86.5 t-88.5 -33.5q-55 0 -89 33.5t-34 86.5z" />
<glyph unicode="&#x2c6;" horiz-adv-x="1269" d="M250 1194l291 334h188l293 -334h-193l-194 223l-195 -223h-190z" />
<glyph unicode="&#x2dc;" horiz-adv-x="1269" d="M293 1231q0 126 47.5 194t132.5 68q43 0 81.5 -17t90.5 -55q64 -53 115 -53q78 0 78 117h141q0 -128 -47.5 -195t-134.5 -67q-42 0 -81.5 16t-90.5 55q-66 54 -115 54q-78 0 -78 -117h-139z" />
<glyph unicode="&#x2000;" horiz-adv-x="1002" />
<glyph unicode="&#x2001;" horiz-adv-x="2005" />
<glyph unicode="&#x2002;" horiz-adv-x="1002" />
<glyph unicode="&#x2003;" horiz-adv-x="2005" />
<glyph unicode="&#x2004;" horiz-adv-x="668" />
<glyph unicode="&#x2005;" horiz-adv-x="501" />
<glyph unicode="&#x2006;" horiz-adv-x="334" />
<glyph unicode="&#x2007;" horiz-adv-x="334" />
<glyph unicode="&#x2008;" horiz-adv-x="250" />
<glyph unicode="&#x2009;" horiz-adv-x="401" />
<glyph unicode="&#x200a;" horiz-adv-x="111" />
<glyph unicode="&#x2010;" horiz-adv-x="788" d="M98 508v164h594v-164h-594z" />
<glyph unicode="&#x2011;" horiz-adv-x="788" d="M98 508v164h594v-164h-594z" />
<glyph unicode="&#x2012;" horiz-adv-x="788" d="M98 508v164h594v-164h-594z" />
<glyph unicode="&#x2013;" horiz-adv-x="1218" d="M98 508v160h1024v-160h-1024z" />
<glyph unicode="&#x2014;" horiz-adv-x="2244" d="M98 508v160h2048v-160h-2048z" />
<glyph unicode="&#x2018;" horiz-adv-x="464" d="M78 942l147 518h164l-119 -518h-192z" />
<glyph unicode="&#x2019;" horiz-adv-x="464" d="M78 942l119 518h192l-147 -518h-164z" />
<glyph unicode="&#x201a;" horiz-adv-x="454" d="M57 -295l119 518h193l-148 -518h-164z" />
<glyph unicode="&#x201c;" horiz-adv-x="841" d="M78 942l147 518h164l-119 -518h-192zM455 942l147 518h164l-119 -518h-192z" />
<glyph unicode="&#x201d;" horiz-adv-x="841" d="M78 942l119 518h192l-147 -518h-164zM455 942l118 518h193l-148 -518h-163z" />
<glyph unicode="&#x201e;" horiz-adv-x="831" d="M57 -295l119 518h193l-148 -518h-164zM434 -295l119 518h192l-147 -518h-164z" />
<glyph unicode="&#x2022;" horiz-adv-x="991" d="M303.5 795.5q25.5 77.5 102.5 117.5q75 38 152.5 12.5t117.5 -100.5q38 -75 12.5 -153.5t-100.5 -116.5q-77 -39 -154.5 -13.5t-116.5 101.5q-39 75 -13.5 152.5z" />
<glyph unicode="&#x2026;" horiz-adv-x="1521" d="M150 96q-9 51 14 86.5t74 44.5t86.5 -14t44.5 -74t-14 -86.5t-74 -44.5q-51 -11 -86.5 13t-44.5 75zM651 96q-9 51 15 86.5t73 44.5q53 9 87.5 -14t43.5 -74q9 -52 -13.5 -87t-74.5 -44q-50 -11 -86 13t-45 75zM1153 96q-9 51 15 86.5t73 44.5q53 9 87.5 -14t43.5 -74 q9 -52 -13.5 -87t-74.5 -44q-50 -11 -86 13t-45 75z" />
<glyph unicode="&#x202f;" horiz-adv-x="401" />
<glyph unicode="&#x2039;" horiz-adv-x="647" d="M61 518l308 438h200l-305 -438l305 -438h-200z" />
<glyph unicode="&#x203a;" horiz-adv-x="647" d="M78 80l305 438l-305 438h201l307 -438l-307 -438h-201z" />
<glyph unicode="&#x205f;" horiz-adv-x="501" />
<glyph unicode="&#x20ac;" horiz-adv-x="1288" d="M68 510v113h161q-4 54 -4 94q0 38 4 96h-161v113h176q43 246 182 390t334 144q160 0 281 -97t176 -263l-162 -74q-36 123 -114.5 190.5t-178.5 67.5q-119 0 -205 -96t-115 -262h447v-113h-463q-6 -40 -6 -94q0 -55 6 -96h463v-113h-447q29 -165 116 -261.5t206 -96.5 q100 0 177.5 67.5t113.5 190.5l162 -76q-55 -166 -176.5 -263.5t-280.5 -97.5q-195 0 -334 145.5t-182 391.5h-176z" />
<glyph unicode="&#x25fc;" horiz-adv-x="1024" d="M0 0v1024h1024v-1024h-1024z" />
</font>
</defs>
</svg>
