<?xml version="1.0" standalone="no"?>
<!DOCTYPE svg PUBLIC "-//W3C//DTD SVG 1.1//EN" "http://www.w3.org/Graphics/SVG/1.1/DTD/svg11.dtd" >
<svg xmlns="http://www.w3.org/2000/svg" xmlns:xlink="http://www.w3.org/1999/xlink" version="1.1">
<metadata></metadata>
<defs>
<font id="lama_sansregular" horiz-adv-x="1454" >
<font-face units-per-em="2048" ascent="1638" descent="-410" />
<missing-glyph horiz-adv-x="473" />
<glyph horiz-adv-x="0" />
<glyph horiz-adv-x="682" />
<glyph unicode="&#xd;" horiz-adv-x="489" />
<glyph unicode=" "  horiz-adv-x="473" />
<glyph unicode="&#x09;" horiz-adv-x="473" />
<glyph unicode="&#xa0;" horiz-adv-x="473" />
<glyph unicode="!" horiz-adv-x="583" d="M211 72q-12 39 2.5 68.5t52.5 39.5q39 12 68 -2.5t41 -52.5q11 -38 -4 -68.5t-52 -40.5q-38 -12 -67.5 3.5t-40.5 52.5zM211 1434h162l-13 -1012h-137z" />
<glyph unicode="&#x22;" horiz-adv-x="755" d="M121 1460h155l-18 -555h-119zM479 1460h158l-21 -555h-118z" />
<glyph unicode="#" horiz-adv-x="1490" d="M117 428v113h266l70 354h-250v113h272l78 395h127l-78 -395h399l78 395h129l-80 -395h246v-113h-266l-72 -354h252v-113h-272l-78 -397h-129l80 397h-400l-79 -397h-127l77 397h-243zM510 541h399l72 354h-399z" />
<glyph unicode="$" horiz-adv-x="1208" d="M100 334l103 76q112 -225 383 -240v496l-80 20q-190 44 -280.5 129t-90.5 219q0 163 120.5 262t330.5 103v137h69v-137q154 -9 264.5 -72.5t163.5 -171.5l-104 -78q-91 174 -324 189v-478l101 -22q185 -45 268.5 -130.5t83.5 -219.5q0 -169 -121.5 -272t-331.5 -109v-137 h-69v137q-176 7 -301.5 85t-184.5 214zM287 1038q0 -92 65 -140.5t234 -90.5v461q-142 -3 -220.5 -63.5t-78.5 -166.5zM655 168q144 4 223.5 69t79.5 175q0 96 -67 147t-236 90v-481z" />
<glyph unicode="%" horiz-adv-x="1710" d="M74 1114q0 152 98.5 249t249.5 97q153 0 251.5 -97t98.5 -249q0 -153 -98.5 -250.5t-251.5 -97.5q-151 0 -249.5 97.5t-98.5 250.5zM193 1114q0 -107 63 -172t166 -65t167 65t64 172q0 106 -64 171t-167 65t-166 -65t-63 -171zM279 0l1013 1434h140l-1014 -1434h-139z M940 322q0 152 98.5 249t249.5 97q153 0 251.5 -97t98.5 -249q0 -153 -98.5 -251t-251.5 -98q-151 0 -249.5 98t-98.5 251zM1059 322q0 -107 63 -172.5t166 -65.5t167.5 65.5t64.5 172.5q0 105 -64.5 170t-167.5 65t-166 -64.5t-63 -170.5z" />
<glyph unicode="&#x26;" horiz-adv-x="1394" d="M137 354q0 123 77 219t259 203q-112 128 -154.5 206.5t-42.5 160.5q0 134 100 225.5t265 91.5q164 0 263.5 -88.5t99.5 -224.5q0 -113 -76.5 -202.5t-261.5 -196.5l338 -388q75 139 90 347h137q-23 -271 -133 -455l221 -252h-160l-139 160q-163 -187 -424 -187 q-206 0 -332.5 106t-126.5 275zM291 365q0 -117 86.5 -188t228.5 -71q200 0 320 150l-373 426q-144 -83 -203 -154.5t-59 -162.5zM416 1137q0 -65 37 -127.5t137 -175.5q157 92 216.5 156t59.5 145q0 90 -63.5 146t-161.5 56t-161.5 -56t-63.5 -144z" />
<glyph unicode="'" horiz-adv-x="397" d="M121 1460h155l-18 -555h-119z" />
<glyph unicode="(" horiz-adv-x="655" d="M152 639q0 242 84.5 480t236.5 419l117 -72q-135 -164 -211 -384.5t-76 -442.5q0 -223 75.5 -442.5t211.5 -384.5l-117 -72q-153 182 -237 419t-84 480z" />
<glyph unicode=")" horiz-adv-x="655" d="M66 -188q136 165 212 385.5t76 441.5q0 220 -76.5 441.5t-211.5 385.5l116 72q153 -182 237.5 -420t84.5 -479q0 -244 -84.5 -481t-237.5 -418z" />
<glyph unicode="*" horiz-adv-x="931" d="M63 1118l35 111l318 -113l-8 338h114l-8 -338l320 111l34 -109l-323 -96l205 -266l-95 -70l-190 279l-193 -277l-92 66l205 270z" />
<glyph unicode="+" d="M283 582v135h372v399h144v-399h375v-135h-375v-400h-144v400h-372z" />
<glyph unicode="," horiz-adv-x="442" d="M80 -313l98 567h152l-127 -567h-123z" />
<glyph unicode="-" horiz-adv-x="800" d="M106 524v131h588v-131h-588z" />
<glyph unicode="." horiz-adv-x="495" d="M166 72q-12 39 2.5 68.5t52.5 39.5q39 12 68 -2.5t41 -52.5q11 -38 -4 -68.5t-52 -40.5q-37 -12 -67.5 3.5t-40.5 52.5z" />
<glyph unicode="/" horiz-adv-x="954" d="M27 -193l757 1709h146l-758 -1709h-145z" />
<glyph unicode="0" horiz-adv-x="1427" d="M150 717q0 333 155 538t408 205q168 0 296.5 -92.5t198.5 -261.5t70 -389q0 -334 -155.5 -539t-409.5 -205q-253 0 -408 205.5t-155 538.5zM309 717q0 -270 111.5 -436t292.5 -166q183 0 294 166t111 436t-111 436t-294 166q-181 0 -292.5 -166t-111.5 -436z" />
<glyph unicode="1" horiz-adv-x="858" d="M92 1274v160h547v-1434h-154v1272z" />
<glyph unicode="2" horiz-adv-x="1193" d="M94 0v115l572 532q133 124 188 218t55 186q0 124 -81.5 196t-211.5 72q-129 0 -231.5 -75t-167.5 -224l-123 70q69 179 207 274.5t313 95.5q199 0 325 -113t126 -290q0 -116 -61.5 -226.5t-198.5 -238.5l-481 -451h766v-141h-996z" />
<glyph unicode="3" horiz-adv-x="1155" d="M63 193l91 102q143 -180 393 -180q162 0 257 77.5t95 208.5q0 127 -103.5 194t-310.5 67h-100v139h172q155 0 239.5 67.5t84.5 184.5q0 122 -83 194t-227 72q-121 0 -222 -54t-167 -153l-106 92q82 123 211 189.5t288 66.5q212 0 336.5 -108.5t124.5 -282.5 q0 -132 -74 -221.5t-212 -118.5q151 -35 228 -123t77 -221q0 -182 -138.5 -297t-361.5 -115q-151 0 -279 56.5t-213 163.5z" />
<glyph unicode="4" horiz-adv-x="1245" d="M80 328v129l768 977l102 -74l-714 -903h612v547h151v-547h209v-129h-209v-328h-151v328h-768z" />
<glyph unicode="5" horiz-adv-x="1191" d="M96 184l88 105q155 -174 391 -174q168 0 270.5 89t102.5 245q0 148 -92 232.5t-250 84.5q-174 0 -321 -119h-113v787h854v-138h-713v-505q147 104 328 104q209 0 336 -119.5t127 -324.5q0 -218 -142 -348t-384 -130q-292 0 -482 211z" />
<glyph unicode="6" horiz-adv-x="1218" d="M92 475q0 114 37.5 212.5t140.5 262.5l308 484h174l-353 -533q90 64 224 64q230 0 376 -132.5t146 -357.5q0 -229 -147 -363.5t-380 -134.5t-379.5 134.5t-146.5 363.5zM248 473q0 -172 101.5 -271.5t268.5 -99.5q166 0 268.5 100t102.5 271q0 170 -101 269.5t-267 99.5 q-168 0 -270.5 -99.5t-102.5 -269.5z" />
<glyph unicode="7" horiz-adv-x="1069" d="M49 1292v142h971v-127l-633 -1307h-172l635 1292h-801z" />
<glyph unicode="8" horiz-adv-x="1277" d="M113 375q0 129 88 228.5t233 133.5q-126 34 -203 126t-77 212q0 173 133.5 279t351.5 106t351.5 -106t133.5 -279q0 -120 -77 -212t-203 -126q145 -34 233 -133.5t88 -228.5q0 -180 -145 -291t-381 -111t-381 111t-145 291zM270 389q0 -127 101.5 -205t267.5 -78 t267.5 78t101.5 205t-101.5 205t-267.5 78t-267.5 -78t-101.5 -205zM303 1063q0 -121 92 -194.5t244 -73.5q151 0 243.5 73.5t92.5 194.5t-92.5 194.5t-243.5 73.5q-152 0 -244 -73.5t-92 -194.5z" />
<glyph unicode="9" horiz-adv-x="1222" d="M74 963q0 229 146.5 363t379.5 134t379.5 -134t146.5 -363q0 -107 -39 -217.5t-139 -260.5l-338 -481h-174l383 531q-98 -64 -223 -64q-230 0 -376 133.5t-146 358.5zM229 965q0 -170 101.5 -270.5t267.5 -100.5q167 0 270 100.5t103 270.5t-102 270t-269 100 q-166 0 -268.5 -100t-102.5 -270z" />
<glyph unicode=":" horiz-adv-x="505" d="M150 98q0 51 29 80t79 29t79.5 -29t29.5 -80q0 -49 -29.5 -78.5t-79.5 -29.5t-79 29t-29 79zM150 866q0 51 29 80t79 29t79.5 -29t29.5 -80q0 -49 -29.5 -78.5t-79.5 -29.5t-79 29t-29 79z" />
<glyph unicode=";" horiz-adv-x="468" d="M80 -313l98 567h152l-127 -567h-123zM166 840q-12 39 2.5 68.5t52.5 39.5q39 12 69 -2.5t40 -52.5q12 -37 -3 -68t-53 -41q-37 -12 -67.5 3t-40.5 53z" />
<glyph unicode="&#x3c;" d="M283 582v135l891 358v-143l-699 -283l699 -282v-144z" />
<glyph unicode="=" d="M283 356v136h891v-136h-891zM283 807v135h891v-135h-891z" />
<glyph unicode="&#x3e;" d="M283 223v144l696 282l-696 283v143l891 -358v-135z" />
<glyph unicode="?" horiz-adv-x="935" d="M47 1176q62 134 180.5 209t268.5 75q168 0 273 -90t105 -240q0 -86 -41 -161t-133 -150l-90 -76q-68 -58 -86 -92.5t-18 -107.5v-121h-146v129q3 104 29 151.5t127 133.5l96 79q115 97 115 211q0 94 -64.5 146.5t-168.5 52.5q-106 0 -194.5 -57t-141.5 -164zM352 72 q-12 39 3 68.5t53 39.5q38 12 67 -2.5t41 -52.5q11 -38 -3.5 -68.5t-51.5 -40.5q-38 -12 -68 3.5t-41 52.5z" />
<glyph unicode="@" horiz-adv-x="1957" d="M123 455q-1 189 67 353.5t185.5 280.5t282.5 182.5t352 65.5q175 1 330.5 -58t268.5 -163t178 -256.5t64 -329.5q0 -227 -97 -363t-247 -136q-95 0 -164 57.5t-86 161.5q-40 -104 -126.5 -160.5t-202.5 -56.5q-185 0 -292.5 115.5t-107.5 308.5q0 184 110.5 304 t291.5 120q108 0 194.5 -52.5t116.5 -140.5v168h117v-522q3 -92 42 -140.5t105 -48.5q95 0 155 99t60 274q0 162 -55 294t-151 218.5t-225.5 133t-278.5 46.5q-164 0 -304 -56t-239 -155t-155 -239t-56 -303q0 -217 96 -385.5t269 -260.5t395 -92q114 0 219.5 23.5 t179.5 64.5l55 -110q-86 -47 -205.5 -75t-250.5 -28q-192 -1 -358 62.5t-283.5 176.5t-184 274t-65.5 348zM662 461q0 -144 77 -230t205 -86q122 0 206.5 87.5t84.5 228.5t-84.5 228t-206.5 87q-125 0 -203.5 -91t-78.5 -224z" />
<glyph unicode="A" horiz-adv-x="1396" d="M33 0l583 1434h156l592 -1434h-166l-149 360l-701 2l-149 -362h-166zM397 498h602l-301 770z" />
<glyph unicode="B" horiz-adv-x="1406" d="M211 0v1434h606q185 0 299.5 -99t114.5 -260q0 -115 -59.5 -200t-165.5 -127q129 -34 204.5 -128t75.5 -225q0 -183 -130 -289t-320 -106h-625zM365 133h475q124 0 203 75.5t79 194.5q0 116 -79.5 191.5t-202.5 75.5h-475v-537zM365 797l446 -2q109 0 185 75 q74 73 73 174v5q-1 105 -76.5 178t-181.5 73h-446v-503z" />
<glyph unicode="C" horiz-adv-x="1564" d="M133 717q0 157 52 293.5t146 235.5t230.5 155.5t298.5 56.5q210 0 370 -97t245 -274l-129 -71q-65 133 -193.5 215t-292.5 82q-165 0 -294.5 -78t-200 -213.5t-70.5 -304.5q0 -171 69.5 -306.5t199 -212.5t296.5 -77q168 0 295 77.5t193 217.5l127 -76 q-83 -179 -242 -273t-373 -94q-163 0 -300 57t-230.5 156t-145 236t-51.5 295z" />
<glyph unicode="D" horiz-adv-x="1533" d="M211 0v1434h491q205 0 365.5 -92t249 -255.5t88.5 -369.5q0 -208 -87.5 -371t-248 -254.5t-367.5 -91.5h-491zM367 145h319q253 0 404 158t151 414t-151 413.5t-404 157.5h-319v-1143z" />
<glyph unicode="E" horiz-adv-x="1277" d="M213 0v1434h903v-142h-749v-528h714v-139h-714v-482h770v-143h-924z" />
<glyph unicode="F" horiz-adv-x="1216" d="M213 0v1434h889v-142h-733v-563h700v-145h-700v-584h-156z" />
<glyph unicode="G" horiz-adv-x="1619" d="M131 715q0 210 89.5 379t256 266.5t381.5 97.5q199 0 356.5 -89t247.5 -249l-129 -86q-68 133 -190.5 205t-284.5 72q-165 0 -294.5 -77.5t-200 -213t-70.5 -305.5q0 -169 69.5 -303.5t198.5 -212t297 -80.5q148 0 264 39.5t211 128.5v331h-381v134h527l-2 -527 q-237 -252 -619 -252q-220 3 -386.5 101t-253.5 264.5t-87 376.5z" />
<glyph unicode="H" horiz-adv-x="1564" d="M213 0v1434h156v-689h829v689h154v-1434h-154v600h-829v-600h-156z" />
<glyph unicode="I" horiz-adv-x="587" d="M217 0v1434h156v-1434h-156z" />
<glyph unicode="J" horiz-adv-x="1208" d="M59 426l152 51v-28q0 -134 96 -229t232 -95q133 0 228 95t95 229v985h156v-981q0 -199 -140.5 -340.5t-338.5 -141.5q-193 0 -334 134.5t-146 320.5z" />
<glyph unicode="K" horiz-adv-x="1323" d="M213 0v1434h156v-691l729 691h194l-766 -727l760 -707h-196l-664 602l-57 -59v-543h-156z" />
<glyph unicode="L" horiz-adv-x="1198" d="M213 0v1434h156v-1289h755v-145h-911z" />
<glyph unicode="M" horiz-adv-x="1918" d="M213 2v1432h197l540 -1260l570 1260h186v-1434h-154v1198l-536 -1198h-133l-516 1200v-1198h-154z" />
<glyph unicode="N" horiz-adv-x="1603" d="M211 0v1434h145l883 -1178v1178h154v-1434h-148l-880 1176v-1176h-154z" />
<glyph unicode="O" horiz-adv-x="1736" d="M133 717q0 156 56 294t153.5 236.5t234 155.5t291.5 57t292 -57t234 -155.5t153.5 -236.5t56.5 -294q0 -209 -96 -379.5t-264.5 -267.5t-375.5 -97t-375.5 97t-264 267.5t-95.5 379.5zM293 717q0 -166 75 -302.5t207.5 -215t292.5 -78.5q161 0 293 78.5t207.5 215 t75.5 302.5t-75.5 302.5t-207.5 215t-293 78.5q-160 0 -292.5 -78.5t-207.5 -215t-75 -302.5z" />
<glyph unicode="P" horiz-adv-x="1361" d="M213 0v1434h600q192 0 320.5 -131t128.5 -326q0 -202 -128.5 -333.5t-320.5 -131.5h-444v-512h-156zM369 655h426q132 0 218.5 89.5t86.5 232.5q0 132 -88 223.5t-217 91.5h-426v-637z" />
<glyph unicode="Q" horiz-adv-x="1738" d="M131 717q0 152 55 288.5t151 237t234 159t297 58.5q150 0 287 -59t235.5 -158.5t157 -237t58.5 -288.5q0 -170 -71.5 -319.5t-197.5 -250.5l166 -204l-106 -84l-170 213q-169 -99 -359 -99q-160 0 -298.5 59t-234 159t-150 237t-54.5 289zM295 717q0 -163 73 -299 t205.5 -216.5t294.5 -80.5q137 0 260 74l-172 213l105 81l178 -219q95 80 150 197t55 250q0 162 -77.5 300t-210 218t-288.5 80q-162 0 -294 -80.5t-205.5 -217t-73.5 -300.5z" />
<glyph unicode="R" horiz-adv-x="1378" d="M209 6v1428h627q180 0 307 -128.5t127 -308.5q0 -163 -106.5 -284.5t-262.5 -141.5l-70 -2l437 -555l-178 -14l-433 559h-292v-553h-156zM365 700h452q120 0 205.5 87t85.5 210q0 122 -85.5 208.5t-205.5 86.5h-452v-592z" />
<glyph unicode="S" horiz-adv-x="1275" d="M88 301l111 80q135 -266 458 -266q171 0 269 72t98 196q0 94 -66.5 153.5t-224.5 96.5l-205 49q-206 49 -302.5 141.5t-96.5 239.5q0 181 134 289t370 108q186 0 322 -73t200 -201l-111 -84q-120 217 -411 217q-166 0 -256 -66.5t-90 -187.5q0 -91 66 -148.5t231 -97.5 l213 -49q203 -50 294 -142.5t91 -236.5q0 -191 -143 -304.5t-386 -113.5q-207 0 -352 85.5t-213 242.5z" />
<glyph unicode="T" horiz-adv-x="1255" d="M53 1288v146h1149v-146h-493v-1288h-156v1288h-500z" />
<glyph unicode="U" horiz-adv-x="1538" d="M203 547v887h157v-895q0 -198 113.5 -307t302.5 -109q192 0 304 108.5t112 307.5v895h156v-887q0 -263 -158 -417.5t-414 -154.5q-253 0 -413 154.5t-160 417.5z" />
<glyph unicode="V" horiz-adv-x="1392" d="M37 1434h168l495 -1254l488 1254h168l-561 -1434h-189z" />
<glyph unicode="W" horiz-adv-x="2125" d="M55 1434h164l389 -1221l422 1221h84l408 -1229l383 1229h166l-451 -1434h-180l-369 1135l-383 -1135h-176z" />
<glyph unicode="X" horiz-adv-x="1280" d="M43 0l510 725l-477 709h176l401 -594l394 594h176l-473 -715l487 -719h-180l-408 600l-424 -600h-182z" />
<glyph unicode="Y" horiz-adv-x="1298" d="M12 1434h181l452 -693l461 691l180 2l-561 -842v-592h-158v592z" />
<glyph unicode="Z" horiz-adv-x="1239" d="M94 0v119l834 1173h-817v142h1024v-119l-836 -1174h846v-141h-1051z" />
<glyph unicode="[" horiz-adv-x="759" d="M211 -238v1754h475v-134h-328v-1486h328v-134h-475z" />
<glyph unicode="\" horiz-adv-x="954" d="M27 1516h145l758 -1709h-146z" />
<glyph unicode="]" horiz-adv-x="759" d="M74 -104h327v1486h-327v134h475v-1754h-475v134z" />
<glyph unicode="^" horiz-adv-x="1138" d="M68 725l432 659h139l434 -659h-164l-338 522l-340 -522h-163z" />
<glyph unicode="_" horiz-adv-x="888" d="M0 -131h889v-113h-889v113z" />
<glyph unicode="`" horiz-adv-x="1269" d="M295 1524h178l248 -330h-148z" />
<glyph unicode="a" horiz-adv-x="1069" d="M102 295q0 195 196 271q121 47 296 48q108 0 235 -18v86q0 122 -72 184t-194 62q-98 0 -179.5 -41t-135.5 -117l-84 86q147 193 409 193q185 0 295.5 -105t110.5 -282v-662h-131v217q-37 -110 -137.5 -173.5t-245.5 -63.5q-172 0 -267.5 85.5t-95.5 229.5zM250 303 q0 -99 64 -154t184 -55q153 0 243 88t90 242v80q-120 18 -217 18q-47 0 -89 -4q-129 -12 -202 -67.5t-73 -147.5z" />
<glyph unicode="b" horiz-adv-x="1304" d="M174 2v1432h148v-654q39 115 149.5 193t259.5 78q222 0 357 -149.5t135 -385.5q0 -244 -131.5 -391.5t-358.5 -147.5q-143 0 -258 74.5t-164 198.5v-248h-137zM322 516q0 -177 105 -291t269 -114q166 0 270.5 112.5t104.5 292.5q0 179 -103.5 291.5t-267.5 112.5 q-166 0 -272 -113.5t-106 -290.5z" />
<glyph unicode="c" horiz-adv-x="1150" d="M109 516q0 237 146 390t374 153q148 0 264 -65t182 -185l-114 -78q-53 91 -138 141t-190 50q-166 0 -270.5 -113t-104.5 -293t104.5 -292.5t270.5 -112.5q105 0 191 50.5t139 143.5l114 -78q-66 -121 -183 -187.5t-265 -66.5q-231 0 -375.5 151.5t-144.5 391.5z" />
<glyph unicode="d" horiz-adv-x="1304" d="M82 516q0 236 135 385.5t356 149.5q146 0 259 -78.5t151 -192.5v654h150v-1432h-140v248q-47 -124 -163 -198.5t-259 -74.5q-225 0 -357 147.5t-132 391.5zM236 516q0 -180 103.5 -292.5t270.5 -112.5q163 0 268 114t105 291t-105.5 290.5t-271.5 113.5 q-164 0 -267 -112.5t-103 -291.5z" />
<glyph unicode="e" horiz-adv-x="1214" d="M100 514q0 234 148 383.5t377 149.5q237 -1 368 -151q120 -138 120 -370q0 -21 -1 -43h-860q0 -169 108.5 -275t274.5 -106q115 0 210.5 48t149.5 133l90 -88q-66 -103 -188 -161.5t-268 -58.5q-235 0 -382 150t-147 389zM250 582h713q-3 157 -94.5 253.5t-243.5 96.5 q-157 0 -262 -99.5t-113 -250.5z" />
<glyph unicode="f" horiz-adv-x="786" d="M41 891v135h242v168q0 111 73.5 175.5t178.5 64.5h221v-134h-211q-47 0 -80 -34t-33 -82v-158h318v-135h-318v-891h-149v891h-242z" />
<glyph unicode="g" horiz-adv-x="1331" d="M109 532q0 227 133.5 371t355.5 144q86 0 160.5 -24t125.5 -63.5t85 -84.5t51 -93v246h137v-954q0 -225 -145 -371.5t-367 -146.5q-165 0 -293 67t-198 178l73 103q63 -98 168 -155.5t240 -57.5q160 0 269.5 108t109.5 289v184q-47 -122 -153.5 -195t-250.5 -73 q-228 0 -364.5 145.5t-136.5 382.5zM258 522q0 -172 104 -281.5t269 -109.5t272 109.5t107 281.5q0 180 -108.5 286.5t-266.5 106.5q-166 0 -271.5 -110t-105.5 -283z" />
<glyph unicode="h" horiz-adv-x="1236" d="M172 0v1434h152v-590q43 90 139.5 145t216.5 55q167 0 281 -112.5t114 -278.5v-653h-151v621q0 126 -86 211.5t-211 85.5q-128 0 -215.5 -89t-87.5 -219v-610h-152z" />
<glyph unicode="i" horiz-adv-x="499" d="M150 1368q0 40 29.5 70t70.5 30t70.5 -30t29.5 -70q0 -43 -29.5 -72.5t-70.5 -29.5t-70.5 29.5t-29.5 72.5zM176 0v1022h150v-1022h-150z" />
<glyph unicode="j" horiz-adv-x="499" d="M-74 -276h111q62 0 99.5 38t37.5 101v1159h152v-1184q0 -113 -71 -181.5t-189 -68.5h-140v136zM145 1368q0 44 29.5 72t75.5 28t75 -28t29 -72q0 -43 -29 -70.5t-75 -27.5t-75.5 27.5t-29.5 70.5z" />
<glyph unicode="k" horiz-adv-x="1060" d="M172 0v1434h150v-854l526 444h178l-545 -477l555 -547h-178l-491 451l-45 -48v-403h-150z" />
<glyph unicode="l" horiz-adv-x="485" d="M164 0v1434h151v-1434h-151z" />
<glyph unicode="m" horiz-adv-x="1880" d="M176 2v1022h148v-174q43 89 132.5 144t198.5 55q117 0 210.5 -65.5t129.5 -168.5q39 103 137 168.5t218 65.5q156 0 261 -110.5t105 -272.5v-664h-151v627q0 120 -78 201t-191 81q-118 0 -197 -81.5t-79 -200.5v-627h-150v627q0 120 -79 201t-193 81q-116 0 -193 -81.5 t-77 -200.5v-627h-152z" />
<glyph unicode="n" horiz-adv-x="1230" d="M172 0v1024h150v-193q46 99 142 158.5t212 59.5q162 0 276.5 -114.5t114.5 -275.5v-659h-152v614q0 123 -85.5 210t-208.5 87q-124 0 -210.5 -87t-86.5 -210l2 -614h-154z" />
<glyph unicode="o" horiz-adv-x="1282" d="M106 516q0 233 151.5 383t387.5 150q233 0 382 -150t149 -383q0 -154 -68.5 -277.5t-191 -193.5t-275.5 -70q-236 0 -385.5 151t-149.5 390zM260 514q0 -180 106 -292.5t275 -112.5q167 0 275 114t108 291t-107 292.5t-272 115.5q-170 0 -277.5 -114t-107.5 -294z" />
<glyph unicode="p" horiz-adv-x="1329" d="M172 -385v1409h139v-248q47 124 162.5 198.5t257.5 74.5q227 0 359.5 -147.5t132.5 -391.5q0 -235 -135.5 -385t-356.5 -150q-150 0 -260.5 77.5t-151.5 191.5v-629h-147zM319 510q0 -177 106.5 -290.5t272.5 -113.5q164 0 267.5 112t103.5 292t-104 292.5t-271 112.5 q-163 0 -269 -114t-106 -291z" />
<glyph unicode="q" horiz-adv-x="1329" d="M109 510q0 244 131.5 391.5t357.5 147.5q143 0 258 -74.5t164 -198.5v248h137v-1430h-147v650q-39 -113 -150 -191t-260 -78q-222 0 -356.5 149.5t-134.5 385.5zM260 510q0 -179 104 -291.5t267 -112.5q166 0 272.5 113.5t106.5 290.5t-106 291t-269 114 q-166 0 -270.5 -112.5t-104.5 -292.5z" />
<glyph unicode="r" horiz-adv-x="819" d="M172 0v1024h147v-203q46 101 139.5 162t207.5 61q55 0 98 -14l-6 -141q-56 6 -117 6q-142 0 -230.5 -89t-88.5 -235v-571h-150z" />
<glyph unicode="s" horiz-adv-x="1028" d="M82 168l72 100q58 -77 157.5 -122.5t218.5 -45.5q122 0 187 48.5t65 127.5q0 62 -43.5 101t-146.5 63l-205 49q-138 33 -202 99.5t-64 169.5q0 140 106.5 220.5t294.5 80.5q135 0 239 -43t161 -123l-76 -96q-119 137 -324 137q-122 0 -186 -45t-64 -127q0 -62 42 -98.5 t143 -61.5l207 -49q144 -34 207 -99.5t63 -168.5q0 -143 -107 -227.5t-299 -84.5q-148 0 -266.5 52.5t-179.5 142.5z" />
<glyph unicode="t" horiz-adv-x="823" d="M49 891v135h215v317h152v-317h329v-135h-329v-725q0 -12 8 -20.5t20 -8.5h304v-137h-328q-64 0 -110 46t-46 110v735h-215z" />
<glyph unicode="u" horiz-adv-x="1228" d="M162 365v659h149v-614q0 -123 87 -210t210 -87t210 87t87 210v614h150v-1024h-148v190q-46 -98 -143 -157.5t-213 -59.5q-161 0 -275 114.5t-114 277.5z" />
<glyph unicode="v" horiz-adv-x="1089" d="M37 1024h162l350 -842l342 842h164l-424 -1024h-164z" />
<glyph unicode="w" horiz-adv-x="1697" d="M43 1034h154l288 -852l295 852h138l294 -852l287 852h156l-352 -1034h-166l-289 831l-287 -831h-166z" />
<glyph unicode="x" horiz-adv-x="1054" d="M39 0l389 530l-367 492h168l297 -391l293 391h168l-364 -496l391 -526h-172l-316 426l-315 -426h-172z" />
<glyph unicode="y" horiz-adv-x="1105" d="M47 -272h164q171 0 223 137l60 135l-443 1034h164l352 -852l344 852h162l-502 -1222q-86 -222 -338 -222h-186v138z" />
<glyph unicode="z" horiz-adv-x="1003" d="M94 0v100l608 803h-589v131h786v-102l-610 -803h616v-129h-811z" />
<glyph unicode="{" horiz-adv-x="745" d="M90 571v136h14q83 0 118.5 36t35.5 121v373q0 155 59.5 217t208.5 62h146v-134h-101q-94 0 -129.5 -38.5t-35.5 -143.5v-336q0 -99 -36.5 -152.5t-115.5 -72.5q79 -19 115.5 -72.5t36.5 -152.5v-336q0 -105 35.5 -143.5t129.5 -38.5h101v-134h-146q-149 0 -208.5 62 t-59.5 217v373q0 86 -35 121.5t-119 35.5h-14z" />
<glyph unicode="|" horiz-adv-x="632" d="M252 -205v1772h129v-1772h-129z" />
<glyph unicode="}" horiz-adv-x="745" d="M74 -104h100q94 0 130 38.5t36 143.5v336q0 99 36.5 152.5t115.5 72.5q-79 19 -115.5 72.5t-36.5 152.5v336q0 105 -36 143.5t-130 38.5h-100v134h145q149 0 208.5 -62t59.5 -217v-373q0 -85 35.5 -121t118.5 -36h14v-136h-14q-84 0 -119 -35.5t-35 -121.5v-373 q0 -155 -59.5 -217t-208.5 -62h-145v134z" />
<glyph unicode="~" d="M283 543v135q116 94 245 94q67 0 204 -55t196 -55q120 0 246 96v-135q-124 -95 -244 -95q-45 0 -101 17t-100 37.5t-100 37.5t-101 17q-63 0 -119.5 -21.5t-125.5 -72.5z" />
<glyph unicode="&#xa1;" horiz-adv-x="583" d="M211 -401l12 1011h137l13 -1011h-162zM211 907q-12 40 2.5 69.5t52.5 41.5q39 11 68 -3t41 -52q11 -39 -3.5 -69t-52.5 -42q-39 -11 -68.5 4t-39.5 51z" />
<glyph unicode="&#xa2;" horiz-adv-x="1150" d="M109 516q0 230 138.5 382t358.5 161v190h64v-192q134 -8 239 -72t166 -176l-114 -78q-47 84 -122.5 133t-168.5 56v-807q94 7 170 57t123 135l114 -78q-62 -113 -168 -179t-239 -73v-229h-64v227q-222 7 -359.5 158t-137.5 385zM258 516q0 -171 96 -282.5t252 -122.5v811 q-155 -11 -251.5 -123t-96.5 -283z" />
<glyph unicode="&#xa3;" horiz-adv-x="1089" d="M61 649v115h168v289q0 193 104 300t292 107q139 0 244.5 -61.5t166.5 -179.5l-116 -78q-92 174 -285 174q-121 0 -186.5 -69.5t-65.5 -201.5v-280h508v-115h-508v-512h647v-137h-967v137h166v512h-168z" />
<glyph unicode="&#xa4;" horiz-adv-x="1144" d="M106 322l132 131q-80 113 -80 256q0 141 80 254l-129 131l71 73l133 -135q106 86 260 86q155 0 258 -86l136 135l71 -73l-129 -131q78 -107 78 -254t-80 -256l131 -131l-71 -72l-136 133q-103 -86 -258 -86t-260 88l-133 -135zM293 709q0 -126 78 -206.5t202 -80.5 q123 0 200 80.5t77 206.5t-77 205t-200 79q-124 0 -202 -79t-78 -205z" />
<glyph unicode="&#xa5;" horiz-adv-x="1161" d="M25 1434h163l394 -668l391 668h164l-441 -744h340v-96h-379v-215h379v-94h-379v-285h-153v285h-375v94h375v215h-375v96h338z" />
<glyph unicode="&#xa6;" horiz-adv-x="632" d="M252 -205v701h129v-701h-129zM252 850v717h129v-717h-129z" />
<glyph unicode="&#xa7;" horiz-adv-x="1116" d="M117 -74l73 101q58 -78 159.5 -122t228.5 -44q132 0 197 50t65 140q0 74 -47 117t-154 68l-205 49q-289 68 -289 290q0 108 62 189t172 104q-115 37 -169 102t-54 169q0 153 108.5 237t308.5 84q140 0 245 -43.5t161 -122.5l-74 -98q-117 135 -332 135q-264 0 -264 -190 q0 -73 45 -114t150 -66l205 -52q149 -35 219.5 -106.5t70.5 -184.5q0 -110 -60.5 -189.5t-170.5 -102.5q116 -36 170.5 -103t54.5 -168q0 -151 -109 -237t-309 -86q-154 0 -275 52t-183 142zM293 600q0 -83 50 -131t161 -74l61 -12q137 -26 212 38t75 175q0 84 -49.5 130.5 t-163.5 74.5l-61 12q-136 26 -210.5 -39t-74.5 -174z" />
<glyph unicode="&#xa8;" horiz-adv-x="1269" d="M305 1368q0 43 29.5 71.5t73.5 28.5q45 0 74.5 -28.5t29.5 -71.5q0 -44 -29 -73t-75 -29q-44 0 -73.5 29t-29.5 73zM758 1368q0 43 29.5 71.5t74.5 28.5q44 0 73.5 -28.5t29.5 -71.5q0 -44 -29.5 -73t-73.5 -29q-46 0 -75 29t-29 73z" />
<glyph unicode="&#xa9;" horiz-adv-x="1738" d="M129 717q-1 151 57 289t156 237.5t236 158.5t290 58q152 1 290 -58t237.5 -158.5t157.5 -237.5t57 -289q1 -202 -97.5 -373.5t-270 -271.5t-374.5 -99q-152 -1 -290 58t-236 159t-156 238t-57 289zM217 717q-1 -180 84 -332.5t235.5 -241.5t331.5 -88q182 -1 333 88 t236.5 241.5t84.5 332.5q1 135 -49.5 257.5t-137 211t-209 141t-258.5 51.5q-136 1 -257.5 -51.5t-207.5 -141t-136.5 -211t-49.5 -257.5zM483 717q0 187 111 302.5t295 115.5q116 0 204.5 -48t137.5 -141l-92 -61q-36 66 -101.5 101.5t-146.5 35.5q-124 0 -202.5 -83.5 t-78.5 -221.5t78 -220.5t203 -82.5q81 0 146.5 35.5t101.5 101.5l92 -64q-49 -91 -137.5 -138.5t-204.5 -47.5q-183 0 -294.5 115t-111.5 301z" />
<glyph unicode="&#xab;" horiz-adv-x="1056" d="M70 516l303 434h162l-304 -434l304 -432h-162zM506 516l303 434h162l-303 -434l303 -432h-162z" />
<glyph unicode="&#xac;" d="M283 582v135h891v-357h-144v222h-747z" />
<glyph unicode="&#xad;" horiz-adv-x="800" d="M106 524v131h588v-131h-588z" />
<glyph unicode="&#xae;" horiz-adv-x="1155" d="M129 1014q0 186 131 317t318 131q188 0 318 -130.5t130 -317.5q0 -188 -130 -319.5t-318 -131.5q-187 0 -318 131.5t-131 319.5zM199 1014q0 -162 109.5 -274.5t269.5 -112.5t269 112.5t109 274.5q0 161 -109 273t-269 112t-269.5 -112t-109.5 -273zM412 776v477h196 q81 0 123.5 -37.5t42.5 -105.5q0 -65 -36 -102t-105 -41l151 -191h-77l-142 189h-88v-189h-65zM477 1020h127q103 0 103 88t-103 88h-127v-176z" />
<glyph unicode="&#xaf;" horiz-adv-x="1363" d="M367 1223v120h630v-120h-630z" />
<glyph unicode="&#xb0;" horiz-adv-x="759" d="M80 1163q0 127 85 212t216 85q130 0 215.5 -85t85.5 -212q0 -126 -85.5 -210.5t-215.5 -84.5q-131 0 -216 84t-85 211zM190 1163q0 -86 53.5 -139t137.5 -53t136 53t52 139q0 87 -52 140t-136 53t-137.5 -53t-53.5 -140z" />
<glyph unicode="&#xb1;" d="M283 0v135h891v-135h-891zM283 647v135h372v357h144v-357h375v-135h-375v-356h-144v356h-372z" />
<glyph unicode="&#xb4;" horiz-adv-x="1269" d="M551 1194l248 330h178l-277 -330h-149z" />
<glyph unicode="&#xb5;" horiz-adv-x="1245" d="M172 -451v1485h152v-614q0 -309 270 -309q151 0 239.5 90t88.5 256v577h149v-1034h-135v205q-34 -107 -125 -169.5t-219 -62.5q-197 0 -268 154v-578h-152z" />
<glyph unicode="&#xb6;" horiz-adv-x="1318" d="M111 1133q0 134 100.5 217.5t292.5 83.5h141v-1700h-135v1095h-35q-174 0 -269 85t-95 219zM934 -266v1700h133v-1700h-133z" />
<glyph unicode="&#xb8;" horiz-adv-x="1269" d="M436 -403l150 419h131l-127 -419h-154z" />
<glyph unicode="&#xbb;" horiz-adv-x="1056" d="M86 84l303 432l-303 434h162l303 -434l-303 -432h-162zM522 84l303 432l-303 434h162l303 -434l-303 -432h-162z" />
<glyph unicode="&#xbf;" horiz-adv-x="935" d="M63 -96q0 86 40.5 160t132.5 151l90 76q69 58 86.5 92.5t17.5 108.5v118h145v-127q-1 -74 -12 -113t-41 -75.5t-102 -95.5l-96 -80q-113 -98 -113 -211q0 -95 63.5 -148t167.5 -53q107 0 194.5 57.5t141.5 165.5l113 -73q-63 -134 -181.5 -208.5t-269.5 -74.5 q-168 0 -272.5 89.5t-104.5 240.5zM420 907q-11 40 3.5 69.5t51.5 41.5q40 11 69.5 -3t41.5 -52q11 -39 -3.5 -69t-52.5 -42q-39 -11 -68.5 4t-41.5 51z" />
<glyph unicode="&#xc0;" horiz-adv-x="1415" d="M33 0l583 1434h156l592 -1434h-166l-149 360l-701 2l-149 -362h-166zM397 498h602l-301 770zM399 1925h156l211 -330h-150z" />
<glyph unicode="&#xc1;" horiz-adv-x="1415" d="M33 0l583 1434h156l592 -1434h-166l-149 360l-701 2l-149 -362h-166zM397 498h602l-301 770zM631 1595l211 330h155l-217 -330h-149z" />
<glyph unicode="&#xc2;" horiz-adv-x="1415" d="M33 0l583 1434h156l592 -1434h-166l-149 360l-701 2l-149 -362h-166zM350 1595l289 330h152l290 -330h-155l-211 240l-211 -240h-154zM397 498h602l-301 770z" />
<glyph unicode="&#xc3;" horiz-adv-x="1415" d="M33 0l583 1434h156l592 -1434h-166l-149 360l-701 2l-149 -362h-166zM385 1640q0 115 46.5 178.5t125.5 63.5q40 0 79 -17.5t91 -58.5q64 -59 119 -59q40 0 63 32.5t23 94.5h112q0 -117 -45.5 -180.5t-124.5 -63.5q-43 0 -82 17.5t-90 58.5q-65 59 -118 59q-40 0 -62 -32 t-22 -93h-115zM397 498h602l-301 770z" />
<glyph unicode="&#xc4;" horiz-adv-x="1415" d="M33 0l583 1434h156l592 -1434h-166l-149 360l-701 2l-149 -362h-166zM385 1767q0 43 30.5 73t73.5 30q42 0 72.5 -30.5t30.5 -72.5t-30.5 -72t-72.5 -30q-43 0 -73.5 29.5t-30.5 72.5zM397 498h602l-301 770zM840 1767q0 43 29.5 73t72.5 30t72.5 -30t29.5 -73 t-29.5 -72.5t-72.5 -29.5t-72.5 29.5t-29.5 72.5z" />
<glyph unicode="&#xc5;" horiz-adv-x="1415" d="M33 0l583 1434h156l592 -1434h-166l-149 360l-701 2l-149 -362h-166zM397 498h602l-301 770zM537.5 1812.5q-3.5 68.5 46.5 122.5q51 54 122 59t128 -40q56 -46 59.5 -115t-47.5 -123q-50 -53 -121 -57t-127 41q-57 44 -60.5 112.5zM606 1864q-19 -45 1.5 -86t68.5 -58 q49 -18 88.5 1t58.5 67q19 47 0 86.5t-69 58.5q-49 17 -89 -2t-59 -67z" />
<glyph unicode="&#xc6;" horiz-adv-x="2215" d="M27 0l968 1434h1057v-146h-807v-491h768v-146h-768v-506h828v-145h-983v365h-629l-248 -365h-186zM541 498h549v805z" />
<glyph unicode="&#xc7;" horiz-adv-x="1564" d="M133 717q0 157 52 293.5t146 235.5t230.5 155.5t298.5 56.5q210 0 370 -97t245 -274l-129 -71q-65 142 -191.5 219.5t-294.5 77.5q-165 0 -294.5 -78t-200 -213.5t-70.5 -304.5q0 -171 69.5 -306.5t199 -212.5t296.5 -77q168 0 295 77.5t193 217.5l127 -76 q-79 -171 -228 -264.5t-350 -102.5l-113 -376h-151l135 380q-290 32 -462.5 237t-172.5 503z" />
<glyph unicode="&#xc8;" horiz-adv-x="1337" d="M213 0v1434h952v-142h-798v-538h761v-140h-761v-471h819v-143h-973zM459 1925h155l211 -330h-149z" />
<glyph unicode="&#xc9;" horiz-adv-x="1337" d="M211 0v1434h963v-142h-807v-506h763v-141h-763v-502h827v-143h-983zM557 1595l211 330h154l-215 -330h-150z" />
<glyph unicode="&#xca;" horiz-adv-x="1337" d="M213 0v1434h952v-142h-798v-538h761v-140h-761v-471h819v-143h-973zM317 1595l289 330h152l289 -330h-154l-211 240l-211 -240h-154z" />
<glyph unicode="&#xcb;" horiz-adv-x="1337" d="M213 0v1434h952v-142h-798v-538h761v-140h-761v-471h819v-143h-973zM352 1769q0 43 30 73t73 30t72.5 -30t29.5 -73t-29.5 -72.5t-72.5 -29.5t-73 29.5t-30 72.5zM805 1769q0 43 30 73t74 30q41 0 71 -30t30 -73t-30 -72.5t-71 -29.5q-44 0 -74 29.5t-30 72.5z" />
<glyph unicode="&#xcc;" horiz-adv-x="587" d="M0 1925h178l211 -330h-149zM215 0v1434h158v-1434h-158z" />
<glyph unicode="&#xcd;" horiz-adv-x="587" d="M215 0v1434h158v-1434h-158zM219 1589l211 330h178l-239 -330h-150z" />
<glyph unicode="&#xce;" horiz-adv-x="587" d="M-72 1595l291 330h150l290 -330h-153l-213 240l-211 -240h-154zM215 0v1434h158v-1434h-158z" />
<glyph unicode="&#xcf;" horiz-adv-x="587" d="M-37 1767q0 44 29.5 73.5t75.5 29.5q44 0 73 -29.5t29 -73.5t-29 -72t-73 -28q-46 0 -75.5 28t-29.5 72zM215 0v1434h158v-1434h-158zM418 1767q0 45 28.5 74t73.5 29t74 -29t29 -74q0 -44 -28.5 -72t-74.5 -28t-74 28t-28 72z" />
<glyph unicode="&#xd0;" horiz-adv-x="1581" d="M41 653v127h211v654h485q160 0 291.5 -48t225.5 -138t146 -226t52 -305t-52 -305t-146 -226t-225.5 -138t-291.5 -48h-485v653h-211zM410 145h327q257 0 404 147t147 425q0 279 -146.5 425t-404.5 146h-327v-508h397v-127h-397v-508z" />
<glyph unicode="&#xd1;" horiz-adv-x="1611" d="M211 0v1434h145l891 -1178v1178h154v-1434h-148l-888 1176v-1176h-154zM477 1640q0 116 45.5 179t124.5 63q42 0 80.5 -17.5t89.5 -58.5q64 -59 121 -59q39 0 61.5 32.5t22.5 94.5h113q0 -117 -45.5 -180.5t-124.5 -63.5q-43 0 -82 17.5t-90 58.5q-62 59 -117 59 q-40 0 -63 -32t-23 -93h-113z" />
<glyph unicode="&#xd2;" horiz-adv-x="1724" d="M133 717q0 156 56 294t153.5 236.5t234 155.5t291.5 57t292 -57t234 -155.5t153.5 -236.5t56.5 -294q0 -209 -96 -379.5t-264.5 -267.5t-375.5 -97t-375.5 97t-264 267.5t-95.5 379.5zM293 717q0 -166 75 -302.5t207.5 -215t292.5 -78.5q161 0 293 78.5t207.5 215 t75.5 302.5t-75.5 302.5t-207.5 215t-293 78.5q-160 0 -292.5 -78.5t-207.5 -215t-75 -302.5zM610 1925h156l211 -330h-150z" />
<glyph unicode="&#xd3;" horiz-adv-x="1724" d="M133 717q0 156 56 294t153.5 236.5t234 155.5t291.5 57t292 -57t234 -155.5t153.5 -236.5t56.5 -294q0 -209 -96 -379.5t-264.5 -267.5t-375.5 -97t-375.5 97t-264 267.5t-95.5 379.5zM293 717q0 -166 75 -302.5t207.5 -215t292.5 -78.5q161 0 293 78.5t207.5 215 t75.5 302.5t-75.5 302.5t-207.5 215t-293 78.5q-160 0 -292.5 -78.5t-207.5 -215t-75 -302.5zM766 1595l211 330h156l-218 -330h-149z" />
<glyph unicode="&#xd4;" horiz-adv-x="1724" d="M133 717q0 156 56 294t153.5 236.5t234 155.5t291.5 57t292 -57t234 -155.5t153.5 -236.5t56.5 -294q0 -209 -96 -379.5t-264.5 -267.5t-375.5 -97t-375.5 97t-264 267.5t-95.5 379.5zM293 717q0 -166 75 -302.5t207.5 -215t292.5 -78.5q161 0 293 78.5t207.5 215 t75.5 302.5t-75.5 302.5t-207.5 215t-293 78.5q-160 0 -292.5 -78.5t-207.5 -215t-75 -302.5zM498 1595l288 330h152l289 -330h-154l-211 240l-211 -240h-153z" />
<glyph unicode="&#xd5;" horiz-adv-x="1724" d="M129 717q-1 156 55 294t153 237t233.5 156t291.5 56q155 1 291.5 -56t233.5 -156t153 -237t55 -294q1 -157 -55 -295t-153 -237t-233.5 -156t-291.5 -56q-155 -1 -291.5 56t-233.5 156t-153 237t-55 295zM293 717q0 -259 161.5 -427.5t407.5 -168.5q162 0 292.5 76.5 t204 212.5t73.5 307t-73.5 307t-204 212.5t-292.5 76.5q-246 0 -407.5 -168.5t-161.5 -427.5zM532 1640q0 116 45.5 179t124.5 63q42 0 80.5 -17.5t89.5 -58.5q64 -59 121 -59q40 0 62 32.5t22 94.5h115q0 -117 -46 -180.5t-126 -63.5q-76 0 -170 76q-65 59 -119 59 q-40 0 -63 -32t-23 -93h-113z" />
<glyph unicode="&#xd6;" horiz-adv-x="1724" d="M133 717q0 156 56 294t153.5 236.5t234 155.5t291.5 57t292 -57t234 -155.5t153.5 -236.5t56.5 -294q0 -209 -96 -379.5t-264.5 -267.5t-375.5 -97t-375.5 97t-264 267.5t-95.5 379.5zM293 717q0 -166 75 -302.5t207.5 -215t292.5 -78.5q161 0 293 78.5t207.5 215 t75.5 302.5t-75.5 302.5t-207.5 215t-293 78.5q-160 0 -292.5 -78.5t-207.5 -215t-75 -302.5zM532 1769q0 43 30 73t73 30t72.5 -30t29.5 -73t-29.5 -72.5t-72.5 -29.5t-73 29.5t-30 72.5zM985 1769q0 43 30.5 73t74.5 30q41 0 70.5 -30t29.5 -73t-29.5 -72.5t-70.5 -29.5 q-44 0 -74.5 29.5t-30.5 72.5z" />
<glyph unicode="&#xd7;" d="M322 338l311 311l-311 312l94 94l311 -312l311 312l95 -94l-312 -312l312 -311l-95 -94l-311 311l-311 -311z" />
<glyph unicode="&#xd8;" horiz-adv-x="1724" d="M129 717q-1 156 55 294t153 237t233.5 156t291.5 56q281 0 481 -178l160 160l86 -84l-159 -158q165 -208 165 -483q1 -157 -55 -295t-153 -237t-233.5 -156t-291.5 -56q-280 0 -481 179l-158 -160l-84 86l156 158q-166 199 -166 481zM293 717q0 -216 119 -369l823 821 q-154 144 -373 144q-246 0 -407.5 -168.5t-161.5 -427.5zM489 262q154 -141 373 -141q162 0 292.5 76.5t204 212.5t73.5 307q0 212 -121 368z" />
<glyph unicode="&#xd9;" horiz-adv-x="1536" d="M203 547v887h157v-895q0 -198 113.5 -307t302.5 -109q192 0 304 108.5t112 307.5v895h156v-887q0 -264 -158.5 -419t-413.5 -155q-253 0 -413 155.5t-160 418.5zM483 1925h154l211 -330h-150z" />
<glyph unicode="&#xda;" horiz-adv-x="1536" d="M203 547v887h157v-895q0 -198 113.5 -307t302.5 -109q192 0 304 108.5t112 307.5v895h156v-887q0 -264 -158.5 -419t-413.5 -155q-253 0 -413 155.5t-160 418.5zM657 1595l211 330h156l-217 -330h-150z" />
<glyph unicode="&#xdb;" horiz-adv-x="1536" d="M203 547v887h157v-895q0 -198 113.5 -307t302.5 -109q192 0 304 108.5t112 307.5v895h156v-887q0 -264 -158.5 -419t-413.5 -155q-253 0 -413 155.5t-160 418.5zM401 1595l291 330h152l289 -330h-154l-211 240l-211 -240h-156z" />
<glyph unicode="&#xdc;" horiz-adv-x="1536" d="M203 547v887h157v-895q0 -198 113.5 -307t302.5 -109q192 0 304 108.5t112 307.5v895h156v-887q0 -264 -158.5 -419t-413.5 -155q-253 0 -413 155.5t-160 418.5zM438 1769q0 43 30 73t73 30t72.5 -30t29.5 -73t-29.5 -72.5t-72.5 -29.5t-73 29.5t-30 72.5zM891 1769 q0 43 29.5 73t72.5 30t73 -30t30 -73t-30 -72.5t-73 -29.5t-72.5 29.5t-29.5 72.5z" />
<glyph unicode="&#xdd;" horiz-adv-x="1288" d="M12 1434h181l458 -693l467 691l180 2l-567 -842v-592h-158v592zM541 1595l211 330h155l-217 -330h-149z" />
<glyph unicode="&#xde;" horiz-adv-x="1376" d="M211 0v1434h158v-254h403q246 0 376 -115t130 -332t-130 -331.5t-376 -114.5h-403v-287h-158zM369 430h397q170 0 260 77.5t90 225.5t-90 225.5t-260 77.5h-397v-606z" />
<glyph unicode="&#xdf;" horiz-adv-x="1263" d="M172 0v1075q0 211 121.5 326t339.5 115q209 0 328.5 -105.5t119.5 -290.5q0 -142 -70.5 -234.5t-201.5 -121.5q172 -10 266 -106.5t94 -260.5q0 -187 -120.5 -292t-339.5 -105h-164v133h139q164 0 248 71.5t84 207.5q0 133 -83.5 201.5t-244.5 68.5h-145v137h65 q156 0 240 72t84 211q0 134 -78 206t-221 72q-153 0 -231 -79.5t-78 -231.5v-1069h-152z" />
<glyph unicode="&#xe0;" horiz-adv-x="1075" d="M102 295q0 130 93 209.5t254.5 99.5t379.5 -8v94q0 116 -68 177t-188 61q-97 0 -180 -41t-137 -117l-86 86q61 87 175 139t241 52q183 0 288 -101t105 -276v-670h-131v217q-37 -110 -137.5 -173.5t-245.5 -63.5q-167 0 -265 86.5t-98 228.5zM250 303q0 -98 66 -153.5 t182 -55.5q153 0 243 88t90 242v80q-177 26 -306 13.5t-202 -67.5t-73 -147zM319 1524h177l211 -330h-148z" />
<glyph unicode="&#xe1;" horiz-adv-x="1093" d="M102 295q0 130 96 210t260 99.5t382 -8.5v94q0 116 -67.5 177t-182.5 61q-102 0 -186 -41t-138 -117l-86 86q61 87 174 139t236 52q193 0 295 -99.5t102 -277.5v-670h-129v217q-37 -110 -138 -173.5t-247 -63.5q-167 0 -269 87t-102 228zM250 303q0 -97 70 -153t188 -56 q153 0 243.5 88t90.5 242v80q-267 42 -429.5 -11t-162.5 -190zM557 1194l211 330h147l-208 -330h-150z" />
<glyph unicode="&#xe2;" horiz-adv-x="1085" d="M102 295q0 130 93 209.5t254.5 99.5t379.5 -8v94q0 116 -68 177t-188 61q-97 0 -180 -41t-137 -117l-86 86q61 87 175 139t241 52q183 0 288 -101t105 -276v-670h-131v217q-37 -110 -137.5 -173.5t-245.5 -63.5q-167 0 -265 86.5t-98 228.5zM246 1194l291 330h151 l289 -330h-154l-211 242l-211 -242h-155zM250 303q0 -98 66 -153.5t182 -55.5q153 0 243 88t90 242v80q-177 26 -306 13.5t-202 -67.5t-73 -147z" />
<glyph unicode="&#xe3;" horiz-adv-x="1075" d="M102 295q0 130 93 209.5t254.5 99.5t379.5 -8v94q0 116 -68 177t-188 61q-97 0 -180 -41t-137 -117l-86 86q61 87 175 139t241 52q183 0 288 -101t105 -276v-670h-131v217q-37 -110 -137.5 -173.5t-245.5 -63.5q-167 0 -265 86.5t-98 228.5zM250 303q0 -98 66 -153.5 t182 -55.5q153 0 243 88t90 242v80q-177 26 -306 13.5t-202 -67.5t-73 -147zM332 1239q0 117 45.5 179.5t126.5 62.5q79 0 170 -76q63 -57 119 -57q40 0 63 32t23 93h112q0 -116 -45.5 -179t-124.5 -63q-84 0 -172 76q-63 57 -119 57q-40 0 -62 -32t-22 -93h-114z" />
<glyph unicode="&#xe4;" horiz-adv-x="1112" d="M102 295q0 130 93 209.5t254.5 99.5t379.5 -8v94q0 116 -68 177t-188 61q-97 0 -180 -41t-137 -117l-86 86q61 87 175 139t241 52q183 0 288 -101t105 -276v-670h-131v217q-37 -110 -137.5 -173.5t-245.5 -63.5q-167 0 -265 86.5t-98 228.5zM250 303q0 -98 66 -153.5 t182 -55.5q153 0 243 88t90 242v80q-177 26 -306 13.5t-202 -67.5t-73 -147zM317 1368q0 43 31 74t74 31q41 0 71.5 -31t30.5 -74q0 -42 -30 -72t-72 -30q-43 0 -74 30t-31 72zM770 1368q0 43 30.5 74t73.5 31q41 0 72 -31t31 -74q0 -42 -30.5 -72t-72.5 -30 q-43 0 -73.5 29.5t-30.5 72.5z" />
<glyph unicode="&#xe5;" horiz-adv-x="1122" d="M102 295q0 130 93 209.5t254.5 99.5t379.5 -8v94q0 116 -68 177t-188 61q-97 0 -180 -41t-137 -117l-86 86q61 87 175 139t241 52q183 0 288 -101t105 -276v-670h-131v217q-37 -110 -137.5 -173.5t-245.5 -63.5q-167 0 -265 86.5t-98 228.5zM250 303q0 -98 66 -153.5 t182 -55.5q153 0 243 88t90 242v80q-177 26 -306 13.5t-202 -67.5t-73 -147zM385 1425q0 99 71.5 167.5t176.5 68.5q106 0 177 -68.5t71 -167.5t-71 -167t-177 -68q-105 0 -176.5 68t-71.5 167zM485 1425q0 -65 40.5 -104t107.5 -39t107 39t40 104t-40 105.5t-107 40.5 t-107.5 -40.5t-40.5 -105.5z" />
<glyph unicode="&#xe6;" horiz-adv-x="1918" d="M76 295q0 130 93.5 210t255.5 99.5t380 -8.5v94q0 116 -68 177t-188 61q-99 0 -181.5 -41t-136.5 -117l-86 86q61 87 174.5 139t239.5 52q128 0 219.5 -51t136.5 -144q70 92 177.5 143.5t236.5 51.5q239 0 370 -150.5t118 -413.5h-859q0 -169 108 -275t275 -106 q114 0 209.5 48t151.5 133l88 -88q-66 -103 -187.5 -161.5t-267.5 -58.5q-152 0 -269.5 64.5t-184.5 181.5q-69 -121 -187 -181t-256 -60q-167 0 -264.5 86.5t-97.5 228.5zM225 303q0 -98 65.5 -153.5t182.5 -55.5q161 0 246.5 85.5t85.5 228.5v96q-176 26 -305 13.5 t-202 -67.5t-73 -147zM956 582h713q-3 157 -95 253.5t-245 96.5q-156 0 -260.5 -100t-112.5 -250z" />
<glyph unicode="&#xe7;" horiz-adv-x="1150" d="M109 516q0 237 146 390t374 153q148 0 264 -65t182 -185l-114 -78q-53 91 -138 141t-190 50q-166 0 -270.5 -113t-104.5 -293t104.5 -292.5t270.5 -112.5q105 0 191 50.5t139 143.5l114 -78q-59 -107 -159 -172.5t-224 -77.5l-116 -380h-154l135 380 q-203 23 -326.5 170.5t-123.5 368.5z" />
<glyph unicode="&#xe8;" horiz-adv-x="1214" d="M100 514q0 234 148 383.5t377 149.5q237 0 368 -150.5t119 -413.5h-860q0 -169 108.5 -275t274.5 -106q115 0 210.5 48t149.5 133l90 -88q-66 -103 -188 -161.5t-268 -58.5q-235 0 -382 150t-147 389zM250 582h713q-3 157 -94.5 253.5t-243.5 96.5q-157 0 -262 -99.5 t-113 -250.5zM324 1524h178l211 -330h-150z" />
<glyph unicode="&#xe9;" horiz-adv-x="1224" d="M100 514q0 234 148 383.5t377 149.5q237 0 368 -150.5t119 -413.5h-860q0 -169 108.5 -275t274.5 -106q115 0 210.5 48t149.5 133l90 -88q-66 -103 -188 -161.5t-268 -58.5q-235 0 -382 150t-147 389zM250 582h713q-3 157 -94.5 253.5t-243.5 96.5q-157 0 -262 -99.5 t-113 -250.5zM526 1194l211 330h154l-217 -330h-148z" />
<glyph unicode="&#xea;" horiz-adv-x="1214" d="M100 514q0 234 148 383.5t377 149.5q237 0 368 -150.5t119 -413.5h-860q0 -169 108.5 -275t274.5 -106q115 0 210.5 48t149.5 133l90 -88q-66 -103 -188 -161.5t-268 -58.5q-235 0 -382 150t-147 389zM250 582h713q-3 157 -94.5 253.5t-243.5 96.5q-157 0 -262 -99.5 t-113 -250.5zM256 1194l291 330h151l289 -330h-153l-211 242l-211 -242h-156z" />
<glyph unicode="&#xeb;" horiz-adv-x="1214" d="M100 514q0 234 148 383.5t377 149.5q237 0 368 -150.5t119 -413.5h-860q0 -169 108.5 -275t274.5 -106q115 0 210.5 48t149.5 133l90 -88q-66 -103 -188 -161.5t-268 -58.5q-235 0 -382 150t-147 389zM250 582h713q-3 157 -94.5 253.5t-243.5 96.5q-157 0 -262 -99.5 t-113 -250.5zM276 1368q0 43 31 74t74 31q41 0 71.5 -31t30.5 -74q0 -42 -30 -72t-72 -30q-43 0 -74 30t-31 72zM729 1368q0 43 31 74t74 31q41 0 71.5 -31t30.5 -74q0 -42 -30 -72t-72 -30q-43 0 -74 30t-31 72z" />
<glyph unicode="&#xec;" horiz-adv-x="499" d="M-63 1524h155l227 -330h-147zM174 0v1024h152v-1024h-152z" />
<glyph unicode="&#xed;" horiz-adv-x="499" d="M168 1194l211 330h156l-218 -330h-149zM174 0v1024h152v-1024h-152z" />
<glyph unicode="&#xee;" horiz-adv-x="499" d="M-68 1194l248 330h142l245 -330h-139l-178 242l-178 -242h-140zM174 0v1024h152v-1024h-152z" />
<glyph unicode="&#xef;" horiz-adv-x="499" d="M-29 1368q0 42 25 67t65 25q39 0 64 -25t25 -67q0 -43 -25 -68.5t-64 -25.5q-40 0 -65 25t-25 69zM174 0v1024h152v-1024h-152zM350 1368q0 42 25 67t65 25t65 -25t25 -67q0 -44 -25 -69t-65 -25t-65 25t-25 69z" />
<glyph unicode="&#xf1;" horiz-adv-x="1230" d="M172 0v1024h150v-193q46 99 142 159.5t212 60.5q162 0 276.5 -115t114.5 -277v-659h-152v614q0 123 -85.5 210t-208.5 87q-124 0 -210.5 -87t-86.5 -210l2 -614h-154zM293 1239q0 117 45.5 179.5t124.5 62.5t170 -76q65 -57 121 -57q40 0 62 32t22 93h114 q0 -115 -46.5 -178.5t-125.5 -63.5q-76 0 -170 76q-63 57 -118 57q-40 0 -63 -32t-23 -93h-113z" />
<glyph unicode="&#xf2;" horiz-adv-x="1282" d="M106 516q0 234 151 388.5t388 154.5q238 0 384.5 -154t146.5 -389q0 -151 -66.5 -274.5t-189.5 -196t-279 -72.5q-236 0 -385.5 154t-149.5 389zM260 516q0 -177 105 -291t276 -114q170 0 276.5 115t106.5 290q0 176 -105 292t-274 116q-172 0 -278.5 -114.5 t-106.5 -293.5zM420 1524h153l211 -330h-149z" />
<glyph unicode="&#xf3;" horiz-adv-x="1282" d="M106 516q0 234 151 388.5t388 154.5q238 0 384.5 -154t146.5 -389q0 -151 -66.5 -274.5t-189.5 -196t-279 -72.5q-236 0 -385.5 154t-149.5 389zM260 516q0 -177 105 -291t276 -114q170 0 276.5 115t106.5 290q0 176 -105 292t-274 116q-172 0 -278.5 -114.5 t-106.5 -293.5zM547 1194l211 330h155l-217 -330h-149z" />
<glyph unicode="&#xf4;" horiz-adv-x="1282" d="M106 516q0 234 151 388.5t388 154.5q238 0 384.5 -154t146.5 -389q0 -151 -66.5 -274.5t-189.5 -196t-279 -72.5q-236 0 -385.5 154t-149.5 389zM260 516q0 -177 105 -291t276 -114q170 0 276.5 115t106.5 290q0 176 -105 292t-274 116q-172 0 -278.5 -114.5 t-106.5 -293.5zM276 1194l289 330h152l291 -330h-156l-211 242l-211 -242h-154z" />
<glyph unicode="&#xf5;" horiz-adv-x="1282" d="M106 516q0 238 148 390.5t387 152.5q159 0 281.5 -70t188 -193t65.5 -280q0 -238 -147.5 -390.5t-387.5 -152.5q-239 0 -387 153t-148 390zM260 516q0 -184 105 -294.5t276 -110.5t276 110.5t105 294.5t-105 296t-276 112t-276 -112t-105 -296zM311 1239q0 116 46 179 t126 63q76 0 170 -76q65 -57 119 -57q40 0 63 32t23 93h113q0 -116 -45.5 -179t-124.5 -63q-43 0 -82 17.5t-90 58.5q-63 57 -119 57q-40 0 -62 -32t-22 -93h-115z" />
<glyph unicode="&#xf6;" horiz-adv-x="1282" d="M106 516q0 234 151 388.5t388 154.5q238 0 384.5 -154t146.5 -389q0 -151 -66.5 -274.5t-189.5 -196t-279 -72.5q-236 0 -385.5 154t-149.5 389zM260 516q0 -177 105 -291t276 -114q170 0 276.5 115t106.5 290q0 176 -105 292t-274 116q-172 0 -278.5 -114.5 t-106.5 -293.5zM311 1368q0 43 30.5 74t74.5 31q41 0 70.5 -31t29.5 -74t-29.5 -72.5t-70.5 -29.5q-44 0 -74.5 29.5t-30.5 72.5zM764 1368q0 43 30.5 74t73.5 31q41 0 72 -31t31 -74q0 -42 -30.5 -72t-72.5 -30q-43 0 -73.5 29.5t-30.5 72.5z" />
<glyph unicode="&#xf7;" d="M283 582v135h891v-135h-891zM629 266q0 43 29.5 73t70.5 30q42 0 71 -30t29 -73q0 -41 -28.5 -69.5t-71.5 -28.5q-41 0 -70.5 28.5t-29.5 69.5zM629 1032q0 41 29.5 71t70.5 30q42 0 71 -29.5t29 -71.5q0 -43 -28.5 -71.5t-71.5 -28.5q-42 0 -71 29t-29 71z" />
<glyph unicode="&#xf8;" horiz-adv-x="1290" d="M94 41l127 127q-110 141 -110 348q0 238 147.5 390.5t386.5 152.5q206 0 350 -119l127 127l74 -74l-127 -127q111 -141 111 -350q0 -238 -147.5 -390.5t-387.5 -152.5q-208 0 -348 121l-129 -129zM258 516q0 -152 76 -250l569 570q-99 96 -258 96q-174 0 -280.5 -114.5 t-106.5 -301.5zM389 197q98 -95 256 -95q174 0 281.5 113.5t107.5 300.5q0 145 -73 252z" />
<glyph unicode="&#xf9;" horiz-adv-x="1224" d="M162 371v653h149v-604q0 -152 72 -229.5t201 -79.5q140 0 230.5 88t90.5 233v592h150v-1024h-148v213q-39 -110 -142 -175t-241 -65q-170 0 -266 105.5t-96 292.5zM385 1524h154l211 -330h-150z" />
<glyph unicode="&#xfa;" horiz-adv-x="1224" d="M162 365v659h149v-614q0 -123 87 -210t210 -87t210 87t87 210v614h150v-1024h-148v190q-46 -98 -143 -157.5t-213 -59.5q-161 0 -275 114.5t-114 277.5zM469 1194l211 330h156l-218 -330h-149z" />
<glyph unicode="&#xfb;" horiz-adv-x="1224" d="M162 365v659h149v-614q0 -123 87 -210t210 -87t210 87t87 210v614h150v-1024h-148v190q-46 -98 -143 -157.5t-213 -59.5q-161 0 -275 114.5t-114 277.5zM244 1194l291 330h149l291 -330h-154l-213 242l-211 -242h-153z" />
<glyph unicode="&#xfc;" horiz-adv-x="1224" d="M162 365v659h149v-614q0 -123 87 -210t210 -87t210 87t87 210v614h150v-1024h-148v190q-46 -98 -143 -157.5t-213 -59.5q-161 0 -275 114.5t-114 277.5zM279 1368q0 43 30.5 74t73.5 31q41 0 71.5 -31t30.5 -74q0 -42 -30 -72t-72 -30q-43 0 -73.5 29.5t-30.5 72.5z M731 1368q0 43 31 74t74 31q41 0 71.5 -31t30.5 -74q0 -42 -30 -72t-72 -30q-43 0 -74 30t-31 72z" />
<glyph unicode="&#xfd;" horiz-adv-x="1093" d="M41 1024h162l354 -848l338 848h164l-490 -1186q-58 -141 -138 -194.5t-226 -53.5h-158v136h135q105 0 157.5 32.5t88.5 122.5l51 119zM410 1194l211 330h153l-215 -330h-149z" />
<glyph unicode="&#xfe;" horiz-adv-x="1329" d="M172 -385v1819h139v-658q47 124 162.5 198.5t257.5 74.5q227 0 359.5 -147.5t132.5 -391.5q0 -235 -135.5 -385t-356.5 -150q-150 0 -260.5 77.5t-151.5 191.5v-629h-147zM319 510q0 -177 106.5 -290.5t272.5 -113.5q164 0 267.5 112t103.5 292t-104 292.5t-271 112.5 q-163 0 -269 -114t-106 -291z" />
<glyph unicode="&#xff;" horiz-adv-x="1093" d="M41 1034h162l354 -858l338 858h164l-490 -1196q-58 -141 -138 -194.5t-226 -53.5h-158v136h135q105 0 157.5 32.5t88.5 122.5l51 119zM219 1368q0 43 30 74t73 31q42 0 72 -31t30 -74t-29.5 -72.5t-72.5 -29.5t-73 29.5t-30 72.5zM672 1368q0 43 30 74t72 31q43 0 73 -31 t30 -74t-30 -72.5t-73 -29.5t-72.5 29.5t-29.5 72.5z" />
<glyph unicode="&#x152;" horiz-adv-x="2267" d="M129 717q-1 209 94 373.5t262.5 254.5t376.5 89h1241v-142h-807v-497h764v-142h-764v-510h828v-143h-1262q-158 0 -294 52.5t-232.5 146t-151.5 227.5t-55 291zM293 717q0 -257 159.5 -414.5t409.5 -157.5h279v1143h-279q-164 0 -293 -70.5t-202.5 -201t-73.5 -299.5z " />
<glyph unicode="&#x153;" horiz-adv-x="2138" d="M106 516q0 234 151 388.5t388 154.5q153 0 271 -66.5t186 -183.5q69 112 184.5 175t261.5 63q237 0 368.5 -150.5t119.5 -413.5h-860q0 -169 108.5 -275t274.5 -106q115 0 210.5 48t149.5 133l90 -88q-66 -102 -188 -161t-267 -59q-152 0 -270.5 64.5t-185.5 181.5 q-69 -115 -188 -181.5t-269 -66.5q-236 0 -385.5 154t-149.5 389zM260 516q0 -177 105 -291t276 -114q170 0 276.5 115t106.5 290q0 176 -105 292t-274 116q-172 0 -278.5 -114.5t-106.5 -293.5zM1176 582h710q-2 157 -93 253.5t-245 96.5q-157 0 -260.5 -99.5 t-111.5 -250.5z" />
<glyph unicode="&#x178;" horiz-adv-x="1288" d="M12 1434h181l458 -693l467 691l180 2l-567 -842v-592h-158v592zM313 1767q0 44 29.5 73.5t75.5 29.5q44 0 73 -29.5t29 -73.5t-29 -72t-73 -28q-46 0 -75.5 28t-29.5 72zM768 1767q0 45 28.5 74t73.5 29t74 -29t29 -74t-28.5 -73.5t-74.5 -28.5q-45 0 -73.5 28.5 t-28.5 73.5z" />
<glyph unicode="&#x2c6;" horiz-adv-x="1269" d="M270 1194l289 330h152l288 -330h-153l-211 242l-211 -242h-154z" />
<glyph unicode="&#x2dc;" horiz-adv-x="1269" d="M305 1239q0 117 45.5 179.5t126.5 62.5q76 0 170 -76q63 -57 119 -57q40 0 63 32t23 93h113q0 -116 -45.5 -179t-124.5 -63q-43 0 -82 17.5t-90 58.5q-63 57 -119 57q-40 0 -62 -32t-22 -93h-115z" />
<glyph unicode="&#x2000;" horiz-adv-x="997" />
<glyph unicode="&#x2001;" horiz-adv-x="1994" />
<glyph unicode="&#x2002;" horiz-adv-x="997" />
<glyph unicode="&#x2003;" horiz-adv-x="1994" />
<glyph unicode="&#x2004;" horiz-adv-x="664" />
<glyph unicode="&#x2005;" horiz-adv-x="498" />
<glyph unicode="&#x2006;" horiz-adv-x="332" />
<glyph unicode="&#x2007;" horiz-adv-x="332" />
<glyph unicode="&#x2008;" horiz-adv-x="249" />
<glyph unicode="&#x2009;" horiz-adv-x="398" />
<glyph unicode="&#x200a;" horiz-adv-x="110" />
<glyph unicode="&#x2010;" horiz-adv-x="800" d="M106 524v131h588v-131h-588z" />
<glyph unicode="&#x2011;" horiz-adv-x="800" d="M106 524v131h588v-131h-588z" />
<glyph unicode="&#x2012;" horiz-adv-x="800" d="M106 524v131h588v-131h-588z" />
<glyph unicode="&#x2013;" horiz-adv-x="1236" d="M106 524v127h1024v-127h-1024z" />
<glyph unicode="&#x2014;" horiz-adv-x="2260" d="M106 524v127h2048v-127h-2048z" />
<glyph unicode="&#x2018;" horiz-adv-x="446" d="M86 954l143 506h131l-120 -506h-154z" />
<glyph unicode="&#x2019;" horiz-adv-x="446" d="M86 954l121 506h153l-143 -506h-131z" />
<glyph unicode="&#x201a;" horiz-adv-x="436" d="M66 -293l120 506h154l-143 -506h-131z" />
<glyph unicode="&#x201c;" horiz-adv-x="800" d="M86 954l143 506h131l-120 -506h-154zM440 954l144 506h131l-121 -506h-154z" />
<glyph unicode="&#x201d;" horiz-adv-x="800" d="M86 954l121 506h153l-143 -506h-131zM440 954l121 506h154l-144 -506h-131z" />
<glyph unicode="&#x201e;" horiz-adv-x="790" d="M66 -293l120 506h154l-143 -506h-131zM420 -293l121 506h153l-143 -506h-131z" />
<glyph unicode="&#x2022;" horiz-adv-x="978" d="M311.5 748q6.5 70 63.5 120q57 49 129 43t119 -63q49 -57 43.5 -127.5t-64.5 -120.5q-57 -49 -127.5 -42.5t-120.5 63.5q-49 57 -42.5 127z" />
<glyph unicode="&#x2026;" horiz-adv-x="1462" d="M166 72q-12 39 2.5 68.5t52.5 39.5q39 12 68 -2.5t41 -52.5q11 -38 -4 -68.5t-52 -40.5q-37 -12 -67.5 3.5t-40.5 52.5zM649 72q-11 39 4.5 68.5t51.5 39.5q39 12 68.5 -2.5t41.5 -52.5q11 -38 -3.5 -68.5t-51.5 -40.5q-38 -12 -68.5 3.5t-42.5 52.5zM1135 72 q-12 39 2.5 68.5t52.5 39.5q38 12 67 -2.5t41 -52.5q11 -38 -3.5 -68.5t-51.5 -40.5q-38 -12 -67.5 3.5t-40.5 52.5z" />
<glyph unicode="&#x202f;" horiz-adv-x="398" />
<glyph unicode="&#x2039;" horiz-adv-x="620" d="M70 516l303 434h162l-304 -434l304 -432h-162z" />
<glyph unicode="&#x203a;" horiz-adv-x="620" d="M86 84l303 432l-303 434h162l303 -434l-303 -432h-162z" />
<glyph unicode="&#x205f;" horiz-adv-x="498" />
<glyph unicode="&#x20ac;" horiz-adv-x="1294" d="M70 518v94h172q-4 62 -4 105q0 42 4 104h-172v94h184q41 250 179.5 397.5t332.5 147.5q156 0 275.5 -98t172.5 -264l-129 -60q-39 133 -123.5 207t-193.5 74q-133 0 -229 -109.5t-127 -294.5h483v-94h-496q-6 -31 -6 -104q0 -74 6 -105h496v-94h-483 q31 -184 127.5 -293.5t228.5 -109.5q109 0 193.5 73.5t123.5 206.5l129 -57q-53 -168 -172 -266.5t-276 -98.5q-194 0 -332.5 147.5t-179.5 397.5h-184z" />
<glyph unicode="&#x25fc;" horiz-adv-x="1024" d="M0 0v1024h1024v-1024h-1024z" />
</font>
</defs>
</svg>
