<?xml version="1.0" standalone="no"?>
<!DOCTYPE svg PUBLIC "-//W3C//DTD SVG 1.1//EN" "http://www.w3.org/Graphics/SVG/1.1/DTD/svg11.dtd" >
<svg xmlns="http://www.w3.org/2000/svg" xmlns:xlink="http://www.w3.org/1999/xlink" version="1.1">
<metadata></metadata>
<defs>
<font id="lama_sanslight" horiz-adv-x="1454" >
<font-face units-per-em="2048" ascent="1638" descent="-410" />
<missing-glyph horiz-adv-x="487" />
<glyph horiz-adv-x="0" />
<glyph horiz-adv-x="682" />
<glyph unicode="&#xd;" horiz-adv-x="497" />
<glyph unicode=" "  horiz-adv-x="487" />
<glyph unicode="&#x09;" horiz-adv-x="487" />
<glyph unicode="&#xa0;" horiz-adv-x="487" />
<glyph unicode="!" horiz-adv-x="569" d="M221 97.5q6 24.5 31 37.5q26 14 50.5 8.5t37.5 -30.5q14 -25 7.5 -50t-30.5 -38q-26 -14 -50.5 -8t-37.5 30q-14 26 -8 50.5zM225 1434h119l-8 -1028h-103z" />
<glyph unicode="&#x22;" horiz-adv-x="712" d="M129 1460h117l-15 -547h-90zM467 1460h117l-13 -547h-90z" />
<glyph unicode="#" horiz-adv-x="1497" d="M125 440v86h272l76 381h-262v86h278l82 410h97l-80 -410h430l80 410h98l-82 -410h256v-86h-272l-76 -381h262v-86h-278l-80 -409h-99l82 409h-430l-82 -409h-96l80 409h-256zM496 526h430l75 381h-430z" />
<glyph unicode="$" horiz-adv-x="1202" d="M109 336l77 55q56 -119 158 -183.5t244 -70.5v545l-76 18q-191 46 -280 128t-89 214q0 160 119 257t326 100v137h59v-137q154 -7 263.5 -71t160.5 -175l-80 -55q-92 188 -344 200v-526l96 -22q185 -43 268 -127t83 -215q0 -166 -120 -266.5t-327 -106.5v-137h-59v137 q-175 6 -298 84.5t-181 216.5zM256 1044q0 -103 72 -157t260 -101v514q-157 -3 -244.5 -70t-87.5 -186zM647 135q159 4 246.5 76.5t87.5 194.5q0 108 -73 163t-261 99v-533z" />
<glyph unicode="%" horiz-adv-x="1677" d="M80 1120q0 150 96 245t244 95t244 -95t96 -245t-95.5 -244t-244.5 -94t-244.5 94t-95.5 244zM170 1120q0 -114 69.5 -184t180.5 -70t180.5 70t69.5 184q0 115 -69.5 185.5t-180.5 70.5t-180.5 -70.5t-69.5 -185.5zM272 0l1026 1434h109l-1028 -1434h-107zM920 313 q0 150 96 245t244 95t243.5 -95t95.5 -245t-95.5 -245t-243.5 -95t-244 95t-96 245zM1010 313q0 -114 69 -184t181 -70q110 0 178.5 70t68.5 184q0 115 -68 185.5t-179 70.5q-113 0 -181.5 -70.5t-68.5 -185.5z" />
<glyph unicode="&#x26;" horiz-adv-x="1380" d="M147 348q0 124 79 218.5t268 205.5q-120 137 -163.5 215t-43.5 162q0 133 96.5 222t257.5 89q159 0 254.5 -87.5t95.5 -219.5q0 -113 -78 -200.5t-274 -202.5l373 -424q83 150 100 376h102q-23 -274 -133 -458l215 -244h-122l-150 172q-163 -199 -428 -199 q-200 0 -324.5 104.5t-124.5 270.5zM262 356q0 -128 93.5 -205t246.5 -77q223 0 352 172l-401 456q-161 -94 -226 -171t-65 -175zM391 1145q0 -69 39.5 -135t151.5 -195q176 103 241.5 172.5t65.5 157.5q0 99 -70.5 160t-179.5 61q-107 0 -177.5 -61.5t-70.5 -159.5z" />
<glyph unicode="'" horiz-adv-x="372" d="M129 1460h117l-15 -547h-90z" />
<glyph unicode="(" horiz-adv-x="638" d="M160 639q0 244 83.5 481t235.5 418l88 -53q-140 -169 -217.5 -393.5t-77.5 -452.5t77.5 -452.5t217.5 -393.5l-88 -53q-153 182 -236 418t-83 481z" />
<glyph unicode=")" horiz-adv-x="638" d="M72 -207q140 170 217.5 395.5t77.5 450.5q0 226 -78 451.5t-217 394.5l88 53q153 -182 236 -418t83 -481t-83.5 -481.5t-235.5 -417.5z" />
<glyph unicode="*" horiz-adv-x="925" d="M70 1133l26 86l328 -115l-6 348h88l-6 -348l327 113l29 -84l-334 -101l211 -276l-74 -54l-198 285l-199 -282l-72 51l211 278z" />
<glyph unicode="+" d="M287 598v102h387v412h108v-412h385v-102h-385v-410h-108v410h-387z" />
<glyph unicode="," horiz-adv-x="415" d="M88 -311l94 555h115l-117 -555h-92z" />
<glyph unicode="-" horiz-adv-x="815" d="M115 541v98h583v-98h-583z" />
<glyph unicode="." horiz-adv-x="473" d="M174 97.5q6 24.5 31 37.5q59 30 86 -22q14 -24 8.5 -49.5t-31.5 -38.5q-25 -14 -49 -8t-37 30q-14 26 -8 50.5z" />
<glyph unicode="/" horiz-adv-x="929" d="M31 -193l757 1709h111l-758 -1709h-110z" />
<glyph unicode="0" horiz-adv-x="1427" d="M158 717q0 220 68.5 389t195 261.5t291.5 92.5q250 0 403.5 -205t153.5 -538t-153.5 -538.5t-403.5 -205.5q-165 0 -291.5 93t-195 262t-68.5 389zM276 717q0 -285 121 -461t316 -176q196 0 317 175.5t121 461.5q0 287 -120.5 462t-317.5 175q-195 0 -316 -175t-121 -462 z" />
<glyph unicode="1" horiz-adv-x="856" d="M98 1315v119h523v-1434h-115v1313z" />
<glyph unicode="2" horiz-adv-x="1193" d="M100 0v86l584 545q138 129 196 229t58 199q0 136 -90 215.5t-232 79.5q-137 0 -245 -78.5t-174 -235.5l-93 52q69 179 204 273.5t308 94.5q193 0 316 -111t123 -286q0 -118 -63.5 -231t-205.5 -244l-514 -482h809v-106h-981z" />
<glyph unicode="3" horiz-adv-x="1150" d="M70 195l69 73q72 -93 177 -140.5t231 -47.5q174 0 277.5 86t103.5 229q0 141 -111 214t-332 73h-98v102h176q165 0 255.5 74.5t90.5 202.5q0 134 -90.5 213.5t-245.5 79.5q-130 0 -236.5 -57t-172.5 -162l-80 67q78 123 206 190.5t285 67.5q207 0 329 -108.5t122 -280.5 q0 -133 -77 -223t-220 -117q155 -35 234 -123t79 -223q0 -183 -136 -297.5t-355 -114.5q-147 0 -273 57t-208 165z" />
<glyph unicode="4" horiz-adv-x="1243" d="M84 338v98l784 998l82 -58l-745 -940h665v582h113v-582h219v-98h-219v-338h-113v338h-786z" />
<glyph unicode="5" horiz-adv-x="1189" d="M104 184l70 76q152 -180 401 -180q180 0 291 98t111 268q0 161 -100 254t-269 93q-186 0 -344 -129h-86v770h840v-103h-733v-557q161 115 346 115q207 0 334 -119t127 -321q0 -215 -139.5 -345.5t-374.5 -130.5q-290 0 -474 211z" />
<glyph unicode="6" horiz-adv-x="1218" d="M102 471q0 115 37.5 207.5t141.5 257.5l317 498h133l-364 -549q106 76 256 76q226 0 370 -132t144 -358q0 -152 -67 -265.5t-183.5 -172t-265.5 -58.5q-229 0 -374 133.5t-145 362.5zM219 469q0 -184 110.5 -290.5t291.5 -106.5t290 106.5t109 290.5t-109 290.5 t-288 106.5q-182 0 -293 -106.5t-111 -290.5z" />
<glyph unicode="7" horiz-adv-x="1064" d="M53 1327v107h959v-95l-652 -1339h-129l652 1327h-830z" />
<glyph unicode="8" horiz-adv-x="1280" d="M123 373q0 132 91.5 232t240.5 132q-131 32 -211 125.5t-80 216.5q0 172 130.5 276.5t344.5 104.5q215 0 346 -104.5t131 -276.5q0 -123 -80 -216.5t-211 -125.5q149 -32 240.5 -132t91.5 -232q0 -180 -142.5 -290t-375.5 -110q-232 0 -374 110t-142 290zM242 381 q0 -138 109.5 -222.5t287.5 -84.5q180 0 289.5 84.5t109.5 222.5t-109.5 222.5t-289.5 84.5q-178 0 -287.5 -84.5t-109.5 -222.5zM276 1071q0 -131 99.5 -211t263.5 -80t264.5 80t100.5 211t-100.5 211t-264.5 80t-263.5 -80t-99.5 -211z" />
<glyph unicode="9" horiz-adv-x="1220" d="M82 965q0 152 67.5 265.5t183.5 171.5t265 58q228 0 373 -133.5t145 -361.5q0 -106 -39.5 -213.5t-138.5 -251.5l-354 -498h-131l399 549q-113 -76 -258 -76q-147 0 -262.5 57.5t-182.5 170t-67 262.5zM197 967q0 -184 110 -291t289 -107q182 0 292.5 107t110.5 291 t-110 290.5t-291 106.5t-291 -106.5t-110 -290.5z" />
<glyph unicode=":" horiz-adv-x="483" d="M160 80q0 40 24 64t64 24q38 0 62 -24t24 -64q0 -38 -24 -63t-62 -25q-39 0 -63.5 24.5t-24.5 63.5zM160 870q0 40 24 64t64 24q38 0 62 -24t24 -64q0 -38 -24 -62t-62 -24q-40 0 -64 24t-24 62z" />
<glyph unicode=";" horiz-adv-x="440" d="M88 -311l94 555h115l-117 -555h-92zM171.5 888.5q5.5 24.5 31.5 37.5q24 14 48.5 8.5t37.5 -31.5q14 -24 8.5 -48.5t-31.5 -37.5q-24 -14 -48.5 -8.5t-37.5 31.5q-14 24 -8.5 48.5z" />
<glyph unicode="&#x3c;" d="M287 598v104l880 359v-107l-741 -305l741 -305v-106z" />
<glyph unicode="=" d="M287 373v102h880v-102h-880zM287 823v103h880v-103h-880z" />
<glyph unicode="&#x3e;" d="M287 238v106l741 305l-741 305v107l880 -359v-104z" />
<glyph unicode="?" horiz-adv-x="929" d="M51 1180q62 132 178.5 206t264.5 74q163 0 264.5 -87.5t101.5 -235.5q0 -87 -40 -162t-132 -150l-94 -77q-72 -61 -91.5 -98.5t-19.5 -114.5v-129h-108v133q2 103 27.5 151t125.5 131l99 82q123 105 123 232q0 106 -71 164.5t-187 58.5q-115 0 -208.5 -60t-148.5 -174z M367 97.5q6 24.5 30 37.5q26 14 50.5 8.5t37.5 -30.5q14 -25 8 -50t-30 -38q-26 -14 -50.5 -8t-37.5 30q-14 26 -8 50.5z" />
<glyph unicode="@" horiz-adv-x="1947" d="M131 455q-1 187 65.5 349.5t182.5 277.5t278 180.5t347 64.5q174 1 326.5 -57t264 -161.5t175.5 -255t63 -329.5q0 -224 -92.5 -357.5t-235.5 -133.5q-93 0 -158.5 58.5t-78.5 168.5q-38 -105 -130 -165t-210 -60q-182 0 -287.5 114.5t-105.5 307.5q0 179 108.5 299.5 t286.5 120.5q112 0 202.5 -57t122.5 -152v182h91v-522q1 -99 43.5 -153t113.5 -54q101 0 166.5 105.5t65.5 289.5q0 168 -57 305t-156.5 226.5t-232 137.5t-285.5 48q-168 0 -311.5 -58t-244.5 -160t-158 -246t-57 -312q0 -224 98.5 -397t276 -268t404.5 -95q114 0 221.5 24 t183.5 66l41 -84q-84 -46 -202 -73t-246 -27q-190 -1 -354 62t-279.5 174.5t-181 270.5t-64.5 345zM637 459q0 -155 82.5 -246.5t220.5 -91.5q129 0 221 93.5t92 244.5q0 150 -92 243t-221 93q-135 0 -219 -97t-84 -239z" />
<glyph unicode="A" horiz-adv-x="1380" d="M37 0l594 1434h112l600 -1434h-122l-164 389h-733l-162 -389h-125zM362 492h658l-330 813z" />
<glyph unicode="B" horiz-adv-x="1411" d="M225 0v1434h602q173 0 285.5 -101t112.5 -258q0 -113 -61 -201t-167 -129q127 -33 205 -129t78 -227q0 -117 -59 -207t-155 -136t-212 -46h-629zM338 100h520q129 0 215 84.5t86 210.5q0 123 -87 207t-214 84h-520v-586zM338 780h487q118 0 199.5 81t81.5 196 q-1 117 -83.5 196.5t-197.5 79.5h-487v-553z" />
<glyph unicode="C" horiz-adv-x="1579" d="M143 717q0 158 52.5 294.5t146 235t229 155t293.5 56.5q212 0 372 -97t243 -276l-99 -51q-67 141 -203.5 228.5t-312.5 87.5q-174 0 -311.5 -82t-213 -226t-75.5 -325q0 -182 75 -326t212.5 -225.5t312.5 -81.5q182 0 315.5 81.5t202.5 233.5l97 -57 q-81 -179 -240.5 -274t-374.5 -95q-212 0 -377 97t-254.5 266t-89.5 381z" />
<glyph unicode="D" horiz-adv-x="1544" d="M225 0v1434h473q207 0 368.5 -91.5t250 -254.5t88.5 -371q0 -321 -194.5 -519t-512.5 -198h-473zM340 109h348q272 0 434 167.5t162 440.5q0 275 -162 441.5t-434 166.5h-348v-1216z" />
<glyph unicode="E" horiz-adv-x="1282" d="M227 0v1434h885v-107h-770v-588h737v-104h-737v-529h791v-106h-906z" />
<glyph unicode="F" horiz-adv-x="1226" d="M227 0v1434h875v-107h-760v-614h729v-107h-729v-606h-115z" />
<glyph unicode="G" horiz-adv-x="1632" d="M141 715q0 157 53 294.5t146.5 236.5t228.5 155.5t293 56.5q204 0 362.5 -92t245.5 -258l-98 -61q-69 145 -200.5 223t-309.5 78q-174 0 -311.5 -82t-213 -226t-75.5 -325q0 -273 166 -450t434 -183q159 0 282.5 41.5t227.5 136.5v373h-401v100h510v-520 q-124 -123 -274 -181.5t-345 -58.5q-215 3 -380 100t-253 264.5t-88 377.5z" />
<glyph unicode="H" horiz-adv-x="1572" d="M227 0v1434h115v-709h889v709h115v-1434h-115v616h-889v-616h-115z" />
<glyph unicode="I" horiz-adv-x="575" d="M231 0v1434h115v-1434h-115z" />
<glyph unicode="J" horiz-adv-x="1206" d="M63 424l113 41v-25q0 -146 104 -250t252 -104q146 0 249.5 104t103.5 250v994h116v-992q0 -128 -63 -236t-171 -170.5t-235 -62.5q-190 0 -328 132.5t-141 318.5z" />
<glyph unicode="K" horiz-adv-x="1302" d="M227 0v1434h115v-701l776 701h148l-805 -729l796 -705h-147l-725 627l-43 -41v-586h-115z" />
<glyph unicode="L" horiz-adv-x="1204" d="M227 0v1434h115v-1325h780v-109h-895z" />
<glyph unicode="M" horiz-adv-x="1921" d="M227 2v1432h144l579 -1305l609 1305h135v-1434h-115v1251l-575 -1251h-107l-555 1251v-1249h-115z" />
<glyph unicode="N" horiz-adv-x="1607" d="M225 0v1434h107l938 -1244v1244h112v-1434h-108l-934 1239v-1239h-115z" />
<glyph unicode="O" horiz-adv-x="1748" d="M143 717q0 154 56.5 292t154 237t233 156.5t287.5 57.5q203 0 371 -98t264.5 -268.5t96.5 -376.5q0 -154 -57 -292t-154 -237t-233 -157t-288 -58t-287.5 58t-233 157t-154 237t-56.5 292zM262 717q0 -174 80.5 -319.5t221.5 -229.5t310 -84t310 84t222 229.5t81 319.5 t-81 319.5t-222 229.5t-310 84t-310 -84t-221.5 -229.5t-80.5 -319.5z" />
<glyph unicode="P" horiz-adv-x="1368" d="M227 0v1434h592q187 0 314 -129t127 -318q0 -197 -127 -326t-314 -129h-477v-532h-115zM342 639h465q142 0 238 98.5t96 249.5q0 142 -97 241t-237 99h-465v-688z" />
<glyph unicode="Q" horiz-adv-x="1751" d="M143 717q0 152 55.5 289t152 236.5t233 158.5t290.5 59q150 0 285.5 -59t234 -158.5t156.5 -237t58 -288.5q0 -174 -75 -326.5t-206 -253.5l176 -217l-80 -63l-178 223q-177 -107 -371 -107q-208 0 -376 100t-261.5 270.5t-93.5 373.5zM264 717q0 -172 79 -317 t219.5 -230.5t311.5 -85.5q163 0 297 86l-180 225l78 62l186 -230q108 87 171 215t63 275q0 129 -49 246.5t-131.5 202.5t-196 135.5t-238.5 50.5q-170 0 -310.5 -85.5t-220 -231t-79.5 -318.5z" />
<glyph unicode="R" horiz-adv-x="1386" d="M225 8v1426h617q175 0 299.5 -125.5t124.5 -302.5q0 -165 -110.5 -286.5t-270.5 -133.5l-78 -2l457 -568l-127 -16l-461 578h-336v-570h-115zM340 684h489q131 0 224.5 94.5t93.5 227.5t-93.5 227t-224.5 94h-489v-643z" />
<glyph unicode="S" horiz-adv-x="1269" d="M98 303l82 59q133 -282 477 -282q185 0 288.5 79.5t103.5 217.5q0 103 -72 167t-242 105l-198 49q-208 49 -304 138.5t-96 232.5q0 177 131.5 284t362.5 107q185 0 318 -72.5t194 -201.5l-84 -60q-116 228 -428 228q-181 0 -278 -74t-97 -209q0 -102 70 -164.5 t249 -105.5l209 -49q203 -48 293 -139t90 -232q0 -187 -138.5 -297.5t-375.5 -110.5q-205 0 -347.5 86t-207.5 244z" />
<glyph unicode="T" horiz-adv-x="1257" d="M55 1325v109h1147v-109h-512v-1325h-115v1325h-520z" />
<glyph unicode="U" horiz-adv-x="1550" d="M221 537v897h115v-902q0 -144 58.5 -246.5t158 -151t229.5 -48.5q203 0 326 115t123 331v902h115v-897q0 -175 -73.5 -303.5t-200 -193.5t-290.5 -65q-161 0 -287 65t-200 193.5t-74 303.5z" />
<glyph unicode="V" horiz-adv-x="1388" d="M41 1434h125l534 -1303l523 1303h125l-576 -1434h-143z" />
<glyph unicode="W" horiz-adv-x="2113" d="M61 1434h121l416 -1280l432 1280h66l424 -1289l411 1289h121l-457 -1434h-139l-393 1212l-404 -1212h-133z" />
<glyph unicode="X" horiz-adv-x="1267" d="M49 0l522 725l-489 709h131l436 -627l426 627h131l-483 -715l496 -719h-134l-440 633l-459 -633h-137z" />
<glyph unicode="Y" horiz-adv-x="1292" d="M18 1434h136l487 -723l498 721l135 2l-574 -834v-600h-116v600z" />
<glyph unicode="Z" horiz-adv-x="1234" d="M96 0v90l879 1237h-860v107h1013v-91l-878 -1237h889v-106h-1043z" />
<glyph unicode="[" horiz-adv-x="753" d="M225 -238v1754h451v-101h-340v-1552h340v-101h-451z" />
<glyph unicode="\" horiz-adv-x="929" d="M31 1516h110l758 -1709h-111z" />
<glyph unicode="]" horiz-adv-x="753" d="M78 -137h340v1552h-340v101h450v-1754h-450v101z" />
<glyph unicode="^" horiz-adv-x="1116" d="M72 729l434 655h104l434 -655h-122l-363 551l-364 -551h-123z" />
<glyph unicode="_" horiz-adv-x="886" d="M0 -141h887v-86h-887v86z" />
<glyph unicode="`" horiz-adv-x="1269" d="M324 1522h135l250 -326h-113z" />
<glyph unicode="a" horiz-adv-x="1044" d="M109 291q0 129 91 208q92 79 256 101q70 9 151 9q110 0 243 -17v96q0 133 -76 200.5t-209 67.5q-220 0 -327 -165l-68 61q68 97 172 147t231 50q180 0 284 -101t104 -274v-674h-99v233q-37 -118 -140.5 -184.5t-254.5 -66.5q-169 0 -263.5 83.5t-94.5 225.5zM221 297 q0 -108 70 -168.5t198 -60.5q166 0 264.5 96.5t98.5 263.5v88q-128 19 -233 19q-52 0 -99 -5q-140 -14 -219.5 -74t-79.5 -159z" />
<glyph unicode="b" horiz-adv-x="1304" d="M184 2v1432h111v-672q44 126 159.5 207.5t268.5 81.5q221 0 358.5 -150.5t137.5 -386.5q0 -241 -135 -390t-359 -149q-149 0 -267.5 80.5t-168.5 214.5v-268h-105zM295 514q0 -191 114 -313.5t291 -122.5q180 0 293 122t113 314q0 194 -113 316t-291 122t-292.5 -123 t-114.5 -315z" />
<glyph unicode="c" horiz-adv-x="1159" d="M117 514q0 237 144.5 390t369.5 153q144 0 259 -66t181 -186l-86 -57q-54 98 -145.5 151t-204.5 53q-182 0 -295 -121.5t-113 -316.5q0 -192 113.5 -314t294.5 -122q113 0 205 54.5t147 154.5l86 -58q-66 -122 -181.5 -189t-260.5 -67q-228 0 -371 151.5t-143 389.5z" />
<glyph unicode="d" horiz-adv-x="1304" d="M86 514q0 236 138 386.5t358 150.5q151 0 268.5 -82t159.5 -207v672h110v-1432h-102v268q-51 -134 -169.5 -214.5t-268.5 -80.5q-224 0 -359 149t-135 390zM199 514q0 -194 113 -315t294 -121q175 0 289.5 123t114.5 313q0 192 -114.5 315t-293.5 123q-178 0 -290.5 -122 t-112.5 -316z" />
<glyph unicode="e" horiz-adv-x="1208" d="M109 512q0 235 145 386t371 151q228 0 355 -148q120 -140 120 -378v-27h-879q0 -189 114.5 -306.5t295.5 -117.5q120 0 219 52t156 144l69 -63q-66 -107 -185 -168.5t-261 -61.5q-231 0 -375.5 149.5t-144.5 387.5zM219 571h770q-3 176 -101.5 281.5t-262.5 105.5 q-171 0 -284 -108.5t-122 -278.5z" />
<glyph unicode="f" horiz-adv-x="774" d="M41 924v102h254v180q0 103 68 165.5t167 62.5h211v-101h-204q-55 0 -93 -38.5t-38 -94.5v-174h329v-102h-329v-924h-111v924h-254z" />
<glyph unicode="g" horiz-adv-x="1335" d="M117 528q0 227 136.5 373t356.5 146q167 0 282 -82.5t157 -202.5v266h102v-962q0 -220 -141 -365t-355 -145q-169 0 -295.5 71t-193.5 191l59 73q60 -108 168.5 -171.5t255.5 -63.5q165 0 280 116.5t115 301.5v215q-51 -131 -162.5 -209t-260.5 -78q-228 0 -366 145.5 t-138 380.5zM227 522q0 -188 113 -306t293 -118q177 0 292 119t115 305q0 191 -116 308.5t-287 117.5q-181 0 -295.5 -119t-114.5 -307z" />
<glyph unicode="h" horiz-adv-x="1236" d="M184 0v1434h111v-607q46 98 145 157.5t222 59.5q169 0 285 -115t116 -282v-647h-113v625q0 135 -94 229t-229 94q-138 0 -235 -96t-97 -234v-618h-111z" />
<glyph unicode="i" horiz-adv-x="483" d="M162 1366q0 33 23.5 56.5t56.5 23.5t56.5 -23.5t23.5 -56.5q0 -34 -23 -58t-57 -24t-57 24t-23 58zM186 0v1022h111v-1022h-111z" />
<glyph unicode="j" horiz-adv-x="483" d="M-70 -309h109q63 0 104 41.5t41 105.5v1184h113v-1200q0 -103 -67 -168.5t-173 -65.5h-127v103zM158 1368q0 35 23.5 57.5t60.5 22.5t59.5 -22.5t22.5 -57.5q0 -34 -23 -57t-59 -23t-60 23t-24 57z" />
<glyph unicode="k" horiz-adv-x="1034" d="M184 0v1434h111v-863l561 453h135l-575 -477l590 -547h-134l-542 475l-35 -37v-438h-111z" />
<glyph unicode="l" horiz-adv-x="468" d="M176 0v1434h111v-1434h-111z" />
<glyph unicode="m" horiz-adv-x="1880" d="M186 2v1022h113v-180q43 92 133 148.5t201 56.5q120 0 215.5 -68t132.5 -174q37 106 135 174t219 68q157 0 265 -110.5t108 -270.5v-666h-115v641q0 127 -85.5 215t-207.5 88q-126 0 -212.5 -88.5t-86.5 -214.5v-641h-110v641q0 127 -86 215t-209 88q-125 0 -210 -88 t-85 -215v-641h-115z" />
<glyph unicode="n" horiz-adv-x="1228" d="M184 0v1024h111v-203q46 103 144.5 165.5t217.5 62.5q165 0 281.5 -116.5t116.5 -279.5v-653h-113v623q0 134 -94.5 228.5t-229.5 94.5q-133 0 -227 -94.5t-94 -228.5v-623h-113z" />
<glyph unicode="o" horiz-adv-x="1286" d="M115 516q0 232 150 382.5t380 150.5q231 0 378.5 -150.5t147.5 -382.5t-150 -386.5t-378 -154.5q-233 0 -380.5 151t-147.5 390zM229 514q0 -194 115.5 -316t298.5 -122q181 0 298.5 123.5t117.5 314.5q0 190 -116.5 314t-297.5 124q-183 0 -299.5 -122.5t-116.5 -315.5z " />
<glyph unicode="p" horiz-adv-x="1335" d="M184 -391v1415h103v-268q51 134 169 213.5t267 79.5q226 0 361 -148t135 -389q0 -236 -138 -386.5t-358 -150.5q-155 0 -270.5 81.5t-159.5 207.5v-655h-109zM293 512q0 -192 114.5 -315t292.5 -123q180 0 293 122t113 316t-113.5 315t-294.5 121q-177 0 -291 -122.5 t-114 -313.5z" />
<glyph unicode="q" horiz-adv-x="1335" d="M117 512q0 241 134.5 389t358.5 148q150 0 269 -79.5t170 -213.5v268h102v-1430h-111v670q-43 -126 -158.5 -207.5t-269.5 -81.5q-220 0 -357.5 150.5t-137.5 386.5zM229 512q0 -194 113 -316t291 -122t292.5 123t114.5 315q0 190 -114 313t-289 123q-181 0 -294.5 -121 t-113.5 -315z" />
<glyph unicode="r" horiz-adv-x="806" d="M184 0v1024h109v-211q46 104 141.5 166.5t212.5 62.5q53 0 103 -12l-7 -106q-49 8 -112 8q-145 0 -240.5 -95.5t-95.5 -244.5v-592h-111z" />
<glyph unicode="s" horiz-adv-x="1019" d="M88 174l59 72q54 -82 155 -129t226 -47q134 0 206.5 54.5t72.5 145.5q0 70 -47.5 113t-161.5 70l-209 51q-135 32 -197.5 96t-62.5 164q0 136 103.5 214.5t285.5 78.5q135 0 235.5 -44t153.5 -126l-59 -70q-110 144 -330 144q-134 0 -205 -51t-71 -144q0 -70 45 -110 t157 -68l211 -51q141 -33 203 -97t62 -164q0 -139 -103 -221t-289 -82q-149 0 -265.5 54t-174.5 147z" />
<glyph unicode="t" horiz-adv-x="811" d="M51 924v102h223v315h113v-315h344v-102h-344v-791q0 -12 9 -21.5t22 -9.5h313v-102h-332q-52 0 -88.5 37t-36.5 90v797h-223z" />
<glyph unicode="u" horiz-adv-x="1226" d="M174 373v651h111v-623q0 -133 94.5 -227t228.5 -96q134 0 229 95t95 228v623h112v-1024h-110v201q-46 -101 -145.5 -164.5t-217.5 -63.5q-165 0 -281 117t-116 283z" />
<glyph unicode="v" horiz-adv-x="1075" d="M41 1024h123l379 -887l370 887h121l-432 -1024h-121z" />
<glyph unicode="w" horiz-adv-x="1681" d="M49 1030h113l311 -891l315 891h105l315 -891l310 891h116l-360 -1030h-123l-311 877l-310 -877h-122z" />
<glyph unicode="x" horiz-adv-x="1032" d="M45 0l397 528l-376 494h124l326 -418l318 418h124l-370 -496l397 -526h-127l-344 451l-342 -451h-127z" />
<glyph unicode="y" horiz-adv-x="1095" d="M49 -307h160q84 0 143.5 37.5t87.5 107.5l68 158l-449 1034h123l381 -895l375 895h119l-514 -1231q-41 -102 -123 -155.5t-195 -53.5h-176v103z" />
<glyph unicode="z" horiz-adv-x="997" d="M100 0v76l641 858h-622v96h768v-76l-641 -856h649v-98h-795z" />
<glyph unicode="{" horiz-adv-x="735" d="M98 590v100h15q86 0 121.5 37.5t35.5 126.5v391q0 152 56.5 211.5t199.5 59.5h133v-101h-104q-100 0 -137 -40t-37 -154v-367q0 -95 -33.5 -146.5t-107.5 -68.5q73 -17 107 -68t34 -145v-369q0 -114 37 -154t137 -40h104v-101h-133q-143 0 -199.5 59.5t-56.5 211.5v393 q0 88 -35.5 126t-121.5 38h-15z" />
<glyph unicode="|" horiz-adv-x="630" d="M266 -205v1772h99v-1772h-99z" />
<glyph unicode="}" horiz-adv-x="735" d="M78 -137h102q101 0 138.5 40t37.5 154v369q0 94 33.5 145t108.5 68q-75 17 -108.5 68t-33.5 147v367q0 114 -37.5 154t-138.5 40h-102v101h131q143 0 199.5 -59.5t56.5 -211.5v-391q0 -89 36 -126.5t122 -37.5h16v-100h-16q-86 0 -122 -38t-36 -126v-393 q0 -152 -56.5 -211.5t-199.5 -59.5h-131v101z" />
<glyph unicode="~" d="M287 559v103q119 94 245 94q64 0 199 -56.5t195 -56.5q117 0 241 98v-102q-123 -94 -239 -94q-55 0 -127 27.5l-144 55t-127 27.5q-62 0 -118.5 -22t-124.5 -74z" />
<glyph unicode="&#xa1;" horiz-adv-x="569" d="M221 968.5q6 24.5 31 37.5q26 14 50.5 8.5t37.5 -31.5q14 -25 7.5 -50t-30.5 -38q-26 -14 -50.5 -8t-37.5 31q-14 26 -8 50.5zM225 -403l8 1030h103l8 -1030h-119z" />
<glyph unicode="&#xa2;" horiz-adv-x="1159" d="M117 514q0 152 62 274t174.5 193t256.5 76v190h52v-190q134 -8 240 -73t169 -179l-86 -57q-51 92 -135.5 145t-187.5 59v-874q103 8 188 62t137 147l86 -58q-63 -115 -170 -181.5t-241 -74.5v-223h-52v223q-146 5 -258 74.5t-173.5 191t-61.5 275.5zM227 514 q0 -186 106 -306.5t277 -129.5v874q-171 -9 -277 -129.5t-106 -308.5z" />
<glyph unicode="&#xa3;" horiz-adv-x="1083" d="M61 664v88h177v309q0 189 101.5 294t283.5 105q137 0 241 -62t162 -179l-86 -58q-101 191 -311 191q-132 0 -204.5 -76t-72.5 -221v-303h525v-88h-525v-562h672v-102h-956v102h170v562h-177z" />
<glyph unicode="&#xa4;" horiz-adv-x="1146" d="M115 313l133 133q-84 111 -84 261q0 146 84 260l-131 131l57 57l133 -133q105 94 266 94q164 0 269 -94l133 133l57 -57l-131 -131q84 -111 84 -260q0 -152 -86 -261l133 -133l-57 -55l-133 131q-108 -94 -269 -94q-159 0 -266 96l-133 -133zM266 707q0 -140 85.5 -228 t221.5 -88t222 88t86 228t-86 227.5t-222 87.5t-221.5 -87.5t-85.5 -227.5z" />
<glyph unicode="&#xa5;" horiz-adv-x="1140" d="M27 1434h123l421 -709l420 709h123l-455 -762h355v-74h-385v-231h385v-74h-385v-293h-115v293h-381v74h381v231h-381v74h350z" />
<glyph unicode="&#xa6;" horiz-adv-x="630" d="M266 -205v697h99v-697h-99zM266 856v711h99v-711h-99z" />
<glyph unicode="&#xa7;" horiz-adv-x="1112" d="M125 -68l59 72q56 -83 158.5 -129.5t235.5 -46.5q143 0 214.5 57t71.5 158q0 81 -50.5 128t-166.5 75l-211 51q-280 65 -280 287q0 110 64 193t177 104q-118 34 -174.5 98.5t-56.5 167.5q0 150 105 231.5t298 81.5q140 0 241.5 -44t154.5 -126l-60 -69q-106 143 -336 143 q-288 0 -288 -215q0 -82 48.5 -127.5t164.5 -73.5l208 -51q144 -34 213.5 -104t69.5 -181q0 -113 -63.5 -195.5t-176.5 -103.5q121 -35 177.5 -100.5t56.5 -167.5q0 -145 -105.5 -229t-298.5 -84q-154 0 -273.5 53.5t-176.5 146.5zM266 598q0 -89 53.5 -140t174.5 -79 l61 -14q152 -30 235.5 39.5t83.5 191.5q0 90 -53 139.5t-174 79.5l-63 14q-81 15 -140.5 3t-99 -47.5t-59 -83t-19.5 -103.5z" />
<glyph unicode="&#xa8;" horiz-adv-x="1269" d="M332 1366q0 35 23.5 58.5t58.5 23.5q37 0 60.5 -23.5t23.5 -58.5t-23.5 -58.5t-60.5 -23.5q-35 0 -58.5 23.5t-23.5 58.5zM772 1366q0 35 23.5 58.5t60.5 23.5q36 0 59 -23t23 -59t-23 -59t-59 -23q-37 0 -60.5 23.5t-23.5 58.5z" />
<glyph unicode="&#xa9;" horiz-adv-x="1755" d="M139 717q-1 151 56.5 289t156 237.5t236.5 158.5t291 58q152 1 289.5 -58t235.5 -158.5t155.5 -237.5t56.5 -289q1 -151 -56.5 -289t-155.5 -238t-235.5 -159t-289.5 -58q-204 -1 -375 99t-268.5 271.5t-96.5 373.5zM209 717q0 -185 87 -340.5t241.5 -246.5t341.5 -91 q186 0 340 91t241 246.5t86 340.5q1 185 -86 340.5t-241 246.5t-340 91q-187 0 -341.5 -91t-241.5 -246.5t-87 -340.5zM500 717q0 186 108 299.5t289 113.5q111 0 199.5 -48t134.5 -138l-72 -47q-36 71 -105 108t-157 37q-134 0 -218.5 -88t-84.5 -237q0 -148 84.5 -237 t218.5 -89q87 0 156.5 38t105.5 108l72 -45q-46 -92 -134 -139.5t-200 -47.5q-180 0 -288.5 114t-108.5 298z" />
<glyph unicode="&#xab;" horiz-adv-x="1005" d="M78 516l299 428h123l-301 -428l301 -428h-123zM489 516l299 428h123l-299 -428l299 -428h-123z" />
<glyph unicode="&#xac;" d="M287 598v102h880v-325h-106v223h-774z" />
<glyph unicode="&#xad;" horiz-adv-x="815" d="M115 541v98h583v-98h-583z" />
<glyph unicode="&#xae;" horiz-adv-x="1171" d="M139 1014q0 186 130 317t317 131q188 0 317 -130.5t129 -317.5t-129 -317t-317 -130q-187 0 -317 130.5t-130 316.5zM197 1014q0 -165 112 -280.5t277 -115.5t277 115.5t112 280.5t-112 280t-277 115t-277 -115t-112 -280zM424 776v479h192q79 0 121.5 -37.5t42.5 -105.5 q0 -65 -37.5 -101.5t-107.5 -39.5l156 -195h-66l-150 193h-98v-193h-53zM477 1016h135q113 0 113 96q0 94 -113 94h-135v-190z" />
<glyph unicode="&#xaf;" horiz-adv-x="1333" d="M358 1249v92h617v-92h-617z" />
<glyph unicode="&#xb0;" horiz-adv-x="753" d="M88 1174q0 123 81.5 204.5t207.5 81.5q125 0 207 -82t82 -204q0 -124 -82 -205.5t-207 -81.5q-127 0 -208 81.5t-81 205.5zM172 1174q0 -93 57.5 -150t147.5 -57t146.5 57t56.5 150t-56.5 149.5t-146.5 56.5t-147.5 -56.5t-57.5 -149.5z" />
<glyph unicode="&#xb1;" d="M287 0v102h880v-102h-880zM287 639v100h387v373h108v-373h385v-100h-385v-373h-108v373h-387z" />
<glyph unicode="&#xb4;" horiz-adv-x="1269" d="M563 1196l252 326h133l-272 -326h-113z" />
<glyph unicode="&#xb5;" horiz-adv-x="1243" d="M184 -451v1481h111v-616q0 -336 295 -336q163 0 260.5 96.5t97.5 271.5v584h113v-1030h-103v223q-36 -116 -133.5 -183t-236.5 -67q-216 0 -293 174v-598h-111z" />
<glyph unicode="&#xb6;" horiz-adv-x="1308" d="M119 1137q0 132 99.5 214.5t291.5 82.5h115v-1700h-103v1106h-37q-176 0 -271 83.5t-95 213.5zM942 -266v1700h100v-1700h-100z" />
<glyph unicode="&#xb8;" horiz-adv-x="1269" d="M459 -403l143 415h100l-129 -415h-114z" />
<glyph unicode="&#xbb;" horiz-adv-x="1005" d="M94 88l301 428l-301 428h123l299 -428l-299 -428h-123zM508 88l299 428l-299 428h121l301 -428l-301 -428h-121z" />
<glyph unicode="&#xbf;" horiz-adv-x="929" d="M70 -106q0 87 40 161.5t132 149.5l94 78q72 61 91 99t19 116v129h109v-135q-2 -103 -28 -151.5t-126 -131.5l-98 -82q-123 -102 -123 -231q0 -106 71 -165t187 -59q115 0 208.5 60t148.5 174l84 -56q-62 -132 -178.5 -206t-264.5 -74q-163 0 -264.5 88t-101.5 236z M436 968.5q6 24.5 31 37.5q26 14 50.5 8.5t37.5 -31.5q14 -24 8.5 -49.5t-31.5 -38.5q-25 -14 -50 -7.5t-38 30.5q-14 26 -8 50.5z" />
<glyph unicode="&#xc0;" horiz-adv-x="1402" d="M37 0l594 1434h112l600 -1434h-122l-164 389h-733l-162 -389h-125zM362 492h658l-330 813zM414 1925h118l207 -326h-112z" />
<glyph unicode="&#xc1;" horiz-adv-x="1402" d="M37 0l594 1434h112l600 -1434h-122l-164 389h-733l-162 -389h-125zM362 492h658l-330 813zM635 1599l207 326h119l-213 -326h-113z" />
<glyph unicode="&#xc2;" horiz-adv-x="1402" d="M37 0l594 1434h112l600 -1434h-122l-164 389h-733l-162 -389h-125zM362 492h658l-330 813zM362 1599l287 326h113l289 -326h-117l-227 259l-230 -259h-115z" />
<glyph unicode="&#xc3;" horiz-adv-x="1402" d="M37 0l594 1434h112l600 -1434h-122l-164 389h-733l-162 -389h-125zM362 492h658l-330 813zM391 1653q0 104 43.5 162.5t116.5 58.5q41 0 79.5 -18.5t88.5 -61.5q36 -35 64.5 -49t60.5 -14q42 0 67 35t25 100h86q0 -106 -43.5 -165t-116.5 -59q-78 0 -170 80 q-67 64 -123 64q-43 0 -67.5 -34.5t-24.5 -98.5h-86z" />
<glyph unicode="&#xc4;" horiz-adv-x="1402" d="M37 0l594 1434h112l600 -1434h-122l-164 389h-733l-162 -389h-125zM362 492h658l-330 813zM403 1769q0 35 24 59.5t58 24.5q35 0 59.5 -24.5t24.5 -59.5t-24 -58t-60 -23q-34 0 -58 23t-24 58zM844 1769q0 35 24.5 59.5t59.5 24.5q34 0 58 -24.5t24 -59.5t-24 -58 t-58 -23q-36 0 -60 23t-24 58z" />
<glyph unicode="&#xc5;" horiz-adv-x="1402" d="M37 0l594 1434h112l600 -1434h-122l-164 389h-733l-162 -389h-125zM362 492h658l-330 813zM538.5 1767q-22.5 65 10.5 129q34 65 100.5 88t134.5 -8q67 -29 89.5 -95t-11.5 -130q-32 -64 -99 -86.5t-134 8.5q-68 29 -90.5 94zM575 1849q-12 -56 17.5 -98.5t87.5 -52.5 q59 -12 102.5 16t55.5 84q12 57 -17.5 99.5t-89.5 54.5q-58 12 -101 -17t-55 -86z" />
<glyph unicode="&#xc6;" horiz-adv-x="2209" d="M31 0l991 1434h1014v-109h-828v-547h791v-108h-791v-561h848v-109h-964v385h-656l-266 -385h-139zM500 485h592v852z" />
<glyph unicode="&#xc7;" horiz-adv-x="1579" d="M143 717q0 158 52.5 294.5t146 235t229 155t293.5 56.5q212 0 372 -97t243 -276l-99 -51q-68 151 -201.5 233.5t-314.5 82.5q-174 0 -311.5 -82t-213 -226t-75.5 -325q0 -182 75 -326t212.5 -225.5t312.5 -81.5q182 0 315.5 81.5t202.5 233.5l97 -57 q-79 -174 -232 -268.5t-358 -100.5l-117 -376h-113l132 380q-291 25 -469.5 231t-178.5 509z" />
<glyph unicode="&#xc8;" horiz-adv-x="1343" d="M227 0v1434h932v-107h-817v-594h784v-104h-784v-523h838v-106h-953zM489 1925h117l207 -326h-113z" />
<glyph unicode="&#xc9;" horiz-adv-x="1343" d="M225 0v1434h944v-107h-827v-555h786v-106h-786v-560h848v-106h-965zM573 1599l207 326h117l-211 -326h-113z" />
<glyph unicode="&#xca;" horiz-adv-x="1343" d="M227 0v1434h932v-107h-817v-594h784v-104h-784v-523h838v-106h-953zM342 1599l289 326h112l289 -326h-117l-229 259l-227 -259h-117z" />
<glyph unicode="&#xcb;" horiz-adv-x="1343" d="M227 0v1434h932v-107h-817v-594h784v-104h-784v-523h838v-106h-953zM383 1772q0 34 24.5 57.5t59.5 23.5q34 0 58 -23.5t24 -57.5q0 -35 -24 -59.5t-58 -24.5q-35 0 -59.5 24.5t-24.5 59.5zM823 1772q0 34 24.5 57.5t59.5 23.5q34 0 58 -23.5t24 -57.5q0 -35 -24 -59.5 t-58 -24.5q-35 0 -59.5 24.5t-24.5 59.5z" />
<glyph unicode="&#xcc;" horiz-adv-x="575" d="M18 1925h134l206 -326h-112zM229 0v1434h117v-1434h-117z" />
<glyph unicode="&#xcd;" horiz-adv-x="575" d="M229 0v1434h117v-1434h-117zM231 1595l207 326h133l-227 -326h-113z" />
<glyph unicode="&#xce;" horiz-adv-x="575" d="M-57 1599l288 326h113l289 -326h-117l-227 259l-230 -259h-116zM229 0v1434h117v-1434h-117z" />
<glyph unicode="&#xcf;" horiz-adv-x="575" d="M-16 1769q0 35 23.5 58.5t60.5 23.5q36 0 59 -23t23 -59q0 -35 -23 -58t-59 -23q-37 0 -60.5 23t-23.5 58zM229 0v1434h117v-1434h-117zM426 1769q0 35 23.5 58.5t58.5 23.5q37 0 60.5 -23.5t23.5 -58.5t-23.5 -58t-60.5 -23q-35 0 -58.5 23t-23.5 58z" />
<glyph unicode="&#xd0;" horiz-adv-x="1585" d="M43 670v94h219v670h469q327 0 521 -188.5t194 -528.5t-194 -528.5t-521 -188.5h-469v670h-219zM379 109h352q275 0 434.5 156.5t159.5 451.5t-159.5 451.5t-434.5 156.5h-352v-561h424v-94h-424v-561z" />
<glyph unicode="&#xd1;" horiz-adv-x="1613" d="M225 0v1434h107l942 -1244v1244h115v-1434h-109l-940 1239v-1239h-115zM492 1653q0 104 43 162.5t116 58.5q41 0 79.5 -18.5t88.5 -61.5q66 -63 125 -63q43 0 67.5 35t24.5 100h86q0 -106 -43 -165t-116 -59q-78 0 -170 80q-64 64 -123 64q-42 0 -67 -35t-25 -98h-86z " />
<glyph unicode="&#xd2;" horiz-adv-x="1734" d="M143 717q0 154 56.5 292t154 237t233 156.5t287.5 57.5q203 0 371 -98t264.5 -268.5t96.5 -376.5q0 -154 -57 -292t-154 -237t-233 -157t-288 -58t-287.5 58t-233 157t-154 237t-56.5 292zM262 717q0 -174 80.5 -319.5t221.5 -229.5t310 -84t310 84t222 229.5t81 319.5 t-81 319.5t-222 229.5t-310 84t-310 -84t-221.5 -229.5t-80.5 -319.5zM633 1925h119l206 -326h-112z" />
<glyph unicode="&#xd3;" horiz-adv-x="1734" d="M143 717q0 154 56.5 292t154 237t233 156.5t287.5 57.5q203 0 371 -98t264.5 -268.5t96.5 -376.5q0 -154 -57 -292t-154 -237t-233 -157t-288 -58t-287.5 58t-233 157t-154 237t-56.5 292zM262 717q0 -174 80.5 -319.5t221.5 -229.5t310 -84t310 84t222 229.5t81 319.5 t-81 319.5t-222 229.5t-310 84t-310 -84t-221.5 -229.5t-80.5 -319.5zM797 1599l207 326h118l-213 -326h-112z" />
<glyph unicode="&#xd4;" horiz-adv-x="1734" d="M143 717q0 154 56.5 292t154 237t233 156.5t287.5 57.5q203 0 371 -98t264.5 -268.5t96.5 -376.5q0 -154 -57 -292t-154 -237t-233 -157t-288 -58t-287.5 58t-233 157t-154 237t-56.5 292zM262 717q0 -174 80.5 -319.5t221.5 -229.5t310 -84t310 84t222 229.5t81 319.5 t-81 319.5t-222 229.5t-310 84t-310 -84t-221.5 -229.5t-80.5 -319.5zM522 1599l289 326h113l288 -326h-116l-230 259l-227 -259h-117z" />
<glyph unicode="&#xd5;" horiz-adv-x="1734" d="M139 717q-1 156 54.5 294t152 237t232 156t288.5 56q206 1 373 -96.5t261.5 -268t94.5 -378.5q0 -209 -94.5 -380t-261.5 -268t-373 -96q-205 -1 -372 96t-261.5 268t-93.5 380zM262 717q0 -274 172 -453.5t432 -179.5q129 0 241.5 47.5t193 131t126.5 201.5t46 253 t-46 253t-126.5 201.5t-193 131t-241.5 47.5q-260 0 -432 -179.5t-172 -453.5zM551 1653q0 104 44 162.5t116 58.5q41 0 79.5 -18.5t88.5 -61.5q68 -63 125 -63q43 0 67.5 35t24.5 100h88q0 -105 -44.5 -164.5t-117.5 -59.5q-76 0 -168 80q-67 64 -125 64q-42 0 -67 -35 t-25 -98h-86z" />
<glyph unicode="&#xd6;" horiz-adv-x="1734" d="M143 717q0 154 56.5 292t154 237t233 156.5t287.5 57.5q203 0 371 -98t264.5 -268.5t96.5 -376.5q0 -154 -57 -292t-154 -237t-233 -157t-288 -58t-287.5 58t-233 157t-154 237t-56.5 292zM262 717q0 -174 80.5 -319.5t221.5 -229.5t310 -84t310 84t222 229.5t81 319.5 t-81 319.5t-222 229.5t-310 84t-310 -84t-221.5 -229.5t-80.5 -319.5zM563 1772q0 34 24.5 57.5t59.5 23.5q34 0 58 -23.5t24 -57.5q0 -35 -24 -59.5t-58 -24.5q-35 0 -59.5 24.5t-24.5 59.5zM1004 1772q0 34 24 57.5t59 23.5q34 0 58 -23.5t24 -57.5q0 -35 -24 -59.5 t-58 -24.5q-35 0 -59 24.5t-24 59.5z" />
<glyph unicode="&#xd7;" d="M336 330l321 319l-321 320l72 71l319 -319l320 319l71 -71l-319 -320l319 -319l-71 -72l-320 322l-319 -322z" />
<glyph unicode="&#xd8;" horiz-adv-x="1734" d="M139 717q-1 156 54.5 294t152 237t232 156t288.5 56q288 0 492 -188l164 166l65 -66l-164 -164q172 -207 172 -491q0 -209 -94.5 -380t-261.5 -268t-373 -96q-287 0 -489 189l-164 -164l-63 65l161 164q-172 197 -172 490zM262 717q0 -240 135 -406l879 877 q-165 162 -410 162q-260 0 -432 -179.5t-172 -453.5zM457 246q165 -162 409 -162q129 0 241.5 47.5t193 131t126.5 201.5t46 253q0 235 -138 405z" />
<glyph unicode="&#xd9;" horiz-adv-x="1546" d="M221 537v897h115v-902q0 -144 58.5 -246.5t158 -151t229.5 -48.5q203 0 326 115t123 331v902h115v-897q0 -263 -157 -413.5t-407 -150.5q-161 0 -287 65.5t-200 194.5t-74 304zM500 1925h118l207 -326h-112z" />
<glyph unicode="&#xda;" horiz-adv-x="1546" d="M221 537v897h115v-902q0 -144 58.5 -246.5t158 -151t229.5 -48.5q203 0 326 115t123 331v902h115v-897q0 -263 -157 -413.5t-407 -150.5q-161 0 -287 65.5t-200 194.5t-74 304zM686 1599l207 326h119l-213 -326h-113z" />
<glyph unicode="&#xdb;" horiz-adv-x="1546" d="M221 537v897h115v-902q0 -144 58.5 -246.5t158 -151t229.5 -48.5q203 0 326 115t123 331v902h115v-897q0 -263 -157 -413.5t-407 -150.5q-161 0 -287 65.5t-200 194.5t-74 304zM428 1599l289 326h112l289 -326h-117l-227 259l-229 -259h-117z" />
<glyph unicode="&#xdc;" horiz-adv-x="1546" d="M221 537v897h115v-902q0 -144 58.5 -246.5t158 -151t229.5 -48.5q203 0 326 115t123 331v902h115v-897q0 -263 -157 -413.5t-407 -150.5q-161 0 -287 65.5t-200 194.5t-74 304zM469 1772q0 34 24.5 57.5t59.5 23.5q34 0 58 -23.5t24 -57.5q0 -35 -24 -59.5t-58 -24.5 q-35 0 -59.5 24.5t-24.5 59.5zM911 1772q0 34 24 57.5t58 23.5q35 0 59.5 -23.5t24.5 -57.5q0 -35 -24.5 -59.5t-59.5 -24.5q-34 0 -58 24.5t-24 59.5z" />
<glyph unicode="&#xdd;" horiz-adv-x="1271" d="M18 1434h136l491 -723l502 721l135 2l-577 -834v-600h-117v600zM557 1599l207 326h119l-211 -326h-115z" />
<glyph unicode="&#xde;" horiz-adv-x="1378" d="M225 0v1434h117v-260h434q241 0 369.5 -114t128.5 -325q0 -212 -128.5 -325t-369.5 -113h-434v-297h-117zM342 403h430q184 0 282.5 85t98.5 247q0 161 -98.5 245.5t-282.5 84.5h-430v-662z" />
<glyph unicode="&#xdf;" horiz-adv-x="1249" d="M184 0v1085q0 207 117 319t326 112q202 0 316 -103.5t114 -288.5q0 -146 -71 -238.5t-204 -121.5q174 -10 268.5 -107t94.5 -262q0 -188 -119 -291.5t-336 -103.5h-155v100h139q177 0 266.5 77t89.5 226q0 147 -88 222t-258 75h-152v103h66q167 0 257.5 79t90.5 232 q0 146 -82.5 223.5t-236.5 77.5q-162 0 -247 -86.5t-85 -247.5v-1081h-111z" />
<glyph unicode="&#xe0;" horiz-adv-x="1052" d="M109 291q0 129 92.5 208t257 100t391.5 -7v100q0 129 -73.5 196.5t-203.5 67.5q-221 0 -331 -165l-66 61q60 92 168.5 144.5t235.5 52.5q179 0 280 -98.5t101 -270.5v-680h-99v233q-37 -118 -140.5 -184.5t-254.5 -66.5q-166 0 -262 84t-96 225zM221 297q0 -107 71 -168 t197 -61q166 0 264.5 96.5t98.5 263.5v88q-192 28 -332 14t-219.5 -74t-79.5 -159zM346 1522h133l207 -326h-113z" />
<glyph unicode="&#xe1;" horiz-adv-x="1064" d="M109 291q0 129 94 208t260.5 100t394.5 -7l-2 100q0 130 -72 197t-200 67q-226 0 -336 -165l-66 61q60 92 168.5 144.5t233.5 52.5q185 0 284 -97.5t99 -271.5v-680h-99v233q-37 -118 -140.5 -184.5t-254.5 -66.5q-167 0 -265.5 84.5t-98.5 224.5zM221 297 q0 -107 74 -168t201 -61q167 0 264.5 96t97.5 264v88q-192 28 -333.5 14.5t-222.5 -74t-81 -159.5zM571 1196l207 326h111l-205 -326h-113z" />
<glyph unicode="&#xe2;" horiz-adv-x="1060" d="M109 291q0 129 92.5 208t257 100t391.5 -7v100q0 129 -73.5 196.5t-203.5 67.5q-221 0 -331 -165l-66 61q60 92 168.5 144.5t235.5 52.5q179 0 280 -98.5t101 -270.5v-680h-99v233q-37 -118 -140.5 -184.5t-254.5 -66.5q-166 0 -262 84t-96 225zM221 297q0 -107 71 -168 t197 -61q166 0 264.5 96.5t98.5 263.5v88q-192 28 -332 14t-219.5 -74t-79.5 -159zM264 1196l289 326h113l288 -326h-116l-228 258l-229 -258h-117z" />
<glyph unicode="&#xe3;" horiz-adv-x="1060" d="M109 291q0 129 92.5 208t257 100t391.5 -7v100q0 129 -73.5 196.5t-203.5 67.5q-221 0 -331 -165l-66 61q60 92 168.5 144.5t235.5 52.5q179 0 280 -98.5t101 -270.5v-680h-99v233q-37 -118 -140.5 -184.5t-254.5 -66.5q-166 0 -262 84t-96 225zM221 297q0 -107 71 -168 t197 -61q166 0 264.5 96.5t98.5 263.5v88q-192 28 -332 14t-219.5 -74t-79.5 -159zM346 1249q0 104 43.5 162.5t116.5 58.5q77 0 168 -79q67 -64 125 -64q43 0 67.5 35t24.5 100h86q0 -106 -43.5 -164.5t-116.5 -58.5q-83 0 -170 80q-63 63 -123 63q-42 0 -67 -35t-25 -98 h-86z" />
<glyph unicode="&#xe4;" horiz-adv-x="1077" d="M109 291q0 129 92.5 208t257 100t391.5 -7v100q0 129 -73.5 196.5t-203.5 67.5q-221 0 -331 -165l-66 61q60 92 168.5 144.5t235.5 52.5q179 0 280 -98.5t101 -270.5v-680h-99v233q-37 -118 -140.5 -184.5t-254.5 -66.5q-166 0 -262 84t-96 225zM221 297q0 -107 71 -168 t197 -61q166 0 264.5 96.5t98.5 263.5v88q-192 28 -332 14t-219.5 -74t-79.5 -159zM332 1368q0 34 24.5 58t59.5 24q34 0 58 -24t24 -58q0 -35 -24 -59.5t-58 -24.5q-35 0 -59.5 24.5t-24.5 59.5zM774 1368q0 34 24 58t58 24q35 0 59.5 -24t24.5 -58q0 -35 -24.5 -59.5 t-59.5 -24.5q-34 0 -58 24.5t-24 59.5z" />
<glyph unicode="&#xe5;" horiz-adv-x="1083" d="M109 291q0 129 92.5 208t257 100t391.5 -7v100q0 129 -73.5 196.5t-203.5 67.5q-221 0 -331 -165l-66 61q60 92 168.5 144.5t235.5 52.5q179 0 280 -98.5t101 -270.5v-680h-99v233q-37 -118 -140.5 -184.5t-254.5 -66.5q-166 0 -262 84t-96 225zM221 297q0 -107 71 -168 t197 -61q166 0 264.5 96.5t98.5 263.5v88q-192 28 -332 14t-219.5 -74t-79.5 -159zM403 1421q0 94 68 160t168 66t166.5 -65.5t66.5 -160.5q0 -96 -66 -160.5t-167 -64.5t-168.5 64.5t-67.5 160.5zM481 1421q0 -69 43 -111t115 -42q70 0 113 42t43 111q0 68 -43 111t-113 43 q-71 0 -114.5 -43t-43.5 -111z" />
<glyph unicode="&#xe6;" horiz-adv-x="1923" d="M78 291q0 129 92.5 208t257 100t391.5 -7v100q0 130 -73 197t-203 67q-222 0 -332 -165l-66 61q60 92 168.5 144.5t235.5 52.5q137 0 230 -59t128 -167q68 106 181 166t249 60q229 0 356.5 -148t118.5 -405h-878q0 -189 115.5 -306.5t296.5 -117.5q120 0 217.5 51.5 t154.5 144.5l70 -63q-66 -107 -185.5 -168.5t-261.5 -61.5q-155 0 -275 71.5t-185 197.5q-60 -130 -180 -196t-265 -66q-166 0 -262 84t-96 225zM190 297q0 -107 71.5 -168t197.5 -61q177 0 269.5 93t92.5 249v106q-192 28 -332 14t-219.5 -74t-79.5 -159zM934 571h768 q-3 176 -101.5 281.5t-263.5 105.5q-169 0 -281.5 -108.5t-121.5 -278.5z" />
<glyph unicode="&#xe7;" horiz-adv-x="1159" d="M117 514q0 237 144.5 390t369.5 153q144 0 259 -66t181 -186l-86 -57q-54 98 -145.5 151t-204.5 53q-182 0 -295 -121.5t-113 -316.5q0 -192 113.5 -314t294.5 -122q113 0 205 54.5t147 154.5l86 -58q-60 -111 -162 -177.5t-229 -76.5l-119 -378h-114l131 378 q-207 17 -335 166t-128 373z" />
<glyph unicode="&#xe8;" horiz-adv-x="1208" d="M109 512q0 235 145 386t371 151q228 0 355 -148t120 -405h-879q0 -189 114.5 -306.5t295.5 -117.5q120 0 219 52t156 144l69 -63q-66 -107 -185 -168.5t-261 -61.5q-231 0 -375.5 149.5t-144.5 387.5zM219 571h770q-3 176 -101.5 281.5t-262.5 105.5q-171 0 -284 -108.5 t-122 -278.5zM346 1522h133l207 -326h-113z" />
<glyph unicode="&#xe9;" horiz-adv-x="1220" d="M109 512q0 235 145 386t371 151q228 0 355 -148t120 -405h-879q0 -189 114.5 -306.5t295.5 -117.5q120 0 219 52t156 144l69 -63q-66 -107 -185 -168.5t-261 -61.5q-231 0 -375.5 149.5t-144.5 387.5zM219 571h770q-3 176 -101.5 281.5t-262.5 105.5q-171 0 -284 -108.5 t-122 -278.5zM545 1196l207 326h118l-213 -326h-112z" />
<glyph unicode="&#xea;" horiz-adv-x="1208" d="M109 512q0 235 145 386t371 151q228 0 355 -148t120 -405h-879q0 -189 114.5 -306.5t295.5 -117.5q120 0 219 52t156 144l69 -63q-66 -107 -185 -168.5t-261 -61.5q-231 0 -375.5 149.5t-144.5 387.5zM219 571h770q-3 176 -101.5 281.5t-262.5 105.5q-171 0 -284 -108.5 t-122 -278.5zM279 1196l288 326h113l289 -326h-117l-227 258l-230 -258h-116z" />
<glyph unicode="&#xeb;" horiz-adv-x="1208" d="M109 512q0 235 145 386t371 151q228 0 355 -148t120 -405h-879q0 -189 114.5 -306.5t295.5 -117.5q120 0 219 52t156 144l69 -63q-66 -107 -185 -168.5t-261 -61.5q-231 0 -375.5 149.5t-144.5 387.5zM219 571h770q-3 176 -101.5 281.5t-262.5 105.5q-171 0 -284 -108.5 t-122 -278.5zM301 1368q0 34 24.5 58t59.5 24q34 0 58 -24t24 -58q0 -35 -24 -59.5t-58 -24.5q-35 0 -59.5 24.5t-24.5 59.5zM743 1368q0 34 24 58t58 24q35 0 59.5 -24t24.5 -58q0 -35 -24.5 -59.5t-59.5 -24.5q-34 0 -58 24.5t-24 59.5z" />
<glyph unicode="&#xec;" horiz-adv-x="483" d="M-53 1522h119l227 -326h-113zM186 0v1024h111v-1024h-111z" />
<glyph unicode="&#xed;" horiz-adv-x="483" d="M178 1196l207 326h117l-211 -326h-113zM186 0v1024h111v-1024h-111z" />
<glyph unicode="&#xee;" horiz-adv-x="483" d="M-61 1196l249 326h109l248 -326h-107l-196 258l-197 -258h-106zM186 0v1024h111v-1024h-111z" />
<glyph unicode="&#xef;" horiz-adv-x="483" d="M-20 1366q0 35 20.5 56.5t52.5 21.5q33 0 53.5 -21.5t20.5 -56.5t-20.5 -55.5t-53.5 -20.5t-53 20.5t-20 55.5zM186 0v1024h111v-1024h-111zM356 1366q0 35 21 56.5t55 21.5q33 0 53.5 -21.5t20.5 -56.5t-20.5 -55.5t-53.5 -20.5q-34 0 -55 20.5t-21 55.5z" />
<glyph unicode="&#xf1;" horiz-adv-x="1228" d="M184 0v1024h111v-203q46 104 144.5 167t217.5 63q165 0 281.5 -117.5t116.5 -280.5v-653h-113v623q0 134 -94.5 228.5t-229.5 94.5q-133 0 -227 -94.5t-94 -228.5v-623h-113zM305 1249q0 104 44.5 162.5t117.5 58.5q74 0 168 -79q37 -35 65 -49.5t60 -14.5q42 0 67 35 t25 100h86q0 -105 -44 -164t-116 -59q-78 0 -170 80q-66 63 -123 63q-43 0 -67.5 -34.5t-24.5 -98.5h-88z" />
<glyph unicode="&#xf2;" horiz-adv-x="1286" d="M115 516q0 232 149.5 386.5t380.5 154.5q233 0 379.5 -154t146.5 -387q0 -151 -66.5 -275t-188 -196t-273.5 -72q-232 0 -380 153.5t-148 389.5zM229 516q0 -193 114.5 -315.5t299.5 -122.5q183 0 299.5 124t116.5 314q0 189 -115.5 313.5t-298.5 124.5 q-184 0 -300 -123.5t-116 -314.5zM444 1522h119l207 -326h-113z" />
<glyph unicode="&#xf3;" horiz-adv-x="1286" d="M115 516q0 232 149.5 386.5t380.5 154.5q233 0 379.5 -154t146.5 -387q0 -151 -66.5 -275t-188 -196t-273.5 -72q-232 0 -380 153.5t-148 389.5zM229 516q0 -193 114.5 -315.5t299.5 -122.5q183 0 299.5 124t116.5 314q0 189 -115.5 313.5t-298.5 124.5 q-184 0 -300 -123.5t-116 -314.5zM573 1196l207 326h119l-213 -326h-113z" />
<glyph unicode="&#xf4;" horiz-adv-x="1286" d="M115 516q0 232 149.5 386.5t380.5 154.5q233 0 379.5 -154t146.5 -387q0 -151 -66.5 -275t-188 -196t-273.5 -72q-232 0 -380 153.5t-148 389.5zM229 516q0 -193 114.5 -315.5t299.5 -122.5q183 0 299.5 124t116.5 314q0 189 -115.5 313.5t-298.5 124.5 q-184 0 -300 -123.5t-116 -314.5zM299 1196l287 326h112l289 -326h-117l-227 258l-229 -258h-115z" />
<glyph unicode="&#xf5;" horiz-adv-x="1286" d="M115 516q0 237 145.5 389t382.5 152t382.5 -152t145.5 -389q0 -239 -145.5 -391t-382.5 -152t-382.5 152t-145.5 391zM229 516q0 -199 114.5 -319.5t299.5 -120.5q184 0 299 121t115 319q0 197 -115 317.5t-299 120.5q-185 0 -299.5 -120.5t-114.5 -317.5zM328 1249 q0 104 43 162.5t116 58.5q77 0 168 -79q37 -35 65 -49.5t60 -14.5q42 0 67 35t25 100h86q0 -106 -43 -164.5t-116 -58.5q-78 0 -170 80q-66 63 -123 63q-43 0 -67.5 -34.5t-24.5 -98.5h-86z" />
<glyph unicode="&#xf6;" horiz-adv-x="1286" d="M115 516q0 232 149.5 386.5t380.5 154.5q233 0 379.5 -154t146.5 -387q0 -151 -66.5 -275t-188 -196t-273.5 -72q-232 0 -380 153.5t-148 389.5zM229 516q0 -193 114.5 -315.5t299.5 -122.5q183 0 299.5 124t116.5 314q0 189 -115.5 313.5t-298.5 124.5 q-184 0 -300 -123.5t-116 -314.5zM338 1368q0 34 24.5 58t59.5 24q34 0 58 -24t24 -58q0 -35 -24 -59.5t-58 -24.5q-35 0 -59.5 24.5t-24.5 59.5zM780 1368q0 34 24.5 58t59.5 24q34 0 58 -24t24 -58q0 -35 -24 -59.5t-58 -24.5q-35 0 -59.5 24.5t-24.5 59.5z" />
<glyph unicode="&#xf7;" d="M287 598v102h880v-102h-880zM647 274q0 35 24 58.5t58 23.5t57 -23.5t23 -58.5q0 -34 -23 -56.5t-57 -22.5t-58 23t-24 56zM647 1024q0 34 24 57t58 23t57 -23t23 -57q0 -35 -23 -58.5t-57 -23.5t-58 23.5t-24 58.5z" />
<glyph unicode="&#xf8;" horiz-adv-x="1294" d="M104 31l129 129q-114 145 -114 356q0 237 145.5 389t382.5 152q212 0 357 -129l126 129l60 -58l-129 -129q115 -146 115 -354q0 -238 -146 -390.5t-383 -152.5q-211 0 -356 129l-129 -131zM229 516q0 -172 88 -283l617 617q-111 111 -287 111q-186 0 -302 -123t-116 -322 zM362 180q108 -108 285 -108q187 0 302.5 122t115.5 322q0 161 -86 281z" />
<glyph unicode="&#xf9;" horiz-adv-x="1224" d="M174 379v645h111v-610q0 -168 76.5 -252t216.5 -84q157 0 255.5 95t98.5 257v594h112v-1024h-110v227q-39 -116 -144.5 -185t-250.5 -69q-175 0 -270 106t-95 300zM408 1522h118l207 -326h-112z" />
<glyph unicode="&#xfa;" horiz-adv-x="1224" d="M174 373v651h111v-623q0 -133 94.5 -227t228.5 -96q134 0 229 95t95 228v623h112v-1024h-110v201q-46 -101 -145.5 -164.5t-217.5 -63.5q-165 0 -281 117t-116 283zM485 1196l207 326h119l-211 -326h-115z" />
<glyph unicode="&#xfb;" horiz-adv-x="1224" d="M174 373v651h111v-623q0 -133 94.5 -227t228.5 -96q134 0 229 95t95 228v623h112v-1024h-110v201q-46 -101 -145.5 -164.5t-217.5 -63.5q-165 0 -281 117t-116 283zM264 1196l289 326h113l288 -326h-116l-230 258l-227 -258h-117z" />
<glyph unicode="&#xfc;" horiz-adv-x="1224" d="M174 373v651h111v-623q0 -133 94.5 -227t228.5 -96q134 0 229 95t95 228v623h112v-1024h-110v201q-46 -101 -145.5 -164.5t-217.5 -63.5q-165 0 -281 117t-116 283zM305 1368q0 34 24.5 58t59.5 24q34 0 58 -24t24 -58q0 -35 -24 -59.5t-58 -24.5q-35 0 -59.5 24.5 t-24.5 59.5zM745 1368q0 34 24.5 58t59.5 24q34 0 58 -24t24 -58q0 -35 -24 -59.5t-58 -24.5q-35 0 -59.5 24.5t-24.5 59.5z" />
<glyph unicode="&#xfd;" horiz-adv-x="1079" d="M47 1024h121l383 -895l369 895h120l-501 -1194q-58 -139 -133.5 -189.5t-215.5 -50.5h-141v101h127q106 0 161 36t95 132l60 137zM420 1196l207 326h116l-211 -326h-112z" />
<glyph unicode="&#xfe;" horiz-adv-x="1335" d="M184 -391v1825h103v-678q51 134 169 213.5t267 79.5q226 0 361 -148t135 -389q0 -236 -138 -386.5t-358 -150.5q-155 0 -270.5 81.5t-159.5 207.5v-655h-109zM293 512q0 -192 114.5 -315t292.5 -123q180 0 293 122t113 316t-113.5 315t-294.5 121q-177 0 -291 -122.5 t-114 -313.5z" />
<glyph unicode="&#xff;" horiz-adv-x="1079" d="M47 1030h121l383 -901l369 901h120l-501 -1200q-58 -139 -133.5 -189.5t-215.5 -50.5h-141v101h127q106 0 161 36t95 132l60 137zM238 1368q0 34 24.5 58t59.5 24q34 0 57.5 -24t23.5 -58q0 -35 -23.5 -59.5t-57.5 -24.5q-35 0 -59.5 24.5t-24.5 59.5zM680 1368 q0 34 24 58t58 24q35 0 59.5 -24t24.5 -58q0 -35 -24.5 -59.5t-59.5 -24.5q-34 0 -58 24.5t-24 59.5z" />
<glyph unicode="&#x152;" horiz-adv-x="2279" d="M139 717q-1 209 93.5 373.5t260.5 254.5t373 89h1239v-107h-827v-551h786v-104h-786v-566h848v-106h-1260q-208 0 -373.5 89.5t-259.5 253.5t-94 374zM262 717q0 -135 46 -249.5t126 -192.5t191.5 -122t240.5 -44h295v1216h-295q-129 0 -240.5 -44t-191.5 -122 t-126 -192.5t-46 -249.5z" />
<glyph unicode="&#x153;" horiz-adv-x="2160" d="M115 516q0 232 149.5 386.5t380.5 154.5q161 0 284.5 -77t186.5 -210q64 130 184.5 204.5t274.5 74.5q229 0 356.5 -148t118.5 -405h-879q0 -189 115.5 -306.5t296.5 -117.5q120 0 218 51.5t155 144.5l69 -63q-66 -107 -185 -168.5t-261 -61.5q-159 0 -282 75.5 t-185 207.5q-64 -132 -187.5 -208.5t-281.5 -76.5q-232 0 -380 153.5t-148 389.5zM229 516q0 -193 114.5 -315.5t299.5 -122.5q183 0 299.5 124t116.5 314q0 189 -115.5 313.5t-298.5 124.5q-184 0 -300 -123.5t-116 -314.5zM1171 571h768q-3 176 -101 281.5t-263 105.5 q-170 0 -282.5 -109t-121.5 -278z" />
<glyph unicode="&#x178;" horiz-adv-x="1271" d="M18 1434h136l491 -723l502 721l135 2l-577 -834v-600h-117v600zM332 1769q0 35 23.5 58.5t60.5 23.5q36 0 59 -23t23 -59q0 -35 -23 -58t-59 -23q-37 0 -60.5 23t-23.5 58zM774 1769q0 35 23.5 58.5t58.5 23.5q37 0 60.5 -23.5t23.5 -58.5t-23.5 -58t-60.5 -23 q-35 0 -58.5 23t-23.5 58z" />
<glyph unicode="&#x2c6;" horiz-adv-x="1269" d="M291 1196l289 326h112l287 -326h-115l-229 258l-227 -258h-117z" />
<glyph unicode="&#x2dc;" horiz-adv-x="1269" d="M319 1249q0 104 43.5 162.5t116.5 58.5q77 0 168 -79q67 -64 125 -64q43 0 67.5 35t24.5 100h86q0 -106 -43 -164.5t-116 -58.5q-78 0 -170 80q-63 63 -123 63q-42 0 -67 -35t-25 -98h-87z" />
<glyph unicode="&#x2000;" horiz-adv-x="996" />
<glyph unicode="&#x2001;" horiz-adv-x="1993" />
<glyph unicode="&#x2002;" horiz-adv-x="996" />
<glyph unicode="&#x2003;" horiz-adv-x="1993" />
<glyph unicode="&#x2004;" horiz-adv-x="664" />
<glyph unicode="&#x2005;" horiz-adv-x="498" />
<glyph unicode="&#x2006;" horiz-adv-x="332" />
<glyph unicode="&#x2007;" horiz-adv-x="332" />
<glyph unicode="&#x2008;" horiz-adv-x="249" />
<glyph unicode="&#x2009;" horiz-adv-x="398" />
<glyph unicode="&#x200a;" horiz-adv-x="110" />
<glyph unicode="&#x2010;" horiz-adv-x="815" d="M115 541v98h583v-98h-583z" />
<glyph unicode="&#x2011;" horiz-adv-x="815" d="M115 541v98h583v-98h-583z" />
<glyph unicode="&#x2012;" horiz-adv-x="815" d="M115 541v98h583v-98h-583z" />
<glyph unicode="&#x2013;" horiz-adv-x="1255" d="M115 541v96h1024v-96h-1024z" />
<glyph unicode="&#x2014;" horiz-adv-x="2279" d="M115 541v96h2050v-96h-2050z" />
<glyph unicode="&#x2018;" horiz-adv-x="428" d="M94 967l139 493h99l-123 -493h-115z" />
<glyph unicode="&#x2019;" horiz-adv-x="428" d="M94 967l123 493h115l-139 -493h-99z" />
<glyph unicode="&#x201a;" horiz-adv-x="417" d="M74 -291l123 494h114l-139 -494h-98z" />
<glyph unicode="&#x201c;" horiz-adv-x="759" d="M94 967l139 493h99l-123 -493h-115zM428 967l139 493h99l-123 -493h-115z" />
<glyph unicode="&#x201d;" horiz-adv-x="759" d="M94 967l123 493h115l-139 -493h-99zM428 967l123 493h115l-140 -493h-98z" />
<glyph unicode="&#x201e;" horiz-adv-x="749" d="M74 -291l123 494h114l-139 -494h-98zM408 -291l122 494h115l-139 -494h-98z" />
<glyph unicode="&#x2022;" horiz-adv-x="964" d="M321.5 701.5q-13.5 65.5 24.5 123.5t102.5 71t122.5 -24q60 -38 73 -102.5t-26 -124.5q-36 -58 -101.5 -71t-123.5 24q-58 38 -71.5 103.5z" />
<glyph unicode="&#x2026;" horiz-adv-x="1404" d="M174 97.5q6 24.5 31 37.5q59 30 86 -22q14 -24 8.5 -49.5t-31.5 -38.5q-25 -14 -49 -8t-37 30q-14 26 -8 50.5zM640.5 97.5q5.5 24.5 31.5 37.5q24 14 48.5 8.5t37.5 -30.5q14 -24 8.5 -49.5t-31.5 -38.5q-25 -14 -49 -8t-37 30q-14 26 -8.5 50.5zM1106 97.5 q6 24.5 31 37.5q26 14 50.5 8.5t37.5 -30.5q14 -25 7.5 -50t-30.5 -38q-26 -14 -50.5 -8t-37.5 30q-14 26 -8 50.5z" />
<glyph unicode="&#x202f;" horiz-adv-x="398" />
<glyph unicode="&#x2039;" horiz-adv-x="593" d="M78 516l299 428h123l-301 -428l301 -428h-123z" />
<glyph unicode="&#x203a;" horiz-adv-x="593" d="M94 88l301 428l-301 428h123l299 -428l-299 -428h-123z" />
<glyph unicode="&#x205f;" horiz-adv-x="498" />
<glyph unicode="&#x20ac;" horiz-adv-x="1300" d="M74 528v74h182q-6 53 -6 115q0 61 6 114h-182v74h190q40 253 177.5 404t330.5 151q155 0 272 -98.5t170 -267.5l-96 -41q-44 143 -136 222t-210 79q-146 0 -251.5 -122t-137.5 -327h520v-74h-530q-6 -35 -6 -114q0 -80 6 -115h530v-74h-520q32 -204 137.5 -326 t251.5 -122q118 0 210 79t136 222l96 -41q-53 -168 -170.5 -267.5t-271.5 -99.5q-193 0 -330.5 151t-177.5 404h-190z" />
<glyph unicode="&#x25fc;" horiz-adv-x="1024" d="M0 0v1024h1024v-1024h-1024z" />
</font>
</defs>
</svg>
