<svg width="16" height="16" viewBox="0 0 16 16" fill="none" xmlns="http://www.w3.org/2000/svg">
<path d="M15.6093 2.66667L13.138 0.195333L12.1953 1.138L13.3333 2.276V4C13.3333 4.35362 13.4738 4.69276 13.7239 4.94281C13.9739 5.19286 14.313 5.33333 14.6667 5.33333V12C14.6667 12.1768 14.5964 12.3464 14.4714 12.4714C14.3464 12.5964 14.1768 12.6667 14 12.6667C13.8232 12.6667 13.6536 12.5964 13.5286 12.4714C13.4036 12.3464 13.3333 12.1768 13.3333 12V11.3333C13.3333 10.8029 13.1226 10.2942 12.7475 9.91912C12.3725 9.54405 11.8638 9.33333 11.3333 9.33333H10.6667V2C10.6667 1.46957 10.456 0.960859 10.0809 0.585786C9.70581 0.210714 9.1971 0 8.66667 0L2 0C1.46957 0 0.960859 0.210714 0.585786 0.585786C0.210714 0.960859 0 1.46957 0 2L0 16H10.6667V10.6667H11.3333C11.5101 10.6667 11.6797 10.7369 11.8047 10.8619C11.9298 10.987 12 11.1565 12 11.3333V12C12 12.5304 12.2107 13.0391 12.5858 13.4142C12.9609 13.7893 13.4696 14 14 14C14.5304 14 15.0391 13.7893 15.4142 13.4142C15.7893 13.0391 16 12.5304 16 12V3.60933C15.9991 3.2559 15.8587 2.91711 15.6093 2.66667ZM2 1.33333H8.66667C8.84348 1.33333 9.01305 1.40357 9.13807 1.5286C9.26309 1.65362 9.33333 1.82319 9.33333 2V6H1.33333V2C1.33333 1.82319 1.40357 1.65362 1.5286 1.5286C1.65362 1.40357 1.82319 1.33333 2 1.33333ZM1.33333 14.6667V7.33333H9.33333V14.6667H1.33333Z" fill="#A8A8A8"/>
</svg>
