<svg width="16" height="16" viewBox="0 0 16 16" fill="none" xmlns="http://www.w3.org/2000/svg">
<path d="M16 2.09369C16 0.93915 15.0606 0 13.9063 0C12.752 0 11.8127 0.93915 11.8127 2.09369C11.8127 3.0305 12.4312 3.82574 13.2815 4.09223V7.37515H8.68777V4.09223C9.53784 3.82574 10.1566 3.03073 10.1566 2.09369C10.1566 0.93915 9.21722 0 8.06293 0C6.90864 0 5.96927 0.93915 5.96927 2.09369C5.96927 3.0305 6.58778 3.82574 7.43809 4.09223V7.37515H2.71874V4.09223C3.56881 3.82574 4.18756 3.03073 4.18756 2.09369C4.18756 0.93915 3.24819 0 2.09366 0C0.939136 0 0 0.93915 0 2.09369C0 3.0305 0.618513 3.82574 1.46882 4.09223V11.9078C0.618747 12.1743 0 12.9693 0 13.9063C0 15.0609 0.939136 16 2.09366 16C3.24819 16 4.18732 15.0606 4.18732 13.9063C4.18732 12.9695 3.56881 12.1743 2.7185 11.9078V8.62485H7.43715V11.9078C6.58708 12.1743 5.96833 12.9693 5.96833 13.9063C5.96833 15.0609 6.90747 16 8.06199 16C9.21652 16 10.1557 15.0606 10.1557 13.9063C10.1557 12.9695 9.53714 12.1743 8.68683 11.9078V8.62485H14.5305V4.09199C15.3805 3.82551 15.9993 3.0305 15.9993 2.09346L16 2.09369ZM8.06246 1.24993C8.52769 1.24993 8.90621 1.62845 8.90621 2.09369C8.90621 2.55893 8.52769 2.93745 8.06246 2.93745C7.59723 2.93745 7.21872 2.55893 7.21872 2.09369C7.21872 1.62845 7.59723 1.24993 8.06246 1.24993ZM2.09366 1.24993C2.55889 1.24993 2.93741 1.62845 2.93741 2.09369C2.93741 2.55893 2.55889 2.93745 2.09366 2.93745C1.62843 2.93745 1.24992 2.55893 1.24992 2.09369C1.24992 1.62845 1.62843 1.24993 2.09366 1.24993ZM2.09366 14.7501C1.62843 14.7501 1.24992 14.3715 1.24992 13.9063C1.24992 13.4411 1.62843 13.0625 2.09366 13.0625C2.55889 13.0625 2.93741 13.4411 2.93741 13.9063C2.93741 14.3715 2.55889 14.7501 2.09366 14.7501ZM8.06246 14.7501C7.59723 14.7501 7.21872 14.3715 7.21872 13.9063C7.21872 13.4411 7.59723 13.0625 8.06246 13.0625C8.52769 13.0625 8.90621 13.4411 8.90621 13.9063C8.90621 14.3715 8.52769 14.7501 8.06246 14.7501ZM13.9061 2.93745C13.4409 2.93745 13.0624 2.55893 13.0624 2.09369C13.0624 1.62845 13.4409 1.24993 13.9061 1.24993C14.3713 1.24993 14.7499 1.62845 14.7499 2.09369C14.7499 2.55893 14.3713 2.93745 13.9061 2.93745Z" fill="#A8A8A8"/>
</svg>
