<svg width="17" height="18" viewBox="0 0 17 18" fill="none" xmlns="http://www.w3.org/2000/svg">
<g clip-path="url(#clip0_974_5704)">
<path d="M16.9674 4.4256L11.0047 10.3883C10.3398 11.0515 9.43907 11.424 8.5 11.424C7.56093 11.424 6.66019 11.0515 5.99533 10.3883L0.0325833 4.4256C0.0226667 4.53751 0 4.63881 0 4.75001V13.25C0.00112473 14.189 0.374625 15.0892 1.03857 15.7531C1.70252 16.4171 2.6027 16.7906 3.54167 16.7917H13.4583C14.3973 16.7906 15.2975 16.4171 15.9614 15.7531C16.6254 15.0892 16.9989 14.189 17 13.25V4.75001C17 4.63881 16.9773 4.53751 16.9674 4.4256Z" fill="#0078BE"/>
<path d="M10.0029 9.38673L16.4729 2.9161C16.1594 2.39641 15.7174 1.96626 15.1893 1.66712C14.6613 1.36799 14.0651 1.20997 13.4582 1.20831H3.54152C2.93464 1.20997 2.33842 1.36799 1.81037 1.66712C1.28233 1.96626 0.840278 2.39641 0.526855 2.9161L6.99677 9.38673C7.39597 9.78433 7.93644 10.0076 8.49986 10.0076C9.06327 10.0076 9.60374 9.78433 10.0029 9.38673Z" fill="#0078BE"/>
</g>
<defs>
<clipPath id="clip0_974_5704">
<rect width="17" height="17" fill="white" transform="translate(0 0.5)"/>
</clipPath>
</defs>
</svg>
