<svg width="16" height="18" viewBox="0 0 16 18" fill="none" xmlns="http://www.w3.org/2000/svg">
<path d="M15.3068 12.9763L13.1501 10.6039C12.3798 9.75659 11.0704 10.0955 10.7623 11.197C10.5312 11.9596 9.76093 12.3832 9.06769 12.2137C7.52716 11.7901 5.44745 9.58713 5.06232 7.80782C4.83124 7.04523 5.2934 6.19794 5.98663 5.94378C6.98798 5.60487 7.29608 4.16447 6.52582 3.31718L4.36908 0.944767C3.75287 0.351663 2.82855 0.351663 2.28937 0.944767L0.825865 2.55462C-0.637637 4.2492 0.979918 8.73984 4.60016 12.7221C8.2204 16.7044 12.3028 18.5684 13.8433 16.8738L15.3068 15.264C15.846 14.5861 15.846 13.5694 15.3068 12.9763Z" fill="#0078BE"/>
</svg>
