<svg width="19" height="15" viewBox="0 0 19 15" fill="none" xmlns="http://www.w3.org/2000/svg">
<path d="M18.9636 3.05713L12.2993 8.72327C11.5563 9.35347 10.5495 9.70737 9.5 9.70737C8.45045 9.70737 7.44375 9.35347 6.70067 8.72327L0.0364167 3.05713C0.0253333 3.16348 0 3.25973 0 3.36541V11.4426C0.00125705 12.3348 0.418698 13.1903 1.16076 13.8212C1.90282 14.4521 2.9089 14.807 3.95833 14.8081H15.0417C16.0911 14.807 17.0972 14.4521 17.8392 13.8212C18.5813 13.1903 18.9987 12.3348 19 11.4426V3.36541C19 3.25973 18.9747 3.16348 18.9636 3.05713Z" fill="white"/>
<path d="M11.1808 7.7716L18.4118 1.62284C18.0615 1.129 17.5675 0.720241 16.9773 0.435986C16.3872 0.151732 15.7208 0.0015755 15.0425 0H3.95918C3.28089 0.0015755 2.61453 0.151732 2.02436 0.435986C1.4342 0.720241 0.940139 1.129 0.589844 1.62284L7.82093 7.7716C8.26709 8.14942 8.87114 8.36155 9.50084 8.36155C10.1305 8.36155 10.7346 8.14942 11.1808 7.7716Z" fill="white"/>
</svg>
