<svg width="18" height="18" viewBox="0 0 18 18" fill="none" xmlns="http://www.w3.org/2000/svg">
<path d="M16.5698 12.5143L14.1902 10.1347C13.3403 9.28482 11.8955 9.62481 11.5556 10.7296C11.3006 11.4945 10.4508 11.9195 9.68588 11.7494C7.98614 11.3245 5.69149 9.11485 5.26656 7.33012C5.0116 6.56521 5.52152 5.71534 6.2864 5.46041C7.39123 5.12046 7.73118 3.67569 6.88131 2.82582L4.50168 0.446181C3.82178 -0.148727 2.80194 -0.148727 2.20703 0.446181L0.59228 2.06093C-1.02247 3.76067 0.762254 8.26498 4.75664 12.2594C8.75103 16.2538 13.2553 18.1235 14.9551 16.4237L16.5698 14.809C17.1648 14.1291 17.1648 13.1092 16.5698 12.5143Z" fill="#0078BE"/>
</svg>
