<svg width="16" height="16" viewBox="0 0 16 16" fill="none" xmlns="http://www.w3.org/2000/svg">
<path fill-rule="evenodd" clip-rule="evenodd" d="M13.6688 2.23212C12.1648 0.793475 10.1645 0.000843722 8.03346 0C3.64233 0 0.0685899 3.41417 0.0668237 7.61048C0.0662349 8.95191 0.433029 10.2614 1.13021 11.4156L0 15.3595L4.22324 14.3011C5.38691 14.9076 6.69699 15.2271 8.03022 15.2275H8.03356C12.4242 15.2275 15.9983 11.8131 16 7.61657C16.0009 5.58283 15.173 3.67067 13.6688 2.23212ZM8.03326 13.9421H8.03052C6.84241 13.9417 5.67716 13.6366 4.66038 13.0604L4.41869 12.9232L1.91255 13.5513L2.58148 11.2169L2.42399 10.9776C1.76115 9.97037 1.41113 8.80621 1.41172 7.61094C1.41309 4.12308 4.38356 1.28545 8.03591 1.28545C9.80454 1.28601 11.4671 1.94487 12.7172 3.14061C13.9673 4.33635 14.6554 5.92574 14.6548 7.6161C14.6532 11.1042 11.683 13.9421 8.03326 13.9421ZM10.3051 8.58554C10.4877 8.6491 11.4664 9.10902 11.6654 9.20427C11.7044 9.22297 11.7409 9.23982 11.7748 9.25545C11.9133 9.3194 12.0069 9.36261 12.0468 9.42636C12.0966 9.50576 12.0966 9.88647 11.9308 10.3307C11.7648 10.7749 10.9697 11.1804 10.5872 11.235C10.2441 11.284 9.8103 11.3044 9.33341 11.1596C9.04423 11.072 8.67351 10.9551 8.19858 10.759C6.33259 9.98925 5.07142 8.26132 4.83303 7.93471C4.81633 7.91182 4.80464 7.89581 4.79813 7.8875L4.79635 7.88522C4.69043 7.75013 3.98535 6.85088 3.98535 5.92021C3.98535 5.04426 4.43561 4.58518 4.64292 4.3738C4.65715 4.3593 4.67023 4.34596 4.68195 4.33373C4.86446 4.14323 5.08014 4.0957 5.21281 4.0957C5.34557 4.0957 5.47834 4.09683 5.59432 4.10236C5.6086 4.10304 5.62345 4.10295 5.6388 4.10287C5.75486 4.10222 5.89944 4.10141 6.04227 4.42879C6.09679 4.55402 6.17642 4.73925 6.26051 4.93489C6.4322 5.33429 6.62252 5.77703 6.65585 5.8409C6.7057 5.93605 6.73896 6.04714 6.67253 6.17408C6.6062 6.30092 6.39042 6.56894 6.17493 6.82459C6.16571 6.83551 6.15621 6.8463 6.1467 6.8571C6.06513 6.94969 5.98372 7.04209 6.0876 7.2127C6.20378 7.40301 6.60325 8.02577 7.19495 8.53004C7.83128 9.07223 8.38424 9.30138 8.66442 9.41748C8.71904 9.44012 8.76329 9.45846 8.79578 9.47398C8.99487 9.56923 9.11086 9.55329 9.22704 9.42636C9.34322 9.29952 9.72464 8.87109 9.8574 8.68079C9.98997 8.49048 10.1228 8.52207 10.3051 8.58554Z" fill="white"/>
</svg>
