<svg width="16" height="15" viewBox="0 0 16 15" fill="none" xmlns="http://www.w3.org/2000/svg">
<path d="M15.5646 11.0085L13.3317 8.91519C12.5343 8.16759 11.1786 8.46666 10.8596 9.43852C10.6204 10.1114 9.82296 10.4852 9.10526 10.3356C7.51037 9.96184 5.35726 8.01807 4.95854 6.4481C4.71931 5.77522 5.19778 5.02762 5.91548 4.80336C6.95216 4.50432 7.27113 3.23339 6.47369 2.48579L4.24084 0.392493C3.60288 -0.130831 2.64595 -0.130831 2.08774 0.392493L0.572591 1.81294C-0.942555 3.30815 0.73208 7.27046 4.48007 10.7842C8.22807 14.298 12.4545 15.9427 14.0494 14.4475L15.5646 13.027C16.1228 12.4289 16.1228 11.5318 15.5646 11.0085Z" fill="white"/>
</svg>
