<svg width="18" height="16" viewBox="0 0 18 16" fill="none" xmlns="http://www.w3.org/2000/svg">
<path d="M10.4538 8.25042C10.5396 8.556 10.5174 8.88007 10.3906 9.17236C10.2639 9.46465 10.0397 9.70883 9.75281 9.86703C9.46592 10.0252 9.1324 10.0886 8.80396 10.0473C8.47552 10.006 8.17053 9.86238 7.93628 9.63868C7.70204 9.41497 7.55164 9.1237 7.5084 8.81004C7.46517 8.49638 7.53152 8.17786 7.69717 7.90389C7.86282 7.62991 8.11851 7.4158 8.42457 7.29475C8.73063 7.1737 9.06997 7.15248 9.38994 7.23439L12.6065 4.16258L13.6704 5.17861L10.4538 8.25042ZM9.0002 1.41803e-05C0.252734 -0.0129197 -3.34978 10.9004 3.81763 15.6774L4.29842 16L6.48039 14.1964L5.4985 13.1085L4.21942 14.1648C-1.19489 9.95051 2.00283 1.41197 9.0002 1.43712C15.9976 1.41197 19.196 9.95123 13.7802 14.1648L12.5011 13.1085L11.517 14.1964L13.699 16L14.1798 15.6774C21.3532 10.8983 17.7439 -0.0143568 9.0002 1.41803e-05Z" fill="#A8A8A8"/>
</svg>
