<svg width="14" height="15" viewBox="0 0 14 15" fill="none" xmlns="http://www.w3.org/2000/svg">
<path fill-rule="evenodd" clip-rule="evenodd" d="M4.47425 1.25H9.53175C11.5092 1.25 12.8334 2.7375 12.8334 4.95V10.0569C12.8334 12.2625 11.5092 13.75 9.53175 13.75H4.47425C2.49675 13.75 1.16675 12.2625 1.16675 10.0569V4.95C1.16675 2.7375 2.49675 1.25 4.47425 1.25ZM6.66758 9.36875L9.43841 6.4C9.63675 6.1875 9.63675 5.84375 9.43841 5.625C9.24008 5.4125 8.91341 5.4125 8.71508 5.625L6.30591 8.20625L5.28508 7.1125C5.08675 6.9 4.76008 6.9 4.56175 7.1125C4.36341 7.325 4.36341 7.66875 4.56175 7.8875L5.95008 9.36875C6.04925 9.475 6.17758 9.525 6.30591 9.525C6.44008 9.525 6.56841 9.475 6.66758 9.36875Z" fill="#0078BE"/>
</svg>
