<svg width="16" height="17" viewBox="0 0 16 17" fill="none" xmlns="http://www.w3.org/2000/svg">
<path fill-rule="evenodd" clip-rule="evenodd" d="M13.3059 2.83906C11.9026 1.34628 10.0363 0.523825 8.04807 0.522949C3.95108 0.522949 0.61673 4.0656 0.615082 8.41981C0.614532 9.81172 0.956757 11.1705 1.60724 12.3681L0.552734 16.4604L4.49307 15.3622C5.5788 15.9915 6.80112 16.3231 8.04504 16.3235H8.04816C12.1447 16.3235 15.4794 12.7805 15.481 8.42614C15.4818 6.31586 14.7094 4.33174 13.3059 2.83906ZM8.04807 14.9898H8.0455C6.93698 14.9893 5.84979 14.6727 4.90112 14.0748L4.67563 13.9325L2.33737 14.5842L2.96149 12.162L2.81454 11.9136C2.19611 10.8685 1.86954 9.66055 1.87009 8.4203C1.87137 4.80119 4.64285 1.85678 8.05054 1.85678C9.70068 1.85736 11.2519 2.54101 12.4182 3.78175C13.5846 5.02249 14.2266 6.67169 14.226 8.42565C14.2246 12.045 11.4533 14.9898 8.04807 14.9898ZM11.4368 10.0736C11.2511 9.97475 10.338 9.49752 10.1677 9.43157C9.99759 9.36571 9.87363 9.33293 9.74994 9.5304C9.62607 9.72787 9.2702 10.1724 9.16181 10.304C9.05341 10.4357 8.94519 10.4523 8.75943 10.3534C8.57367 10.2547 7.97528 10.0462 7.26584 9.37398C6.71378 8.85074 6.34106 8.20454 6.23267 8.00708C6.12445 7.80941 6.23175 7.71292 6.31415 7.60436C6.5152 7.33909 6.71652 7.06098 6.77841 6.92937C6.84039 6.79766 6.80936 6.68239 6.76285 6.58365C6.71652 6.48492 6.34509 5.51363 6.19037 5.1184C6.03949 4.73378 5.88651 4.78572 5.77243 4.77969C5.66422 4.77395 5.54034 4.77279 5.41647 4.77279C5.29269 4.77279 5.09146 4.82211 4.92117 5.01977C4.75098 5.21733 4.27124 5.69466 4.27124 6.66595C4.27124 7.63724 4.93674 8.57555 5.02957 8.70726C5.12241 8.83897 6.33923 10.8321 8.20224 11.6868C8.64536 11.8903 8.99124 12.0116 9.26105 12.1025C9.70599 12.2527 10.1107 12.2315 10.4308 12.1807C10.7877 12.124 11.5295 11.7033 11.6844 11.2424C11.8392 10.7815 11.8392 10.3864 11.7927 10.304C11.7463 10.2217 11.6225 10.1724 11.4368 10.0736Z" fill="white"/>
</svg>
