<svg width="16" height="18" viewBox="0 0 16 18" fill="none" xmlns="http://www.w3.org/2000/svg">
<path d="M15.5503 13.1194L13.3625 10.7076C12.5811 9.84625 11.2528 10.1908 10.9403 11.3105C10.7059 12.0858 9.92456 12.5165 9.22135 12.3442C7.65865 11.9135 5.54901 9.67398 5.15834 7.86515C4.92394 7.08991 5.39274 6.22856 6.09596 5.97019C7.11171 5.62565 7.42425 4.16136 6.6429 3.30001L4.45513 0.888242C3.83005 0.285299 2.89243 0.285299 2.34549 0.888242L0.860933 2.5248C-0.623627 4.24749 1.0172 8.81263 4.68953 12.861C8.36186 16.9093 12.503 18.8043 14.0657 17.0816L15.5503 15.445C16.0972 14.7559 16.0972 13.7223 15.5503 13.1194Z" fill="white"/>
</svg>
